<?xml version="1.0" standalone="no"?>
<!DOCTYPE svg PUBLIC "-//W3C//DTD SVG 1.1//EN" "http://www.w3.org/Graphics/SVG/1.1/DTD/svg11.dtd" >
<svg xmlns="http://www.w3.org/2000/svg" xmlns:xlink="http://www.w3.org/1999/xlink" version="1.1">
<metadata>
Created by FontForge 20230101 at Sun Jan 17 16:09:21 1999
 By Glenn Lewis
http://members.aol.com/vroomfonde/ttf/ - Colophon Copyright (c) 1999 Tom 7. Use freely, but don't modify, misrepresent, or sell! ImightbeTM@aol.com - 339 Still Hill Rd - Hamden CT 06518.1830 - Enjoy this DBZ Font (Morning Stars do not work in the evening
</metadata>
<defs>
<font id="ColophonDBZ" horiz-adv-x="466" >
  <font-face 
    font-family="Colophon DBZ"
    font-weight="400"
    font-stretch="normal"
    units-per-em="1000"
    panose-1="0 0 4 0 0 0 0 0 0 0"
    ascent="800"
    descent="-200"
    x-height="306"
    cap-height="588"
    bbox="-123.154 -313 875 832"
    underline-thickness="20"
    underline-position="-143"
    unicode-range="U+0020-2026"
  />
<missing-glyph horiz-adv-x="500" 
d="M63 0v800h375v-800h-375zM125 63h250v675h-250v-675z" />
    <glyph glyph-name=".notdef" horiz-adv-x="500" 
d="M63 0v800h375v-800h-375zM125 63h250v675h-250v-675z" />
    <glyph glyph-name=".null" horiz-adv-x="0" 
 />
    <glyph glyph-name="nonmarkingreturn" horiz-adv-x="732" 
 />
    <glyph glyph-name="space" unicode=" " horiz-adv-x="732" 
 />
    <glyph glyph-name="exclam" unicode="!" horiz-adv-x="247" 
d="M216 297q-8 -41 -106 -41q-8 0 -11.5 4t-10.5 4q0 24 4 115.5t4 143.5q0 13 -7.5 46t-7.5 39q0 30 21 55q25 27 61 27q9 0 19 -3.5t16 -3.5q0 -10 7 -38t7 -36q8 -137 8 -226q0 -63 -4 -86zM156 35q-11 -18 -74 -18q-35 0 -40 9.5t-3 33.5q1 22 3 24q21 21 110 34
q16 -64 4 -83z" />
    <glyph glyph-name="quotedbl" unicode="&#x22;" horiz-adv-x="484" 
d="M447 599q0 -43 -42 -74q-37 -28 -93 -38l-30 9q39 57 39 94q0 12 -9 42t-8 51q66 28 97 28q14 0 31 -54q15 -46 15 -58zM223 605q0 -56 -51 -94q-44 -33 -112 -43q-8 0 -8 16q0 6 20.5 27t23 33.5t2.5 28.5q0 5 -11 96q51 27 93 35h29q14 -72 14 -99z" />
    <glyph glyph-name="numbersign" unicode="#" horiz-adv-x="593" 
d="M509 363q-13 -7 -65 -24q9 -113 -81 -113h-18.5h-16.5q-4 12 -3 34q2 43 2 40q5 5 -10 5q-23 0 -81 -32q-2 -82 -11 -123q-58 -36 -89 -36q-13 0 -25 16q8 34 6 110h-40q7 12 46 37v68q-26 -6 -85 -19q8 14 34 26q23 9 45 19q7 21 9 57q2 42 6 57q81 30 86 30
q9 0 14.5 -3.5t7.5 -3.5v-87q-4 -5 11 -5q33 0 74 25q15 55 17 116q34 12 108 30q0 -13 -3 -47t-3 -47q0 -24 8 -24q-1 0 39 4q30 4 46 0q-9 -6 -64 -25q-35 -12 -35 -35q0 -49 14 -49q9 0 47.5 14t55.5 16q-14 -11 -46 -31zM326 339v70q-33 -5 -79 -23q-9 -52 -4 -81
q28 10 83 34z" />
    <glyph glyph-name="dollar" unicode="$" horiz-adv-x="499" 
d="M478 243q0 -70 -75 -118q-66 -42 -127 -36q2 -37 -6 -62h-91q-1 23 5 52q-37 13 -74 25q-49 19 -45 66q42 27 59 27q7 0 25 -24q25 -32 31 -38q14 26 18 111q5 132 6 143q-175 76 -175 127q0 112 189 160q1 28 5 82q39 18 83 26q6 -14 6 -48v-55q46 -7 62 -11
q30 -9 57 -31v-19q-11 0 -40 -3t-35 -3q-14 0 -36 21q-14 -10 -14 -32q0 -9 2.5 -27t2.5 -26q-2 -66 -9 -134q15 -6 45 -20q70 -37 98 -68q33 -35 33 -85zM213 640q-35 -13 -60.5 -44.5t-25.5 -58.5q0 -15 28 -46t49 -31q9 0 9 180zM380 240q0 69 -82 101q-16 -163 -16 -158
v-63h18q80 43 80 120z" />
    <glyph glyph-name="percent" unicode="%" horiz-adv-x="654" 
d="M625 217q0 -62 -82 -90q-54 -19 -119 -19q-21 0 -41.5 11.5t-20.5 28.5q0 43 101 101q89 50 116 50q22 0 35 -32q11 -25 11 -50zM519 175l-1 25l-7 33q-14 -7 -23.5 -28.5t-6.5 -36.5zM585 559q0 -16 -148 -210q-124 -163 -234 -299q-16 -20 -94 -33h-23q30 54 221 302
q213 276 249 276q12 0 20.5 -11.5t8.5 -24.5zM296 411q0 -45 -11 -52q-37 -27 -112 -52q-63 -21 -81 -21q-24 0 -41.5 16.5t-17.5 39.5q0 66 95 115q77 39 128 39q24 0 34 -40q6 -23 6 -45zM195 393l-12 37q-38 -24 -38 -52q0 -10 3.5 -20t3.5 -12l40 12z" />
    <glyph glyph-name="ampersand" unicode="&#x26;" horiz-adv-x="570" 
d="M551 325q-17 -43 -58 -78q-18 -16 -73 -53q41 -61 105 -110q-5 -13 -50.5 -38t-54.5 -25q-7 0 -50.5 49t-51.5 49q5 0 -83 -36t-121 -36q-31 0 -56.5 28.5t-25.5 57.5q0 30 66 106t66 84q0 6 -22.5 47.5t-28.5 67.5q-2 7 -2 47q0 70 15 92.5t60 48.5q40 23 79 37
q27 9 47 9q41 0 74.5 -29t33.5 -70q0 -58 -47 -123q-37 -50 -84 -84q3 -24 96 -128q38 28 76 55q56 37 90 32zM322 534q-7 43 -55 78h-30q-21 -84 -21 -88q0 -11 14.5 -48t27.5 -60q9 2 37 40q32 45 27 78zM289 162l-96 115q-19 -23 -37.5 -61t-18.5 -50q0 -24 18.5 -38.5
t47.5 -14.5q55 0 86 49z" />
    <glyph glyph-name="quotesingle" unicode="'" horiz-adv-x="264" 
d="M228 593q0 -30 -59 -64q-55 -32 -83 -31h-28q3 11 18 35.5t19 34.5q2 7 2 20q0 44 -19 63v23q104 21 101 21q16 0 34 -48q15 -40 15 -54z" />
    <glyph glyph-name="parenleft" unicode="(" horiz-adv-x="377" 
d="M335 739q-74 -38 -135 -162q-56 -117 -56 -207q0 -88 48 -170q51 -85 142 -144q0 -9 -12 -23t-25 -19q-22 -9 -61 -9q-49 0 -119 92q-53 70 -63 101q-22 64 -22 136q0 127 62 244q74 138 198 171z" />
    <glyph glyph-name="parenright" unicode=")" horiz-adv-x="357" 
d="M333 377q0 -112 -80 -212q-86 -108 -222 -142q1 2 56 58q44 44 67 77q61 90 61 186q0 100 -33.5 194.5t-91.5 144.5q37 43 95 43q81 0 122 -166q26 -105 26 -183z" />
    <glyph glyph-name="asterisk" unicode="*" horiz-adv-x="440" 
d="M408 664q-15 -10 -79 -42q9 -25 26 -79q-62 -24 -110 -34q-2 6 -19 39q-21 -10 -64 -23q-48 -13 -69 -22v23q43 51 59 90q-4 2 -8 2q-6 0 -20.5 -5.5t-21.5 -5.5q-14 0 -30 16q6 17 51.5 28.5t48.5 15.5q9 17 27 42q14 12 43 19l46 10q0 -9 3.5 -34t3.5 -39
q45 -11 113 -1z" />
    <glyph glyph-name="plus" unicode="+" horiz-adv-x="423" 
d="M397 346q-35 0 -41.5 -6.5t-11.5 -6.5q-11 -2 -28 -2q-33 -1 -38 1q-7 -23 -12 -72q-6 -56 -9 -72q-4 -1 -31 -16q-21 -11 -29 -11h-41q-12 12 -12 41q0 17 5.5 57.5t5.5 61.5q-9 7 -27 7q-12 0 -40.5 -4.5t-43.5 -4.5q-12 0 -21 2q52 31 126 45q7 15 7 46q0 7 -1 20v21
q0 49 16 73q24 9 73 29q21 -17 27 -59q1 -12 2 -68q0 -22 2 -33q10 -25 122 -25v-24z" />
    <glyph glyph-name="comma" unicode="," horiz-adv-x="241" 
d="M193 124q6 -97 -9 -141q-5 -15 -64 -47q-62 -34 -88 -33h-29q74 49 74 112q0 7 -1 21t-1 22q0 29 9 51q8 3 42 21q29 16 38 16q18 0 29 -22z" />
    <glyph glyph-name="hyphen" unicode="-" horiz-adv-x="553" 
d="M525 374q-77 -44 -99 -44q-8 0 -121.5 10t-121.5 10q-2 0 -45.5 -3.5t-70.5 -3.5q-22 0 -35 3q18 23 127 39q78 11 113 11q6 0 51.5 -8t66.5 -10q45 1 135 -4z" />
    <glyph glyph-name="hyphen" unicode="&#x2010;" horiz-adv-x="553" 
d="M525 374q-77 -44 -99 -44q-8 0 -121.5 10t-121.5 10q-2 0 -45.5 -3.5t-70.5 -3.5q-22 0 -35 3q18 23 127 39q78 11 113 11q6 0 51.5 -8t66.5 -10q45 1 135 -4z" />
    <glyph glyph-name="hyphen" unicode="&#x2010;" horiz-adv-x="553" 
d="M525 374q-77 -44 -99 -44q-8 0 -121.5 10t-121.5 10q-2 0 -45.5 -3.5t-70.5 -3.5q-22 0 -35 3q18 23 127 39q78 11 113 11q6 0 51.5 -8t66.5 -10q45 1 135 -4z" />
    <glyph glyph-name="period" unicode="." horiz-adv-x="241" 
d="M162 109q0 -41 -23 -55q-6 -4 -79 -30h-23v68q0 16 42 37q39 19 60 19q23 0 23 -39z" />
    <glyph glyph-name="slash" unicode="/" horiz-adv-x="486" 
d="M279 341q-7 -13 -89 -179q-48 -97 -69 -127q-38 -22 -74 -22q-9 0 -17.5 3.5t-14.5 3.5q45 87 181 368q116 239 163 319q15 27 85 27q12 0 30 -10q-37 -93 -92 -193q-51 -95 -103 -190z" />
    <glyph glyph-name="zero" unicode="0" horiz-adv-x="518" 
d="M504 285q0 -104 -98 -196q-87 -81 -154 -81h-66q-67 0 -121 93q-47 81 -47 151q0 35 18 93t39 92q25 40 106 62q88 25 93 25q96 0 163 -72t67 -167zM379 269q0 43 -31 116q-41 93 -94 93q-44 0 -85 -96q-33 -78 -33 -110q0 -47 35 -125q42 -93 88 -93q36 0 79 84
q41 80 41 131z" />
    <glyph glyph-name="one" unicode="1" horiz-adv-x="463" 
d="M440 90q-18 -22 -79 -40q-56 -17 -92 -17q-125 0 -177 -4q55 54 159 56q0 120 -14 377q5 5 -10 5q-110 -98 -159 -97h-35q26 28 106.5 95t98.5 84q7 8 35.5 19t39.5 11h28q17 -195 28 -462q9 -6 32 -13q27 -8 39 -14z" />
    <glyph glyph-name="two" unicode="2" horiz-adv-x="414" 
d="M383 90q-16 -13 -51 -31.5t-45 -17.5h-246v22q0 -1 55 58q63 69 101 126q54 82 54 139q0 40 -28 74t-70 34q-8 0 -21 -17q-18 -22 -22 -26q-15 -13 -48 -21q-44 -11 -53 -14q6 46 97 91q81 40 135 40q40 0 81 -30q17 -12 22 -16q7 -7 13.5 -19.5t6.5 -51.5q1 -41 -23 -98
q-23 -52 -79 -118l-96 -104q24 -11 72 -13h76q42 0 69 -7z" />
    <glyph glyph-name="three" unicode="3" 
d="M436 263q0 -106 -104 -168q-82 -49 -175 -49q-84 0 -122 29q7 12 48 35q38 22 47 22q1 0 59.5 -16.5t62.5 -16.5q33 0 56 62q16 43 16 63q0 105 -144 120q39 37 78 73q47 49 47 93q0 39 -52 70q-42 25 -67 25q-7 0 -54 -13q-53 -14 -77 -18q29 25 86 50q77 34 144 34
q43 0 87 -35.5t44 -79.5q0 -82 -85 -139q17 -10 51 -32q54 -38 54 -109z" />
    <glyph glyph-name="four" unicode="4" horiz-adv-x="475" 
d="M451 81q0 -27 -55 -50q-42 -17 -69 -18q0 -4 -3 48q-4 67 -4 194l-6 9q-24 0 -82 -7.5t-64 -7.5q-72 0 -125 34q28 53 76 167q46 106 51 115l82 6q8 -1 8 -16q0 -10 -37 -91l-62 -132q25 -17 51 -22q15 -2 55 -2q60 0 60 67q0 20 -6.5 63t-6.5 61q0 10 1 18q64 34 81 34
h28q13 -68 18 -196q0 -20 2 -65q1 -54 5 -177q2 -41 2 -32z" />
    <glyph glyph-name="five" unicode="5" horiz-adv-x="460" 
d="M450 191q0 -72 -118 -125q-96 -43 -168 -43q-71 0 -128 35v23q86 34 101 34q6 0 22 -17.5t25 -20.5q29 -8 62 -8q47 0 70 38q16 26 16 58q0 72 -45 111q-41 37 -107 37q-65 0 -123 -20q-4 18 -4 38q0 24 8 71t8 70q-27 10 -59 -1v25q86 26 123 33q75 14 199 14
q51 0 85 -9q-8 -14 -53 -33q-41 -17 -56 -17q-7 0 -37 3t-38 3q-43 0 -55 -9t-12 -36v-22q1 -15 1 -27v-27q12 -3 30 -3q13 0 42 3t43 3q70 0 119 -53t49 -128z" />
    <glyph glyph-name="six" unicode="6" horiz-adv-x="429" 
d="M408 210q0 -87 -97 -143q-79 -45 -157 -45q-59 0 -100 41t-41 101q0 105 101 219q111 125 248 130q-59 -29 -118 -91.5t-87 -124.5q21 0 67 7.5t52 7.5q57 0 94.5 -27.5t37.5 -74.5zM309 203q0 23 -18 47q-22 29 -54 29q-9 0 -98 -34q-2 -13 -2 -27q0 -55 23 -96t61 -41
q9 0 18 3q34 9 55 57q15 36 15 62z" />
    <glyph glyph-name="seven" unicode="7" horiz-adv-x="443" 
d="M423 483q0 -10 -37 -69q-30 -48 -61 -96q0 -4 26 -2q40 2 35 2q-5 -8 -33 -18.5t-36 -18.5q-28 -26 -56 -91q-33 -79 -40 -90q-1 -1 -8 -21q-5 -13 -15 -18q-16 -6 -50.5 -13.5t-50.5 -14.5q-9 1 -9 16q0 9 37 83q51 102 62 126q-11 2 -24 2q-16 0 -49 -4t-52 -4
q20 17 71 22.5t68 22.5q45 45 103 175q-47 13 -141 14q-59 0 -127 -11q5 22 37 34q2 1 50 12q76 19 126 19q-15 0 174 -21v-36z" />
    <glyph glyph-name="eight" unicode="8" horiz-adv-x="504" 
d="M472 197q0 -93 -123 -139q-81 -29 -163 -29q-46 0 -91 35q-50 38 -50 87q0 37 21 56l64 48q-66 29 -86 55q-19 23 -19 71q0 79 98 128q78 40 162 40q76 0 131.5 -40.5t55.5 -104.5q0 -30 -32 -69q-12 -14 -53 -53q19 -8 57 -26q28 -13 28 -59zM347 394q0 41 -38.5 78
t-79.5 37q-34 0 -59 -47q-20 -38 -20 -65q0 -40 35 -70q32 -28 70 -28q34 0 61 24q31 27 31 71zM347 170q0 83 -105 83q-20 0 -49.5 -31t-29.5 -52q0 -33 35 -61t67 -28q28 0 55 29.5t27 59.5z" />
    <glyph glyph-name="nine" unicode="9" horiz-adv-x="458" 
d="M425 419q0 -4 -8 -91q-8 -92 -10 -130q3 -50 2 -146q-49 -28 -80 -27h-41v217q-26 -3 -71 -3q-32 0 -75 1t-42 1q-36 0 -68 48q-28 42 -28 74q0 71 92 124q76 44 135 44q-9 0 68 -10q4 -9 8 -19.5t13 -10.5q8 0 28.5 10t28.5 9h41q0 -14 3.5 -49t3.5 -42zM300 484
q-15 0 -41.5 7t-33.5 7q-46 0 -73 -37q-23 -31 -23 -75q0 -54 44 -82q35 -23 86 -23h40q1 68 1 203z" />
    <glyph glyph-name="colon" unicode=":" horiz-adv-x="241" 
d="M168 386q0 -44 -50 -62q-33 -10 -65 -20q-10 9 -10 33q0 31 14 43q8 7 36 15t45 20h22q8 -8 8 -29zM182 139q0 -40 -23 -55q-6 -4 -79 -30h-23v68q0 16 42 37q39 20 60 20q23 0 23 -40z" />
    <glyph glyph-name="semicolon" unicode=";" horiz-adv-x="237" 
d="M203 265q0 -21 -41 -46q-37 -23 -55 -23h-29v22q0 32 19 47q10 7 76 35h23q0 -1 3.5 -14.5t3.5 -20.5zM196 28q0 -47 -79 -93q-60 -35 -97 -42q-1 4 -1 8q0 13 26 36t31 39q3 12 0 49q-3 44 -2 57q76 41 90 41q28 0 32 -95z" />
    <glyph glyph-name="less" unicode="&#x3c;" horiz-adv-x="472" 
d="M439 43q-15 -2 -57 -12q-36 -9 -44 -9q-10 0 -41 26q-24 19 -47 38q-4 3 -128 74q-90 51 -90 76t130 116q126 88 143 87l82 10q-79 -64 -224 -194q8 -24 117 -83q123 -66 159 -106v-23z" />
    <glyph glyph-name="equal" unicode="=" horiz-adv-x="582" 
d="M565 406q-2 -12 -41 -31.5t-60 -19.5q2 0 -46.5 2.5t-85.5 2.5q-53 0 -85 -5q-109 -18 -140 -18t-54 7q5 9 19 21.5t23 13.5q321 35 300 35q113 0 170 -8zM526 254q-9 -16 -52 -35q-38 -17 -49 -17q-6 0 -37 4t-39 4q-13 0 -95 -11q-30 -5 -112 -24q-72 -17 -80 -16h-29
q38 41 75 49q80 17 160 35q99 20 180 20q44 0 78 -9z" />
    <glyph glyph-name="greater" unicode="&#x3e;" horiz-adv-x="481" 
d="M449 271q0 -9 -37 -47q-27 -29 -55 -57q-110 -119 -125 -119q5 0 -92 12q47 44 109 111q68 74 68 84q0 15 -66 66q-61 46 -90 60q-37 13 -107 38q74 30 99 30q33 0 94 -24q54 -22 75 -38q127 -99 127 -116z" />
    <glyph glyph-name="question" unicode="?" horiz-adv-x="472" 
d="M435 500q0 -32 -21.5 -66t-52.5 -44q-15 -4 -70 -33q-3 -22 -7 -44q-5 -30 -26 -30h-46q-22 0 -46 23q16 39 55 62q31 18 61 35q28 24 28 71q0 59 -23 84q-21 21 -69 21q-41 0 -69 -16q-33 -19 -33 -53q0 -24 17 -53q-32 -22 -76 -22q-20 0 -32 21q-11 18 -11 38
q0 60 127 101q94 30 150 30q144 0 144 -125zM264 55q-31 -35 -89 -34h-28v44q68 34 82 34h35v-44z" />
    <glyph glyph-name="at" unicode="@" horiz-adv-x="749" 
d="M713 356q0 -57 -23 -81q-31 -33 -150 -79q-5 -1 -44 -1q-48 0 -64 8q-6 3 -21 22q-13 16 -20 16q-9 0 -58 -20t-57 -20q-52 0 -114 25q73 -124 311 -124q37 0 44 1q24 4 87 25h23q-9 -18 -84 -51q-84 -37 -150 -39q-124 -5 -219 33q-145 59 -145 206q0 143 146 245
q126 87 249 87q124 0 202 -61q87 -67 87 -192zM608 352q0 16 -8 48q-10 36 -22 54q-16 25 -32 49q-20 27 -47 40q-34 15 -75 13q-107 -5 -155 -32q-75 -43 -120 -171q32 45 95 81.5t111 36.5q33 0 51.5 -13t20.5 -13q8 0 17 6.5t16 6.5q18 0 26 -53q13 -79 20 -98
q20 -53 66 -53q17 0 28 41q8 32 8 57zM384 316q0 42 -23 72t-62 30q-19 0 -36 -21t-17 -45q0 -79 102 -79q10 0 23 15t13 28z" />
    <glyph glyph-name="A" unicode="A" horiz-adv-x="749" 
d="M735 92q-105 -16 -296 -27q22 15 73 28q-23 48 -65 139q-145 9 -168 9q-36 -37 -58 -154q33 -10 66 -14q-48 -28 -146 -34h-123q28 12 77 36q39 115 77 230q54 151 105 234q15 26 120 43q72 -93 131 -224l86 -192q7 -19 14 -39q10 -25 21 -25q36 0 86 -10zM432 281
l-38 86q-25 51 -45 64q-41 -95 -54 -150h137z" />
    <glyph glyph-name="B" unicode="B" horiz-adv-x="610" 
d="M583 191q0 -92 -147 -132q-84 -23 -179 -23q-7 0 -75 3.5t-76 3.5q-1 0 -21 3q-13 1 -20 -3q-1 20 10 30q9 7 19 14q8 70 8 216q0 3 1.5 32.5t1.5 51.5q0 103 -26 103q-5 0 -29.5 -2t-39.5 -2q28 15 82.5 28.5t87.5 13.5q93 0 115 -5q109 -24 128 -31q120 -40 120 -100
q0 -29 -60 -52q-36 -12 -71 -24q19 -10 76 -24q47 -11 67 -27q28 -24 28 -74zM431 382q0 22 -49 72q-6 6 -60 23q-58 20 -79 19h-22l1 -189q50 12 88 12q121 37 121 63zM464 171q0 52 -56 78q-40 19 -110 25q-38 2 -76 5q0 -47 1 -93q-1 -62 -15 -88q79 -22 141 -22
q37 0 76 32t39 63z" />
    <glyph glyph-name="C" unicode="C" horiz-adv-x="484" 
d="M449 116q0 1 -16 -30q-51 -19 -121 -34q-73 -15 -116 -15q-76 0 -126 54q-48 51 -48 121q0 121 68 192q72 74 202 74q42 0 87 -27q54 -32 57 -84h-48q-8 -1 -74.5 35t-74.5 36q-45 0 -76 -96q-22 -70 -22 -104q0 -63 39 -110q43 -51 109 -51q5 0 53.5 19.5t58.5 19.5h48z
" />
    <glyph glyph-name="D" unicode="D" horiz-adv-x="507" 
d="M489 252q0 -118 -104 -183q-74 -47 -154 -49q-2 0 -69 -4q-62 -4 -70 -3h-88q4 8 44.5 19.5t43.5 23.5q7 22 7 173q1 177 8 254v18q-26 9 -105 -1q9 21 60 29q39 4 77 8q8 1 31.5 9.5t32.5 8.5q8 0 18.5 -8.5t18.5 -9.5q249 -42 249 -285zM371 248q0 43 -18 112
q-22 88 -53 100q-1 1 -23 13q-16 9 -25 9h-31q1 -10 -14 -427l55 -3q8 0 68 35q18 10 31 77q10 54 10 84z" />
    <glyph glyph-name="E" unicode="E" horiz-adv-x="565" 
d="M554 80q-20 -23 -117 -31q-81 -4 -161 -9q-77 -12 -246 -30v25q66 0 72 33q3 14 3 51q0 79 -10 209q-9 127 -15.5 138t-22.5 13h-27v24q124 21 239 21q45 0 168 -15q-10 -11 -56 -22q-37 -9 -46 -9q4 0 -29.5 3.5t-100.5 3.5q-5 -5 -5 -17q0 -23 5 -79q6 -72 14 -95
q71 -1 153 -9q-31 -34 -159 -30q3 -84 0 -188q286 13 341 13z" />
    <glyph glyph-name="F" unicode="F" horiz-adv-x="570" 
d="M552 531q-7 -8 -32 -18q-32 -13 -63 -13h-28q-21 1 -29 1q-7 0 -62 -4q-60 -4 -85 -5q-17 -24 -18 -53v-128q4 -2 11 -2q8 0 28 4t31 5q34 3 93 0v-25q-63 -11 -152 -16q-17 -17 -25 -118q-9 -116 -11 -123q-9 0 -32 -4t-39 -4q-23 0 -46 8v28q0 7 8 34t9 40
q7 139 20 338q-2 2 -6 2q-5 0 -21.5 -5t-22.5 -4h-62q41 32 95 42q48 9 136 20q80 9 95 9q107 0 208 -9z" />
    <glyph glyph-name="G" unicode="G" horiz-adv-x="541" 
d="M512 368q-27 -16 -79 -16q-36 0 -82.5 46t-85.5 46q-50 0 -93 -81q-35 -67 -35 -106q0 -57 31 -101q38 -54 104 -54q25 0 53.5 28.5t55.5 29.5q0 2 3 8.5t3 15.5q0 28 -80 28q-13 0 -49 -1q-32 -1 -49 -1q81 32 268 30q7 -4 21 -14q2 -101 -7 -189q-12 1 -116 -1v47
q-186 -20 -176 -20q-84 0 -132.5 47.5t-48.5 126.5q0 125 105 193q84 54 191 54q53 0 108.5 -33t89.5 -83z" />
    <glyph glyph-name="H" unicode="H" horiz-adv-x="428" 
d="M399 294q0 -10 -4 -14t-8 -7q-4 -81 -14 -211q-35 -9 -103 -20q-14 7 -14 37q0 20 8 63t8 54v56h-62q-42 0 -48 -22q0 -74 -6 -162q-14 -30 -61 -30q-19 -8 -35 -8q-14 0 -20.5 7.5t-5.5 29.5q2 34 2 37q-6 74 -7 207q-2 127 2 159q1 10 31 20q27 8 43 8h34
q6 -30 26 -228q71 0 121 29q0 2 -1.5 44.5t-1.5 69.5q0 39 3 52q15 20 78 20q15 0 25 -8q10 -56 1 -149q9 -22 9 -34z" />
    <glyph glyph-name="I" unicode="I" horiz-adv-x="432" 
d="M386 57q-14 -31 -193 -47q-17 -11 -27 -11q-7 0 -13.5 10t-16.5 10q-4 0 -49 -5.5t-76 -5.5q24 25 62 29l54 6q22 8 22 45q0 26 -6 193q-7 190 -12 236q-24 2 -99 2q69 40 109.5 47.5t118.5 15.5q66 6 84 6q30 0 42 -31q-10 0 -37 -7.5t-34 -7.5q6 0 -30 -2q-21 -1 -31 3
q0 -303 13 -479q67 3 119 -7z" />
    <glyph glyph-name="J" unicode="J" horiz-adv-x="463" 
d="M275 535q1 -10 9 -10h51q46 -1 72 -1q0 -1 14 -16q-39 -20 -117 -47q-2 -17 5 -88q8 -82 8 -127q0 -95 -30 -137q-10 -15 -68 -40q-67 -28 -116 -28q-20 0 -50 14q-40 18 -40 46q0 6 2 11q10 18 49 26l60 14q6 -17 17 -33q13 -19 25 -19q32 0 32 92q0 19 -7 129
q-9 124 -15 154q-3 4 -28 4q-5 0 -48.5 -2t-65.5 -2q6 8 72.5 25t71.5 25l36.5 15t50.5 15q5 0 6.5 -1t3.5 -19z" />
    <glyph glyph-name="K" unicode="K" horiz-adv-x="492" 
d="M467 468q-32 -36 -96 -91q-108 -93 -115 -100q30 -21 105 -99q69 -70 101 -86q-4 -8 -13 -23q-22 -29 -36 -29q-8 0 -26.5 -3t-26.5 -3q-6 0 -60 71q-59 78 -91 98q0 -81 4 -119q1 -11 26 -11q-3 0 20 2q11 1 19 -3q0 -7 -21 -23q-30 -10 -85 -22.5t-68 -12.5
q3 0 -5.5 10t-37.5 10q-31 0 -38 -6q2 18 25 29q20 9 47 9l3 412q-17 9 -73 0q27 18 68 33q36 13 51 13q7 0 23 2.5t24 2.5q2 0 80 20l30 -9q-7 -9 -33 -16q-29 -7 -41 -17q-6 -4 -17 -16q-5 -8 -3 -19q2 -24 2 -22q0 -75 12 -111q83 55 117 93q14 18 27 36q6 7 42 7
q52 0 60 -7z" />
    <glyph glyph-name="L" unicode="L" horiz-adv-x="547" 
d="M518 90q-19 -17 -68 -26q-7 -2 -27 0q-24 3 -29 3h-50q-41 -1 -50 -1q-92 0 -159.5 -22.5t-81.5 -22.5h-28q2 20 42 35q32 11 64 21q16 19 25 327v135q-21 -6 -73 -6q13 16 100 38q80 20 108 19h41q0 -5 7 -17q-15 -6 -30 -13q-20 -8 -36 -8q0 -38 -4 -202t-4 -251
q83 10 134 10q42 0 73 -8q36 -10 46 -11z" />
    <glyph glyph-name="M" unicode="M" horiz-adv-x="818" 
d="M808 125q-4 -16 -82 -31q-70 -14 -115 -14q-93 0 -138 16q26 7 53 13q39 10 39 34q0 41 -8 143q-8 114 -16 121q-22 -23 -45 -47q-33 -32 -57 -48t-85 -16q-25 0 -64 39q-35 36 -70 73q-4 -40 -1 -156q3 -167 3 -166q23 1 32 -4q6 -3 15 -20q-67 -16 -249 -47q4 22 35 31
q37 11 50 26l-1 397q-10 11 -26 11q-8 0 -22 -2.5t-24 -2.5q8 23 71 38q50 13 90 13q32 0 82 -38q28 -21 77 -69q39 -38 45 -38t44 42q46 50 79 73q23 17 65 27q20 5 62 4q76 -3 95 -3q-44 -30 -93 -30v-25q1 -13 19 -143q20 -139 29 -188q55 -14 111 -13z" />
    <glyph glyph-name="N" unicode="N" horiz-adv-x="720" 
d="M700 451q0 -6 -9 -12t-20 -6q-5 0 -25.5 3t-31.5 3q-26 0 -31 -13q0 -28 -7 -155t-7 -130t-1 -9t-1 -9q0 -13 19 -13q7 0 35 -8.5t42 -8.5l-21 -17q-34 0 -83 -4t-78 -4q-2 0 -31 1h-37t-71 96q-72 111 -103 142q-10 -5 -10 -93v-106q-1 -12 -2 -20q14 -12 48 -12.5
t51 -15.5q-114 -25 -162 -25q8 0 -53 -6q-23 1 -70 -4q-15 0 -24 9q8 19 37 21q45 4 55 8q-2 7 -2 17q0 13 4.5 34.5t4.5 26.5l-2 297q-25 -2 -52 7q8 21 185 21q6 0 86 -121q87 -134 127 -170q4 2 4 38q1 24 0 69q-1 43 -1 47v102q-13 0 -43 4t-43 4q103 34 179 34
q108 0 144 -22z" />
    <glyph glyph-name="O" unicode="O" horiz-adv-x="547" 
d="M520 266q0 -101 -107 -173q-91 -61 -177 -61q-79 0 -144 90q-59 82 -59 157q0 111 120 177q87 48 164 48q65 0 48 1q32 -2 50 -18q45 -41 75 -105.5t30 -115.5zM402 259q0 112 -55 168q-42 44 -63 44q-34 0 -83 -70.5t-49 -111.5q0 -43 20 -96q28 -71 75 -98l20 -14
q16 -10 25 -10q37 0 76 83q34 72 34 105z" />
    <glyph glyph-name="P" unicode="P" horiz-adv-x="498" 
d="M466 444q0 -51 -117 -101l-140 -48q0 -16 5.5 -104.5t5.5 -110.5q10 0 46 -1h66q-17 -19 -54.5 -26t-73.5 -13q-17 -6 -34 -11q-23 -8 -35 -8q-57 0 -75 -5q16 22 49 42q-23 250 -18 428l-10 11q-10 -8 -30 -12q-28 -5 -32 -6q41 38 123 60q79 21 163 17q161 -8 161 -112
zM348 418q0 31 -40 58t-76 27h-38q5 -72 11 -171l33 7q23 0 62 21q48 26 48 58z" />
    <glyph glyph-name="Q" unicode="Q" horiz-adv-x="722" 
d="M713 138q-19 -31 -73 -53q-49 -19 -91 -19q-17 0 -43.5 5t-38.5 5q-7 0 -13 -1q-111 -54 -240 -54q-70 0 -133 87q-58 79 -58 147q0 120 124 188q98 53 213 53q76 0 132 -32q30 -17 58 -49q21 -24 37 -55t17 -45q0 -46 -25.5 -106t-55.5 -85q26 -17 53 -17q37 0 74 9
q14 3 39 13q21 9 24 9zM516 302q0 46 -30 94q-26 42 -62 67q-19 13 -74 13q-83 0 -148 -65q-60 -60 -60 -120q0 -70 53.5 -147t103.5 -77q8 0 18 3.5t18 3.5q24 0 64 25q-51 55 -54 58q-35 29 -92 45q45 23 79 23q37 0 71 -18l58 -34q56 58 55 129z" />
    <glyph glyph-name="R" unicode="R" horiz-adv-x="535" 
d="M513 427q0 -43 -85 -88q-53 -23 -106 -47q26 -12 84 -84q63 -80 86 -97q-10 -8 -33 -23q-39 -22 -65 -22q-7 0 -63 76q-60 80 -85 95h-17q0 -9 -3.5 -60t-3.5 -59q0 -24 3 -27q6 -6 43 -15l5 -12q-26 -12 -72 -12q-8 0 -29.5 -4t-29.5 -4q2 0 -36.5 6t-61.5 6q0 4 -1 11
q21 3 49 12q18 18 19 55q0 126 8 347q-12 7 -32 7q-27 0 -67 -13q-6 10 -6 17q3 0 130 30q100 23 162 23q53 0 120 -27q87 -36 87 -91zM395 407q0 28 -53 62q-47 30 -70 30h-41q9 -54 0 -196q164 41 164 104z" />
    <glyph glyph-name="S" unicode="S" horiz-adv-x="544" 
d="M478 459q-41 -22 -92 -37q-46 -13 -93 -26l-5 14q8 6 14 14t17 12q-5 17 -27 32.5t-46 15.5q-22 0 -61 -28q-6 -5 -12 -21t-6 -27q0 -35 70 -66q65 -28 130 -57q70 -41 70 -101q0 -75 -127 -118q-87 -30 -153 -30q-36 0 -47 24q0 2 -7 45q-4 24 -25 24h-15q-7 1 -17 1
q33 26 167 52q-13 -17 -33 -37q25 -43 28 -46q14 -16 38 -16q30 0 53 32q19 29 19 53t-4 34q-5 14 -27 30q-15 11 -51 26q-50 21 -61 26q-36 14 -72 27q-54 27 -54 71q0 64 74 115q65 46 123 46q30 0 50 -3q82 -12 120 -46q1 -1 9 -18q5 -12 15 -12q8 0 37 6q1 -5 1 -11z
" />
    <glyph glyph-name="T" unicode="T" horiz-adv-x="576" 
d="M556 573q0 -18 -8 -23q-79 -22 -97 -22h-41q-36 1 -58 1q0 18 -4 -311v-118q5 -3 24.5 -4t27.5 -4q-37 -19 -116 -38q-65 -16 -131 -31q-9 9 -16 9q30 14 88 49q16 257 16 342q0 2 -1.5 25t-1.5 39q0 24 3 41h-68q-17 0 -156 -17q91 39 173 47q29 3 366 15z" />
    <glyph glyph-name="U" unicode="U" horiz-adv-x="642" 
d="M613 503q2 0 -28 -24q-2 -14 -10 -108q-6 -79 -15 -101q-96 -239 -303 -239q-176 0 -176 283q0 65 10 139h-80q45 20 128 48q34 2 114 8q8 -12 8 -24q-44 -2 -56 -90q-4 -29 -4 -117q0 -15 -1.5 -30.5t-1.5 -20.5q0 -26 31 -93q9 -19 41 -36q29 -15 44 -15q20 0 44 25
q21 22 32.5 46.5t29.5 84.5q26 154 26 202q0 8 -3 9.5t-3 8.5h-86q19 11 108 32q86 19 106 19z" />
    <glyph glyph-name="V" unicode="V" horiz-adv-x="694" 
d="M680 511q-26 -11 -65 -37q-45 -115 -89 -231q-88 -219 -126 -219h-51q-18 0 -42 28q-34 39 -121 225q-80 171 -87 171q-5 0 -34 -2t-48 -2q20 18 98.5 39.5t133.5 21.5q30 0 44 -7q-21 -8 -59 -27q17 -23 67 -165q49 -138 77 -170q22 16 58 152q42 161 47 173l-95 5
q0 5 8 12.5t18 9.5q17 4 146 15q44 3 120 8z" />
    <glyph glyph-name="W" unicode="W" horiz-adv-x="890" 
d="M841 528q-23 -32 -71 -216q-48 -187 -85 -241q15 -16 35 -16q8 0 37 -5q-38 -11 -90 -16q-72 -6 -145 -12q-16 50 -84 117q-4 -4 -62 -51q-40 -33 -40 -49q0 -7 8 -12q-13 -7 -34 -9q-16 -2 -41 -1q-39 1 -38 1h-76q-18 0 -43 7q24 10 73 33q-8 78 -48 255
q-43 191 -59 191q-5 0 -23.5 4.5t-28.5 4.5q-7 0 -12 -2l-1 12q35 4 122 16q77 11 84.5 11t32 2t34.5 2q-9 -14 -35.5 -27.5t-28.5 -14.5q-9 -10 0 -38q1 -25 74 -343l11 -11q60 85 90 108q17 13 38 13q6 0 26 -1.5t36 -1.5q4 0 49 -56q48 -61 50 -62q19 24 59 192
q24 104 49 209q-17 7 -63 12q-38 5 -76 9q25 13 89 13q13 0 45.5 -1t52.5 -1q67 0 123 7v-14q-13 -3 -34 -18z" />
    <glyph glyph-name="X" unicode="X" horiz-adv-x="711" 
d="M686 57q-43 -9 -109.5 -19t-79.5 -9h-87q7 8 24 16q25 11 28 13q-13 16 -58 93q-37 63 -45 63t-47 -60q-48 -74 -61 -89q30 -3 92 -13q-11 -11 -32.5 -21t-33.5 -10q1 0 -89.5 1t-146.5 1q29 9 87 39q35 26 87 107q62 97 76 113q-109 109 -163 139q-8 5 -50 6
q-24 1 -50 6q22 3 95 14q60 10 69 10q5 0 26.5 2t35.5 2q39 0 57 -14q-7 -8 -33 -21q9 -9 35.5 -35t40.5 -40q14 8 40.5 38t26.5 43q0 7 -24 19q8 5 68 14q31 4 92 4q34 0 128 -15q-18 -12 -64 -13.5t-56 -8.5q-42 -32 -89 -78.5t-47 -58.5t66 -99t104 -121q8 -8 31.5 -8
t55.5 -10z" />
    <glyph glyph-name="Y" unicode="Y" horiz-adv-x="769" 
d="M681 458h-23q-5 -1 -11.5 -1t-8 -3.5t-9.5 -3.5t-84 -122q-81 -133 -99 -152q-30 -32 -81 -118q30 3 75 -20q-90 -12 -201 -12l-92 -5q13 21 47 21q41 0 47 5q31 21 52 55q1 2 38 72q-43 77 -85 153q-71 114 -123 132q-38 13 -109 12q7 3 79.5 10t104.5 7q2 0 26 3t39 3
q40 0 47 -18q-37 0 -53 -5q35 -27 91 -123q50 -88 52 -88q7 0 53 79q51 87 72 107q-17 3 -53 6.5t-53 7.5q63 15 134 17q-30 -1 154 -1q3 0 3 -1q0 -4 -29 -17z" />
    <glyph glyph-name="Z" unicode="Z" horiz-adv-x="654" 
d="M587 471q-30 -31 -97 -114q-60 -74 -80 -92q74 0 99 -29q-16 -3 -47 -3h-37q-50 0 -70 -8q-3 -1 -60 -69q-61 -71 -99 -95q12 -2 44 -2q42 0 130 4t95.5 4t9.5 6.5t10 6.5q7 0 28.5 -14t26.5 -24q-13 0 -50.5 -7t-44.5 -7q6 0 -227 -4q-191 -2 -202 0q47 51 94 103
q68 73 114 103q-29 7 -72 28q15 5 65 1q42 -3 60 11q6 5 62 80q54 71 85 90q-47 13 -120 13q-27 0 -124 -4q-85 -4 -142 -2q15 21 162 31q90 6 182 6q137 0 205 -13z" />
    <glyph glyph-name="bracketleft" unicode="[" horiz-adv-x="339" 
d="M299 731q-35 -32 -71 -40q-40 -8 -41 -9q-13 -10 -13 -56v-219q0 -8 -1 -41t-1 -40q0 -40 -3 -44q0 -43 -4 -131q-6 -68 -6 -83q10 3 112 13q0 -6 -9.5 -16.5t-17.5 -13.5q-36 -14 -97 -28q-55 -13 -69 -13h-42v22q0 8 5 25t5 22q9 179 9 257v222q0 99 13 131
q23 57 103 57q35 0 128 -15z" />
    <glyph glyph-name="backslash" unicode="\" horiz-adv-x="486" 
d="M474 20q-7 0 -15.5 -3.5t-16.5 -3.5q-37 0 -75 22q-21 30 -69 127q-82 166 -89 179q-51 95 -103 190q-55 100 -91 193q17 10 30 10q69 0 85 -27q46 -80 162 -319q136 -281 182 -368z" />
    <glyph glyph-name="bracketright" unicode="]" horiz-adv-x="313" 
d="M264 624q0 6 -6 -166q-6 -155 -3 -235q1 -31 -1 -113q-33 -20 -87 -41q-69 -27 -104 -27q-9 0 -14.5 4t-8.5 4q10 18 35 34q30 18 58 17q0 100 6 300.5t6 190.5q0 58 -11 69q-15 15 -100 22q31 28 95 34q56 1 113 3q22 -16 22 -96z" />
    <glyph glyph-name="asciicircum" unicode="^" horiz-adv-x="322" 
d="M279 533q-30 40 -93 118q-20 -22 -41 -45q-25 -28 -45 -40q-55 74 -55 99q0 9 33 46q48 51 53 58h25q39 -59 78 -119q46 -73 45 -117z" />
    <glyph glyph-name="underscore" unicode="_" horiz-adv-x="521" 
d="M508 69q-77 -44 -99 -44q-8 0 -121.5 10t-121.5 10q-2 0 -45.5 -3.5t-70.5 -3.5q-22 0 -35 3q18 23 127 39q78 11 113 11q6 0 51.5 -8t66.5 -10q45 1 135 -4z" />
    <glyph glyph-name="grave" unicode="`" horiz-adv-x="316" 
d="M294 623q-16 1 -61 -13t-50 -14q-9 0 -57 33q-58 40 -75 48q11 17 56 32q37 12 46 12q13 0 73.5 -32.5t67.5 -41.5v-24z" />
    <glyph glyph-name="a" unicode="a" horiz-adv-x="489" 
d="M468 46q-58 -24 -109 -34q-8 8 -8 34q-25 2 -89 -19q-10 -4 -29 -4q-13 0 -34 1t-23 1q-155 0 -155 115q0 76 115 138q95 50 155 50q9 0 49 -3.5t47 -3.5h41q15 -99 40 -275zM348 83q-2 26 -12 84q-16 74 -30 101q-4 9 -30 9l1 2q-4 3 -36 3q-42 0 -73 -40
q-29 -36 -29 -76t43 -70q38 -25 76 -25q8 0 43.5 6t46.5 6z" />
    <glyph glyph-name="b" unicode="b" horiz-adv-x="441" 
d="M405 175q0 -43 -23 -68q-29 -32 -158 -68q-114 -32 -152 -31h-47q0 2 -4 9t-4 17q0 -4 7.5 136t7.5 196q-1 153 0 172q29 19 109 34q9 -32 7 -87v-189q5 0 29.5 1t41.5 1q186 0 186 -123zM294 155q0 33 -42.5 67.5t-73.5 33.5h-35q9 -26 0 -202q76 16 93 23q58 26 58 78z
" />
    <glyph glyph-name="c" unicode="c" horiz-adv-x="380" 
d="M355 227q-2 -4 -47 -16.5t-54 -12.5q-6 0 -28.5 34t-38.5 38q-49 -32 -49 -102q0 -38 22 -71q25 -37 61 -37q62 0 93 6q11 -11 11 -23q-23 -3 -85 -17q-54 -12 -62 -12q-79 0 -117 28q-41 31 -41 103q0 80 61 127q56 44 140 44q70 0 134 -89z" />
    <glyph glyph-name="d" unicode="d" horiz-adv-x="437" 
d="M411 77q-100 -54 -121 -54q-7 0 -65 -6.5t-67 -6.5q-45 0 -89 30q-52 34 -52 85q0 66 78 127q69 54 117 54h71q12 15 12 44q0 16 -7 71.5t-7 94.5q11 2 48 15q32 12 40 12q37 0 42 -141q6 -129 0 -325zM286 77v149q0 17 -31 33q-27 14 -44 14t-48 -54q-28 -50 -28 -61
q0 -42 37 -70q33 -25 75 -25q31 0 39 14z" />
    <glyph glyph-name="e" unicode="e" 
d="M419 189q-91 -30 -186 -29q-55 0 -52 0q-33 -2 -33 -12q0 -38 72 -68q57 -24 85 -24q14 0 108 12q-6 -23 -98 -43q-71 -15 -99 -15q-74 0 -133 42q-64 45 -64 116q0 12 14 48q18 45 41 69t68 48q74 39 134 39q52 0 101 -62q44 -57 44 -106q0 -8 -2 -15zM328 244
q0 27 -9 54q-5 14 -25 31t-32 17q-30 0 -67.5 -47.5t-37.5 -75.5v-21q32 -8 92 -8h9q7 -1 13 -1q57 0 57 51z" />
    <glyph glyph-name="f" unicode="f" horiz-adv-x="429" 
d="M404 302q-7 -2 -44 -13q-27 -8 -39 -7h-34q4 44 -11 110q-20 81 -59 119q-29 -50 -30 -94v-157q57 0 98 -14q-5 -16 -45 -24q-44 -9 -51 -18q-1 -56 -5 -165q-25 -11 -106 -28q-9 9 -9 206q-6 2 -15 2q-4 0 -11 -1h-10q-24 0 -29 22q40 0 63 20q1 73 1 147q6 83 61 134
q15 13 65 26q42 10 59 10q67 0 114 -107q37 -82 37 -132v-36z" />
    <glyph glyph-name="g" unicode="g" horiz-adv-x="540" 
d="M506 324q-32 -13 -53 -44q-4 -6 -20 -48q-6 -14 -16.5 -48t-10.5 -70q0 -21 5 -60q5 -43 5 -68q1 -12 5.5 -32t4.5 -29q0 -13 -6 -25q-15 -29 -100 -50q-71 -18 -124 -18q-24 0 -67 14q-61 19 -61 49q0 23 52 60q40 26 79 52q-11 13 -34 13q-7 0 -21 -1.5t-21 -1.5
q-50 0 -80 42q-28 38 -28 89q0 86 105 141q82 43 155 43q7 0 47.5 -13t47.5 -13t18.5 11t17.5 13q26 7 42 9q11 1 21 0q13 -1 14 -1q14 0 23 -14zM304 158q0 33 -15 74q-22 61 -63 61q-30 0 -63 -53q-30 -49 -30 -75q0 -57 46 -86q36 -23 86 -23q21 0 32 43q7 30 7 59z
M311 -72q0 21 -15 82q-82 -53 -116 -95q11 -14 44.5 -32t43.5 -18q22 0 34 23q9 18 9 40z" />
    <glyph glyph-name="h" unicode="h" horiz-adv-x="446" 
d="M429 95q-9 -11 -37.5 -26t-39.5 -15h-47q-2 8 -2 21q0 12 2 43t2 48q0 125 -102 125q-33 0 -58 -18q-1 -118 -11 -224q-45 -35 -60 -34h-48q-6 12 -6 41q0 17 2.5 50t2.5 44v314q0 21 3 165q48 24 74 23h41q4 -63 2 -163q-2 -168 -2 -173q24 0 83 7t63 7q73 0 104 -36
q25 -29 30 -89z" />
    <glyph glyph-name="i" unicode="i" horiz-adv-x="203" 
d="M158 440q0 -15 -16 -32t-30 -17q-6 0 -21.5 -3.5t-24.5 -3.5q-15 0 -25 15q-8 12 -8 25q0 16 39 29q31 10 44 10h34q8 -9 8 -23zM158 65q-3 -11 -9 -26q-11 -10 -36 -20t-38 -9h-48v274q86 34 105 34q11 0 18.5 -18t7.5 -31q-5 -143 -5 -171t5 -33z" />
    <glyph glyph-name="j" unicode="j" horiz-adv-x="203" 
d="M186 385q-71 -40 -99 -40q-12 0 -23 21q-10 18 -10 28q0 38 28 59q24 17 55 16h42q-3 -43 7 -84zM166 -27q-7 -189 -71 -205q-25 -7 -104 -36q-70 -25 -79 -25h-20l-15 15q-1 7 4.5 19t15.5 12q6 0 7 -2q-1 -1 -1 -3t7 -2q29 0 68 18q48 21 54 52q14 66 14 170
q0 34 -2 132q-3 87 -2 140q8 0 43 5q46 5 80 8q-2 -4 -2 -10q0 1 3 -44.5t3 -105.5q0 -61 -3 -138z" />
    <glyph glyph-name="k" unicode="k" horiz-adv-x="526" 
d="M463 66q-72 -49 -82 -49q-28 0 -41 22q-8 27 -36 78q-34 42 -133 150q-7 -43 -6 -110q2 -95 2 -110q-12 -10 -44 -26t-43 -15h-28q-4 4 -10 15q17 188 13 308q-2 55 -7 156q-4 88 -4 95q0 23 5 38q41 34 65 34h41q5 -37 5 -70q0 -18 -2 -47.5t-2 -45.5q0 -36 8 -76
q40 29 92 104q42 61 58 61q121 -8 112 -19q-22 -27 -103 -99q-85 -76 -111 -105q70 -44 109 -80q46 -41 88 -104l20 -30q1 -2 34 -75z" />
    <glyph glyph-name="l" unicode="l" horiz-adv-x="230" 
d="M179 304q0 -94 -16 -262q-59 -34 -83 -34q-9 0 -17.5 4t-14.5 4q10 258 10 297q0 171 -29 322q58 27 85 27q12 0 30 -10q13 -74 25 -148q10 -63 10 -200z" />
    <glyph glyph-name="m" unicode="m" horiz-adv-x="688" 
d="M669 139q0 -62 -29 -81q-12 -8 -36 -13t-46 -9q-19 37 -22 88q1 0 7.5 40.5t6.5 71.5q0 117 -85 117q-62 0 -62 -54q0 -13 3.5 -40.5t3.5 -41.5q0 -68 -87 -68h-21q-10 65 -19 130q-14 80 -51 80q-9 0 -34 -21q-20 -18 -41 -36q1 -18 9 -81q6 -51 6 -82q0 -50 -13 -88
q-5 -15 -36 -26q-24 -9 -40 -9q-8 0 -20.5 4t-18.5 4q3 52 -8 194q-12 149 -12 138q0 35 32 48q10 4 78 14q4 -17 13 -52q8 11 65 26q54 13 79 13q5 0 46 -19.5t43 -19.5q8 0 26.5 10.5t28.5 13.5q30 9 70 9q164 0 164 -260z" />
    <glyph glyph-name="n" unicode="n" horiz-adv-x="469" 
d="M420 146q0 -45 -16.5 -64t-77.5 -44h-23q-3 91 -7 182q-8 134 -53 134q-81 0 -101 -56q-12 -33 -4 -120t-4 -118q-29 -11 -92 -42q-22 21 -29 56q0 -7 -1.5 47.5t-1.5 101.5q0 67 3 115l9 60q65 28 96 28q9 0 13 -4t6 -4v-52q41 27 175 27q56 0 76 -56q11 -29 17 -111
q1 -15 8 -43.5t7 -36.5z" />
    <glyph glyph-name="o" unicode="o" 
d="M448 250q0 -85 -48 -148q-58 -76 -160 -76q-7 0 -40.5 -3t-41.5 -3q-18 0 -97 48q-15 9 -32 46q-9 17 -9 51q0 31 42 89q37 53 65 72q13 10 74 26q68 19 107 19q56 0 83.5 -12t33.5 -32q23 -69 23 -77zM344 214q0 53 -37 98q-10 11 -28 11q-42 0 -90 -46
q-51 -50 -51 -103q0 -43 16 -59q18 -19 55 -38q34 -18 45 -18q45 0 71 57q19 44 19 98z" />
    <glyph glyph-name="p" unicode="p" horiz-adv-x="449" 
d="M423 209q0 -75 -89 -140q-79 -57 -141 -57q-9 0 -17 7t-11 7q-16 -39 -18 -115q-2 -72 -14 -96q-21 -40 -89 -40h-20q-8 9 -8 33q0 5 13 124q15 127 17 169q1 7 2 107q1 68 9 111q5 29 64 29q-5 0 50 -12q38 -1 75 -3q74 -5 117 -27q60 -32 60 -97zM318 203
q0 21 -32 59.5t-57 37.5l-61 -5q2 -15 -1 -90q-5 -95 -5 -160q77 44 98 61q58 45 58 97z" />
    <glyph glyph-name="q" unicode="q" horiz-adv-x="442" 
d="M394 203q0 -45 -10.5 -174t-10.5 -185q0 -75 15 -102q-19 -16 -51 -35q-35 -20 -45 -20h-22q-13 32 -13 77q0 27 6.5 82t6.5 81v79l-5 10q-61 -14 -101 -14q-158 0 -158 129q0 94 94 164q85 62 176 62q72 0 99 -47q19 -34 19 -107zM276 284q-15 0 -45.5 1t-37.5 1
q-40 0 -60.5 -30t-20.5 -76q0 -27 21 -64q28 -48 68 -47q77 1 77 10q0 43 -1 128q-1 74 -1 77z" />
    <glyph glyph-name="r" unicode="r" horiz-adv-x="415" 
d="M396 324q-73 -43 -102 -43q-8 0 -42.5 20t-42.5 20q-70 0 -70 -157q0 -12 1 -33v-30q0 -31 -4 -36q-33 -17 -99 -47q-5 4 -10.5 8.5t-5.5 14.5q0 -10 21 318q14 4 96 33q0 -18 6 -38t9 -20q8 0 70.5 23t70.5 23q19 0 102 -56z" />
    <glyph glyph-name="s" unicode="s" horiz-adv-x="415" 
d="M396 399q-71 -42 -99 -42q-7 0 -31 14q-29 16 -37 19q-17 -17 -17 -43q0 -30 32 -54q20 -15 63.5 -32.5t52.5 -25.5t19 -32t10 -37q0 -66 -100 -117q-80 -41 -133 -41q-18 0 -121 35q3 15 38 37q28 16 56 33h23q-4 -19 27 -34q25 -12 43 -12q49 0 49 63q0 52 -44 73
q-41 15 -83 29q-44 24 -44 82q0 38 22 59q16 15 89.5 42t99.5 27q28 0 85 -43z" />
    <glyph glyph-name="t" unicode="t" horiz-adv-x="374" 
d="M357 396q-5 -7 -46.5 -26.5t-51.5 -35.5q-15 -131 -17 -277q-27 -35 -44 -35q-29 0 -42 -6h-15q-16 7 -16 55q0 31 7 90t7 69v103q-3 2 -10 2q-10 0 -32 -5t-28 -4l-41 12q4 18 52 30q60 14 64 17q12 37 12 106q0 14 -2 80q-1 48 0 75q25 15 101 47q14 -27 14 -93
q0 -37 -5 -104t-5 -83q0 -22 5 -22q4 0 41 2.5t52 2.5z" />
    <glyph glyph-name="u" unicode="u" horiz-adv-x="409" 
d="M383 43l-48 -24q-32 -16 -41 -16h-28l-4 14t-3 26q-86 -7 -116 -7q-115 0 -115 111q0 204 90 204h41q-19 -135 -19 -154q0 -109 89 -109h18q17 77 20 242q66 28 109 34q-2 -244 7 -321z" />
    <glyph glyph-name="v" unicode="v" horiz-adv-x="472" 
d="M451 298q-6 -49 -77 -168q-5 -24 -31 -72q-8 -9 -50 -22q-46 -15 -76 -13q-32 42 -98 114t-101 120q70 42 98 42q16 0 80 -77q68 -81 80 -88q14 23 33 69t33 68q8 12 39 20q48 12 54 15q10 -8 16 -8z" />
    <glyph glyph-name="w" unicode="w" horiz-adv-x="867" 
d="M843 302q-166 -146 -181 -157q-135 -106 -207 -106q-10 0 -18 2q-16 54 -51 124q-50 -56 -123 -93q-57 -26 -115 -51q-43 84 -133 247q16 12 48.5 27t43.5 15q20 0 69 -87q30 -55 59 -110q29 22 75.5 78.5t72.5 76.5q42 33 91 28q19 -55 65 -170q62 29 142 112
q63 65 107 64h55z" />
    <glyph glyph-name="x" unicode="x" 
d="M438 369q-16 -15 -96 -84q-61 -52 -62 -62q0 -3 65 -63q68 -63 80 -103q-12 -2 -52.5 -15t-49.5 -13q-12 0 -52.5 40t-78.5 79q-34 -42 -142 -45q39 52 92 94q-23 28 -66 69q-68 65 -72 69q8 11 46 27t53 16q8 0 64 -52.5t64 -52.5q7 0 40 32q38 39 57 50q24 14 110 14z
" />
    <glyph glyph-name="y" unicode="y" horiz-adv-x="498" 
d="M476 291q-30 -83 -125 -221q-20 -28 -167 -230q-8 -9 -38 -18q-24 -5 -48 -11l-36 9q88 118 158 238q-27 41 -91 109q-71 76 -101 116l-12 27q54 27 92 27q9 0 68 -71q88 -106 106 -126q50 53 69 90q11 23 23 47q14 19 55 19q22 0 47 -5z" />
    <glyph glyph-name="z" unicode="z" horiz-adv-x="553" 
d="M521 52q-29 -10 -79 -20q-46 -9 -61 -9q-8 0 -45 -1h-45q-139 0 -242 -5q-8 0 -8 16q0 10 42 53q38 40 71 67q0 6 -17 8q-24 3 -29 6q9 4 54 17q41 11 61 24q11 8 40 40q35 40 49 53l14 20q-117 1 -183 -3q-33 0 -104 -8q-2 6 -1 10q43 21 128 27q34 2 133 2
q111 0 151 -15q-30 -28 -60 -57q-37 -36 -45 -71q29 2 67 -9q-58 -17 -142 -46q-39 -18 -98 -85q35 -8 81 -8q24 0 76.5 3.5t79.5 3.5q62 0 112 -13z" />
    <glyph glyph-name="braceleft" unicode="{" horiz-adv-x="388" 
d="M365 740q-7 -12 -37.5 -24.5t-45.5 -12.5q-7 0 -23.5 6.5t-25.5 6.5q-23 0 -39 -38q-14 -29 -14 -45q0 -46 26 -87q14 -23 48 -57q25 -27 25 -36q0 -16 -92 -70q26 -19 79 -58q-3 -9 -23 -33q-24 -28 -28 -35q-41 -67 -41 -94q0 -31 25.5 -58t50.5 -27q-4 0 74 12
q0 -18 -7 -24q-18 -4 -92 -29q-57 -19 -71 -19q-43 0 -70 47q-22 37 -22 72q0 37 19 72q13 25 53 76q-11 19 -43 34l-42 16v18q6 4 62 40q37 24 37 33q0 8 -17 24q-22 22 -27 30q-13 20 -27.5 62t-14.5 65q0 75 87 122q73 39 150 39q18 0 34.5 -9.5t31.5 -18.5z" />
    <glyph glyph-name="bar" unicode="|" horiz-adv-x="187" 
d="M166 532q0 -21 -6 -153q-12 -7 -30 -20q9 -1 28 2q2 -13 2 -168q0 2 -5 -70q-4 -68 -3 -100q-1 0 -16.5 -3.5t-24.5 -3.5t-11 -6.5t-10 -6.5h-62v74q5 83 8 245q3 6 32 20q-4 4 -33 4v312q16 26 53 33q25 4 50 9q9 -15 19 -43q9 -72 9 -125z" />
    <glyph glyph-name="braceright" unicode="}" horiz-adv-x="357" 
d="M315 397q0 -11 -29 -38.5t-56 -53.5q19 -17 49 -51q30 -44 30 -80q0 -72 -73 -113q-55 -31 -111 -31q-34 0 -65 23q-15 11 -34 38q44 27 66 27q8 0 32.5 -20t33.5 -20q14 0 24 29q8 22 8 31q0 30 -32 77.5t-59 48.5q11 19 45 53q42 40 53 53q-16 7 -52.5 16.5t-52.5 16.5
q27 36 54 71q44 64 44 94q0 102 -79 102q-7 0 -28 -5q-30 -8 -56 -13q7 15 67 42q64 29 103 29q63 0 92 -51q20 -34 20 -81q0 -23 -32 -78t-54 -70q10 -9 27 -9q8 0 16.5 -3.5t17.5 -3.5q14 0 31 -8v-22z" />
    <glyph glyph-name="asciitilde" unicode="~" horiz-adv-x="631" 
d="M586 583q0 -44 -127 -82q-100 -30 -133 -30q-10 0 -82.5 36t-78.5 36q-8 0 -42 -17q-43 -22 -59 -28h-23q14 35 85 71q66 33 105 33q8 0 92 -39.5t92 -39.5q16 0 35 20l28 30q33 11 99 29q9 -9 9 -19z" />
    <glyph glyph-name="exclamdown" unicode="&#xa1;" horiz-adv-x="247" 
d="M46 410q8 41 106 41q8 0 11.5 -4t10.5 -4q0 -24 -4 -115.5t-4 -142.5q0 -14 7.5 -47t7.5 -39q0 -30 -22 -54q-24 -28 -60 -28q-9 0 -19 3.5t-16 3.5q0 11 -7 38.5t-7 35.5q-8 137 -8 226q0 63 4 86zM106 673q11 17 74 17q35 0 40 -9t3 -34q-1 -22 -3 -24
q-21 -21 -110 -33q-16 63 -4 83z" />
    <glyph glyph-name="cent" unicode="&#xa2;" horiz-adv-x="648" 
d="M619 67q-93 -36 -125 -36q-113 0 -200.5 46.5t-136.5 130.5q-95 4 -123 0v6v20q7 -2 18 -2q13 0 45.5 4t48.5 4l-3 42q-1 27 3 47q-14 8 -93 6q11 9 47 14t47 12q18 10 47 39q23 24 47.5 49t100.5 67q88 48 129 48q29 0 89 -17q-61 -7 -135 -54.5t-135 -115.5q6 -4 50 -4
h21q6 -5 13 -11t7 -14q-32 -7 -111 -20v-45q0 -32 5 -35t10 -5q5 -5 40 -7q26 -1 67 0q50 2 43 2q7 0 40 -2t44 -2q2 -6 8 -17q-49 -12 -88 -12q-81 0 -141 -3q52 -77 147 -109q67 -22 174 -26z" />
    <glyph glyph-name="currency" unicode="&#xa4;" horiz-adv-x="648" 
d="M619 67q-93 -36 -125 -36q-113 0 -200.5 46.5t-136.5 130.5q-95 4 -123 0v6v20q7 -2 18 -2q13 0 45.5 4t48.5 4l-3 42q-1 27 3 47q-14 8 -93 6q11 9 47 14t47 12q18 10 47 39q23 24 47.5 49t100.5 67q88 48 129 48q29 0 89 -17q-61 -7 -135 -54.5t-135 -115.5q6 -4 50 -4
h21q6 -5 13 -11t7 -14q-32 -7 -111 -20v-45q0 -32 5 -35t10 -5q5 -5 40 -7q26 -1 67 0q50 2 43 2q7 0 40 -2t44 -2q2 -6 8 -17q-49 -12 -88 -12q-81 0 -141 -3q52 -77 147 -109q67 -22 174 -26z" />
    <glyph glyph-name="brokenbar" unicode="&#xa6;" horiz-adv-x="187" 
d="M166 532q0 -21 -6 -153q-12 -7 -30 -20q9 -1 28 2q2 -13 2 -168q0 2 -5 -70q-4 -68 -3 -100q-1 0 -16.5 -3.5t-24.5 -3.5t-11 -6.5t-10 -6.5h-62v74q5 83 8 245q3 6 32 20q-4 4 -33 4v312q16 26 53 33q25 4 50 9q9 -15 19 -43q9 -72 9 -125z" />
    <glyph glyph-name="section" unicode="&#xa7;" horiz-adv-x="835" 
d="M808 384q0 -76 -20 -130q-30 -79 -66 -121q-23 -27 -55 -55q-10 -9 -50 -34q-51 -31 -68 -31q-2 0 -22 -7.5t-33 -7.5q-3 0 -8.5 -1.5t-9.5 -1.5t-11.5 -2t-10.5 -3q-42 -3 -85 0q-14 1 -24 1q-30 0 -86 26q-43 19 -72 39q-40 28 -80 74q-54 62 -72 133q-17 68 -17 121
q0 137 84 245q91 117 243 144q30 6 109 6q4 0 11 -3t10.5 -3t27.5 -6.5t27 -6.5q20 0 100 -44q91 -60 138 -156q40 -84 40 -176zM790 384q0 43 -19 117q-15 56 -68 122q-58 72 -119 97q-55 22 -63 22q-4 0 -37 9t-37 9q-119 0 -200 -37q-98 -47 -163 -158q-48 -82 -48 -181
q0 -66 23 -127q35 -97 115.5 -165t179.5 -82q28 -3 93 -3q4 0 12 1.5t12 1.5t8.5 1.5t8.5 1.5t27.5 7.5t25.5 7.5t44 19q69 32 119 94q25 32 47 76q39 79 39 167zM644 633q0 -8 -16 -45t-22 -37q-5 0 -19 7q0 2 1 6q5 2 17 10q-2 12 -11.5 39t-9.5 30q0 4 4 8q19 -12 19 -40
q3 0 8 -6q6 12 18 37q11 0 11 -9zM577 619q0 -29 -25 -29q-4 0 -15.5 2t-16.5 2v41.5v42.5q15 -8 15 -25q3 -1 8.5 1.5t8.5 2.5q8 0 16.5 -15t8.5 -23zM438 637q-7 -8 -25 -9t-18 -10q0 -5 8 -13q5 0 14 9h11q0 -8 -1 -11q-5 -10 -15 -10h-11q-13 0 -21 16q-6 12 -6 19
q0 38 44 38q4 0 9.5 -10t10.5 -19zM371 594q-40 -10 -47 -10q-17 0 -17 27q0 22 19 35q7 2 23 10q3 10 3 12t5 7q1 0 9 -5q5 -18 5 -17v-59zM297 657q-1 0 -6.5 -1.5t-6.5 -1.5q-7 6 -1 18h14v-15zM495 446q0 -11 -12 -11q-4 0 -18 7v11q10 0 23 6q7 -7 7 -13zM304 637
q0 -2 -6 -9q-1 -11 -1 -53q-1 0 -7.5 -1.5t-9.5 -1.5q0 3 -1.5 8.5t-1.5 9.5q0 24 7 56q4 1 12 5q8 -8 8 -14zM431 448q-8 -5 -26 -16l-1.5 7.5t-1.5 16.5l8 1.5t18 1.5l3 -3v-8zM272 638l-10 -38q-6 -22 -17 -37q-15 5 -32 57q1 0 3.5 2t6.5 2t8.5 -10t7.5 -18
q11 3 16.5 21.5t16.5 20.5zM204 638l-4 -14h-14v9q-1 5 2.5 6t3.5 2q8 0 12 -3zM538 270l-11 5l5 31zM206 555q-5 -9 -20 -16q-1 46 3 73l-3 5h20v-62zM656 336q0 -24 -7 -34q-17 -16 -47 -52q0 -5 -5 -15q-18 -22 -54 -24q-30 -1 -61 -2q-6 -4 -4 -9q-37 -23 -48 -23
q-3 0 -17 7.5t-18 7.5t-40.5 -6t-39.5 -6q-34 0 -73 16.5t-58 16.5q-22 0 -62 -11q6 7 46 23t46 16q8 0 35 -24.5t43 -24.5h39q27 0 59 13q5 2 6 3.5t1 3.5q-2 4 -2 7q54 2 153 7q25 2 38 17q3 3 7 43q0 -5 7 -18q11 15 11 24q0 4 -6 21.5t-6 21.5q0 11 12 23q2 7 -11 7
q-17 0 -45 -25q1 -3 4 -3q-8 -9 -16 -10q-32 -7 -70 -7q4 0 -66 20q31 2 31 19q0 13 -18 24q5 -2 19 -8.5t18 -6.5q10 0 17 12q4 10 8 19v-31h24q11 6 35 15q-8 -8 -15 -22v-17l0.5 -1.5t5.5 -1.5l28 20q6 4 39 18q0 7 -4 17q-54 64 -146 106l-6 -6q-18 -3 -81 -24
q20 17 43 29q10 3 20 5q14 5 19 15h-50q-5 -1 -49 -20q-49 -21 -75 -36q-3 -2 -50 -36q-40 -30 -46 -30h-65q20 12 23 12q4 0 5 -1.5t4 -1.5q29 0 39 6q22 19 73 56q45 29 79 43q63 25 78 25q47 0 95 -31q38 -26 64 -60q13 -13 37 -46q6 -9 -4 -19q3 -6 16 -9t14 -3
q24 -20 24 -34zM179 539q-41 -25 -47 -25q-15 0 -13 26q0 23 23 46q12 2 14.5 8t8.5 23h11q3 -26 3 -78zM571 107q0 -23 -10 -42q-3 -4 -9 -9q-2 0 -8 -3.5t-11 -3.5q-18 0 -29 23q-9 18 -9 38q0 10 2 17q4 12 20.5 23.5t24.5 11.5q17 0 24 -26q5 -15 5 -29zM486 117l-7 -7
q-2 1 -9 16q-5 11 -10 11q-21 0 -21 -44q0 -27 5 -46q-13 -7 -21 -3v79q-1 6 12.5 19.5t18.5 13.5q32 0 32 -23v-16zM407 98q-6 0 -23.5 1.5t-20.5 1.5q-10 0 -10 -9q0 -34 23.5 -34t27.5 -4q-8 -11 -24 -11q-20 0 -31.5 18t-11.5 35q0 29 11 39.5t39 10.5q6 0 13 -11t7 -17
v-20zM325 135q-17 -17 -52 -56q33 -9 37 -9q11 0 15 -4v-10q-35 5 -50 5l-9 -3q-6 0 -20 7v14q12 20 52 54q-3 7 -25.5 10.5t-26.5 10.5v10q29 -6 79 -15v-14zM559 606v29q-7 7 -12 7q-4 0 -12 -7v-26q8 -7 14 -7t10 4zM412 640q3 8 -10 14l-7 -7v-11h14zM517 487l-17 10
l-2 -4l17 -10zM349 618q0 17 -10 18q-14 3 -14 -22q0 -11 4 -18h13q7 8 7 22zM641 324v20q-5 0 -12 1.5t-11 1.5q-10 0 -10 -18q0 -11 7 -31q1 1 13 4q13 11 13 22zM161 558q0 15 -11 20q-16 -19 -16 -30q0 -4 1.5 -9t1.5 -6q1 0 2 1t5 1q17 0 17 23zM465 209q-5 0 -16 2
t-14 2q-12 0 -19 -14q8 -4 19 -4q18 0 30 14zM556 107q0 39 -15 39q-13 0 -21.5 -12t-8.5 -29q4 -38 21 -38q4 0 4 1.5t3 1.5q17 0 17 37zM395 114q-3 6 -10.5 13t-10.5 7q-15 0 -18 -20q40 0 39 0z" />
    <glyph glyph-name="dieresis" unicode="&#xa8;" horiz-adv-x="411" 
d="M375 589q0 -11 -47 -28q-43 -15 -55 -15q-9 0 -12.5 4t-9.5 4q2 15 -14 62q87 35 98 35q9 0 24.5 -26.5t15.5 -35.5zM178 599q0 -34 -28 -41q-51 -13 -60 -18h-23q-14 38 -14 71q70 40 102 40q10 0 16.5 -18.5t6.5 -33.5z" />
    <glyph glyph-name="guillemotleft" unicode="&#xab;" horiz-adv-x="501" 
d="M457 287q-26 -13 -79 -53q9 -23 78 -56v-25q-4 -4 -35 -23l-11 -11q-6 -6 -16 -6h-26q-9 0 -62 30.5t-53 41.5q0 20 73 65q60 37 100 53h23q0 -5 8 -16zM266 334q-40 -30 -118 -93q22 -20 45 -41q28 -25 40 -45q-74 -55 -99 -55q-9 0 -46 33q-51 48 -58 53v25
q59 39 119 78q73 46 117 45z" />
    <glyph glyph-name="degree" unicode="&#xb0;" horiz-adv-x="198" 
d="M166 726q0 -82 -103 -82q-18 0 -34 17t-16 35q0 32 37 54q32 19 66 19q50 0 50 -43zM129 713q0 12 -6.5 25.5t-16.5 13.5q-17 0 -33.5 -18t-16.5 -35q0 -25 41 -41q32 0 32 55z" />
    <glyph glyph-name="guillemotright" unicode="&#xbb;" horiz-adv-x="472" 
d="M444 255q0 -22 -52.5 -91.5t-68.5 -69.5q-5 0 -34.5 -2.5t-47.5 -2.5q85 106 85 126q0 17 -53 52q25 50 79 50q27 0 59.5 -23.5t32.5 -38.5zM247 212q0 -38 -87 -94q-77 -51 -95 -50h-28q8 18 49 66q36 43 36 52q0 19 -66 69q66 49 92 49q25 0 62 -39t37 -53z" />
    <glyph glyph-name="onequarter" unicode="&#xbc;" horiz-adv-x="616" 
d="M273 526q0 -56 -6 -65q-10 -13 -82 -46h-26q2 52 0 164q-13 0 -27.5 -3t-15.5 -3q9 19 53.5 51.5t61.5 32.5q42 0 42 -131zM576 289q0 -6 -4 -89q-4 -95 -5 -133q-13 -11 -40 -22l-46 -18h-23q2 76 -2 158q-19 9 -163 41q1 0 58.5 59.5t82.5 74.5h23q-10 -22 -46 -69v-16
q20 1 49 -6q8 14 -1 37q19 22 50 36q26 9 52 19q15 -45 15 -72zM517 564q-84 -73 -256 -235l-86 -100q-68 -76 -115 -90h-23q48 66 229 244q186 182 209 181h42z" />
    <glyph glyph-name="onehalf" unicode="&#xbd;" horiz-adv-x="524" 
d="M268 395q-42 -32 -117 -47q0 21 6 192q-9 5 -21 4q-12 0 -17 -5q2 55 127 98q15 -22 15 -106v-41q0 -65 7 -95zM485 470q-46 -36 -140 -124q-98 -91 -148 -132q-85 -69 -155 -102h-24q188 173 202 185q119 105 221 172q6 4 44 1zM485 268q2 -8 2 -16q0 -35 -46 -83
q-40 -37 -81 -74q13 -7 43 -16.5t43 -16.5q-10 -13 -47.5 -35t-51.5 -22q-7 0 -20 7t-20 7t-33.5 3.5t-35.5 3.5t-9 16q151 120 151 164q0 18 -10.5 30.5t-22.5 12.5q-7 0 -29 -2.5t-36 -2.5q15 13 63.5 32t73.5 19q27 0 33 -2q16 -5 33 -25z" />
    <glyph glyph-name="questiondown" unicode="&#xbf;" horiz-adv-x="472" 
d="M14 146q0 32 21.5 66t53.5 44q15 5 69 33l8 44q5 30 26 30h46q22 0 46 -22q-17 -40 -56 -63q-30 -17 -60 -35q-29 -24 -29 -71q0 -59 22 -82t70 -23q42 0 70 16q32 19 32 53q0 24 -16 53q31 23 76 23q19 0 32 -22q10 -18 10 -38q0 -60 -126 -101q-94 -30 -150 -30
q-145 0 -145 125zM186 591q30 35 89 34h28v-44q-68 -34 -82 -33h-35v43z" />
    <glyph glyph-name="Agrave" unicode="&#xc0;" horiz-adv-x="749" 
d="M735 92q-105 -16 -296 -27q22 15 73 28q-23 48 -65 139q-145 9 -168 9q-36 -37 -58 -154q33 -10 66 -14q-48 -28 -146 -34h-123q28 12 77 36q39 115 77 230q54 151 105 234q15 26 120 43q72 -93 131 -224l86 -192q7 -19 14 -39q10 -25 21 -25q36 0 86 -10zM432 281
l-38 86q-25 51 -45 64q-41 -95 -54 -150h137zM381 629q-16 1 -61 -13t-50 -14q-9 0 -57 33q-58 40 -75 48q11 17 56 32q37 12 46 12q13 0 73.5 -32.5t67.5 -41.5v-24z" />
    <glyph glyph-name="Aacute" unicode="&#xc1;" horiz-adv-x="749" 
d="M735 92q-105 -16 -296 -27q22 15 73 28q-23 48 -65 139q-145 9 -168 9q-36 -37 -58 -154q33 -10 66 -14q-48 -28 -146 -34h-123q28 12 77 36q39 115 77 230q54 151 105 234q15 26 120 43q72 -93 131 -224l86 -192q7 -19 14 -39q10 -25 21 -25q36 0 86 -10zM432 281
l-38 86q-25 51 -45 64q-41 -95 -54 -150h137zM522 702q0 -30 -59 -64q-55 -32 -83 -31h-28q3 11 18 35.5t19 34.5q2 7 2 20q0 44 -19 63v23q104 21 101 21q16 0 34 -48q15 -40 15 -54z" />
    <glyph glyph-name="Acircumflex" unicode="&#xc2;" horiz-adv-x="749" 
d="M735 92q-105 -16 -296 -27q22 15 73 28q-23 48 -65 139q-145 9 -168 9q-36 -37 -58 -154q33 -10 66 -14q-48 -28 -146 -34h-123q28 12 77 36q39 115 77 230q54 151 105 234q15 26 120 43q72 -93 131 -224l86 -192q7 -19 14 -39q10 -25 21 -25q36 0 86 -10zM432 281
l-38 86q-25 51 -45 64q-41 -95 -54 -150h137zM464 545q-30 40 -93 118q-20 -22 -41 -45q-25 -28 -45 -40q-55 74 -55 99q0 9 33 46q48 51 53 58h25q39 -59 78 -119q46 -73 45 -117z" />
    <glyph glyph-name="Atilde" unicode="&#xc3;" horiz-adv-x="749" 
d="M735 92q-105 -16 -296 -27q22 15 73 28q-23 48 -65 139q-145 9 -168 9q-36 -37 -58 -154q33 -10 66 -14q-48 -28 -146 -34h-123q28 12 77 36q39 115 77 230q54 151 105 234q15 26 120 43q72 -93 131 -224l86 -192q7 -19 14 -39q10 -25 21 -25q36 0 86 -10zM432 281
l-38 86q-25 51 -45 64q-41 -95 -54 -150h137zM638 727q0 -44 -127 -82q-100 -30 -133 -30q-10 0 -82.5 36t-78.5 36q-8 0 -42 -17q-43 -22 -59 -28h-23q14 35 85 71q66 33 105 33q8 0 92 -39.5t92 -39.5q16 0 35 20l28 30q33 11 99 29q9 -9 9 -19z" />
    <glyph glyph-name="Adieresis" unicode="&#xc4;" horiz-adv-x="749" 
d="M735 92q-105 -16 -296 -27q22 15 73 28q-23 48 -65 139q-145 9 -168 9q-36 -37 -58 -154q33 -10 66 -14q-48 -28 -146 -34h-123q28 12 77 36q39 115 77 230q54 151 105 234q15 26 120 43q72 -93 131 -224l86 -192q7 -19 14 -39q10 -25 21 -25q36 0 86 -10zM432 281
l-38 86q-25 51 -45 64q-41 -95 -54 -150h137zM553 681q0 -11 -47 -28q-43 -15 -55 -15q-9 0 -12.5 4t-9.5 4q2 15 -14 62q87 35 98 35q9 0 24.5 -26.5t15.5 -35.5zM356 691q0 -34 -28 -41q-51 -13 -60 -18h-23q-14 38 -14 71q70 40 102 40q10 0 16.5 -18.5t6.5 -33.5z" />
    <glyph glyph-name="Aring" unicode="&#xc5;" horiz-adv-x="749" 
d="M735 92q-105 -16 -296 -27q22 15 73 28q-23 48 -65 139q-145 9 -168 9q-36 -37 -58 -154q33 -10 66 -14q-48 -28 -146 -34h-123q28 12 77 36q39 115 77 230q54 151 105 234q15 26 120 43q72 -93 131 -224l86 -192q7 -19 14 -39q10 -25 21 -25q36 0 86 -10zM432 281
l-38 86q-25 51 -45 64q-41 -95 -54 -150h137zM443 703q0 -82 -103 -82q-18 0 -34 17t-16 35q0 32 37 54q32 19 66 19q50 0 50 -43zM406 690q0 12 -6.5 25.5t-16.5 13.5q-17 0 -33.5 -18t-16.5 -35q0 -25 41 -41q32 0 32 55z" />
    <glyph glyph-name="Egrave" unicode="&#xc8;" horiz-adv-x="565" 
d="M554 80q-20 -23 -117 -31q-81 -4 -161 -9q-77 -12 -246 -30v25q66 0 72 33q3 14 3 51q0 79 -10 209q-9 127 -15.5 138t-22.5 13h-27v24q124 21 239 21q45 0 168 -15q-10 -11 -56 -22q-37 -9 -46 -9q4 0 -29.5 3.5t-100.5 3.5q-5 -5 -5 -17q0 -23 5 -79q6 -72 14 -95
q71 -1 153 -9q-31 -34 -159 -30q3 -84 0 -188q286 13 341 13zM294 623q-16 1 -61 -13t-50 -14q-9 0 -57 33q-58 40 -75 48q11 17 56 32q37 12 46 12q13 0 73.5 -32.5t67.5 -41.5v-24z" />
    <glyph glyph-name="Eacute" unicode="&#xc9;" horiz-adv-x="565" 
d="M554 80q-20 -23 -117 -31q-81 -4 -161 -9q-77 -12 -246 -30v25q66 0 72 33q3 14 3 51q0 79 -10 209q-9 127 -15.5 138t-22.5 13h-27v24q124 21 239 21q45 0 168 -15q-10 -11 -56 -22q-37 -9 -46 -9q4 0 -29.5 3.5t-100.5 3.5q-5 -5 -5 -17q0 -23 5 -79q6 -72 14 -95
q71 -1 153 -9q-31 -34 -159 -30q3 -84 0 -188q286 13 341 13zM465 656q0 -30 -59 -64q-55 -32 -83 -31h-28q3 11 18 35.5t19 34.5q2 7 2 20q0 44 -19 63v23q104 21 101 21q16 0 34 -48q15 -40 15 -54z" />
    <glyph glyph-name="Ecircumflex" unicode="&#xca;" horiz-adv-x="565" 
d="M554 80q-20 -23 -117 -31q-81 -4 -161 -9q-77 -12 -246 -30v25q66 0 72 33q3 14 3 51q0 79 -10 209q-9 127 -15.5 138t-22.5 13h-27v24q124 21 239 21q45 0 168 -15q-10 -11 -56 -22q-37 -9 -46 -9q4 0 -29.5 3.5t-100.5 3.5q-5 -5 -5 -17q0 -23 5 -79q6 -72 14 -95
q71 -1 153 -9q-31 -34 -159 -30q3 -84 0 -188q286 13 341 13zM354 533q-30 40 -93 118q-20 -22 -41 -45q-25 -28 -45 -40q-55 74 -55 99q0 9 33 46q48 51 53 58h25q39 -59 78 -119q46 -73 45 -117z" />
    <glyph glyph-name="Edieresis" unicode="&#xcb;" horiz-adv-x="565" 
d="M554 80q-20 -23 -117 -31q-81 -4 -161 -9q-77 -12 -246 -30v25q66 0 72 33q3 14 3 51q0 79 -10 209q-9 127 -15.5 138t-22.5 13h-27v24q124 21 239 21q45 0 168 -15q-10 -11 -56 -22q-37 -9 -46 -9q4 0 -29.5 3.5t-100.5 3.5q-5 -5 -5 -17q0 -23 5 -79q6 -72 14 -95
q71 -1 153 -9q-31 -34 -159 -30q3 -84 0 -188q286 13 341 13zM433 641q0 -11 -47 -28q-43 -15 -55 -15q-9 0 -12.5 4t-9.5 4q2 15 -14 62q87 35 98 35q9 0 24.5 -26.5t15.5 -35.5zM236 651q0 -34 -28 -41q-51 -13 -60 -18h-23q-14 38 -14 71q70 40 102 40q10 0 16.5 -18.5
t6.5 -33.5z" />
    <glyph glyph-name="Igrave" unicode="&#xcc;" horiz-adv-x="432" 
d="M386 57q-14 -31 -193 -47q-17 -11 -27 -11q-7 0 -13.5 10t-16.5 10q-4 0 -49 -5.5t-76 -5.5q24 25 62 29l54 6q22 8 22 45q0 26 -6 193q-7 190 -12 236q-24 2 -99 2q69 40 109.5 47.5t118.5 15.5q66 6 84 6q30 0 42 -31q-10 0 -37 -7.5t-34 -7.5q6 0 -30 -2q-21 -1 -31 3
q0 -303 13 -479q67 3 119 -7zM294 623q-16 1 -61 -13t-50 -14q-9 0 -57 33q-58 40 -75 48q11 17 56 32q37 12 46 12q13 0 73.5 -32.5t67.5 -41.5v-24z" />
    <glyph glyph-name="Iacute" unicode="&#xcd;" horiz-adv-x="432" 
d="M386 57q-14 -31 -193 -47q-17 -11 -27 -11q-7 0 -13.5 10t-16.5 10q-4 0 -49 -5.5t-76 -5.5q24 25 62 29l54 6q22 8 22 45q0 26 -6 193q-7 190 -12 236q-24 2 -99 2q69 40 109.5 47.5t118.5 15.5q66 6 84 6q30 0 42 -31q-10 0 -37 -7.5t-34 -7.5q6 0 -30 -2q-21 -1 -31 3
q0 -303 13 -479q67 3 119 -7zM343 702q0 -30 -59 -64q-55 -32 -83 -31h-28q3 11 18 35.5t19 34.5q2 7 2 20q0 44 -19 63v23q104 21 101 21q16 0 34 -48q15 -40 15 -54z" />
    <glyph glyph-name="Icircumflex" unicode="&#xce;" horiz-adv-x="432" 
d="M386 57q-14 -31 -193 -47q-17 -11 -27 -11q-7 0 -13.5 10t-16.5 10q-4 0 -49 -5.5t-76 -5.5q24 25 62 29l54 6q22 8 22 45q0 26 -6 193q-7 190 -12 236q-24 2 -99 2q69 40 109.5 47.5t118.5 15.5q66 6 84 6q30 0 42 -31q-10 0 -37 -7.5t-34 -7.5q6 0 -30 -2q-21 -1 -31 3
q0 -303 13 -479q67 3 119 -7zM314 596q-30 40 -93 118q-20 -22 -41 -45q-25 -28 -45 -40q-55 74 -55 99q0 9 33 46q48 51 53 58h25q39 -59 78 -119q46 -73 45 -117z" />
    <glyph glyph-name="Idieresis" unicode="&#xcf;" horiz-adv-x="432" 
d="M386 57q-14 -31 -193 -47q-17 -11 -27 -11q-7 0 -13.5 10t-16.5 10q-4 0 -49 -5.5t-76 -5.5q24 25 62 29l54 6q22 8 22 45q0 26 -6 193q-7 190 -12 236q-24 2 -99 2q69 40 109.5 47.5t118.5 15.5q66 6 84 6q30 0 42 -31q-10 0 -37 -7.5t-34 -7.5q6 0 -30 -2q-21 -1 -31 3
q0 -303 13 -479q67 3 119 -7zM375 688q0 -11 -47 -28q-43 -15 -55 -15q-9 0 -12.5 4t-9.5 4q2 15 -14 62q87 35 98 35q9 0 24.5 -26.5t15.5 -35.5zM178 698q0 -34 -28 -41q-51 -13 -60 -18h-23q-14 38 -14 71q70 40 102 40q10 0 16.5 -18.5t6.5 -33.5z" />
    <glyph glyph-name="Ntilde" unicode="&#xd1;" horiz-adv-x="720" 
d="M700 451q0 -6 -9 -12t-20 -6q-5 0 -25.5 3t-31.5 3q-26 0 -31 -13q0 -28 -7 -155t-7 -130t-1 -9t-1 -9q0 -13 19 -13q7 0 35 -8.5t42 -8.5l-21 -17q-34 0 -83 -4t-78 -4q-2 0 -31 1h-37t-71 96q-72 111 -103 142q-10 -5 -10 -93v-106q-1 -12 -2 -20q14 -12 48 -12.5
t51 -15.5q-114 -25 -162 -25q8 0 -53 -6q-23 1 -70 -4q-15 0 -24 9q8 19 37 21q45 4 55 8q-2 7 -2 17q0 13 4.5 34.5t4.5 26.5l-2 297q-25 -2 -52 7q8 21 185 21q6 0 86 -121q87 -134 127 -170q4 2 4 38q1 24 0 69q-1 43 -1 47v102q-13 0 -43 4t-43 4q103 34 179 34
q108 0 144 -22zM610 640q0 -44 -127 -82q-100 -30 -133 -30q-10 0 -82.5 36t-78.5 36q-8 0 -42 -17q-43 -22 -59 -28h-23q14 35 85 71q66 33 105 33q8 0 92 -39.5t92 -39.5q16 0 35 20l28 30q33 11 99 29q9 -9 9 -19z" />
    <glyph glyph-name="Ograve" unicode="&#xd2;" horiz-adv-x="547" 
d="M520 266q0 -101 -107 -173q-91 -61 -177 -61q-79 0 -144 90q-59 82 -59 157q0 111 120 177q87 48 164 48q65 0 48 1q32 -2 50 -18q45 -41 75 -105.5t30 -115.5zM402 259q0 112 -55 168q-42 44 -63 44q-34 0 -83 -70.5t-49 -111.5q0 -43 20 -96q28 -71 75 -98l20 -14
q16 -10 25 -10q37 0 76 83q34 72 34 105zM317 571q-16 1 -61 -13t-50 -14q-9 0 -57 33q-58 40 -75 48q11 17 56 32q37 12 46 12q13 0 73.5 -32.5t67.5 -41.5v-24z" />
    <glyph glyph-name="Oacute" unicode="&#xd3;" horiz-adv-x="547" 
d="M520 266q0 -101 -107 -173q-91 -61 -177 -61q-79 0 -144 90q-59 82 -59 157q0 111 120 177q87 48 164 48q65 0 48 1q32 -2 50 -18q45 -41 75 -105.5t30 -115.5zM402 259q0 112 -55 168q-42 44 -63 44q-34 0 -83 -70.5t-49 -111.5q0 -43 20 -96q28 -71 75 -98l20 -14
q16 -10 25 -10q37 0 76 83q34 72 34 105zM418 650q0 -30 -59 -64q-55 -32 -83 -31h-28q3 11 18 35.5t19 34.5q2 7 2 20q0 44 -19 63v23q104 21 101 21q16 0 34 -48q15 -40 15 -54z" />
    <glyph glyph-name="Ocircumflex" unicode="&#xd4;" horiz-adv-x="547" 
d="M520 266q0 -101 -107 -173q-91 -61 -177 -61q-79 0 -144 90q-59 82 -59 157q0 111 120 177q87 48 164 48q65 0 48 1q32 -2 50 -18q45 -41 75 -105.5t30 -115.5zM402 259q0 112 -55 168q-42 44 -63 44q-34 0 -83 -70.5t-49 -111.5q0 -43 20 -96q28 -71 75 -98l20 -14
q16 -10 25 -10q37 0 76 83q34 72 34 105zM394 533q-30 40 -93 118q-20 -22 -41 -45q-25 -28 -45 -40q-55 74 -55 99q0 9 33 46q48 51 53 58h25q39 -59 78 -119q46 -73 45 -117z" />
    <glyph glyph-name="Otilde" unicode="&#xd5;" horiz-adv-x="547" 
d="M520 266q0 -101 -107 -173q-91 -61 -177 -61q-79 0 -144 90q-59 82 -59 157q0 111 120 177q87 48 164 48q65 0 48 1q32 -2 50 -18q45 -41 75 -105.5t30 -115.5zM402 259q0 112 -55 168q-42 44 -63 44q-34 0 -83 -70.5t-49 -111.5q0 -43 20 -96q28 -71 75 -98l20 -14
q16 -10 25 -10q37 0 76 83q34 72 34 105zM551 652q0 -44 -127 -82q-100 -30 -133 -30q-10 0 -82.5 36t-78.5 36q-8 0 -42 -17q-43 -22 -59 -28h-23q14 35 85 71q66 33 105 33q8 0 92 -39.5t92 -39.5q16 0 35 20l28 30q33 11 99 29q9 -9 9 -19z" />
    <glyph glyph-name="Odieresis" unicode="&#xd6;" horiz-adv-x="547" 
d="M520 266q0 -101 -107 -173q-91 -61 -177 -61q-79 0 -144 90q-59 82 -59 157q0 111 120 177q87 48 164 48q65 0 48 1q32 -2 50 -18q45 -41 75 -105.5t30 -115.5zM402 259q0 112 -55 168q-42 44 -63 44q-34 0 -83 -70.5t-49 -111.5q0 -43 20 -96q28 -71 75 -98l20 -14
q16 -10 25 -10q37 0 76 83q34 72 34 105zM519 624q0 -11 -47 -28q-43 -15 -55 -15q-9 0 -12.5 4t-9.5 4q2 15 -14 62q87 35 98 35q9 0 24.5 -26.5t15.5 -35.5zM322 634q0 -34 -28 -41q-51 -13 -60 -18h-23q-14 38 -14 71q70 40 102 40q10 0 16.5 -18.5t6.5 -33.5z" />
    <glyph glyph-name="Ugrave" unicode="&#xd9;" horiz-adv-x="642" 
d="M613 503q2 0 -28 -24q-2 -14 -10 -108q-6 -79 -15 -101q-96 -239 -303 -239q-176 0 -176 283q0 65 10 139h-80q45 20 128 48q34 2 114 8q8 -12 8 -24q-44 -2 -56 -90q-4 -29 -4 -117q0 -15 -1.5 -30.5t-1.5 -20.5q0 -26 31 -93q9 -19 41 -36q29 -15 44 -15q20 0 44 25
q21 22 32.5 46.5t29.5 84.5q26 154 26 202q0 8 -3 9.5t-3 8.5h-86q19 11 108 32q86 19 106 19zM328 582q-16 1 -61 -13t-50 -14q-9 0 -57 33q-58 40 -75 48q11 17 56 32q37 12 46 12q13 0 73.5 -32.5t67.5 -41.5v-24z" />
    <glyph glyph-name="Uacute" unicode="&#xda;" horiz-adv-x="642" 
d="M613 503q2 0 -28 -24q-2 -14 -10 -108q-6 -79 -15 -101q-96 -239 -303 -239q-176 0 -176 283q0 65 10 139h-80q45 20 128 48q34 2 114 8q8 -12 8 -24q-44 -2 -56 -90q-4 -29 -4 -117q0 -15 -1.5 -30.5t-1.5 -20.5q0 -26 31 -93q9 -19 41 -36q29 -15 44 -15q20 0 44 25
q21 22 32.5 46.5t29.5 84.5q26 154 26 202q0 8 -3 9.5t-3 8.5h-86q19 11 108 32q86 19 106 19zM499 650q0 -30 -59 -64q-55 -32 -83 -31h-28q3 11 18 35.5t19 34.5q2 7 2 20q0 44 -19 63v23q104 21 101 21q16 0 34 -48q15 -40 15 -54z" />
    <glyph glyph-name="Ucircumflex" unicode="&#xdb;" horiz-adv-x="642" 
d="M613 503q2 0 -28 -24q-2 -14 -10 -108q-6 -79 -15 -101q-96 -239 -303 -239q-176 0 -176 283q0 65 10 139h-80q45 20 128 48q34 2 114 8q8 -12 8 -24q-44 -2 -56 -90q-4 -29 -4 -117q0 -15 -1.5 -30.5t-1.5 -20.5q0 -26 31 -93q9 -19 41 -36q29 -15 44 -15q20 0 44 25
q21 22 32.5 46.5t29.5 84.5q26 154 26 202q0 8 -3 9.5t-3 8.5h-86q19 11 108 32q86 19 106 19zM424 533q-30 40 -93 118q-20 -22 -41 -45q-25 -28 -45 -40q-55 74 -55 99q0 9 33 46q48 51 53 58h25q39 -59 78 -119q46 -73 45 -117z" />
    <glyph glyph-name="Udieresis" unicode="&#xdc;" horiz-adv-x="642" 
d="M613 503q2 0 -28 -24q-2 -14 -10 -108q-6 -79 -15 -101q-96 -239 -303 -239q-176 0 -176 283q0 65 10 139h-80q45 20 128 48q34 2 114 8q8 -12 8 -24q-44 -2 -56 -90q-4 -29 -4 -117q0 -15 -1.5 -30.5t-1.5 -20.5q0 -26 31 -93q9 -19 41 -36q29 -15 44 -15q20 0 44 25
q21 22 32.5 46.5t29.5 84.5q26 154 26 202q0 8 -3 9.5t-3 8.5h-86q19 11 108 32q86 19 106 19zM542 647q0 -11 -47 -28q-43 -15 -55 -15q-9 0 -12.5 4t-9.5 4q2 15 -14 62q87 35 98 35q9 0 24.5 -26.5t15.5 -35.5zM345 657q0 -34 -28 -41q-51 -13 -60 -18h-23q-14 38 -14 71
q70 40 102 40q10 0 16.5 -18.5t6.5 -33.5z" />
    <glyph glyph-name="germandbls" unicode="&#xdf;" horiz-adv-x="610" 
d="M302 315l-6 -41q168 -14 168 -103q0 -31 -39 -63t-76 -32q-23 0 -87 10q8 0 8 -9q0 -8 -7 -24.5t-6 -16.5q95 0 179 23q147 40 147 132q0 50 -28 74q-20 16 -67 27q-57 14 -76 24q35 12 71 24q60 23 60 52q0 60 -120 100q-19 7 -128 31q-22 5 -115 5q-33 0 -87.5 -13.5
t-82.5 -28.5q15 0 39.5 2t29.5 2q26 0 26 -103q0 -22 -1.5 -51.5t-1.5 -32.5q0 7 2 -42q1 -42 0 -76q-2 -48 -8 -82q-6 -19 -13 -65q-6 -75 6 -75l115 18q14 26 16 153q1 87 2 173q0 -1 -1 189h22q21 1 79 -19q54 -17 60 -23q49 -50 49 -72q0 -26 -121 -63z" />
    <glyph glyph-name="agrave" unicode="&#xe0;" horiz-adv-x="489" 
d="M468 46q-58 -24 -109 -34q-8 8 -8 34q-25 2 -89 -19q-10 -4 -29 -4q-13 0 -34 1t-23 1q-155 0 -155 115q0 76 115 138q95 50 155 50q9 0 49 -3.5t47 -3.5h41q15 -99 40 -275zM348 83q-2 26 -12 84q-16 74 -30 101q-4 9 -30 9l1 2q-4 3 -36 3q-42 0 -73 -40
q-29 -36 -29 -76t43 -70q38 -25 76 -25q8 0 43.5 6t46.5 6zM317 427q-16 1 -61 -13t-50 -14q-9 0 -57 33q-58 40 -75 48q11 17 56 32q37 12 46 12q13 0 73.5 -32.5t67.5 -41.5v-24z" />
    <glyph glyph-name="aacute" unicode="&#xe1;" horiz-adv-x="489" 
d="M468 46q-58 -24 -109 -34q-8 8 -8 34q-25 2 -89 -19q-10 -4 -29 -4q-13 0 -34 1t-23 1q-155 0 -155 115q0 76 115 138q95 50 155 50q9 0 49 -3.5t47 -3.5h41q15 -99 40 -275zM348 83q-2 26 -12 84q-16 74 -30 101q-4 9 -30 9l1 2q-4 3 -36 3q-42 0 -73 -40
q-29 -36 -29 -76t43 -70q38 -25 76 -25q8 0 43.5 6t46.5 6zM389 489q0 -30 -59 -64q-55 -32 -83 -31h-28q3 11 18 35.5t19 34.5q2 7 2 20q0 44 -19 63v23q104 21 101 21q16 0 34 -48q15 -40 15 -54z" />
    <glyph glyph-name="acircumflex" unicode="&#xe2;" horiz-adv-x="489" 
d="M468 46q-58 -24 -109 -34q-8 8 -8 34q-25 2 -89 -19q-10 -4 -29 -4q-13 0 -34 1t-23 1q-155 0 -155 115q0 76 115 138q95 50 155 50q9 0 49 -3.5t47 -3.5h41q15 -99 40 -275zM348 83q-2 26 -12 84q-16 74 -30 101q-4 9 -30 9l1 2q-4 3 -36 3q-42 0 -73 -40
q-29 -36 -29 -76t43 -70q38 -25 76 -25q8 0 43.5 6t46.5 6zM377 389q-30 40 -93 118q-20 -22 -41 -45q-25 -28 -45 -40q-55 74 -55 99q0 9 33 46q48 51 53 58h25q39 -59 78 -119q46 -73 45 -117z" />
    <glyph glyph-name="atilde" unicode="&#xe3;" horiz-adv-x="611" 
d="M537 52q-58 -24 -109 -34q-8 8 -8 34q-25 2 -89 -19q-10 -4 -29 -4q-13 0 -34 1t-23 1q-155 0 -155 115q0 76 115 138q95 50 155 50q9 0 49 -3.5t47 -3.5h41q15 -99 40 -275zM417 89q-2 26 -12 84q-16 74 -30 101q-4 9 -30 9l1 2q-4 3 -36 3q-42 0 -73 -40
q-29 -36 -29 -76t43 -70q38 -25 76 -25q8 0 43.5 6t46.5 6zM586 508q0 -44 -127 -82q-100 -30 -133 -30q-10 0 -82.5 36t-78.5 36q-8 0 -42 -17q-43 -22 -59 -28h-23q14 35 85 71q66 33 105 33q8 0 92 -39.5t92 -39.5q16 0 35 20l28 30q33 11 99 29q9 -9 9 -19z" />
    <glyph glyph-name="adieresis" unicode="&#xe4;" horiz-adv-x="489" 
d="M468 46q-58 -24 -109 -34q-8 8 -8 34q-25 2 -89 -19q-10 -4 -29 -4q-13 0 -34 1t-23 1q-155 0 -155 115q0 76 115 138q95 50 155 50q9 0 49 -3.5t47 -3.5h41q15 -99 40 -275zM348 83q-2 26 -12 84q-16 74 -30 101q-4 9 -30 9l1 2q-4 3 -36 3q-42 0 -73 -40
q-29 -36 -29 -76t43 -70q38 -25 76 -25q8 0 43.5 6t46.5 6zM461 496q0 -11 -47 -28q-43 -15 -55 -15q-9 0 -12.5 4t-9.5 4q2 15 -14 62q87 35 98 35q9 0 24.5 -26.5t15.5 -35.5zM264 506q0 -34 -28 -41q-51 -13 -60 -18h-23q-14 38 -14 71q70 40 102 40q10 0 16.5 -18.5
t6.5 -33.5z" />
    <glyph glyph-name="aring" unicode="&#xe5;" horiz-adv-x="489" 
d="M468 46q-58 -24 -109 -34q-8 8 -8 34q-25 2 -89 -19q-10 -4 -29 -4q-13 0 -34 1t-23 1q-155 0 -155 115q0 76 115 138q95 50 155 50q9 0 49 -3.5t47 -3.5h41q15 -99 40 -275zM348 83q-2 26 -12 84q-16 74 -30 101q-4 9 -30 9l1 2q-4 3 -36 3q-42 0 -73 -40
q-29 -36 -29 -76t43 -70q38 -25 76 -25q8 0 43.5 6t46.5 6z" />
    <glyph glyph-name="ae" unicode="&#xe6;" horiz-adv-x="784" 
d="M348 83q-2 26 -12 84q-16 74 -30 101q-4 9 -30 9l1 2q-4 3 -36 3q-42 0 -74 -40q-28 -36 -28 -76t43 -70q38 -25 76 -25q8 0 43.5 6t46.5 6zM751 188q-92 -30 -187 -29q-55 0 -52 0q-33 -2 -33 -12q0 -38 72 -68q57 -24 85 -24q14 0 108 12q-6 -23 -98 -42
q-71 -16 -99 -16q-56 0 -107 26q-44 -15 -81 -23q-8 8 -8 34q-25 2 -89 -19q-10 -4 -29 -4q-13 0 -34 1t-23 1q-155 0 -155 115q0 76 115 138q95 50 155 50q8 0 48 -3.5t48 -3.5h41l2 -14q13 9 43 25q75 39 134 39q52 0 101 -62q44 -57 44 -106q0 -8 -1 -15zM659 243
q0 27 -9 54q-5 14 -25 31t-31 17q-31 0 -68 -47.5t-37 -75.5v-21q31 -7 91 -7q2 0 9 -1h13q57 0 57 50z" />
    <glyph glyph-name="egrave" unicode="&#xe8;" 
d="M419 189q-91 -30 -186 -29q-55 0 -52 0q-33 -2 -33 -12q0 -38 72 -68q57 -24 85 -24q14 0 108 12q-6 -23 -98 -43q-71 -15 -99 -15q-74 0 -133 42q-64 45 -64 116q0 12 14 48q18 45 41 69t68 48q74 39 134 39q52 0 101 -62q44 -57 44 -106q0 -8 -2 -15zM328 244
q0 27 -9 54q-5 14 -25 31t-32 17q-30 0 -67.5 -47.5t-37.5 -75.5v-21q32 -8 92 -8h9q7 -1 13 -1q57 0 57 51zM305 461q-16 1 -61 -13t-50 -14q-9 0 -57 33q-58 40 -75 48q11 17 56 32q37 12 46 12q13 0 73.5 -32.5t67.5 -41.5v-24z" />
    <glyph glyph-name="eacute" unicode="&#xe9;" 
d="M419 189q-91 -30 -186 -29q-55 0 -52 0q-33 -2 -33 -12q0 -38 72 -68q57 -24 85 -24q14 0 108 12q-6 -23 -98 -43q-71 -15 -99 -15q-74 0 -133 42q-64 45 -64 116q0 12 14 48q18 45 41 69t68 48q74 39 134 39q52 0 101 -62q44 -57 44 -106q0 -8 -2 -15zM328 244
q0 27 -9 54q-5 14 -25 31t-32 17q-30 0 -67.5 -47.5t-37.5 -75.5v-21q32 -8 92 -8h9q7 -1 13 -1q57 0 57 51zM361 518q0 -30 -59 -64q-55 -32 -83 -31h-28q3 11 18 35.5t19 34.5q2 7 2 20q0 44 -19 63v23q104 21 101 21q16 0 34 -48q15 -40 15 -54z" />
    <glyph glyph-name="ecircumflex" unicode="&#xea;" 
d="M419 189q-91 -30 -186 -29q-55 0 -52 0q-33 -2 -33 -12q0 -38 72 -68q57 -24 85 -24q14 0 108 12q-6 -23 -98 -43q-71 -15 -99 -15q-74 0 -133 42q-64 45 -64 116q0 12 14 48q18 45 41 69t68 48q74 39 134 39q52 0 101 -62q44 -57 44 -106q0 -8 -2 -15zM328 244
q0 27 -9 54q-5 14 -25 31t-32 17q-30 0 -67.5 -47.5t-37.5 -75.5v-21q32 -8 92 -8h9q7 -1 13 -1q57 0 57 51zM366 400q-30 40 -93 118q-20 -22 -41 -45q-25 -28 -45 -40q-55 74 -55 99q0 9 33 46q48 51 53 58h25q39 -59 78 -119q46 -73 45 -117z" />
    <glyph glyph-name="edieresis" unicode="&#xeb;" 
d="M419 189q-91 -30 -186 -29q-55 0 -52 0q-33 -2 -33 -12q0 -38 72 -68q57 -24 85 -24q14 0 108 12q-6 -23 -98 -43q-71 -15 -99 -15q-74 0 -133 42q-64 45 -64 116q0 12 14 48q18 45 41 69t68 48q74 39 134 39q52 0 101 -62q44 -57 44 -106q0 -8 -2 -15zM328 244
q0 27 -9 54q-5 14 -25 31t-32 17q-30 0 -67.5 -47.5t-37.5 -75.5v-21q32 -8 92 -8h9q7 -1 13 -1q57 0 57 51zM438 497q0 -11 -47 -28q-43 -15 -55 -15q-9 0 -12.5 4t-9.5 4q2 15 -14 62q87 35 98 35q9 0 24.5 -26.5t15.5 -35.5zM241 507q0 -34 -28 -41q-51 -13 -60 -18h-23
q-14 38 -14 71q70 40 102 40q10 0 16.5 -18.5t6.5 -33.5z" />
    <glyph glyph-name="igrave" unicode="&#xec;" horiz-adv-x="325" 
d="M300 212q0 -65 -16 -180q-58 -24 -82 -24q-8 0 -16.5 3t-14.5 3q9 178 9 205q0 118 -28 222q57 18 84 18q12 0 29 -7q13 -51 25 -102q10 -43 10 -138zM254 566q-16 1 -61 -13t-51 -14q-9 0 -57 34q-57 39 -74 48q10 16 56 31q36 12 46 12q12 0 73 -32.5t68 -41.5v-24z
" />
    <glyph glyph-name="iacute" unicode="&#xed;" horiz-adv-x="230" 
d="M179 212q0 -65 -16 -180q-58 -24 -82 -24q-8 0 -16.5 2.5t-14.5 2.5q9 178 9 205q0 118 -28 222q57 19 84 19q12 0 29 -7q13 -51 25 -102q10 -44 10 -138zM228 604q0 -30 -60 -64q-54 -31 -83 -30h-28q3 11 18 35t19 34q3 7 3 21q0 44 -20 62v23q105 21 101 21
q16 0 34 -47q16 -41 16 -55z" />
    <glyph glyph-name="icircumflex" unicode="&#xee;" horiz-adv-x="267" 
d="M225 212q0 -65 -16 -181q-58 -23 -81 -23q-9 0 -17.5 2.5t-14.5 2.5q10 178 10 205q0 118 -29 222q58 19 84 19q13 0 30 -8q12 -51 25 -102q9 -43 9 -137zM245 464q-31 39 -94 118q-20 -22 -40 -45q-26 -28 -46 -40q-55 73 -55 98q0 10 34 47q47 51 53 58h24
q39 -59 79 -119q45 -74 45 -117z" />
    <glyph glyph-name="idieresis" unicode="&#xef;" horiz-adv-x="353" 
d="M225 218q0 -65 -16 -180q-58 -24 -81 -24q-9 0 -17.5 2.5t-14.5 2.5q10 178 10 205q0 118 -29 222q58 19 84 19q12 0 30 -7q12 -51 25 -103q9 -43 9 -137zM335 578q0 -11 -48 -28q-42 -15 -54 -15q-9 0 -12.5 4t-9.5 4q2 15 -14 63q87 34 98 34q9 0 24.5 -26.5
t15.5 -35.5zM137 588q0 -34 -27 -41q-52 -12 -60 -18h-23q-14 38 -14 71q70 40 101 40q10 0 16.5 -18.5t6.5 -33.5z" />
    <glyph glyph-name="ntilde" unicode="&#xf1;" horiz-adv-x="618" 
d="M518 146q0 -45 -16.5 -64t-77.5 -44h-23q-3 91 -7 182q-8 134 -53 134q-81 0 -101 -56q-12 -33 -4 -120t-4 -118q-29 -11 -92 -42q-22 21 -29 56q0 -7 -1.5 47.5t-1.5 101.5q0 67 3 115l9 60q65 28 96 28q9 0 13 -4t6 -4v-52q41 27 175 27q56 0 76 -56q11 -29 17 -111
q1 -15 8 -43.5t7 -36.5zM586 589q0 -44 -127 -82q-100 -30 -133 -30q-10 0 -82.5 36t-78.5 36q-8 0 -42 -17q-43 -22 -59 -28h-23q14 35 85 71q66 33 105 33q8 0 92 -39.5t92 -39.5q16 0 35 20l28 30q33 11 99 29q9 -9 9 -19z" />
    <glyph glyph-name="ograve" unicode="&#xf2;" 
d="M448 250q0 -85 -48 -148q-58 -76 -160 -76q-7 0 -40.5 -3t-41.5 -3q-18 0 -97 48q-15 9 -32 46q-9 17 -9 51q0 31 42 89q37 53 65 72q13 10 74 26q68 19 107 19q56 0 83.5 -12t33.5 -32q23 -69 23 -77zM344 214q0 53 -37 98q-10 11 -28 11q-42 0 -90 -46
q-51 -50 -51 -103q0 -43 16 -59q18 -19 55 -38q34 -18 45 -18q45 0 71 57q19 44 19 98zM294 438q-16 1 -61 -13t-50 -14q-9 0 -57 33q-58 40 -75 48q11 17 56 32q37 12 46 12q13 0 73.5 -32.5t67.5 -41.5v-24z" />
    <glyph glyph-name="oacute" unicode="&#xf3;" 
d="M448 250q0 -85 -48 -148q-58 -76 -160 -76q-7 0 -40.5 -3t-41.5 -3q-18 0 -97 48q-15 9 -32 46q-9 17 -9 51q0 31 42 89q37 53 65 72q13 10 74 26q68 19 107 19q56 0 83.5 -12t33.5 -32q23 -69 23 -77zM344 214q0 53 -37 98q-10 11 -28 11q-42 0 -90 -46
q-51 -50 -51 -103q0 -43 16 -59q18 -19 55 -38q34 -18 45 -18q45 0 71 57q19 44 19 98zM395 512q0 -30 -59 -64q-55 -32 -83 -31h-28q3 11 18 35.5t19 34.5q2 7 2 20q0 44 -19 63v23q104 21 101 21q16 0 34 -48q15 -40 15 -54z" />
    <glyph glyph-name="ocircumflex" unicode="&#xf4;" 
d="M448 250q0 -85 -48 -148q-58 -76 -160 -76q-7 0 -40.5 -3t-41.5 -3q-18 0 -97 48q-15 9 -32 46q-9 17 -9 51q0 31 42 89q37 53 65 72q13 10 74 26q68 19 107 19q56 0 83.5 -12t33.5 -32q23 -69 23 -77zM344 214q0 53 -37 98q-10 11 -28 11q-42 0 -90 -46
q-51 -50 -51 -103q0 -43 16 -59q18 -19 55 -38q34 -18 45 -18q45 0 71 57q19 44 19 98zM417 423q-30 40 -93 118q-20 -22 -41 -45q-25 -28 -45 -40q-55 74 -55 99q0 9 33 46q48 51 53 58h25q39 -59 78 -119q46 -73 45 -117z" />
    <glyph glyph-name="otilde" unicode="&#xf5;" horiz-adv-x="589" 
d="M494 250q0 -85 -48 -148q-58 -76 -160 -76q-7 0 -40.5 -3t-41.5 -3q-18 0 -97 48q-15 9 -32 46q-9 17 -9 51q0 31 42 89q37 53 65 72q13 10 74 26q68 19 107 19q56 0 83.5 -12t33.5 -32q23 -69 23 -77zM390 214q0 53 -37 98q-10 11 -28 11q-42 0 -90 -46
q-51 -50 -51 -103q0 -43 16 -59q18 -19 55 -38q34 -18 45 -18q45 0 71 57q19 44 19 98zM569 530q0 -44 -127 -82q-100 -30 -133 -30q-10 0 -82.5 36t-78.5 36q-8 0 -42 -17q-43 -22 -59 -28h-23q14 35 85 71q66 33 105 33q8 0 92 -39.5t92 -39.5q16 0 35 20l28 30
q33 11 99 29q9 -9 9 -19z" />
    <glyph glyph-name="odieresis" unicode="&#xf6;" 
d="M448 250q0 -85 -48 -148q-58 -76 -160 -76q-7 0 -40.5 -3t-41.5 -3q-18 0 -97 48q-15 9 -32 46q-9 17 -9 51q0 31 42 89q37 53 65 72q13 10 74 26q68 19 107 19q56 0 83.5 -12t33.5 -32q23 -69 23 -77zM344 214q0 53 -37 98q-10 11 -28 11q-42 0 -90 -46
q-51 -50 -51 -103q0 -43 16 -59q18 -19 55 -38q34 -18 45 -18q45 0 71 57q19 44 19 98zM416 531q0 -11 -47 -28q-43 -15 -55 -15q-9 0 -12.5 4t-9.5 4q2 15 -14 62q87 35 98 35q9 0 24.5 -26.5t15.5 -35.5zM219 541q0 -34 -28 -41q-51 -13 -60 -18h-23q-14 38 -14 71
q70 40 102 40q10 0 16.5 -18.5t6.5 -33.5z" />
    <glyph glyph-name="ugrave" unicode="&#xf9;" horiz-adv-x="409" 
d="M383 43l-48 -24q-32 -16 -41 -16h-28l-4 14t-3 26q-86 -7 -116 -7q-115 0 -115 111q0 204 90 204h41q-19 -135 -19 -154q0 -109 89 -109h18q17 77 20 242q66 28 109 34q-2 -244 7 -321zM294 450q-16 1 -61 -13t-50 -14q-9 0 -57 33q-58 40 -75 48q11 17 56 32
q37 12 46 12q13 0 73.5 -32.5t67.5 -41.5v-24z" />
    <glyph glyph-name="uacute" unicode="&#xfa;" horiz-adv-x="409" 
d="M383 43l-48 -24q-32 -16 -41 -16h-28l-4 14t-3 26q-86 -7 -116 -7q-115 0 -115 111q0 204 90 204h41q-19 -135 -19 -154q0 -109 89 -109h18q17 77 20 242q66 28 109 34q-2 -244 7 -321zM337 489q0 -30 -59 -64q-55 -32 -83 -31h-28q3 11 18 35.5t19 34.5q2 7 2 20
q0 44 -19 63v23q104 21 101 21q16 0 34 -48q15 -40 15 -54z" />
    <glyph glyph-name="ucircumflex" unicode="&#xfb;" horiz-adv-x="409" 
d="M383 43l-48 -24q-32 -16 -41 -16h-28l-4 14t-3 26q-86 -7 -116 -7q-115 0 -115 111q0 204 90 204h41q-19 -135 -19 -154q0 -109 89 -109h18q17 77 20 242q66 28 109 34q-2 -244 7 -321zM314 435q-30 40 -93 118q-20 -22 -41 -45q-25 -28 -45 -40q-55 74 -55 99q0 9 33 46
q48 51 53 58h25q39 -59 78 -119q46 -73 45 -117z" />
    <glyph glyph-name="udieresis" unicode="&#xfc;" horiz-adv-x="409" 
d="M383 43l-48 -24q-32 -16 -41 -16h-28l-4 14t-3 26q-86 -7 -116 -7q-115 0 -115 111q0 204 90 204h41q-19 -135 -19 -154q0 -109 89 -109h18q17 77 20 242q66 28 109 34q-2 -244 7 -321zM380 491q0 -11 -47 -28q-43 -15 -55 -15q-9 0 -12.5 4t-9.5 4q2 15 -14 62
q87 35 98 35q9 0 24.5 -26.5t15.5 -35.5zM183 501q0 -34 -28 -41q-51 -13 -60 -18h-23q-14 38 -14 71q70 40 102 40q10 0 16.5 -18.5t6.5 -33.5z" />
    <glyph glyph-name="endash" unicode="&#x2013;" horiz-adv-x="553" 
d="M525 374q-77 -44 -99 -44q-8 0 -121.5 10t-121.5 10q-2 0 -45.5 -3.5t-70.5 -3.5q-22 0 -35 3q18 23 127 39q78 11 113 11q6 0 51.5 -8t66.5 -10q45 1 135 -4z" />
    <glyph glyph-name="emdash" unicode="&#x2014;" horiz-adv-x="727" 
d="M715 374q-107 -42 -137 -42q-11 0 -168.5 9.5t-168.5 9.5q-2 0 -62.5 -3t-97.5 -3q-31 0 -49 2q25 23 177 38q107 11 155 11q9 0 70 -8q65 -8 95 -10q62 1 186 -4z" />
    <glyph glyph-name="afii00208" unicode="&#x2015;" horiz-adv-x="825" 
d="M819 377q-122 -42 -156 -42q-13 0 -193 9.5t-193 9.5q-2 0 -71 -3t-112 -3q-35 0 -56 2q29 23 202 38q122 11 178 11q10 0 79 -7q75 -9 109 -10q71 1 213 -5z" />
    <glyph glyph-name="quoteleft" unicode="&#x2018;" horiz-adv-x="264" 
d="M58 600q0 30 60 64q54 31 82 31h28q-3 -11 -18 -35.5t-18 -33t-3 -22.5q0 -43 20 -62v-23q-105 -21 -102 -21q-16 0 -34 48q-15 40 -15 54z" />
    <glyph glyph-name="quoteright" unicode="&#x2019;" horiz-adv-x="264" 
d="M228 593q0 -30 -59 -64q-55 -32 -83 -31h-28q3 11 18 35.5t19 34.5q2 7 2 20q0 44 -19 63v23q104 21 101 21q16 0 34 -48q15 -40 15 -54z" />
    <glyph glyph-name="quotedblleft" unicode="&#x201c;" horiz-adv-x="486" 
d="M454 718q-5 -4 -37 -19q-27 -12 -34 -30q-4 -10 -4 -28q0 -12 3.5 -45.5t2.5 -51.5q-37 -14 -107 -40q-15 59 -15 88q0 63 63 98q52 29 128 28zM237 732q-44 -24 -59 -60q-9 -22 -9 -68t-8 -67q-4 -1 -42 -16q-33 -13 -50 -13q-10 0 -16 4q4 14 5 59q1 55 3 74
q2 15 64 51.5t77 35.5h35z" />
    <glyph glyph-name="quotedblright" unicode="&#x201d;" horiz-adv-x="484" 
d="M447 599q0 -43 -42 -74q-37 -28 -93 -38l-30 9q39 57 39 94q0 12 -9 42t-8 51q66 28 97 28q14 0 31 -54q15 -46 15 -58zM223 605q0 -56 -51 -94q-44 -33 -112 -43q-8 0 -8 16q0 6 20.5 27t23 33.5t2.5 28.5q0 5 -11 96q51 27 93 35h29q14 -72 14 -99z" />
    <glyph glyph-name="dagger" unicode="&#x2020;" horiz-adv-x="581" 
d="M565 522q-9 -11 -46 -33q-42 -24 -59 -24q-71 0 -113 7q-20 -61 -27 -185q-8 -158 -14 -196q-15 -13 -47 -30l-54 -30q-1 24 -1 52q0 67 9 176q9 91 17 182q-14 17 -43 17q-14 0 -48.5 -6.5t-50.5 -5.5h-55q8 18 59 38q64 25 72 30q-30 34 -36 45q-10 18 -10 44
q0 52 81 98q69 40 116 40q44 0 68 -41q18 -30 18 -61q0 -27 -25 -46q-27 -23 -34 -58q2 -4 4 -7.5t12 -3.5q186 0 207 -2zM289 584v43q0 9 -25 28q-22 16 -33 19v-54q-1 -10 12.5 -27t22.5 -17t14.5 4t8.5 4z" />
    <glyph glyph-name="daggerdbl" unicode="&#x2021;" horiz-adv-x="636" 
d="M612 494q0 -26 -74 -59q-65 -30 -84 -30q-40 0 -81 20q-19 -58 -19 -152q0 -15 1 -43v-42q0 -85 -17 -131q-31 -13 -86 -47q-20 32 -18 70q4 37 7 74q5 60 5 105q0 128 -40 199q-20 -12 -59 -25q-43 -15 -65 -15q-24 0 -44 10q-25 12 -25 33q0 44 59 76q48 26 89 26
q35 0 84 -53q0 23 -7.5 73t-7.5 56q0 33 47 62q43 26 76 26q11 -11 6 -23q4 -9 22 -12q40 -36 40 -60q0 -9 -26 -51q-31 -52 -40 -73q1 -3 3 -5q-2 1 10 1q8 0 70.5 19.5t71.5 19.5q29 0 62 -12q40 -15 40 -37z" />
    <glyph glyph-name="ellipsis" unicode="&#x2026;" horiz-adv-x="584" 
d="M541 70q-71 -26 -101 -26q-9 0 -18 24q-6 20 -11 40q90 34 98 34q14 0 24 -23q9 -19 9 -39q0 -6 -1 -10zM358 80q0 -11 -48 -28q-42 -15 -54 -15q-9 0 -12.5 4t-10.5 4q3 15 -13 63q87 34 98 34q9 0 24.5 -26.5t15.5 -35.5zM160 90q0 -34 -27 -41q-52 -12 -61 -18h-22
q-14 38 -14 71q70 40 101 40q10 0 16.5 -18.5t6.5 -33.5z" />
    </font>
</defs>
</svg>
