<?xml version="1.0" standalone="no"?>
<!DOCTYPE svg PUBLIC "-//W3C//DTD SVG 1.1//EN" "http://www.w3.org/Graphics/SVG/1.1/DTD/svg11.dtd" >
<svg xmlns="http://www.w3.org/2000/svg" xmlns:xlink="http://www.w3.org/1999/xlink" version="1.1">
<metadata>
Created by FontForge 20230101 at Sat Apr 24 17:11:00 1999
 By Glenn Lewis
Conventional Wisdom - http://fonts.tom7.com/ - Copyright (c) 1999 Tom Murphy 7. Use freely, but don't resell the font itself! ImightbeTM@aol.com / 339 Still Hill Rd / Hamden, CT, 06518.1830 / USA. "Conventional wisdom is nothing but conventional."
</metadata>
<defs>
<font id="ConventionalWisdom" horiz-adv-x="201" >
  <font-face 
    font-family="Conventional Wisdom"
    font-weight="400"
    font-stretch="normal"
    units-per-em="1000"
    panose-1="0 0 4 0 0 0 0 0 0 0"
    ascent="800"
    descent="-200"
    x-height="575"
    cap-height="782"
    bbox="-3 -183 874 840"
    underline-thickness="20"
    underline-position="-143"
    unicode-range="U+0020-2026"
  />
<missing-glyph horiz-adv-x="500" 
d="M63 0v800h375v-800h-375zM125 63h250v675h-250v-675z" />
    <glyph glyph-name=".notdef" horiz-adv-x="500" 
d="M63 0v800h375v-800h-375zM125 63h250v675h-250v-675z" />
    <glyph glyph-name=".null" horiz-adv-x="0" 
 />
    <glyph glyph-name="nonmarkingreturn" horiz-adv-x="714" 
 />
    <glyph glyph-name="space" unicode=" " horiz-adv-x="714" 
 />
    <glyph glyph-name="exclam" unicode="!" horiz-adv-x="262" 
d="M246 490q0 -82 -25 -262q-51 1 -118 -5q-8 -1 -32 -5.5t-26 -4.5q-17 0 -17 17v63q0 2 -6 46.5t-6 46.5v131q0 2 -2.5 28t-2.5 28q0 18 16 184q0 8 8 14q75 10 146 10q13 0 59 -5q-3 -90 -2 -132q0 -31 4 -93.5t4 -60.5zM223 82q0 -53 -3 -59t-30 -9q-57 -8 -61 -8
q-26 0 -99 13v91q0 36 11.5 45.5t35.5 11.5q30 3 37 5q14 5 60 5q30 0 38 -3q4 -1 7.5 -24t3.5 -68z" />
    <glyph glyph-name="quotedbl" unicode="&#x22;" horiz-adv-x="417" 
d="M188 563q0 -61 -13 -76q-17 -20 -41 -44q-13 -13 -21 -13q-7 0 -13 44q-5 35 -5 53h-22q-17 -1 -16 -1q-10 0 -16.5 8.5t-13.5 95.5q-6 71 -6 100t38 29q113 0 121 -13q4 -7 4 -35q1 -39 2 -52q2 -23 2 -96zM399 557q0 -61 -13 -76q-17 -20 -41 -44q-13 -13 -21 -13
q-7 0 -13 44q-5 35 -5 53h-22q-17 -1 -16 -1q-10 0 -16.5 8.5t-13.5 95.5q-6 71 -6 100t38 29q113 0 121 -13q4 -7 4 -35q1 -39 2 -52q2 -23 2 -96z" />
    <glyph glyph-name="numbersign" unicode="#" horiz-adv-x="876" 
d="M852 163q0 -33 -8 -49q-27 -8 -91 -17q-7 -3 -8 -27q0 -18 -1 -36q-24 -10 -66 -13q-33 -2 -67 -4q-29 -4 -83 -10q-11 13 -13 45l-2 34q-24 -4 -69 -2l1 -28q1 -17 -10 -25q-6 -4 -40 -7q-6 0 -65 -3q-32 -1 -109 -7q-7 0 -25.5 -5t-22.5 -5h-18q-7 12 -9 55
q-1 24 -29 24q8 0 -21 2q-27 1 -84 0q2 46 -1 72l-6 46q3 -3 6 -3q5 0 12.5 6t11.5 6q54 4 87 4q0 32 -6 104q-4 2 -9 2q-7 0 -23.5 -4t-25.5 -4q-12 0 -22 6q-3 108 -2 223q4 7 24 7q16 0 31 -1q13 2 27 4q-1 30 -5 98q-4 61 -4 63q0 24 8 32t38 9l106 5q54 0 63 -1l38 -2
q24 -2 39 -10q6 -52 12 -161h43q31 0 33 8q3 43 8 130q162 1 187 0q7 -1 16 -9.5t9 -17.5v-103q7 -5 40 -5q4 0 21.5 1.5t21.5 1.5q7 0 16 -7q8 -48 12 -119q7 -131 7 -137q-20 -9 -40 -9h-11q-7 1 -9 1q-8 0 -10.5 -6.5t-0.5 -33.5q2 -30 8 -34q26 -2 77 -8q7 -4 7 -12
q6 -37 6 -64zM450 270q-2 18 -5 62q-2 29 -7 73q-44 -6 -62 -12q2 -26 6 -84q2 -21 7 -51q10 2 28 5q11 3 33 7z" />
    <glyph glyph-name="dollar" unicode="$" horiz-adv-x="535" 
d="M519 108q-19 -3 -72 -13q-47 -9 -50 -9q2 0 -9 1q-10 1 -30 0l-4 -1q0 -8 2.5 -26.5t2.5 -20.5q0 -31 -64 -31h-44q-27 0 -35 18l-10 46h-8q-8 -3 -24 -7q-34 -1 -104 -7q-2 1 -7 5q-4 34 -12 93q6 1 66 12q45 9 75 7v20q0 14 -9 35q-44 0 -84 -6q-54 -9 -42 -9
q-4 0 -6 1.5t-5 1.5l-24 335q1 40 -0.5 69.5t-1.5 23.5q0 7 5 15q70 15 130 13q-1 14 3 67v14q-1 11 -1 14q0 20 22 20t70 -14t55 -21q8 -10 7 -33q0 -28 3 -35q35 5 137 -4h14q10 -1 13 -9q8 -24 8 -63v-100q0 -2 3.5 -20t3.5 -21v-35h-74q-16 -3 -49 -9q-19 1 -56 -9
q3 -19 0 -62h41q3 0 47 5t47 5q36 0 44 -9t8 -58q9 -81 18 -167v-22zM373 175q-2 26 -7 67q-25 -3 -40 0v-40q0 -18 3 -28q42 0 44 1zM178 336q0 34 -8 72q-19 -4 -39 0v-34q0 -2 7 -48q5 2 23 3q14 1 17 7z" />
    <glyph glyph-name="percent" unicode="%" horiz-adv-x="509" 
d="M201 624q0 -58 -55 -81q-34 -15 -39 -15q-40 0 -85 60q-2 2 -6 15q-6 22 -6 34q0 29 17 62q19 38 48 55q6 4 45 11q7 0 21 1q10 2 9 2q27 0 38 -13.5t11 -49.5q0 -24 1 -54t1 -27zM507 682q0 -20 -94 -189q-54 -97 -132 -259q-24 -50 -50 -94q-32 -55 -42 -73
q-5 -15 -11 -31q-11 -24 -25 -24q-3 0 -59.5 36.5t-71 47t-14.5 28.5q0 15 48 118q16 33 45 94q17 43 56 134q17 36 44 79q41 63 46 72q25 44 49 89q44 75 63 75q16 0 79 -39q69 -42 69 -64zM494 157q0 -64 -36 -100q-4 -4 -41 -22q-6 -1 -18.5 -6t-20.5 -5q-42 0 -62 72
q-6 26 -13 55q-4 16 -4 28q0 36 36 64q11 11 34 24q5 2 11 2q12 0 29 -9q25 -13 28.5 -14t20 -13t18.5 -14q18 -31 18 -62zM129 602q0 6 -1 36q0 2 -4 5q-8 1 -15 1q-13 0 -15 -3q3 -60 3 -57q1 -1 3 -4q16 2 26 3q3 1 3 19zM392 142q0 58 0 57q-1 1 -3 4q-15 -1 -26 -2
q-3 0 -4 -19v-35q0 -3 3 -6q9 -2 15 -2q13 -1 15 3z" />
    <glyph glyph-name="ampersand" unicode="&#x26;" horiz-adv-x="466" 
d="M446 242q-3 -10 -21 -23q-13 -10 -25 -19t-33 -28q8 -14 43 -72q26 -43 26 -46q0 -9 -27 -29.5t-33 -20.5q-17 0 -25 8q-13 13 -46 55q-28 35 -31 35t-10 -4.5t-8 -4.5q-63 -23 -113 -23q-11 0 -39 -5.5t-41 -5.5q-15 0 -24 5q-21 10 -21 99q0 106 13 123q8 11 91 57
q0 2 -10.5 16.5t-13.5 20.5q-34 81 -37 88q-11 33 -11 79l-3.5 35.5t-3.5 61.5q0 50 13 72q11 19 51 30q28 7 56 13q89 21 163 21q56 0 80 -32.5t24 -101.5q0 -5 2 -20t2 -18q0 -93 -58 -164q-13 -16 -61 -55q-41 -34 -41 -40t36 -68q16 12 33 23q26 19 36 19q19 0 45 -35
t22 -46zM264 459v67q-18 -2 -45 0q3 -50 0 -75h19q22 0 26 8zM184 191q0 8 -4 41q-14 -3 -36 -3v-73h33q5 2 7 35z" />
    <glyph glyph-name="quotesingle" unicode="'" 
d="M186 563q0 -61 -13 -76q-17 -20 -41 -44q-13 -13 -21 -13q-7 0 -13 44q-5 35 -5 53h-22q-17 -1 -16 -1q-10 0 -16.5 8.5t-13.5 95.5q-6 71 -6 100t38 29q113 0 121 -13q4 -7 4 -35q1 -39 2 -52q2 -23 2 -96z" />
    <glyph glyph-name="parenleft" unicode="(" horiz-adv-x="371" 
d="M357 749q0 -12 -6 -19q-82 -97 -100 -128q-28 -51 -28 -122q0 -86 24 -181q17 -64 45 -134q25 -59 25 -60q0 -15 -18 -29q-15 -10 -30 -19q-20 -15 -61 -41q-18 -11 -35 -11q-13 0 -24 14.5t-21 28.5q-34 38 -67.5 102t-37.5 99q-7 76 -7 100q0 47 17 119q16 65 35 108
q11 25 52 78q46 58 84 90q61 52 104 52q18 0 33.5 -16t15.5 -31z" />
    <glyph glyph-name="parenright" unicode=")" horiz-adv-x="371" 
d="M365 450q0 -47 -17 -120q-16 -65 -35 -108q-11 -25 -52 -77q-46 -58 -84 -91q-61 -51 -105 -51q-18 0 -33 16t-15 31q0 11 6 18q82 97 99 128q29 51 29 123q0 86 -24 180q-17 64 -45 134q-25 59 -25 60q0 16 17 29q15 10 31 20q19 14 61 41q18 10 35 10q13 0 23.5 -14
t21.5 -29q34 -37 67.5 -101.5t37.5 -98.5q7 -77 7 -100z" />
    <glyph glyph-name="asterisk" unicode="*" horiz-adv-x="553" 
d="M512 617q0 -19 -56 -55q-32 -20 -64 -39q31 -38 62 -75q53 -66 53 -75q0 -4 -5.5 -13.5t-11.5 -11.5q-32 -12 -86 -28.5t-59 -16.5q-19 0 -86 103q-28 -27 -43 -44q-11 -21 -23 -42q-22 -38 -34 -38q-15 0 -38.5 23t-23.5 30t33.5 49.5t33.5 43.5h-46q-2 0 -31 -3.5
t-32 -3.5q-20 0 -25 12q-2 11 4 39q4 21 8.5 43t7.5 59q2 22 6 26t26 5q24 1 47 -2l40 -6q2 3 2 9q0 18 -12 70.5l-12 52.5q0 13 6 17q16 14 40 19q28 7 87 13.5t62 3.5q7 -5 8 -32v-41q2 -29 6 -89q22 15 72 60q6 6 16 6q11 0 39.5 -28.5t28.5 -40.5z" />
    <glyph glyph-name="plus" unicode="+" horiz-adv-x="527" 
d="M494 294q0 -12 -11 -14q-47 -10 -83 -10q-3 0 -13 1t-13 1q-18 0 -24 -4q1 -15 7.5 -45t6.5 -32q0 -19 -20 -25q-8 -2 -41 -4.5t-81 -2.5q-19 0 -21.5 10t-14.5 87q-10 4 -18 4q-3 0 -52.5 -6t-52.5 -6q-20 0 -26 25q-1 3 -3 33l-5 61q-3 6 -8 19q-1 30 -5 90
q23 15 42 17q27 2 53 4q4 0 45 1q7 8 7 22q0 11 -5 33.5t-5 30.5v47q19 6 62 14q38 6 81 6q33 0 74 -11q2 -23 -2 -66l-4 -44v-28q23 1 51 -1q21 -1 42 -1q37 -4 37 -22v-184z" />
    <glyph glyph-name="comma" unicode="," 
d="M174 70q0 -61 -13 -76q-17 -20 -41 -44q-13 -13 -21 -13q-7 0 -13 44q-5 35 -5 53h-22q-17 -1 -16 -1q-10 0 -16.5 8.5t-13.5 95.5q-6 71 -6 100t38 29q113 0 121 -13q4 -7 4 -35q1 -39 2 -52q2 -23 2 -96z" />
    <glyph glyph-name="hyphen" unicode="-" horiz-adv-x="599" 
d="M572 390q4 -6 2 -15q-3 -16 -3 -27q0 -2 -2 -31.5t-2 -31.5q10 -113 1 -123q-6 -6 -50 -12q-35 -4 -47 -4q-2 0 -40 4t-40 4q3 0 -35 -6h-46h-92q-2 0 -9 2t-9 2h-102q-12 0 -31 6.5t-22 12.5q-2 4 9 166q1 4 28.5 10t55.5 6q33 0 122 16t123 16q2 0 20 -1t20 -1
q-6 0 75 5q72 4 74 2z" />
    <glyph glyph-name="hyphen" unicode="&#x2010;" horiz-adv-x="599" 
d="M572 390q4 -6 2 -15q-3 -16 -3 -27q0 -2 -2 -31.5t-2 -31.5q10 -113 1 -123q-6 -6 -50 -12q-35 -4 -47 -4q-2 0 -40 4t-40 4q3 0 -35 -6h-46h-92q-2 0 -9 2t-9 2h-102q-12 0 -31 6.5t-22 12.5q-2 4 9 166q1 4 28.5 10t55.5 6q33 0 122 16t123 16q2 0 20 -1t20 -1
q-6 0 75 5q72 4 74 2z" />
    <glyph glyph-name="hyphen" unicode="&#x2010;" horiz-adv-x="599" 
d="M572 390q4 -6 2 -15q-3 -16 -3 -27q0 -2 -2 -31.5t-2 -31.5q10 -113 1 -123q-6 -6 -50 -12q-35 -4 -47 -4q-2 0 -40 4t-40 4q3 0 -35 -6h-46h-92q-2 0 -9 2t-9 2h-102q-12 0 -31 6.5t-22 12.5q-2 4 9 166q1 4 28.5 10t55.5 6q33 0 122 16t123 16q2 0 20 -1t20 -1
q-6 0 75 5q72 4 74 2z" />
    <glyph glyph-name="period" unicode="." horiz-adv-x="238" 
d="M231 44q0 -19 -13 -23q-27 -9 -77 -18q-43 -8 -50 -8q-21 0 -27 16t-12 100q-5 68 -5 89q0 30 38 30q-6 0 15 -1t66 -1q2 -1 15 -4q10 -1 13 -9q7 -14 22 -86.5t15 -84.5z" />
    <glyph glyph-name="slash" unicode="/" horiz-adv-x="509" 
d="M507 682q0 -20 -94 -189q-54 -97 -132 -259q-24 -50 -50 -94q-32 -55 -42 -73q-5 -15 -11 -31q-11 -24 -25 -24q-3 0 -59.5 36.5t-71 47t-14.5 28.5q0 15 48 118q16 33 45 94q17 43 56 134q37 78 78 149q25 46 50 93q45 79 64 79q16 0 84 -42q74 -45 74 -67z" />
    <glyph glyph-name="zero" unicode="0" horiz-adv-x="547" 
d="M510 252q0 -1 -3.5 -28t-3.5 -38q0 -67 -25 -112q-30 -56 -90 -56h-74q-2 0 -33.5 -3.5t-44.5 -3.5q-68 -3 -106 -3q-45 0 -73 34q-16 17 -21 44q-3 22 -6 43q-12 92 -12 231q0 83 10 139q11 62 60 144q9 20 19 40q12 24 29 37q22 16 68 28q42 11 74 11q43 0 80 -8
q25 -6 42.5 -13t34.5 -17q13 -6 34 -26q4 -9 5.5 -25t2.5 -30q8 -40 20 -115q8 -71 8 -132v-76q0 -2 2.5 -32t2.5 -33zM246 355q0 -6 -2 29q-2 30 0 54l2 30q-6 15 -49 15q-14 0 -18.5 -4.5t-9.5 -71.5q-3 -29 -3 -53q0 -17 1 -31.5t1 -13.5q16 -7 35 -7q34 0 40 10
q3 5 3 43z" />
    <glyph glyph-name="one" unicode="1" horiz-adv-x="524" 
d="M509 729q0 -19 -15 -71q-16 -62 -19 -76q-15 -106 -47 -317q-2 -12 -15 -61q-9 -37 -9 -63q43 -5 87 -11q3 -8 3 -53q0 -52 -8 -56q-4 -2 -39 0q-44 3 -49 3q-17 0 -51 -3t-51 -3q-24 0 -73 5.5t-74 5.5q-111 0 -58 -1q-43 1 -55 9q-4 3 -4 28v31l-2 8q-4 18 9 36
q5 8 27 8q13 0 37 -3t28 -3t9 33q9 70 9 119q0 27 3 158q0 41 3 133q0 9 5 23.5t5 22.5t-4 16q-1 2 -6 2q-27 0 -122 -43q-26 0 -26 48q0 60 4 70q7 16 93 35q78 17 109 17q11 0 33 -3t33 -3q10 0 29.5 3t28.5 3q15 0 81.5 -8.5t78.5 -12.5t12 -26z" />
    <glyph glyph-name="two" unicode="2" horiz-adv-x="633" 
d="M606 553q0 -103 -31 -169q-26 -56 -89 -107q-25 -20 -143 -100q-4 -3 -33 -31q10 2 32 5q7 -2 34 0q41 9 98 9q11 0 32.5 -4t32.5 -4q4 0 11 1.5t10 1.5q25 0 30 -18q2 -5 2 -37q0 -8 4 -23t4 -22q0 -36 -48 -36q-42 0 -126 -1.5t-126 -1.5q-16 0 -48 3t-48 3
q-12 0 -94 -6q-75 -5 -81 -4q-14 4 -14 52q0 -15 2 58q1 18 59 67q44 34 87 68q42 29 85 58q57 41 57 75q0 19 -13.5 31.5t-32.5 12.5q-41 0 -90.5 -47t-77.5 -47q-11 0 -33.5 -1.5t-34.5 -1.5q-9 62 -10 151q1 -164 1 151q0 10 -2.5 28.5t-2.5 27.5q0 59 32 70q40 15 89 15
q20 0 60 -4t60 -4q7 0 21.5 1.5t21.5 1.5q22 0 114 -16l84 -10q38 -4 56 -21q23 -22 40 -80q19 -64 19 -95z" />
    <glyph glyph-name="three" unicode="3" horiz-adv-x="504" 
d="M467 337q-4 -7 -20.5 -24.5t-16.5 -18.5q0 -3 10.5 -15t12.5 -17q12 -28 12 -57q0 -164 -6 -178q-5 -9 -54 -8q-79 0 -73 1q-121 -7 -112 -7q-89 0 -173 14q-15 3 -15 54v35q1 17 11.5 24.5t42.5 7.5q43 0 46 1q32 2 93 10q15 1 46 14v33q-1 1 -1.5 4t-4.5 3
q-3 0 -35.5 -5.5t-35.5 -5.5q-30 0 -40 17q-7 12 -7 39q0 33 13 41q8 5 39 5q13 0 66 -4q-7 3 -7 13q0 7 3.5 20t3.5 16q0 7 -12 7q-4 0 -65 -3t-64 -3q-14 0 -38 5q-31 6 -39 15q-6 6 -6 22q-1 13 -1 25q-2 18 -6 55q-16 171 -16 212q0 65 9.5 77.5t22.5 13.5q17 1 114 1
q27 0 152 -12q51 -4 103 -7q41 -2 46 -15q2 -4 2 -114q0 -109 -1 -131q0 -9 3 -50q3 -46 3 -68q0 -31 -5 -42z" />
    <glyph glyph-name="four" unicode="4" horiz-adv-x="593" 
d="M572 527q-2 -76 -4 -229q0 -2 3 -93q2 -48 -1 -124q1 -16 -4 -48q-5 -15 -37 -15q-3 0 -42.5 5.5t-42.5 5.5t-39.5 -7t-39.5 -7q-22 0 -23 18q2 31 1 105q-3 36 -6 74t-13 68q-53 -2 -170 -1t-121 4q-16 9 -17 49q1 29 2 59q-1 62 -4 167q-3 89 -3 92q0 123 25 123
q-4 0 15 -1.5t60 -1.5q5 0 11.5 -10t6.5 -17q7 -145 12 -145q6 0 94 3q27 1 28 1l39 -2l32 -5v60q0 4 -5 34.5t-5 33.5q0 41 87 41q2 0 20 -2.5t21 -2.5h99q4 0 12 -11t8 -16q2 -27 1 -205z" />
    <glyph glyph-name="five" unicode="5" horiz-adv-x="645" 
d="M623 169q0 -78 -15 -110q-25 -54 -103 -54q-3 0 -133 7.5t-134 7.5h-190q-32 0 -32 62q0 49 16 50q43 4 290 4v46q-50 -3 -139 -10q-76 -6 -79 -6q-56 0 -66 22q-13 27 -9 61q3 32 3 67q0 30 -3.5 93.5t-3.5 102.5v110q0 3 -6 46.5t-6 48.5q0 11 6.5 25.5t15.5 15.5
q128 7 180 7q4 0 25.5 -3.5t25.5 -3.5q3 0 40 3.5t41 3.5q3 0 82.5 -6t83.5 -6q3 0 28.5 1.5t29.5 1.5q7 0 19 -7.5t12 -14.5q1 -53 6 -174q1 -24 6 -68q3 -38 3 -41q0 -29 -19 -33q-126 -21 -213 -21q-41 0 -104 6q-30 3 -61 6h-40q-1 -15 0 -43q81 -3 214 -3q12 0 39 -3.5
t36 -3.5q26 -2 36 -3q24 -4 43 -14q36 -21 58 -81q17 -48 17 -89z" />
    <glyph glyph-name="six" unicode="6" horiz-adv-x="518" 
d="M500 482q0 -8 -3.5 -32.5t-5.5 -27.5q-4 -6 -27.5 -7t-44.5 -2q-13 -1 -96 -5q-68 -3 -132 -14q-12 -2 -9 -42q6 -4 34 -4q3 0 55.5 2.5t55.5 2.5q73 0 107 -42q21 -26 26 -70q6 -56 6 -160q0 -28 -18.5 -46t-45.5 -18q-3 0 -18 1t-18 1l-214 -13q-82 0 -111 50
q-19 35 -19 118v113q0 3 -4 74t-4 75q0 3 2.5 50t2.5 49v114q0 25 9 60q4 16 26 30q19 11 36 14q109 16 170 16q2 0 39 -2.5t41 -2.5q2 0 38 1.5t41 1.5q62 0 72 -4q5 -2 5 -29v-94q-1 -67 -1 -95q0 -7 2.5 -33.5t2.5 -29.5zM223 95l-2 35q-1 33 -1 46t3 37h-30
q-4 -6 -10 -49q-3 -23 -2 -45q0 -9 1 -24h41z" />
    <glyph glyph-name="seven" unicode="7" horiz-adv-x="625" 
d="M603 650v-35q-1 -23 -1 -28q0 -25 -5 -74.5t-5 -73.5q0 -149 -24 -255q-13 -48 -35 -146q-3 -12 -12 -22q-41 1 -63 4q-47 6 -51 21q-3 11 -3 73q0 55 13 166q14 117 27 163q-16 6 -35 6q7 0 -18 -4q-31 -5 -102 -5q-16 0 -47.5 2.5t-46.5 2.5q-10 0 -29 -2.5t-29 -2.5
q-14 0 -71 8q-18 2 -48 7q-3 64 0 101q6 71 22 135q19 72 36 73q71 9 112 9q55 -1 45 -2q80 12 136 12q37 0 107 -6q75 -7 104 -13q14 -4 16 -25q3 -27 7 -89z" />
    <glyph glyph-name="eight" unicode="8" horiz-adv-x="512" 
d="M462 660q0 -2 -2 -40q-3 -41 -4 -60q-4 -75 -14 -121q-5 -19 -13.5 -25.5t-8.5 -8.5q0 -9 5 -28.5t5 -24t1 -58.5t1 -56v-76q0 3 2 -16q1 -16 0 -29q-1 -19 -6 -31q-22 -54 -61 -62q-115 -23 -214 -23q-65 0 -91 14.5t-41 97.5q-11 63 -11 115q0 148 105 183
q-23 17 -23 86q0 75 13 141q4 20 20 57q19 46 35 64q1 0 37 19q28 14 72 14q-9 0 88 -12q62 -8 87 -40q6 -8 13 -42q5 -28 5 -38zM251 530q0 50 -10 57q-31 0 -42 -2.5t-12 -12.5q-3 -30 -3 -66q0 -18 1 -20q3 -11 20 -11q37 0 43 9q3 5 3 46zM316 90q1 24 -15 109h-26
q-41 1 -41 -24q0 -22 10 -75q5 -21 32 -21q34 7 40 11z" />
    <glyph glyph-name="nine" unicode="9" horiz-adv-x="495" 
d="M484 233q0 -6 -9 -146q0 -19 -5 -60q-2 -7 -13 -9q-38 -7 -57 -7q-2 0 -15 5t-14 8q-9 37 -9 86v66q0 41 -13 115q-24 13 -40 16q-62 11 -105 11q-2 0 -35 -2t-35 -2q-35 0 -40 1q-26 5 -52 27q-6 6 -8 27q-2 14 -4 41q-8 145 -8 185q0 170 77 179q37 4 115 4
q72 -1 89 -3q19 -6 58 -12q41 -1 44 -2q22 -3 29 -15t16 -86q7 -37 18 -111q5 -66 13 -197q3 -56 3 -119zM332 426q0 -2 2 33q2 20 -3 32q-13 -1 -24.5 1.5t-12.5 2.5q-5 0 -12 -4t0 -74q0 -18 25 -18q17 0 21 4t4 23z" />
    <glyph glyph-name="colon" unicode=":" horiz-adv-x="238" 
d="M231 44q0 -19 -13 -23q-27 -9 -77 -18q-43 -8 -50 -8q-21 0 -27 16t-12 100q-5 68 -5 89q0 30 38 30q-6 0 15 -1t66 -1q2 -1 15 -4q10 -1 13 -9q7 -14 22 -86.5t15 -84.5zM219 447q0 -19 -13 -23q-27 -9 -77 -18q-43 -8 -50 -8q-21 0 -27 16t-12 100q-5 68 -5 89
q0 30 38 30q-6 0 15 -1t66 -1q2 -1 15 -4q10 -1 13 -9q7 -14 22 -86.5t15 -84.5z" />
    <glyph glyph-name="semicolon" unicode=";" 
d="M174 70q0 -61 -13 -76q-17 -20 -41 -44q-13 -13 -21 -13q-7 0 -13 44q-5 35 -5 53h-22q-17 -1 -16 -1q-10 0 -16.5 8.5t-13.5 95.5q-6 71 -6 100t38 29q113 0 121 -13q4 -7 4 -35q1 -39 2 -52q2 -23 2 -96zM196 438q0 -19 -13 -23q-27 -9 -77 -18q-43 -8 -50 -8
q-21 0 -27 16t-12 100q-5 68 -5 89q0 30 38 30q-6 0 15 -1t66 -1q2 -1 15 -4q10 -1 13 -9q7 -14 22 -86.5t15 -84.5z" />
    <glyph glyph-name="less" unicode="&#x3c;" horiz-adv-x="449" 
d="M425 573q0 -4 -33 -50t-53.5 -70.5t-69.5 -68.5q-42 -37 -42 -40q0 -36 11 -59q6 -14 32 -54q31 -50 46 -65.5t15 -31.5q0 -14 -42.5 -44t-48.5 -30q-19 0 -127 165q-104 160 -104 171q0 31 139 168q123 121 159 145q14 -11 64 -68q54 -61 54 -68z" />
    <glyph glyph-name="equal" unicode="=" horiz-adv-x="657" 
d="M607 410q0 -19 -49 -16q-267 16 -338 16q-16 0 -48.5 5t-48.5 5q-12 0 -39 -4.5t-37 -4.5q-12 0 -15 5q-13 20 -13 151q0 36 25 36q9 0 28 -3.5t28 -3.5q7 0 19.5 2.5t18.5 2.5q133 0 190 2q9 0 27 5t28 5q29 0 87 -9.5t87 -9.5q16 0 26 -6t18 -83q6 -61 6 -95zM622 172
q0 -39 -15 -39q-8 0 -40 2q-26 1 -84 4q-32 4 -84.5 15t-79.5 13q-49 4 -131 1q-114 -4 -132 -4q-2 0 -8 27q0 3 -3 29q-1 20 -1 87q0 45 3.5 47.5t16.5 2.5t46.5 -4t43.5 -4q15 0 45.5 1.5t45.5 1.5q69 0 126 -3q15 -1 42.5 -4.5t40.5 -7.5v-3q10 1 32 1q19 -4 61 -11
q8 -2 42 -3q24 -1 27 -6q5 -8 6 -34q1 -19 1 -55q-1 -48 -1 -54z" />
    <glyph glyph-name="greater" unicode="&#x3e;" horiz-adv-x="509" 
d="M479 404q0 -12 -32 -44q-24 -25 -35 -33q-26 -14 -75 -44q-24 -24 -75 -72q-25 -18 -78 -57q-100 -80 -111 -80q-12 0 -32.5 28t-20.5 35q0 9 54 58q28 26 57 51q101 103 101 109q0 8 -20 32l-22 24l-53 83q-13 15 -34 44q-38 69 -38 72q0 13 10 18q118 67 134 67
q43 0 159 -133q111 -129 111 -158z" />
    <glyph glyph-name="question" unicode="?" horiz-adv-x="509" 
d="M501 578q0 -24 -8 -120q-2 -19 -10 -32.5t-29.5 -29.5t-36.5 -22q-8 -3 -59 -10q-29 -5 -45 -26q-10 -14 -10 -27v-82q0 -48 -8 -62.5t-40 -14.5h-100q-15 2 -18.5 13t-5.5 57q-3 55 -3 94q0 108 -1 68q1 24 7 35q5 8 106 19q105 11 109.5 13.5t4.5 11.5q0 14 -10 19
q-13 6 -79 6q-61 0 -135.5 -11.5t-80.5 -11.5q-9 0 -12 3q-16 13 -19 105q-4 168 1.5 177t16.5 11q51 4 103 9q24 3 184 3q48 0 99 -18q18 -6 24 -9q17 -8 26 -20q29 -39 29 -148zM293 63q0 -22 -53 -35q-38 -10 -69 -10q-36 0 -36 40q0 39 13.5 55.5t58.5 16.5q55 0 69 -5
q6 -2 9 -20q8 -44 8 -42z" />
    <glyph glyph-name="at" unicode="@" horiz-adv-x="714" 
d="M690 573q10 -95 -2 -188q-8 -58 -18 -96q-15 -60 -72 -91q-27 -14 -225 -15q-13 0 -38 -4.5t-26 -4.5q-105 0 -139 67q-9 17 -11 49q-2 24 -1 54q2 40 2 29q0 48 5 85q4 29 54 43q35 10 77 10q37 0 84 -6q17 -2 31 -12q10 -7 14 -25q4 -14 6 -29t3 -31q3 -29 13 -29
q4 0 13 7.5t12 16t3 36.5q0 57 -8 78q-17 43 -74 43q7 0 -20 -1q-33 -1 -113 -1q-67 -1 -110 -52q-37 -45 -37 -101q0 -4 2 -112q2 -86 59 -130q49 -38 127 -38q-2 0 121 14q117 14 119 12q13 -13 13 -79q0 -34 -7 -40q-11 -9 -50 -10q38 1 -73 1h-50q-48 1 -51 1
t-45.5 -3.5t-45.5 -3.5q-49 0 -88 30q-32 25 -70 85q-12 18 -30 92q-28 110 -28 254q0 83 77 175q71 85 138 104q28 8 72 8q95 0 200 -26q141 -35 179 -100q1 -2 8 -66zM348 343q-38 -3 -49 0v-33q-2 -44 7 -48l41 2z" />
    <glyph glyph-name="A" unicode="A" horiz-adv-x="717" 
d="M704 474q0 6 -2 -80q-2 -92 -3 -169q-1 -110 0 -179q-13 7 -27 5q-29 -6 -52 -6q-47 0 -58 5t-11 26v14q1 10 1 17q0 36 -8 74h-66q-11 -9 -19 -37q-5 -22 -10 -43q-6 -29 -13 -57q-13 -40 -34 -40q-3 0 -10.5 3.5t-11.5 3.5t-20 -1.5t-21 -1.5q-19 0 -260 34
q-7 5 -21 12q-14 1 -42 9q16 84 38 134q26 57 43 162q27 169 31 187q24 113 69 196q10 20 33 24q5 1 32 1q205 0 271.5 -3.5t144.5 -20.5q26 -197 26 -269zM475 291q4 148 -1 152q-14 -7 -32 -7h-31q0 -36 -3 -135q20 0 67 -10z" />
    <glyph glyph-name="B" unicode="B" horiz-adv-x="515" 
d="M500 209q0 -4 -5 -73q1 12 1 -49q0 -29 -11 -45q-24 -35 -115 -35q-53 0 -168 14q-2 0 -13.5 3.5t-15.5 3.5q-3 0 -33.5 -2.5t-33.5 -2.5q-95 0 -95 31q0 3 13 141t13 141v135q0 -4 4 52q5 41 16 138q-1 27 -1 83q0 7 8.5 19t19 12.5t35 2t26.5 1.5q85 0 120 -3
q26 -3 140 -61q45 -23 58 -61q8 -21 8 -63q0 -101 -19 -159q-3 -8 -14 -29.5t-11 -23.5q0 -3 11.5 -12t13.5 -12q29 -43 38.5 -71t9.5 -75zM336 496q0 13 -14 13q-36 0 -40 -4q-11 -9 -11 -95q0 -25 1 -28q3 -6 24 -6q24 0 26 9q14 75 14 111zM386 203q-3 5 -16 4
q-31 -2 -33 -2q-25 0 -25 -95q0 -27 4.5 -32.5t31.5 -5.5q20 0 27.5 4t7.5 68q0 8 3 34q2 19 0 25z" />
    <glyph glyph-name="C" unicode="C" horiz-adv-x="673" 
d="M672 327q0 -26 -30 -124q-23 -78 -78 -123q-31 -27 -94 -50t-108 -23q-36 0 -120 21q-220 55 -220 382q0 155 70 249q81 111 241 111q45 0 80 -16q17 -8 32 -23q16 -20 32 -39q21 -18 56 -55q31 -44 52 -138q15 -71 15 -74q0 -5 -2 -6q-17 -15 -74 -15q-3 0 -12.5 1.5
t-13.5 1.5q-1 0 -28 -4.5t-52 -5.5q-98 -6 -128 0v-24q1 -21 11 -56q78 -1 156 3q36 2 112 11q72 8 73 8q3 0 12.5 -1.5t14.5 -1.5q0 -1 1.5 -3t1.5 -6z" />
    <glyph glyph-name="D" unicode="D" horiz-adv-x="594" 
d="M597 494q0 -68 -46 -180q-47 -115 -98 -163q-70 -68 -147 -91q-2 -1 -113 -18q-128 -19 -138 -19q-25 0 -21 87q0 12 -2 99q-5 193 0 264q6 31 14 92q0 45 -1 90q0 53 15 85q2 3 56 18q18 5 49 13q46 7 110 7q51 0 87 -7q16 -5 47 -13q75 -17 135 -111q53 -84 53 -153z
M274 442q-57 -10 -72 -9v-111q0 -14 7 -47l62 -3q-1 1 0 39q3 61 3 131z" />
    <glyph glyph-name="E" unicode="E" horiz-adv-x="489" 
d="M495 745q5 -5 -8 -106q-2 -60 -17 -177q-2 -23 -3 -46q-2 -41 -10 -41q-3 0 -59 3.5t-59 3.5q-31 0 -118 -11v-58v-28q49 -3 51 -4q15 -6 15 -39q0 -24 -5.5 -29t-29.5 -5q-3 0 -8.5 1t-8.5 1q-14 0 -16.5 1.5t-2.5 2.5q2 -1 0 -6l-3 -86q2 0 16 1.5t17 1.5
q100 0 176 -15q10 -1 19 -2.5t14 -8.5q-1 -21 -3 -37q-3 -37 -9 -41q-3 -2 -77 1q-84 4 -78 4h-150q-20 0 -74 11q-16 1 -32 1q-20 1 -27 13v132q0 3 2 25t2 25v112q0 1 4 50q4 53 5 77q1 35 -2 106q-4 78 -4 68q0 12 1 22q1 3 0 33q-1 20 6 23q27 10 76 17q94 12 130 12
h220q41 0 50 -8z" />
    <glyph glyph-name="F" unicode="F" horiz-adv-x="607" 
d="M596 665q0 -9 -5 -108q-5 -38 -12 -107q1 12 1 -60q0 -57 -32 -57q-123 0 -179 -2q-52 0 -104 -1q-56 -1 -94 -10q2 -33 7 -68q2 -3 56.5 -3t54.5 -75q0 -32 -44 -32q-7 0 -66 6q-4 -3 -1 -41q4 -48 3 -67q0 -4 -8.5 -14.5t-14.5 -12.5q-13 -4 -65 -4t-61 9t-9 60v325
q0 4 -5.5 101.5t-5.5 101.5q0 45 5 73q1 11 2 23q3 16 11 17q28 2 77 12.5t77 13.5q16 1 84 1q4 0 51.5 3t51 3t91 7t91 7t10 1.5t8.5 1.5q10 0 17.5 -17t7.5 -87z" />
    <glyph glyph-name="G" unicode="G" horiz-adv-x="659" 
d="M636 278l-6 -308q-2 -8 -5 -16q-5 -13 -13 -14q-36 -1 -106 -6q-6 -1 -22 -6.5t-19 -5.5q-35 0 -51 175q-134 -26 -154 -26q-56 0 -142 40q-78 36 -91 110q-18 101 -18 170q0 1 2.5 21t1.5 28q-4 128 44 219q59 110 174 110q68 0 187 -37q129 -40 172 -83q3 -2 -5 -52
q-5 -33 -11 -67q-1 -18 -2 -37q-3 -27 -14 -40q-3 -3 -12 -2q-16 2 -13.5 2t-73.5 11t-108 11q-20 0 -23 -4q-6 -6 -8 -116q-5 -34 -9 -78v-41q2 -2 6 -2q18 0 63 25q-2 13 -8.5 41t-6.5 31q0 25 24 31q98 21 209 21q40 0 40 -57q0 -9 -1 -25.5t-1 -22.5z" />
    <glyph glyph-name="H" unicode="H" horiz-adv-x="605" 
d="M604 600q0 -92 -3 -176q-7 -34 -21 -141q0 -93 -14 -263q-2 -12 -9 -13q-59 -6 -92 -6q-29 0 -31 15q-5 46 -9 162q3 28 2 83q-1 5 -8 11t-14 6q-53 1 -60 2t-4 1q-7 0 -16 -6q-1 9 -1 -103v-140q0 -4 -10 -11.5t-15 -7.5q-3 0 -43.5 3t-43.5 3q-4 0 -75.5 -3t-74.5 -3
q-46 0 -46 40q0 6 1 20.5t1 22.5q0 -5 6 213.5t6 265.5v62q0 5 -1 55q-1 34 10.5 52.5t63.5 20.5q79 3 184 3q45 0 40 -54q-5 -63 -6 -113q-1 -35 1 -61q2 -29 2 -23q0 -60 1 -68q0 -4 13 -17h57q4 0 15 -3t15 -3q9 0 12 16t1 41.5t1.5 44t3.5 68.5q1 35 9 42q2 2 48 -2
q51 -4 50 -4q3 0 12.5 3.5t13.5 3.5q12 0 21 -17q7 -13 7 -22z" />
    <glyph glyph-name="I" unicode="I" horiz-adv-x="320" 
d="M316 37q0 -20 -4 -27q-77 -6 -125 -6h-107q-18 0 -64 11q0 -4 2 130q4 34 11 111q2 32 2 65q0 26 -3 96q-3 60 -2 105q4 76 8 159v76q9 9 17 11q78 14 103 14q3 0 25 -2.5t25 -2.5t7 2.5t8 2.5q6 0 14 -7t8 -10q4 -17 13 -116q16 -137 33 -275q29 -264 29 -337z" />
    <glyph glyph-name="J" unicode="J" horiz-adv-x="449" 
d="M436 382q0 -4 -5.5 -38.5t-5.5 -37.5v-94q0 -39 -64 -85q-48 -35 -121 -68q-61 -27 -73.5 -27t-57 -6t-45.5 -6q-18 0 -21 12q-23 72 -23 114q0 20 38 30l42 6q15 2 44 13q4 3 12.5 39.5t8.5 52.5q0 -5 -10 84q-11 94 -21 265q-1 15 -8.5 59.5t-7.5 46.5q0 41 93 41
q4 0 19 -3t19 -3h127q15 0 34 -6q26 -8 26 -22v-367z" />
    <glyph glyph-name="K" unicode="K" horiz-adv-x="700" 
d="M679 44q0 -32 -71 -32h-168q-31 0 -38 7q-28 28 -45 53q-20 31 -32 44q-61 68 -61 62l-3 -147q0 -26 -63 -23q-46 0 -70 6q-19 3 -48 3q-41 0 -48 1q-15 0 -18 5q-2 2 -3 143q-1 94 -2 180q-1 78 -1 72q0 4 6 79t6 79l-1 85q0 3 -2.5 22.5t-2.5 23.5q0 48 8 52q14 6 84 9
q54 3 125 3q93 0 94 -3q2 -9 1 -51q-1 -62 2 -188q0 -45 3 -96l88 122q75 103 92 103q10 0 48.5 -34t38.5 -39q0 -4 -54.5 -114t-54.5 -114q0 -6 11 -32t22 -42q16 -27 52 -81q105 -142 105 -158z" />
    <glyph glyph-name="L" unicode="L" horiz-adv-x="727" 
d="M719 304q1 -13 -2 -36q-3 -30 -4 -36q-4 -85 -6 -114q-5 -64 -17 -101q-39 -8 -69 -8q-231 0 -304 4q-39 8 -86 17q-95 -1 -149 5q-19 1 -38 1.5t-20 7.5q-11 123 -11 293v426q11 14 124 14q56 0 67 -15q2 -3 2 -15q0 -7 -3 -42q-3 -31 -1 -45q4 -55 4 -129v-178
q0 -11 13 -14q39 -7 82 -7q5 0 48 -2t48 -2q3 0 24.5 3t34.5 4q1 0 84 -3l109 -4q8 0 37 -9t33 -15z" />
    <glyph glyph-name="M" unicode="M" horiz-adv-x="838" 
d="M823 73q0 -40 -7 -50q-8 -13 -42 -13q-4 0 -35 1t-35 1q-18 0 -25.5 7.5t-12.5 43.5q-4 26 -7 51l-10 47v0q4 -20 3 -13q-12 65 -30 181q-27 -40 -54 -81q-35 -54 -61 -54q-57 0 -65 11q-25 31 -103 129q-11 -10 -11 -58q0 -4 -1.5 -39t-1.5 -39q0 -158 -4 -167t-100 -9
q-3 0 -38.5 1.5t-39.5 1.5q-129 0 -131 2q-5 5 -4 25q2 47 2 45l9 419q4 52 14 156q2 16 3 33q3 22 12 33.5t53 21.5q20 5 50 3q39 -2 48 -2q7 0 31 2q20 2 24 2h58q19 -2 42 -11q33 -73 84 -210h34q10 39 18 70q21 75 35 94q4 5 20 5q48 0 92 -10q18 -5 48 -5q37 0 48 -1
q19 -2 34 -13q5 -3 8 -59q2 -31 3 -62q1 -23 5 -67q7 -74 22 -225q15 -130 13 -195z" />
    <glyph glyph-name="N" unicode="N" horiz-adv-x="685" 
d="M668 724q1 -8 -12 -101q-18 -130 -22 -170q-4 -34 -14 -157q-6 -86 -20 -156q-6 -30 -18 -81q-10 -4 -36 -4q-51 0 -113 -1t-59 -1q-5 0 -142 157q-2 -4 -2 -10q0 -21 7 -86t7 -85q0 -11 -19 -11.5t-38 -1.5q-17 -2 -39 0q-31 2 -40 2q-8 0 -22.5 -3t-21.5 -3
q-21 0 -26 29t-9 57q-7 28 -7.5 59t-0.5 61q-4 90 -6 232l-1 103q0 55 -1 110q1 58 11 96q3 14 97 14q124 0 154 -7q11 -3 18 -34q4 -32 18 -96q10 -27 28 -82q63 -234 98 -234q6 0 10 18t8 35q8 29 11 65q5 58 6 67q3 42 23 165q8 36 15 73q8 34 14 39q1 1 5 1q23 0 80 -23
t59 -36z" />
    <glyph glyph-name="O" unicode="O" horiz-adv-x="648" 
d="M639 311q0 -88 -32 -145q-42 -73 -146 -117q-29 -14 -59 -28q-43 -19 -68 -19q-63 0 -142 59q-72 52 -135 136q-5 7 -17 48q-20 70 -20 110q0 93 54 202q61 123 156 179q27 15 73 24l74 12q23 -1 69 2q31 5 27 5q88 0 123.5 -43t36.5 -159q0 -78 3 -176t3 -90zM498 199
q0 19 -4 116q0 9 -12 18q-28 4 -48 4q-43 0 -49 -13q9 -195 9 -183q4 -5 10 -12q50 4 84 9q10 1 10 61z" />
    <glyph glyph-name="P" unicode="P" horiz-adv-x="478" 
d="M455 435q0 -100 -33 -169q-18 -39 -93 -61q-33 -13 -103 -31l13 -122q0 -44 -50 -44h-19q-13 1 -19 1q-26 0 -89 4q-11 0 -30 4q-11 6 -12 18q-10 162 -10 198q0 62 2 155q3 88 3 151q0 23 -4 120q-3 65 1 105q3 25 29 25q134 10 213 0q12 -1 62 -16q25 -8 64 -24t50 -69
q8 -40 16 -121q9 -84 9 -124zM266 304q0 75 -1 69h-32q-3 0 -26 -8l10 -90q4 -1 8 -1q7 0 18.5 4t16.5 4q6 17 6 22z" />
    <glyph glyph-name="Q" unicode="Q" horiz-adv-x="616" 
d="M621 71q0 -19 -47 -59q-11 -9 -46 -22q-31 -12 -38 -12q-12 0 -32 27q-12 17 -25 34h-107q-3 0 -44 -2.5t-44 -2.5q-204 0 -215 105q-4 12 -10 57q0 9 -3 27.5t-3 20.5q0 50 23 215q26 188 46 210q12 18 42 49q21 15 57 27q15 8 47 18q120 20 167 20q77 0 114 -29.5
t37 -97.5q0 -27 -5 -61q-3 -14 0 -50q4 -42 4 -36v-90q0 -3 4.5 -37.5t4.5 -37.5q0 -60 -6 -101t-6 -37q0 -4 20 -33q65 -95 65 -102zM230 563v46q-1 31 -1 37q-55 -5 -67 -3v-66q0 -13 3 -57q2 -19 7 -27h56q0 19 1 40.5t1 29.5z" />
    <glyph glyph-name="R" unicode="R" horiz-adv-x="621" 
d="M610 520q0 -149 -182 -302q0 -12 4 -39q5 -32 5 -39q0 -20 2 -61q0 -5 3.5 -18t3.5 -16q0 -28 -62 -28q-49 0 -57 9t-16 41.5t-26 99.5h-19v-108q0 -13 -8 -26t-22 -13q-39 0 -143 9q-18 1 -35 2q-26 3 -29 15q-1 5 -8 56l-2 262q0 -5 3 132q4 144 5 215q0 30 78 46
q54 11 101 11q40 0 160 -17q65 -9 84 -13q51 -12 79 -32q33 -24 58 -86q23 -56 23 -100zM400 429q-38 18 -44 18h-8q-7 -42 -18 -141q19 -3 55 -8z" />
    <glyph glyph-name="S" unicode="S" horiz-adv-x="668" 
d="M654 168q0 -102 -18 -126q-23 -29 -122 -29q-3 0 -114 4.5t-115 4.5t-111.5 -8.5t-110.5 -8.5q-36 0 -38 12q-9 57 -9 119q0 37 61 37h102q46 0 142 16v33q-14 10 -48 15q-13 2 -39 2q-20 0 -66.5 -1.5t-65.5 -1.5q-48 0 -51 6t-3.5 45t-5.5 57q-3 13 -3 76q0 44 13 133
q4 43 8.5 87.5t21.5 75.5q20 37 79 55q43 14 88 14q2 0 53 -9q56 -10 86 -13l153 -15q36 -3 50 -7q32 -10 36 -34q5 -31 7 -90q2 -89 3 -93q1 -22 7.5 -65.5t6.5 -45.5q0 -50 -12 -50q-237 12 -253 12q-22 0 -26 -8v-21q0 -19 3 -24q6 -11 26 -13.5t159 -8.5q96 -4 102 -17
q4 -6 4 -115z" />
    <glyph glyph-name="T" unicode="T" horiz-adv-x="649" 
d="M655 721q-3 -70 -3 -74v-133q0 -13 -5 -55q-6 -45 -10 -49q-9 -11 -46 -12q30 1 -46 1q13 0 -76 6q0 -49 -3.5 -147.5t-3.5 -92.5v-133q0 -9 -10.5 -16t-16.5 -7t-39 13q-37 13 -52 23.5t-16 35.5q1 22 1 44q-3 34 0 69q3 42 3 32q0 -4 -3.5 66t-3.5 105q-7 5 -60 9
q-60 6 -76 10q-6 2 -40 2h-12q-98 0 -108 11q-3 4 -3 64q0 90 6 273q0 10 14 10q2 0 12 2t13 1q24 -6 92 -12q46 -5 119 -4q92 1 119 0q38 -1 120 -5q36 -2 72 -3q62 -8 62 -34z" />
    <glyph glyph-name="U" unicode="U" horiz-adv-x="648" 
d="M632 609q0 -39 -5 -293q-3 -113 -23 -171q-36 -104 -137 -122q-35 -6 -62 -15q-14 -5 -49 -5q-69 0 -176 54q-63 32 -111 110q-30 49 -47 195q-13 112 -13 219q0 66 4 77.5t62 21.5q46 7 65 7q23 0 23 -16v-171q0 -45 22 -171q5 -2 26 -2q22 0 33 5v88q0 4 -6.5 80.5
t-6.5 80.5q0 -9 2 76l2 79l211 28h95q3 0 19.5 3.5t22.5 3.5q38 0 42 -23q7 -49 7 -139z" />
    <glyph glyph-name="V" unicode="V" horiz-adv-x="682" 
d="M668 599q0 -17 -51 -103q-28 -49 -56 -97q-21 -48 -35 -78q-59 -127 -96 -200q-15 -33 -57 -104q-4 -6 -14.5 -8t-23.5 -1q-17 2 -15 2q-62 0 -66 8q-53 107 -93 208q-18 55 -59 170q-32 77 -90 230q27 17 54 35q39 25 53 25q4 0 7 -2q20 -35 106 -211q44 63 135 185
q18 23 36 58q16 31 25 39q14 15 41 15q1 0 41 -22q28 -15 85 -51q16 -12 42 -44q31 -38 31 -54z" />
    <glyph glyph-name="W" unicode="W" horiz-adv-x="873" 
d="M874 536q-6 -30 -23 -78q-23 -61 -28 -78q-27 -94 -54 -189q-33 -111 -63 -191q-17 3 -58 0q-49 -3 -44 -3q-47 0 -64 20l-64 96q-40 -99 -80 -99q-38 0 -217 10q-12 1 -14.5 15t-4.5 28q-55 207 -157 643q0 16 50 25q74 16 233 47q28 -105 110 -516l5 -6
q25 27 41.5 51.5t17.5 25.5q4 4 43 -1t44 -11q18 -30 53 -83q19 48 45 135q22 76 48 147q8 30 33 86q10 14 29 14q4 0 57 -41q56 -44 62 -47z" />
    <glyph glyph-name="X" unicode="X" horiz-adv-x="605" 
d="M580 170q0 -17 -13 -23l-70 -36l-46 -34q-43 -32 -54 -32q-16 0 -114 119l-70 -82q-60 -68 -70 -68q-5 0 -26 19q-8 10 -31 39q-22 19 -64 59q-8 8 -8 17q0 6 43 51t66 63q14 11 33.5 31.5t19.5 24.5q0 14 -76 122q-88 124 -88 141q0 23 142 113q29 22 87 63q27 17 38 17
q16 0 23 -14q31 -72 100 -215q20 11 43 33q12 16 24.5 32.5t29.5 16.5t30 -17q10 -18 21 -36q26 -38 23 -46q-108 -127 -108 -124l26 -53q24 -46 49 -91q40 -77 40 -90z" />
    <glyph glyph-name="Y" unicode="Y" horiz-adv-x="665" 
d="M659 59q0 -29 -54 -37q-40 -3 -81 -6q-28 -4 -66 -2q-51 2 -70 1q-22 -1 -54 -1q-39 0 -118.5 -5.5t-119.5 -5.5q-47 0 -60 10q-18 12 -18 57q0 37 37 45q32 2 65 5q80 5 239 22q0 16 3 49q-8 2 -33 2q-36 0 -107.5 -7t-107.5 -7q-66 0 -89 15q-5 66 -12 217q-3 84 1 206
q2 74 5 147q0 14 62 14q43 0 68 -8q2 -11 2 -31q0 -11 -7 -188q7 -8 19 -7q23 2 24 2q112 -12 149 -9q54 5 64 30q4 12 -2 70q-5 62 10 112q5 18 42 18q41 0 174 -29q12 -20 12 -292q0 -8 3 -23.5t3 -23.5q0 -26 -1 -77v-78q0 -46 5 -97q1 -11 7 -44q6 -28 6 -44z" />
    <glyph glyph-name="Z" unicode="Z" horiz-adv-x="654" 
d="M632 633q0 -78 -7 -206q0 -5 -15 -14q-18 -12 -24 -19q-47 -52 -127 -126q-71 -66 -96 -98q43 -5 90 -5q3 0 62.5 8.5t62.5 8.5q20 0 24 -15q6 -26 6 -102q0 -22 -3 -29q-6 -14 -27 -14q4 0 -33 -2q-30 -2 -39.5 0t-150.5 0q-96 -5 -260 -11q-49 -1 -49 30q0 -11 12 65
l2 26q1 18 8 27q5 5 37 17q72 27 160 92q77 58 137 123q-106 7 -137 7q-3 0 -72 -4t-72 -4q-107 0 -107 24l-4 251q0 3 1.5 29.5t1.5 30.5q0 38 13 38q46 -1 47 -1q178 16 220 16q3 0 41.5 -3t41.5 -3t77 5.5t77 5.5q36 0 85 -9q6 -1 8 -13l2 -14q7 -31 7 -112z" />
    <glyph glyph-name="bracketleft" unicode="[" horiz-adv-x="414" 
d="M382 497q0 -4 -3 -34q-1 -10 -10 -12q-39 -8 -90 -8q-23 0 -68 5q-1 -10 2 -80q5 -93 6 -125q1 -41 2 -113q45 0 62 -2t12 -2q36 0 47 -6q18 -9 18 -41q0 -44 -22 -54q-12 -7 -66 -7q-3 0 -19.5 1.5t-19.5 1.5t-25.5 -3.5t-25.5 -3.5q11 0 -145 22q-4 1 -10 10t-6 13v112
q0 2 2 12t2 15q1 19 -2.5 60t-3.5 39q0 -7 1 82t1 136q0 -14 9 80q8 78 8 122q0 21 1 51q7 4 12 4q3 0 60.5 -6t60.5 -6h132q17 0 35 -7q22 -9 43 -18v-238z" />
    <glyph glyph-name="backslash" unicode="\" horiz-adv-x="564" 
d="M547 87q0 -11 -8.5 -14t-27.5 -10q-10 -9 -33 -22q-134 -48 -140 -48q-16 0 -24.5 15t-15.5 30q-24 49 -112 252q-24 57 -54 111q-20 31 -55 96q-69 154 -69 184q0 14 10 19q19 11 112 49.5t99 38.5q16 0 31 -32q7 -18 16 -36.5t28 -54.5q22 -45 65 -155q22 -52 57 -134
q29 -71 87 -210q34 -78 34 -79z" />
    <glyph glyph-name="bracketright" unicode="]" horiz-adv-x="414" 
d="M393 304q0 2 -3.5 -38.5t-2.5 -59.5q0 -5 2 -15t2 -13v-111q0 -4 -6 -13.5t-10 -9.5q-155 -23 -145 -23q-3 0 -25.5 4t-25.5 4t-19.5 -1.5t-18.5 -1.5q-55 0 -67 6q-22 11 -22 55q0 32 18 41q11 6 47 6q-5 0 12 2t62 2l2 113q1 36 6 125q3 70 2 80q-45 -5 -68 -5
q-51 0 -90 8q-9 1 -10 12q-3 29 -3 34v238q21 9 43 17q19 8 35 8h132q3 0 60.5 6t60.5 6q5 0 12 -4q1 -30 1 -51q0 -44 8 -122q9 -94 9 -80q0 -48 1 -136.5t1 -82.5z" />
    <glyph glyph-name="asciicircum" unicode="^" horiz-adv-x="449" 
d="M423 558q0 -7 -20 -29.5t-28 -28.5q-3 -2 -53 37q-9 7 -77 72q-4 -4 -29 -37q-83 -113 -99 -116q-11 -3 -61 40t-52 56q-1 14 61 81q39 42 77 83q47 59 73 62q21 -20 55 -57t54 -56q25 -23 51 -46q48 -47 48 -61z" />
    <glyph glyph-name="underscore" unicode="_" horiz-adv-x="628" 
d="M606 35q0 -19 -69 -19q10 0 -42 1h-64q-32 -1 -100 -3q-63 -2 -65 -2t-47.5 3.5t-48.5 3.5h-82q-43 0 -60 10q-3 39 -7 114q8 8 17 9q77 8 101 8l167 -7q3 0 78 3.5t78 3.5q83 0 131 -6q13 -42 13 -119z" />
    <glyph glyph-name="grave" unicode="`" 
d="M193 720q0 -29 -6 -100q-7 -87 -13.5 -95.5t-16.5 -8.5q1 0 -16 1h-22q0 -18 -5 -53q-6 -44 -13 -44q-8 0 -21 13q-24 24 -41 44q-13 15 -13 76q0 73 2 96q0 38 6 87q8 13 121 13q38 0 38 -29z" />
    <glyph glyph-name="a" unicode="a" horiz-adv-x="575" 
d="M529 352q0 4 -2 -60q-1 -69 -2 -127q-1 -82 0 -134q-9 5 -20 3q-22 -4 -39 -4q-35 0 -43.5 4t-8.5 19v11q1 7 1 13q0 27 -6 55h-50q-8 -6 -21 -60l-10 -42q-10 -31 -25 -31q-3 0 -8.5 3t-8.5 3t-15 -1.5t-16 -1.5q-14 0 -195 26q-5 4 -16 9q-10 1 -31 6q12 64 29 101
q19 44 42 190q21 138 64 219q10 19 49 19q154 0 204 -3t108 -16q20 -147 20 -201zM357 214q3 112 -1 115q-10 -6 -24 -6h-23q0 -26 -2 -101q15 0 50 -8z" />
    <glyph glyph-name="b" unicode="b" horiz-adv-x="382" 
d="M375 155q0 -3 -3 -55q0 9 1 -36q0 -22 -9 -34q-18 -26 -86 -26q-40 0 -126 10q-2 0 -10.5 2.5t-11.5 2.5q-2 0 -25 -1.5t-25 -1.5q-71 0 -71 23q0 2 9.5 105.5t9.5 106.5v101q0 -4 3 39q4 31 12 103q-1 21 -1 62q0 5 6.5 14.5t14.5 9.5t26 1.5t20 1.5q64 0 90 -3
q20 -2 105 -46q50 -25 50 -93q0 -75 -15 -119q-2 -6 -10.5 -22t-8.5 -17q0 -3 9 -9.5t10 -8.5q22 -33 29 -54t7 -56zM252 370q0 10 -10 10q-27 0 -30 -3q-8 -7 -8 -71q0 -19 1.5 -22t16.5 -3q19 0 20 6q10 56 10 83zM278 154q-23 -2 -25 -2q-18 0 -18 -71q0 -20 3 -24t23 -4
q15 0 20.5 3t5.5 50q0 6 3 26q1 14 -0.5 18.5t-11.5 3.5z" />
    <glyph glyph-name="c" unicode="c" horiz-adv-x="530" 
d="M512 242q0 -19 -22 -93q-18 -58 -58 -92q-24 -20 -71.5 -37t-80.5 -17q-27 0 -90 15q-165 42 -165 287q0 116 52 187q61 82 181 82q34 0 60 -11q13 -6 48 -47q16 -13 42 -41q23 -33 39 -103q11 -54 11 -56q0 -4 -1 -5q-13 -11 -56 -11q-2 0 -9 1.5t-11 1.5l-20.5 -3.5
t-38.5 -4.5q-74 -4 -96 0v-18q1 -16 8 -42q59 -1 117 2q27 2 84 8l54 6q3 0 10 -1t11 -1q0 -1 1 -2.5t1 -4.5z" />
    <glyph glyph-name="d" unicode="d" horiz-adv-x="463" 
d="M452 370q0 -51 -35 -135.5t-74 -121.5q-52 -50 -110 -68q-26 -4 -85 -13q-93 -15 -103 -15q-19 0 -16 66q0 9 -1 74q-4 144 0 198q4 23 10 69v67q0 40 11 64q1 3 42 13q13 5 37 11q34 5 82 5q38 0 66 -5q11 -4 34 -11q57 -12 101 -82q41 -64 41 -116zM209 332
q-43 -8 -54 -7v-83q0 -11 5 -36l47 -2q2 -3 2 128z" />
    <glyph glyph-name="e" unicode="e" horiz-adv-x="398" 
d="M379 555q4 -4 -6 -79q-2 -45 -13 -133q-1 -17 -2 -35q-2 -30 -8 -30q-2 0 -44 2.5t-44 2.5q-23 0 -89 -8q1 -2 0 -44v-21q37 -2 38 -2q12 -5 12 -30q0 -18 -4 -22t-23 -4q-1 0 -5.5 1t-6.5 1q-10 0 -12 1.5t-3 1.5q2 0 0 -4l-2 -65q2 0 12.5 1.5t12.5 1.5q75 0 132 -12
l16 -2q5 -1 9 -6q-1 -27 -9 -59q-2 -1 -58 2q-63 3 -58 3h-113q-15 0 -55 8h-25q-14 1 -20 10v99q0 2 2 18.5t2 18.5v84q0 1 2.5 39t3.5 57q1 26 -2 80q-3 58 -3 51q0 8 2 16q0 2 -1 25q0 15 5 17q20 7 57 12q71 10 97 10h166q31 0 37 -7z" />
    <glyph glyph-name="f" unicode="f" horiz-adv-x="471" 
d="M448 496q0 -6 -4 -81q-3 -29 -9 -80q1 -27 1 -54q-2 -34 -24 -34q-88 0 -134 -2h-79q-41 -1 -70 -8q2 -25 5 -51q2 -2 43 -2t41 -56q0 -24 -34 -24q-5 0 -49 5q-3 -3 0 -31q2 -36 2 -50q-1 -4 -7 -12t-10 -9q-10 -3 -49 -3t-45.5 7t-6.5 45v244q0 3 -4.5 76t-4.5 76
q0 33 3 54q1 9 2 17q3 13 9 14q21 1 58 7q46 13 120 13q3 0 38.5 2t38 2t68 5.5t68 5.5t11.5 2q5 1 8.5 -1.5t7.5 -11.5q6 -12 6 -65z" />
    <glyph glyph-name="g" unicode="g" horiz-adv-x="500" 
d="M483 195l-4 -231l-4 -12q-4 -10 -10 -10q-27 -2 -79 -5q-5 -1 -17 -5t-14 -4q-26 0 -38 131q-101 -20 -116 -20q-42 0 -107 30q-58 28 -68 83q-14 76 -14 127q0 2 2 16.5t2 20.5q-4 96 33 164q44 83 130 83q51 0 141 -28q96 -30 129 -62q-1 1 -13 -89q0 -14 -1 -28
q-2 -20 -10 -30h-20q2 0 -55 8.5t-81 8.5q-15 0 -17 -3q-5 -5 -6 -87q-4 -26 -7 -59v-30q2 -2 4 -2q14 0 48 19q-2 10 -6.5 30.5t-4.5 22.5q0 20 18 24q73 16 156 16q30 0 30 -43v-19q-1 -12 -1 -17z" />
    <glyph glyph-name="h" unicode="h" horiz-adv-x="475" 
d="M455 446q0 -69 -2 -132q-5 -25 -16 -106q0 -69 -10 -197q-1 -9 -7 -9q-44 -5 -69 -5q-22 0 -23 11q-4 35 -7 121q3 21 2 63q-2 12 -17 13q-39 1 -44.5 1.5t-3.5 0.5q-5 0 -12 -4q0 6 0 -78v-105q0 -3 -8 -8.5t-11 -5.5t-33 2t-33 2q-2 0 -56 -2t-56 -2q-34 0 -34 30v15
q1 11 1 17q0 -4 4.5 160t4.5 200v46q0 3 -1 41q-1 26 8 39.5t48 15.5q59 2 138 2q33 0 30 -41q-4 -47 -5 -84q0 -26 1.5 -47t1.5 -17v-50q0 -3 10 -13h43q3 0 11 -2.5t11 -2.5q7 0 9 12q-1 20 2 64q3 14 3 52q0 27 6 31q2 2 36 -1q39 -3 38 -3q2 0 9 2.5t11 2.5
q9 0 14.5 -11t5.5 -18z" />
    <glyph glyph-name="i" unicode="i" horiz-adv-x="252" 
d="M244 29q0 -15 -3 -20q-58 -5 -94 -5h-80q-14 0 -48 8q0 -3 1 98q3 25 8 83q3 42 0 100q-3 66 -2 100q3 57 6 119v57q7 7 13 8q59 10 77 10q3 0 19 -1.5t19 -1.5q2 0 5 1.5t6 1.5q5 0 10.5 -5t6.5 -7q2 -13 10 -87l24 -206q22 -199 22 -253z" />
    <glyph glyph-name="j" unicode="j" horiz-adv-x="330" 
d="M309 287q0 -3 -4.5 -29t-4.5 -28v-70q0 -42 -92 -93q-79 -43 -101 -43q-9 0 -42.5 -4.5t-34.5 -4.5q-13 0 -16 9q-17 55 -17 86q0 15 28 22q16 2 32 5q12 2 33 10q3 2 9.5 29.5t6.5 38.5q0 -3 -8 65.5t-16 197.5q0 11 -5.5 44t-5.5 35q0 30 70 30q2 0 13.5 -2t13.5 -2h96
q11 0 25 -4q20 -7 20 -17v-275z" />
    <glyph glyph-name="k" unicode="k" horiz-adv-x="537" 
d="M521 31q0 -25 -54 -25h-126q-23 0 -29 6q-21 20 -33 40q-15 22 -24 32q-46 51 -46 47l-2 -110q0 -20 -47 -17q-35 0 -53 4q-24 0 -72 3q-11 0 -13 2.5t-3 108.5q0 70 -1 135q-1 59 -1 54q0 3 4.5 59t4.5 59l-1 64q0 2 -2 16.5t-2 17.5q0 37 8.5 40.5t61.5 6.5q40 1 93 1
q70 0 71 -2q1 -7 1 -38q-1 -45 1 -141q0 -33 2 -72l66 92q56 77 69 77q8 0 37 -25.5t29 -29.5q0 -3 -41 -85.5t-41 -85.5q0 -17 24 -56q12 -20 39 -60q80 -107 80 -118z" />
    <glyph glyph-name="l" unicode="l" horiz-adv-x="571" 
d="M556 226q0 -9 -2 -27q-2 -22 -3 -27q-2 -64 -4 -85q-4 -48 -13 -76q-29 -6 -52 -6q-173 0 -228 3q-29 6 -64 12q-72 0 -112 5q-14 0 -28.5 0.5t-15.5 5.5q-8 93 -8 220l1 319q8 11 92 11q42 0 50 -11q3 -5 1 -32q-3 -34 -2 -45q3 -41 3 -97v-133q0 -8 9 -10q30 -6 63 -6
q3 0 35.5 -1t35.5 -1q2 0 18.5 2t26.5 3l63 -3l81 -2q6 0 27.5 -7t25.5 -12z" />
    <glyph glyph-name="m" unicode="m" horiz-adv-x="659" 
d="M646 51q0 -29 -5.5 -38t-30.5 -9q-3 0 -26.5 1t-26.5 1q-14 0 -18 5q-7 6 -11 33q-2 19 -5 39l-4 18l-3 16q3 -15 2 -9q-9 49 -23 136q-20 -31 -40 -61q-26 -41 -46 -41q-42 0 -49 9q-18 23 -77 97q-8 -8 -8 -44q0 -3 -1 -29.5t-1 -29.5q0 -118 -3 -125t-75 -7
q-3 0 -29.5 1.5t-29.5 1.5q-97 0 -98 1q-4 4 -3 19q2 36 2 34l7 314q3 39 10 117q1 12 2.5 26.5t8.5 23.5q4 5 30 13q18 6 43 5q39 -1 41 -1q5 0 21.5 1.5t19.5 1.5q40 0 43 -1q15 -1 31 -7q25 -55 64 -158h25q7 29 14 53q16 56 26 70q2 4 15 4q36 0 69 -8q24 -1 72 -5
q14 -1 26 -9q1 -1 8 -91q1 -17 3 -50q5 -56 17 -169q11 -98 10 -146z" />
    <glyph glyph-name="n" unicode="n" horiz-adv-x="529" 
d="M511 543q1 -6 -8 -76q-14 -95 -18 -128q-3 -72 -25 -235q-4 -22 -14 -61q-6 -3 -27 -3h-84q-47 -1 -44 -1q-4 0 -107 118q-1 -3 -1 -8q0 -15 5 -64t5 -64q0 -8 -15 -9h-27q11 1 -60 1q-5 0 -16 -2.5t-17 -2.5q-16 0 -19.5 22t-7.5 43t-4.5 44t-0.5 46q-3 53 -4 174
q-1 66 -1 77q0 41 -1 83q1 43 8 72q3 10 73 10q93 0 116 -5q8 -2 12 -26t14 -72q8 -20 21 -61q48 -176 74 -176q5 0 8 13.5t5 26.5q7 22 9 49q3 42 4 50q3 32 18 124q5 27 11 55q5 25 10 29q7 5 57 -14t51 -29z" />
    <glyph glyph-name="o" unicode="o" horiz-adv-x="510" 
d="M486 231q0 -66 -24 -109q-31 -55 -109 -87q-22 -11 -44 -21q-32 -15 -51 -15q-48 0 -107 44q-54 40 -101 102q-4 6 -12 37q-15 52 -15 82q0 70 40 151q46 93 117 134q20 12 55 19q27 4 55 8q17 0 52 2q23 4 20 4q66 0 92.5 -32.5t27.5 -118.5q0 -59 2 -132.5t2 -67.5z
M381 147q0 14 -3 87q0 6 -9 13q-21 3 -36 3q-33 0 -37 -9q7 -146 7 -138q3 -4 7 -9q38 3 63 7q8 1 8 46z" />
    <glyph glyph-name="p" unicode="p" horiz-adv-x="364" 
d="M342 326q0 -75 -25 -127q-14 -29 -70 -46q-24 -10 -77 -23l9 -91q0 -28 -21 -32q-2 -1 -44 -1q-20 0 -67 3q-8 0 -22 3q-9 5 -10 14q-7 121 -7 148q0 46 2 117q1 61 1 113q0 14 -3 90q-2 48 1 78q2 20 22 20q101 7 160 0q9 -1 47 -13q18 -6 47.5 -18t37.5 -51
q19 -96 19 -184zM200 228q0 56 -1 51h-24q-2 0 -20 -5l8 -68q7 -2 18.5 1.5t14.5 3.5q4 13 4 17z" />
    <glyph glyph-name="q" unicode="q" horiz-adv-x="499" 
d="M469 48q0 -14 -35 -44q-8 -7 -33 -16t-30 -9q-9 0 -24 20q-9 13 -18 25h-81q-2 0 -33 -1.5t-33 -1.5q-153 0 -162 78q-2 9 -7 43q0 7 -2 20.5t-2 15.5q0 38 17 162q19 140 35 157q8 13 31 37q15 11 43 20q11 6 35 13q90 15 125 15q114 0 114 -95q0 -20 -5 -45
q-1 -11 1 -38q3 -32 3 -27v-68q0 -2 3.5 -28t3.5 -28q0 -45 -4.5 -76t-4.5 -27q0 -3 15 -25q48 -71 48 -77zM176 417v35q-1 23 -1 27q-41 -3 -50 -2v-49q-1 -50 8 -63h41q0 14 1 30t1 22z" />
    <glyph glyph-name="r" unicode="r" horiz-adv-x="485" 
d="M461 388q0 -112 -136 -226q0 -9 2 -29q4 -25 5 -30q0 -15 1 -45q0 -4 2.5 -14t2.5 -12q0 -21 -47 -21q-36 0 -42 7t-12 31t-20 74h-14v-81q1 -29 -22 -29q-30 0 -108 7q-13 0 -26 1q-19 2 -21 12q-1 3 -7 42l-2 196q0 -4 3 99q3 108 4 162q0 22 57 34q41 8 77 8
q30 0 120 -13q49 -6 63 -10q39 -8 59 -23q25 -19 44 -65q17 -42 17 -75zM304 320q-29 13 -34 13h-6q-5 -31 -13 -106q14 -1 41 -5z" />
    <glyph glyph-name="s" unicode="s" horiz-adv-x="532" 
d="M499 125q0 -77 -13 -95q-17 -22 -92 -22q-2 0 -85.5 3.5t-86.5 3.5q-2 0 -83 -6.5t-83 -6.5q-27 0 -29 9q-6 43 -6 89q0 28 46 28h76q34 0 106 12v25q-10 8 -35 11q-12 2 -94 0q-70 -2 -74 5q1 25 -6 76q-2 9 -2 57q0 32 9 99q4 33 7.5 66t15.5 56q15 27 56 41
q33 11 70 11q1 0 39 -7q42 -7 64 -9q39 -4 116 -11q26 -3 37 -6q24 -7 27 -25q2 -48 7 -137q1 -17 6 -49.5t5 -33.5q0 -38 -9 -38q-178 9 -190 9q-16 0 -19 -6v-16q0 -25 22 -28q15 -2 118 -6q72 -3 78 -13q2 -5 2 -86z" />
    <glyph glyph-name="t" unicode="t" horiz-adv-x="525" 
d="M501 539q-2 -52 -2 -55v-100q0 -10 -4 -41q-4 -34 -7 -37q-7 -8 -69 -8q9 0 -57 4q0 -36 -3 -110t-3 -70v-100q0 -6 -7.5 -11t-12.5 -5q-4 0 -29 9q-28 10 -39 18t-12 26q1 17 1 33q-2 26 0 52q2 31 2 24q0 -3 -2.5 49.5t-2.5 79.5q-5 3 -45 6q-45 4 -57 8q-4 1 -30 1h-9
q-74 0 -81 8q-6 7 2 253q0 8 11 8q1 0 8.5 1t9.5 1q19 -5 70 -9q39 -4 89 -3q64 1 89 0q29 -1 90 -4q27 -1 53 -3q47 -5 47 -25z" />
    <glyph glyph-name="u" unicode="u" horiz-adv-x="503" 
d="M479 453q0 -29 -4 -220q-2 -84 -17 -127q-27 -78 -102 -92q-27 -5 -47 -12q-10 -3 -37 -3q-51 0 -132 41q-47 24 -83 82q-24 38 -36 150q-9 83 -9 160q0 50 3 58.5t46 15.5q35 6 49 6q18 0 18 -12v-128q0 -34 16 -129q4 -1 20 -1t24 4v66q0 3 -4.5 60t-4.5 60q0 -6 1 58
l1 59l159 21h71q2 0 14.5 2.5t16.5 2.5q29 0 32 -18q5 -36 5 -104z" />
    <glyph glyph-name="v" unicode="v" horiz-adv-x="532" 
d="M511 446q0 -12 -38 -77q-21 -36 -43 -72q-15 -36 -26 -59q-43 -95 -71 -149q-12 -26 -43 -79q-4 -5 -40 -5q-47 0 -50 6q-40 80 -69 156q-14 41 -44 127q-24 58 -68 173q72 45 81 45q3 0 4 -1q15 -27 80 -159q33 47 101 139q3 4 36 60q14 24 40 24q2 0 32 -17
q21 -11 63 -38q12 -9 32 -33q23 -28 23 -41z" />
    <glyph glyph-name="w" unicode="w" horiz-adv-x="719" 
d="M690 399q-4 -22 -17 -58q-17 -46 -21 -59q-26 -95 -88 -284q-13 1 -44 -1q-36 -2 -32 -2q-35 0 -48 15l-48 72q-30 -74 -60 -74q-29 0 -163 7q-9 1 -11 11.5t-3 20.5q-42 156 -118 483q0 12 37 18q56 12 175 35q21 -78 82 -387l5 -4q18 26 43 58q4 3 33 -0.5t33 -8.5
q14 -23 40 -62q14 35 33 101q17 57 36 110q6 23 25 65q8 11 22 11q3 0 43.5 -32.5t45.5 -34.5z" />
    <glyph glyph-name="x" unicode="x" horiz-adv-x="454" 
d="M434 126q0 -12 -10 -18l-52 -26q-17 -13 -35 -26q-32 -23 -41 -23q-11 0 -85 88q-26 -30 -52 -61q-45 -51 -53 -51q-3 0 -19 14q-6 8 -24 29q-16 15 -47 45q-6 6 -6 13q0 4 32 37.5t49 47.5q40 31 40 42t-57 91q-66 93 -66 106q0 18 106 85q22 17 66 47q20 13 29 13
q11 0 16 -10q24 -54 76 -162q15 9 31 25q10 12 19.5 24.5t22.5 12.5q12 0 20.5 -13.5t16.5 -26.5q20 -29 18 -34q-81 -96 -81 -93l19 -40q19 -34 37 -69q30 -57 30 -67z" />
    <glyph glyph-name="y" unicode="y" horiz-adv-x="518" 
d="M503 42q0 -22 -31 -25l-62 -6q-25 -4 -54 -4q-54 2 -56 2l-40 -1q-30 0 -89.5 -4t-89.5 -4q-35 0 -45 7q-13 10 -13 43q0 28 27 34q25 2 49 3q60 4 179 17q0 13 3 37q-6 2 -26 2q-26 0 -80 -5.5t-81 -5.5q-49 0 -67 11q-3 50 -9 163q0 7 5 264q0 11 47 11q32 0 51 -6
q1 -8 1 -23q0 -8 -5 -141q5 -6 14 -5q17 1 18 1q80 -9 112 -6q40 3 48 22q3 9 -1 53q-5 45 7 83q4 14 32 14q30 0 130 -22q9 -15 9 -219q0 -6 2 -17.5t2 -17.5v-58q-1 -39 -1 -58q0 -35 4 -73q1 -8 6 -33q4 -21 4 -33z" />
    <glyph glyph-name="z" unicode="z" horiz-adv-x="492" 
d="M479 473q0 -58 -5 -154q0 -4 -11 -11q-14 -9 -18 -14q-35 -39 -96 -95q-53 -49 -72 -73q33 -3 68 -3q2 0 46.5 6t47.5 6q15 0 18 -11q4 -20 4 -77q0 -32 -22 -32q3 0 -25 -2q-22 -1 -29 0q-7 2 -113 1q-72 -4 -196 -9q-36 0 -36 23q0 -8 9 48q0 15 7 40q4 4 28 13
q111 41 223 161q-80 6 -103 6q-2 0 -53.5 -3t-54.5 -3q-80 0 -80 18l-4 188q0 2 1.5 22t1.5 23q0 29 10 29q34 -1 35 -1q133 12 165 12q2 0 31 -2.5t31 -2.5q3 0 58.5 4.5t57.5 4.5q27 0 64 -7q2 -1 7 -22t5 -83z" />
    <glyph glyph-name="braceleft" unicode="{" horiz-adv-x="466" 
d="M458 770q2 -2 -15.5 -68t-28.5 -91q-4 -7 -33 -15q-4 0 -57 -4q-39 -3 -61 -18q-38 -27 -38 -33q45 -50 43 -73q-1 -10 -18.5 -27t-17.5 -23q0 -1 25 -17q22 -16 18 -27q-20 -42 -20 -71q0 -1 23 -30q107 -136 107 -147q0 -20 -174 -110q-18 -10 -45 -10q-15 0 -65 86
q-57 97 -54 167q1 28 6 43q7 25 29 54q-5 9 -37.5 14.5t-32.5 22.5q0 12 14 18q21 6 41 12q29 9 29 19q0 -1 -18 23q-23 30 -23 59q0 97 98 222q25 31 103 36q35 3 129 3q61 0 73 -15z" />
    <glyph glyph-name="bar" unicode="|" horiz-adv-x="295" 
d="M267 37q0 -19 -4 -27l-76 -6h-107q-3 0 -13 4q-13 5 -23 7q0 -4 3 130q1 55 3 112q2 59 -1 133q-4 93 -4 131q0 42 1 104q1 30 1 61v76q9 9 17 11q51 9 90 9q3 0 25 -2.5t25 -2.5t7 2.5t8 2.5q6 0 14 -7t8 -10q4 -17 13 -116q3 -25 8 -273.5t5 -338.5z" />
    <glyph glyph-name="braceright" unicode="}" horiz-adv-x="466" 
d="M449 475q3 -12 -9 -21q-17 -11 -34 -21q-25 -16 -26 -26q-1 -7 7.5 -11t15.5 -7q29 -23 36 -52q5 -22 5 -49q0 -85 -47 -190q-16 -36 -91 -60q-33 -11 -124 -33q-37 -10 -53 -10q-14 0 -21 6q-3 2 -2 68q1 70 6 97q2 8 28 22q4 2 55 18q37 12 55 33q29 35 28 41
q-17 11 -28 21q-28 23 -31 39q-1 10 11.5 30.5t10.5 26.5q0 1 -26.5 11t-24.5 21q9 46 2 74q-1 1 -30 24q-36 28 -73 56q-64 50 -66 60q-5 20 142 149q16 14 41 20q15 4 84 -67q79 -80 93 -149q5 -24 5 -38q0 -28 -16 -64q6 -7 20 -7q6 0 17 1t16 1q21 0 24 -14z" />
    <glyph glyph-name="asciitilde" unicode="~" horiz-adv-x="547" 
d="M538 607q0 -3 -8.5 -12t-10.5 -12q-67 -113 -143 -113q-32 0 -83 55t-97 55q-25 0 -66 -18q-51 -23 -76 -29q-10 16 -28 60q-20 51 -20 74q0 8 24 31q82 78 130 86q20 3 33 3q39 0 64 -30q20 -28 40 -57q27 -30 73 -30q44 0 99 44q10 -10 28 -31q41 -63 41 -76z" />
    <glyph glyph-name="exclamdown" unicode="&#xa1;" horiz-adv-x="262" 
d="M11 297q0 82 26 261q51 0 117 6q9 0 33 4.5t25 4.5q17 0 17 -16v-63q0 -2 6.5 -46.5t6.5 -46.5v-131q0 -2 2 -28t2 -29q0 -17 -15 -183q-1 -8 -9 -15q-74 -9 -145 -9q-13 0 -59 5q2 89 2 131q-1 31 -5 94t-4 61zM35 705q0 53 3 59t29 9q57 8 62 8q25 0 98 -13v-92
q0 -36 -11 -45t-35 -11q-30 -3 -37 -6q-15 -5 -61 -5q-29 0 -37 3q-4 2 -7.5 25t-3.5 68z" />
    <glyph glyph-name="currency" unicode="&#xa4;" horiz-adv-x="861" 
d="M203 220l-143 -4q-7 37 -7 60q0 27 9 27q30 0 116 3q-3 16 -3 26q0 9 3 16t3 16q-1 16 -6 43q-70 -13 -103 -13q-18 0 -21 4q-11 19 -11 86q0 24 5 24q40 0 143 8q25 110 29 122q19 59 55 86q44 32 128 32q45 0 80 -16q17 -6 34.5 -13.5t34.5 -27.5q21 -18 56 -55
q31 -44 52 -138q15 -72 15 -74q0 -5 -2 -6q-17 -15 -74 -15q-3 0 -12.5 1.5t-13.5 1.5q-1 0 -28 -4.5t-52 -5.5q-98 -6 -128 0v-24q0 -19 11 -56q78 -2 156 3q36 2 112 11l73 8q3 0 12.5 -1.5t14.5 -1.5q0 -1 1.5 -3t1.5 -6q0 -26 -30 -124q-23 -78 -77 -124
q-32 -26 -95 -49t-108 -23q-79 0 -117 25q-50 33 -75 82q-19 50 -39 99z" />
    <glyph glyph-name="section" unicode="&#xa7;" horiz-adv-x="835" 
d="M808 384q0 -76 -20 -130q-30 -79 -66 -121q-23 -27 -55 -55q-10 -9 -50 -34q-51 -31 -68 -31q-2 0 -22 -7.5t-33 -7.5q-3 0 -8.5 -1.5t-9.5 -1.5t-11.5 -2t-10.5 -3q-42 -3 -85 0q-14 1 -24 1q-30 0 -86 26q-43 19 -72 39q-40 28 -80 74q-54 62 -72 133q-17 68 -17 121
q0 137 84 245q91 117 243 144q30 6 109 6q4 0 11 -3t10.5 -3t27.5 -6.5t27 -6.5q20 0 100 -44q91 -60 138 -156q40 -84 40 -176zM790 384q0 43 -19 117q-15 56 -68 122q-58 72 -119 97q-55 22 -63 22q-4 0 -37 9t-37 9q-119 0 -200 -37q-98 -47 -163 -158q-48 -82 -48 -181
q0 -66 23 -127q35 -97 115.5 -165t179.5 -82q28 -3 93 -3q4 0 12 1.5t12 1.5t8.5 1.5t8.5 1.5t27.5 7.5t25.5 7.5t44 19q69 32 119 94q25 32 47 76q39 79 39 167zM644 633q0 -8 -16 -45t-22 -37q-5 0 -19 7q0 2 1 6q5 2 17 10q-2 12 -11.5 39t-9.5 30q0 4 4 8q19 -12 19 -40
q3 0 8 -6q6 12 18 37q11 0 11 -9zM577 619q0 -29 -25 -29q-4 0 -15.5 2t-16.5 2v41.5v42.5q15 -8 15 -25q3 -1 8.5 1.5t8.5 2.5q8 0 16.5 -15t8.5 -23zM438 637q-7 -8 -25 -9t-18 -10q0 -5 8 -13q5 0 14 9h11q0 -8 -1 -11q-5 -10 -15 -10h-11q-13 0 -21 16q-6 12 -6 19
q0 38 44 38q4 0 9.5 -10t10.5 -19zM371 594q-40 -10 -47 -10q-17 0 -17 27q0 22 19 35q7 2 23 10q3 10 3 12t5 7q1 0 9 -5q5 -18 5 -17v-59zM297 657q-1 0 -6.5 -1.5t-6.5 -1.5q-7 6 -1 18h14v-15zM495 446q0 -11 -12 -11q-4 0 -18 7v11q10 0 23 6q7 -7 7 -13zM304 637
q0 -2 -6 -9q-1 -11 -1 -53q-1 0 -7.5 -1.5t-9.5 -1.5q0 3 -1.5 8.5t-1.5 9.5q0 24 7 56q4 1 12 5q8 -8 8 -14zM431 448q-8 -5 -26 -16l-1.5 7.5t-1.5 16.5l8 1.5t18 1.5l3 -3v-8zM272 638l-10 -38q-6 -22 -17 -37q-15 5 -32 57q1 0 3.5 2t6.5 2t8.5 -10t7.5 -18
q11 3 16.5 21.5t16.5 20.5zM204 638l-4 -14h-14v9q-1 5 2.5 6t3.5 2q8 0 12 -3zM538 270l-11 5l5 31zM206 555q-5 -9 -20 -16q-1 46 3 73l-3 5h20v-62zM656 336q0 -24 -7 -34q-17 -16 -47 -52q0 -5 -5 -15q-18 -22 -54 -24q-30 -1 -61 -2q-6 -4 -4 -9q-37 -23 -48 -23
q-3 0 -17 7.5t-18 7.5t-40.5 -6t-39.5 -6q-34 0 -73 16.5t-58 16.5q-22 0 -62 -11q6 7 46 23t46 16q8 0 35 -24.5t43 -24.5h39q27 0 59 13q5 2 6 3.5t1 3.5q-2 4 -2 7q54 2 153 7q25 2 38 17q3 3 7 43q0 -5 7 -18q11 15 11 24q0 4 -6 21.5t-6 21.5q0 11 12 23q2 7 -11 7
q-17 0 -45 -25q1 -3 4 -3q-8 -9 -16 -10q-32 -7 -70 -7q4 0 -66 20q31 2 31 19q0 13 -18 24q5 -2 19 -8.5t18 -6.5q10 0 17 12q4 10 8 19v-31h24q11 6 35 15q-8 -8 -15 -22v-17l0.5 -1.5t5.5 -1.5l28 20q6 4 39 18q0 7 -4 17q-54 64 -146 106l-6 -6q-18 -3 -81 -24
q20 17 43 29q10 3 20 5q14 5 19 15h-50q-5 -1 -49 -20q-49 -21 -75 -36q-3 -2 -50 -36q-40 -30 -46 -30h-65q20 12 23 12q4 0 5 -1.5t4 -1.5q29 0 39 6q22 19 73 56q45 29 79 43q63 25 78 25q47 0 95 -31q38 -26 64 -60q13 -13 37 -46q6 -9 -4 -19q3 -6 16 -9t14 -3
q24 -20 24 -34zM179 539q-41 -25 -47 -25q-15 0 -13 26q0 23 23 46q12 2 14.5 8t8.5 23h11q3 -26 3 -78zM571 107q0 -23 -10 -42q-3 -4 -9 -9q-2 0 -8 -3.5t-11 -3.5q-18 0 -29 23q-9 18 -9 38q0 10 2 17q4 12 20.5 23.5t24.5 11.5q17 0 24 -26q5 -15 5 -29zM486 117l-7 -7
q-2 1 -9 16q-5 11 -10 11q-21 0 -21 -44q0 -27 5 -46q-13 -7 -21 -3v79q-1 6 12.5 19.5t18.5 13.5q32 0 32 -23v-16zM407 98q-6 0 -23.5 1.5t-20.5 1.5q-10 0 -10 -9q0 -34 23.5 -34t27.5 -4q-8 -11 -24 -11q-20 0 -31.5 18t-11.5 35q0 29 11 39.5t39 10.5q6 0 13 -11t7 -17
v-20zM325 135q-17 -17 -52 -56q33 -9 37 -9q11 0 15 -4v-10q-35 5 -50 5l-9 -3q-6 0 -20 7v14q12 20 52 54q-3 7 -25.5 10.5t-26.5 10.5v10q29 -6 79 -15v-14zM559 606v29q-7 7 -12 7q-4 0 -12 -7v-26q8 -7 14 -7t10 4zM412 640q3 8 -10 14l-7 -7v-11h14zM517 487l-17 10
l-2 -4l17 -10zM349 618q0 17 -10 18q-14 3 -14 -22q0 -11 4 -18h13q7 8 7 22zM641 324v20q-5 0 -12 1.5t-11 1.5q-10 0 -10 -18q0 -11 7 -31q1 1 13 4q13 11 13 22zM161 558q0 15 -11 20q-16 -19 -16 -30q0 -4 1.5 -9t1.5 -6q1 0 2 1t5 1q17 0 17 23zM465 209q-5 0 -16 2
t-14 2q-12 0 -19 -14q8 -4 19 -4q18 0 30 14zM556 107q0 39 -15 39q-13 0 -21.5 -12t-8.5 -29q4 -38 21 -38q4 0 4 1.5t3 1.5q17 0 17 37zM395 114q-3 6 -10.5 13t-10.5 7q-15 0 -18 -20q40 0 39 0z" />
    <glyph glyph-name="degree" unicode="&#xb0;" horiz-adv-x="227" 
d="M201 624q0 -58 -55 -81q-34 -15 -39 -15q-40 0 -85 60q-2 2 -6 15q-6 22 -6 34q0 29 17 62q19 38 48 55q6 4 45 11q7 0 21 1q10 2 9 2q27 0 38 -13.5t11 -49.5q0 -24 1 -54t1 -27zM129 602q0 6 -1 36q0 2 -4 5q-8 1 -15 1q-13 0 -15 -3q3 -60 3 -57q1 -1 3 -4q16 2 26 3
q3 1 3 19z" />
    <glyph glyph-name="plusminus" unicode="&#xb1;" horiz-adv-x="543" 
d="M494 294q0 -12 -11 -14q-47 -10 -83 -10q-3 0 -13 1t-13 1q-18 0 -24 -4q1 -15 7.5 -45t6.5 -32q0 -19 -20 -25q-8 -2 -41 -4.5t-81 -2.5q-19 0 -21.5 10t-14.5 87q-10 4 -18 4q-3 0 -52.5 -6t-52.5 -6q-20 0 -26 25q-1 3 -3 33l-5 61q-3 6 -8 19q-1 30 -5 90
q23 15 42 17q27 2 53 4q4 0 45 1q7 8 7 22q0 11 -5 33.5t-5 30.5v47q19 6 62 14q38 6 81 6q33 0 74 -11q2 -23 -2 -66l-4 -44v-28q23 1 51 -1q21 -1 42 -1q37 -4 37 -22v-184zM529 29q0 -16 -61 -16q9 0 -37 0q-37 1 -56 0q-28 0 -89 -2q-56 -2 -57 -2q-2 0 -42.5 3t-42.5 3
h-73q-37 0 -52 9q-4 34 -7 101q7 7 15 8q68 7 90 7l147 -7q3 0 69 3.5t69 3.5q73 0 116 -6q11 -37 11 -105z" />
    <glyph glyph-name="twosuperior" unicode="&#xb2;" horiz-adv-x="351" 
d="M315 664q0 -64 -22 -99q-15 -25 -56 -52q-52 -36 -74 -58q5 1 17 3q3 -1 17 0q21 5 50 5q6 0 17 -2t17 -2h5q4 1 5 1q13 0 16 -9v-19q0 -4 2.5 -11.5t2.5 -11.5q0 -19 -23.5 -19t-65.5 -1h-65q-8 0 -24.5 1.5t-24.5 1.5q-6 0 -49 -3q-38 -3 -41 -2q-8 2 -6 56q1 9 30 34
q23 18 45 34t43 31q29 21 29 38q0 23 -23 23q-21 0 -46.5 -24t-39.5 -24q-6 0 -17.5 -1t-17.5 -1q-4 30 -4 155q0 5 -1.5 14.5t-1.5 14.5q0 30 16 36q21 7 46 7q10 0 30.5 -2t30.5 -2q4 0 11.5 1t11.5 1q11 0 58 -9q29 -4 59 -8q21 -7 33 -48q10 -33 10 -49z" />
    <glyph glyph-name="threesuperior" unicode="&#xb3;" horiz-adv-x="267" 
d="M243 553q-2 -4 -10.5 -12.5t-8.5 -9.5q0 -2 5.5 -8t6.5 -8q6 -14 6 -29q0 -84 -2.5 -89.5t-27.5 -5.5q-40 1 -37 1q-62 -4 -57 -4q-46 0 -88 7q-8 2 -8 28t5.5 30t20.5 4h25q16 1 47 5q8 1 24 8v16q-5 4 -3 4q-2 0 -18.5 -3t-18.5 -3q-23 0 -23 29q0 17 5 20t21 3
q6 0 34 -2q-5 2 -3 12q3 15 3 13q0 3 -7 3q-1 0 -32 -1t-33 -1q-30 0 -39 10q-1 0 -4 24l-3 27q-8 87 -8 108q0 33 5 39.5t12.5 7t56.5 0.5q14 0 78 -7q26 -1 52 -3q20 -1 23 -7q1 -2 1 -58v-67q3 -34 0 -81z" />
    <glyph glyph-name="acute" unicode="&#xb4;" horiz-adv-x="277" 
d="M170 534q-14 -20 -23 -32q-18 -20 -30 -24q-26 -7 -59 -13q-26 -5 -26 5q0 11 18 46q14 29 22 41q-14 9 -32 20q-8 6 -8 15q-1 12 42 88q35 62 51 86q8 12 22 12q13 0 26 -9q94 -63 93 -79q-1 -7 -16 -31q-22 -33 -28 -44q-11 -21 -52 -81z" />
    <glyph glyph-name="paragraph" unicode="&#xb6;" horiz-adv-x="711" 
d="M685 70q-2 -19 -5 -53q-19 2 -89 -1q-81 -2 -75 -2q-26 0 -31 14v41q0 3 2 41.5t2 41.5v129q0 3 1.5 99t1.5 99v93q0 2 -5 89t-5 91v19q66 -5 195 -12q1 -4 3 -66v-115v-86q0 -2 2 -20.5t2 -20.5q8 -117 8 -225q0 -93 -7 -156zM459 19q-11 -7 -53 -7q-33 0 -45 1
q-7 0 -19 4q-6 5 -6 43q0 46 -1 99q-1 11 -3 42q-2 27 -2 42v82q-30 0 -47.5 -1.5t-14.5 -1.5q-70 0 -107 5t-74 9q-46 8 -56 36q-12 36 -12 82q0 38 19 121q13 54 35 101q31 66 66 83q31 14 62 16q96 8 184 8q26 0 51 -6q10 -29 13 -87q1 -54 3 -108q-1 -57 2 -188l3 -39
q2 -22 2 -24v-312z" />
    <glyph glyph-name="onesuperior" unicode="&#xb9;" horiz-adv-x="281" 
d="M261 756q0 -10 -7 -36q-8 -30 -10 -37q-7 -53 -23 -158q-1 -6 -7 -31q-5 -18 -5 -31q38 4 42 -4q3 -3 3 -28t-4 -27q3 1 -44 1q-8 0 -25 -1.5t-26 -1.5q-12 0 -36.5 3t-36.5 3q-56 0 -56.5 7.5t-2.5 29.5q-2 9 4 18q3 4 22 3q32 -2 24 -2q2 0 5 16q4 35 4 59q0 17 2 79
q-1 20 1 66q0 2 4 16q2 8 -1 15q-4 6 -63 -20q-13 0 -13 23q0 30 2.5 36.5t45.5 16.5q39 8 54 8q5 0 16 -1.5t17 -1.5q5 0 14.5 1.5t14.5 1.5q45 0 79 -10q6 -2 6 -13z" />
    <glyph glyph-name="ordmasculine" unicode="&#xba;" horiz-adv-x="227" 
d="M201 624q0 -58 -55 -81q-34 -15 -39 -15q-40 0 -85 60q-2 2 -6 15q-6 22 -6 34q0 29 17 62q19 38 48 55q6 4 45 11q7 0 21 1q10 2 9 2q27 0 38 -13.5t11 -49.5q0 -24 1 -54t1 -27zM129 602q0 6 -1 36q0 2 -4 5q-8 1 -15 1q-13 0 -15 -3q3 -60 3 -57q1 -1 3 -4q16 2 26 3
q3 1 3 19z" />
    <glyph glyph-name="questiondown" unicode="&#xbf;" horiz-adv-x="509" 
d="M18 213q0 24 9 119q1 20 9.5 33.5t29.5 29.5t37 22q8 2 58 10q29 4 45 25q10 15 10 27v82q0 48 8.5 63t40.5 15q97 0 100 -1q14 -1 18 -12.5t6 -56.5q2 -55 2 -94q0 -109 1 -68q0 -24 -6 -33.5t-107 -20.5q-105 -11 -108 -13q-6 -3 -6 -12q0 -15 10 -19q14 -6 80 -6
q61 0 135 11t81 11q9 0 12 -2q16 -13 18 -105q5 -168 -0.5 -177.5t-16.5 -10.5q-52 -5 -103 -9q-25 -3 -185 -3q-48 0 -98 17q-18 7 -24 9q-18 9 -27 20q-29 39 -29 149zM227 728q0 21 52 35q39 10 69 10q36 0 36 -40t-12 -54q-14 -19 -59 -19q-56 0 -70 6q-5 2 -9 20
q-7 44 -7 42z" />
    <glyph glyph-name="Ccedilla" unicode="&#xc7;" horiz-adv-x="673" 
d="M506 -59l-40 -124q-31 1 -58 5q-65 9 -98 29l-34 22t-24 29q-2 6 -2 14q0 41 62 97q-27 4 -70 15q-220 55 -220 382q0 155 70 249q81 111 241 111q45 0 80 -16q17 -8 32 -23q16 -20 32 -39q21 -18 56 -55q31 -44 52 -138q15 -71 15 -74q0 -5 -2 -6q-17 -15 -74 -15
q-3 0 -12.5 1.5t-13.5 1.5q-1 0 -28 -4.5t-52 -5.5q-98 -6 -128 0v-24q0 -19 11 -56q78 -1 156 3q36 2 112 11q72 8 73 8q3 0 12.5 -1.5t14.5 -1.5q0 -1 1.5 -3t1.5 -6q0 -26 -30 -124q-23 -78 -78 -123q-30 -26 -90.5 -48.5t-106.5 -24.5q-13 -29 -13 -48q0 -15 9.5 -20.5
t39.5 -5.5q40 0 103 8z" />
    <glyph glyph-name="Ntilde" unicode="&#xd1;" horiz-adv-x="685" 
d="M658 698q0 -3 -8 -9q-11 -8 -13 -11q-77 -89 -164 -89q-36 0 -93.5 43.5t-110.5 43.5q-29 0 -75 -14q-58 -18 -87 -23q-11 12 -31 47q-23 41 -23 59q0 6 27 24q93 62 148 68q23 3 38 3q44 0 72 -24q23 -23 46 -45q31 -24 83 -24q50 0 112 35q12 -8 32 -24q47 -50 47 -60z
M675 549q1 -6 -12 -76q-18 -97 -22 -124.5t-14 -119.5q-6 -65 -20 -116q-6 -22 -18 -61q-10 -3 -36 -3q-51 0 -113 -1q-62 0 -59 0q-5 0 -142 117q-2 -3 -2 -8q0 -15 7 -63.5t7 -63.5q0 -8 -20 -9h-36q13 1 -80 1q-8 0 -22.5 -2.5t-21.5 -2.5q-21 0 -26 22t-10 42.5
t-5.5 43.5t-2 47t-5.5 173q-1 49 -1 76v82q0 43 10 72q3 10 97 10q124 0 154 -5q11 -2 18 -25q4 -24 18 -72q10 -20 28 -61q63 -175 98 -175q6 0 10 13.5t8 25.5q8 22 11 49q5 43 6 50q3 32 23 123q8 28 15.5 54t13.5 30q9 5 75.5 -13.5t68.5 -29.5z" />
    <glyph glyph-name="germandbls" unicode="&#xdf;" horiz-adv-x="515" 
d="M500 209q0 -4 -5 -73q1 12 1 -49q0 -29 -11 -45q-24 -35 -115 -35q-53 0 -168 14q-2 35 -1 79q6 0 37 5.5t36.5 8.5t5.5 34q0 8 3 34q2 19 0 24q-2 4 -9 4t-32 -5t-37 -5q5 160 10 165q8 11 81 11q24 0 26 9q14 75 14 111q0 13 -14 13q-5 0 -30 -4.5t-41 -4.5
q-21 -1 -31 0q-9 0 -24.5 3.5t-16.5 3.5q-3 0 -15 -282t-14 -282t-35 -4t-54 -4q-47 0 -47 20q0 3 11.5 190.5t11.5 190.5v135q0 -4 4 52q5 41 16 138q-1 27 -1 83q0 7 8.5 19t19 12.5t35 2t26.5 1.5q85 0 120 -3q26 -3 140 -61q45 -23 58 -61q8 -21 8 -63q0 -101 -19 -159
q-3 -8 -14 -29.5t-11 -23.5q0 -3 11.5 -12t13.5 -12q29 -43 38.5 -71t9.5 -75z" />
    <glyph glyph-name="ccedilla" unicode="&#xe7;" horiz-adv-x="529" 
d="M380 -61l-30 -94q-24 1 -44 4q-49 7 -74 22q-15 10 -30 20.5t-15 28.5q0 31 46 73q-20 4 -52 12q-166 41 -166 288q0 116 52 188q62 83 183 83q34 0 60 -12q13 -6 48 -47q16 -13 43 -41q23 -33 38 -104q12 -54 12 -56q0 -4 -1 -5q-14 -10 -57 -10q-2 0 -9 1t-10 1
q-1 0 -20 -4q-22 -3 -40 -4q-74 -4 -97 0v-18q0 -14 8 -43q59 0 118 3q27 1 85 8l54 6q3 0 10 -1t11 -1q0 -1 1 -2.5t1 -4.5q0 -19 -22 -93q-18 -59 -59 -94q-23 -19 -68.5 -36t-80.5 -18q-10 -22 -10 -37q0 -11 7 -15t31 -4q30 0 77 6z" />
    <glyph glyph-name="ntilde" unicode="&#xf1;" horiz-adv-x="548" 
d="M510 540q0 -2 -7 -7.5t-9 -7.5q-59 -69 -126 -69q-28 0 -72 33.5t-85 33.5q-22 0 -57 -11q-45 -14 -67 -17q-9 9 -24 36q-17 31 -17 45q0 4 20 18q72 48 114 53q17 2 29 2q40 0 72.5 -36t81.5 -36q39 0 87 27q9 -6 24 -18q36 -39 36 -46zM523 425q1 -4 -9 -58
q-14 -73 -17 -97q-3 -18 -10 -90q-5 -50 -16 -90q-5 -16 -14 -46q-7 -2 -28 -2q-39 0 -87 -1q-47 0 -45 0q-4 0 -109 90q-1 -2 -1 -6q0 -12 5 -49.5t5 -48.5q0 -6 -15 -7h-28q11 1 -61 1q-6 0 -17 -2t-17 -2q-16 0 -19.5 17t-7.5 32.5t-4.5 33.5t-1.5 35q0 7 -4 134
q-1 34 -1 58v63q0 33 8 55q2 8 74 8q95 0 119 -4q8 -1 12 -19.5t15 -54.5q8 -16 21 -47q49 -134 76 -134q5 0 8 10t5 20q7 16 9 37q4 34 5 39q2 24 17 94q6 21 12 41.5t11 22.5q7 4 58 -10t52 -23z" />
    <glyph glyph-name="quoteleft" unicode="&#x2018;" 
d="M19 626q0 61 13 76q17 20 41 44q13 13 21 13q7 0 14 -43q5 -36 5 -54h21l17 1q9 0 16 -8.5t13 -95.5q6 -71 6 -100t-38 -29q-113 0 -121 14q-4 6 -4 34q-1 39 -2 52q-2 24 -2 96z" />
    <glyph glyph-name="quoteright" unicode="&#x2019;" 
d="M186 563q0 -61 -13 -76q-17 -20 -41 -44q-13 -13 -21 -13q-7 0 -13 44q-5 35 -5 53h-22q-17 -1 -16 -1q-10 0 -16.5 8.5t-13.5 95.5q-6 71 -6 100t38 29q113 0 121 -13q4 -7 4 -35q1 -39 2 -52q2 -23 2 -96z" />
    <glyph glyph-name="quotedblleft" unicode="&#x201c;" horiz-adv-x="395" 
d="M215 632q0 61 13 76q17 20 41 44q13 13 21 13q7 0 14 -44q5 -35 5 -53h22.5h15.5q9 0 16 -8t13 -95q6 -71 6 -100t-38 -29q-113 0 -121 13q-4 6 -4 35q-1 39 -2 51q-2 24 -2 97zM19 626q0 61 13 76q17 20 41 44q13 13 21 13q7 0 14 -43q5 -36 5 -54h21l17 1q9 0 16 -8.5
t13 -95.5q6 -71 6 -100t-38 -29q-113 0 -121 14q-4 6 -4 34q-1 39 -2 52q-2 24 -2 96z" />
    <glyph glyph-name="quotedblright" unicode="&#x201d;" horiz-adv-x="395" 
d="M186 563q0 -61 -13 -76q-17 -20 -41 -44q-13 -13 -21 -13q-7 0 -13 44q-5 35 -5 53h-22q-17 -1 -16 -1q-10 0 -16.5 8.5t-13.5 95.5q-6 71 -6 100t38 29q113 0 121 -13q4 -7 4 -35q1 -39 2 -52q2 -23 2 -96zM382 569q0 -61 -13 -76q-17 -20 -41 -44q-13 -13 -21 -13
q-7 0 -13 44q-5 35 -5 53h-22q-17 -1 -16 -1q-10 0 -16.5 8.5t-13.5 95.5q-6 71 -6 100t38 29q113 0 121 -13q4 -7 4 -35q1 -39 2 -52q2 -23 2 -96z" />
    <glyph glyph-name="bullet" unicode="&#x2022;" horiz-adv-x="238" 
d="M217 321q0 -19 -13 -23q-27 -9 -77 -18q-43 -8 -50 -8q-21 0 -27 16t-12 100q-5 68 -5 89q0 30 38 30q-6 0 15 -1t66 -1q2 -1 15 -4q10 -1 13 -9q7 -14 22 -86.5t15 -84.5z" />
    <glyph glyph-name="ellipsis" unicode="&#x2026;" horiz-adv-x="691" 
d="M231 44q0 -19 -13 -23q-27 -9 -77 -18q-43 -8 -50 -8q-21 0 -27 16t-12 100q-5 68 -5 89q0 30 38 30q-6 0 15 -1t66 -1q2 -1 15 -4q10 -1 13 -9q7 -14 22 -86.5t15 -84.5zM681 58q0 -19 -13 -23q-27 -9 -77 -18q-43 -8 -50 -8q-21 0 -27 16t-12 100q-5 68 -5 89
q0 30 38 30q-6 0 15 -1t66 -1q2 -1 15 -4q10 -1 13 -9q7 -14 22 -86.5t15 -84.5zM453 61q0 -19 -13 -23q-27 -9 -77 -18q-43 -8 -50 -8q-21 0 -27 16t-12 100q-5 68 -5 89q0 30 38 30q-6 0 15 -1t66 -1q2 -1 15 -4q10 -1 13 -9q7 -14 22 -86.5t15 -84.5z" />
    </font>
</defs>
</svg>
