<?xml version="1.0" standalone="no"?>
<!DOCTYPE svg PUBLIC "-//W3C//DTD SVG 1.1//EN" "http://www.w3.org/Graphics/SVG/1.1/DTD/svg11.dtd" >
<svg xmlns="http://www.w3.org/2000/svg" xmlns:xlink="http://www.w3.org/1999/xlink" version="1.1">
<metadata>
Created by FontForge 20230101 at Mon Jan 11 11:06:32 1999
 By Glenn Lewis
http://members.aol.com/vroomfonde/ttf/ - Cosine Katie Copyright (c) 1999 Tom Murphy 7. Use to produce anything you want, but don't modify, misrepresent, or sell the font! Imightbetm@aol.com - 339 Still Hill Rd - Hamden CT 06518.1830 - Enjoy! (year of the
</metadata>
<defs>
<font id="CosineKatie" horiz-adv-x="812" >
  <font-face 
    font-family="Cosine Katie"
    font-weight="400"
    font-stretch="normal"
    units-per-em="1000"
    panose-1="0 0 4 0 0 0 0 0 0 0"
    ascent="800"
    descent="-200"
    x-height="561"
    cap-height="764"
    bbox="-34 -439 808 900.389"
    underline-thickness="20"
    underline-position="-143"
    unicode-range="U+0020-2026"
  />
<missing-glyph horiz-adv-x="500" 
d="M63 0v800h375v-800h-375zM125 63h250v675h-250v-675z" />
    <glyph glyph-name=".notdef" horiz-adv-x="500" 
d="M63 0v800h375v-800h-375zM125 63h250v675h-250v-675z" />
    <glyph glyph-name=".null" horiz-adv-x="0" 
 />
    <glyph glyph-name="nonmarkingreturn" horiz-adv-x="712" 
 />
    <glyph glyph-name="space" unicode=" " horiz-adv-x="712" 
 />
    <glyph glyph-name="exclam" unicode="!" horiz-adv-x="259" 
d="M160 259l-33 -15q6 -46 6 -51q0 -52 -41 -52q-26 0 -27 22l-36 455q0 81 21 118h36q4 -113 17 -290q3 -37 15 -133l36 18q-20 248 -20 280q0 18 29 18t32 -18q33 -221 29 -343q0 -14 -18 -14q-4 0 -23 2q-15 2 -23 0v3zM166 61q5 -42 -30 -49q-18 -3 -30.5 14t-11.5 37
q4 36 29 39q17 3 29 -10t14 -31z" />
    <glyph glyph-name="quotedbl" unicode="&#x22;" horiz-adv-x="480" 
d="M224 731q-1 -28 -11 -108q-5 -28 -43 -28q-78 0 -65 1q0 -8 1.5 -33.5t1.5 -41.5q-1 -24 -6 -45q-2 -8 -19 -8q-35 0 -37 16q-10 80 2 148q5 27 48 27q8 0 18 -3t17 -3q26 0 29 2t7 20q1 6 1 11q0 21 -43 21q-17 0 -22.5 -20t-15.5 -20q-1 0 -25 -3q-14 -2 -18 3
q-9 10 -5 64q31 30 83 34q60 3 102 -34zM440 733q-1 -28 -11 -108q-5 -28 -43 -28q-78 0 -65 1q0 -8 1.5 -33.5t1.5 -41.5q-1 -24 -6 -45q-2 -8 -19 -8q-35 0 -37 16q-10 80 2 148q5 27 48 27q8 0 18 -3t17 -3q26 0 29 2t7 20q1 6 1 11q0 21 -43 21q-17 0 -22.5 -20
t-15.5 -20q-1 0 -25 -3q-14 -2 -18 3q-9 10 -5 64q31 30 83 34q60 3 102 -34z" />
    <glyph glyph-name="numbersign" unicode="#" 
d="M684 293q0 -9 -6 -20q-7 -14 -19 -14h-30q0 1 -1.5 7t-1.5 11q12 2 25 4q17 4 17 15q0 14 -16 14q-5 0 -10 -1t-6 -1v7.5v10.5h17q31 1 31 -33zM525 325q-1 -19 -18 -18q-15 1 -14 16q0 11 14 16q10 4 14 0q5 -3 4 -14zM788 406q0 -12 -16 -24.5t-20 -12.5q-3 0 -10.5 5
t-10.5 5h-73q14 -13 46 -28q22 -11 45 -22v-12q-1 -1 -16 -1q-25 0 -65 31q-21 16 -41 31q-3 1 -172 1h-78h-136q-9 0 -22 -11.5t-25 -22.5q9 -5 16 -14q-13 0 -19 -6v-10q9 -8 32 -8q19 -106 67 -183q64 -102 154 -102q46 0 114 90q49 64 68 107q3 -28 -59 -117
q-67 -97 -117 -97h-22q5 0 -38 12q-57 16 -104 83q-37 52 -55 114q-3 26 -13 83q-9 -9 -21 -9q-22 0 -31 35q-72 -42 -99 -42q-11 0 -22 10q14 5 44 18q66 29 112 69q-3 4 -22 4q-20 1 -24 -3q-43 -45 -81 -55q-5 -1 -16.5 4.5t-12.5 5.5q43 6 87 44l-119 1l5 17h123
q39 35 77 100q22 41 45 82q31 54 58 85q33 35 75 58q14 7 26 8q3 5 0 33h21q-2 -28 0 -32q41 -6 87.5 -41.5t70.5 -77.5q18 -25 52 -80q20 -47 41 -95q19 -40 46 -40h31q7 0 12 5zM363 307q-11 -1 -16 10q-4 8 0 16t11 10q7 1 14 -4t7 -14q-1 -9 -6 -13t-10 -5zM486 252
q0 -21 -20 -35q-16 -10 -32 -10q-21 0 -38 11q-20 14 -20 36q0 13 14 33h11q1 -1 1 -30q0 -25 31 -25q29 0 29 14q0 4 -2.5 13t-2.5 13q0 8 8 12q7 -3 14 -15.5t7 -16.5zM507 151q-19 -20 -42 -25q-18 -4 -45 -4q-29 0 -54 28q-6 7 -13 22q-1 -1 20.5 -1t35.5 -3
q34 -7 25 -7q4 0 11.5 4.5t11.5 5.5q17 5 62 -4q-3 -5 -12 -16zM701 397q-49 87 -97 175q-74 116 -161 135v-98q36 -8 90 -29q26 -20 65 -93q23 -45 47 -91zM618 399q-5 17 -31.5 62.5t-50 77t-91.5 44.5q-7 -73 -2 -187zM422 606v100q-52 -20 -100 -79q-29 -36 -77 -117.5
t-72 -110.5l39 -4q15 8 44 59q34 61 60 89q45 49 106 63zM421 581q-39 1 -78 -39q-35 -37 -105 -146q92 2 184 0q-2 62 -1 185z" />
    <glyph glyph-name="dollar" unicode="$" 
d="M684 293q0 -9 -6 -20q-7 -14 -19 -14h-30q0 1 -1.5 7t-1.5 11q12 2 25 4q17 4 17 15q0 14 -16 14q-5 0 -10 -1t-6 -1v7.5v10.5h17q31 1 31 -33zM525 325q-1 -19 -18 -18q-15 1 -14 16q0 11 14 16q10 4 14 0q5 -3 4 -14zM788 406q0 -12 -16 -24.5t-20 -12.5q-3 0 -10.5 5
t-10.5 5h-73q14 -13 46 -28q22 -11 45 -22v-12q-1 -1 -16 -1q-25 0 -65 31q-21 16 -41 31q-3 1 -172 1h-78h-136q-9 0 -22 -11.5t-25 -22.5q9 -5 16 -14q-13 0 -19 -6v-10q9 -8 32 -8q19 -106 67 -183q64 -102 154 -102q46 0 114 90q49 64 68 107q3 -28 -59 -117
q-67 -97 -117 -97h-22q5 0 -38 12q-57 16 -104 83q-37 52 -55 114q-3 26 -13 83q-9 -9 -21 -9q-22 0 -31 35q-72 -42 -99 -42q-11 0 -22 10q14 5 44 18q66 29 112 69q-3 4 -22 4q-20 1 -24 -3q-43 -45 -81 -55q-5 -1 -16.5 4.5t-12.5 5.5q43 6 87 44l-119 1l5 17h123
q39 35 77 100q22 41 45 82q31 54 58 85q33 35 75 58q14 7 26 8q3 5 0 33h21q-2 -28 0 -32q41 -6 87.5 -41.5t70.5 -77.5q18 -25 52 -80q20 -47 41 -95q19 -40 46 -40h31q7 0 12 5zM363 307q-11 -1 -16 10q-4 8 0 16t11 10q7 1 14 -4t7 -14q-1 -9 -6 -13t-10 -5zM486 252
q0 -21 -20 -35q-16 -10 -32 -10q-21 0 -38 11q-20 14 -20 36q0 13 14 33h11q1 -1 1 -30q0 -25 31 -25q29 0 29 14q0 4 -2.5 13t-2.5 13q0 8 8 12q7 -3 14 -15.5t7 -16.5zM507 151q-19 -20 -42 -25q-18 -4 -45 -4q-29 0 -54 28q-6 7 -13 22q-1 -1 20.5 -1t35.5 -3
q34 -7 25 -7q4 0 11.5 4.5t11.5 5.5q17 5 62 -4q-3 -5 -12 -16zM701 397q-49 87 -97 175q-74 116 -161 135v-98q36 -8 90 -29q26 -20 65 -93q23 -45 47 -91zM618 399q-5 17 -31.5 62.5t-50 77t-91.5 44.5q-7 -73 -2 -187zM422 606v100q-52 -20 -100 -79q-29 -36 -77 -117.5
t-72 -110.5l39 -4q15 8 44 59q34 61 60 89q45 49 106 63zM421 581q-39 1 -78 -39q-35 -37 -105 -146q92 2 184 0q-2 62 -1 185z" />
    <glyph glyph-name="percent" unicode="%" 
d="M684 293q0 -9 -6 -20q-7 -14 -19 -14h-30q0 1 -1.5 7t-1.5 11q12 2 25 4q17 4 17 15q0 14 -16 14q-5 0 -10 -1t-6 -1v7.5v10.5h17q31 1 31 -33zM525 325q-1 -19 -18 -18q-15 1 -14 16q0 11 14 16q10 4 14 0q5 -3 4 -14zM788 406q0 -12 -16 -24.5t-20 -12.5q-3 0 -10.5 5
t-10.5 5h-73q14 -13 46 -28q22 -11 45 -22v-12q-1 -1 -16 -1q-25 0 -65 31q-21 16 -41 31q-3 1 -172 1h-78h-136q-9 0 -22 -11.5t-25 -22.5q9 -5 16 -14q-13 0 -19 -6v-10q9 -8 32 -8q19 -106 67 -183q64 -102 154 -102q46 0 114 90q49 64 68 107q3 -28 -59 -117
q-67 -97 -117 -97h-22q5 0 -38 12q-57 16 -104 83q-37 52 -55 114q-3 26 -13 83q-9 -9 -21 -9q-22 0 -31 35q-72 -42 -99 -42q-11 0 -22 10q14 5 44 18q66 29 112 69q-3 4 -22 4q-20 1 -24 -3q-43 -45 -81 -55q-5 -1 -16.5 4.5t-12.5 5.5q43 6 87 44l-119 1l5 17h123
q39 35 77 100q22 41 45 82q31 54 58 85q33 35 75 58q14 7 26 8q3 5 0 33h21q-2 -28 0 -32q41 -6 87.5 -41.5t70.5 -77.5q18 -25 52 -80q20 -47 41 -95q19 -40 46 -40h31q7 0 12 5zM363 307q-11 -1 -16 10q-4 8 0 16t11 10q7 1 14 -4t7 -14q-1 -9 -6 -13t-10 -5zM486 252
q0 -21 -20 -35q-16 -10 -32 -10q-21 0 -38 11q-20 14 -20 36q0 13 14 33h11q1 -1 1 -30q0 -25 31 -25q29 0 29 14q0 4 -2.5 13t-2.5 13q0 8 8 12q7 -3 14 -15.5t7 -16.5zM507 151q-19 -20 -42 -25q-18 -4 -45 -4q-29 0 -54 28q-6 7 -13 22q-1 -1 20.5 -1t35.5 -3
q34 -7 25 -7q4 0 11.5 4.5t11.5 5.5q17 5 62 -4q-3 -5 -12 -16zM701 397q-49 87 -97 175q-74 116 -161 135v-98q36 -8 90 -29q26 -20 65 -93q23 -45 47 -91zM618 399q-5 17 -31.5 62.5t-50 77t-91.5 44.5q-7 -73 -2 -187zM422 606v100q-52 -20 -100 -79q-29 -36 -77 -117.5
t-72 -110.5l39 -4q15 8 44 59q34 61 60 89q45 49 106 63zM421 581q-39 1 -78 -39q-35 -37 -105 -146q92 2 184 0q-2 62 -1 185z" />
    <glyph glyph-name="ampersand" unicode="&#x26;" 
d="M684 293q0 -9 -6 -20q-7 -14 -19 -14h-30q0 1 -1.5 7t-1.5 11q12 2 25 4q17 4 17 15q0 14 -16 14q-5 0 -10 -1t-6 -1v7.5v10.5h17q31 1 31 -33zM525 325q-1 -19 -18 -18q-15 1 -14 16q0 11 14 16q10 4 14 0q5 -3 4 -14zM788 406q0 -12 -16 -24.5t-20 -12.5q-3 0 -10.5 5
t-10.5 5h-73q14 -13 46 -28q22 -11 45 -22v-12q-1 -1 -16 -1q-25 0 -65 31q-21 16 -41 31q-3 1 -172 1h-78h-136q-9 0 -22 -11.5t-25 -22.5q9 -5 16 -14q-13 0 -19 -6v-10q9 -8 32 -8q19 -106 67 -183q64 -102 154 -102q46 0 114 90q49 64 68 107q3 -28 -59 -117
q-67 -97 -117 -97h-22q5 0 -38 12q-57 16 -104 83q-37 52 -55 114q-3 26 -13 83q-9 -9 -21 -9q-22 0 -31 35q-72 -42 -99 -42q-11 0 -22 10q14 5 44 18q66 29 112 69q-3 4 -22 4q-20 1 -24 -3q-43 -45 -81 -55q-5 -1 -16.5 4.5t-12.5 5.5q43 6 87 44l-119 1l5 17h123
q39 35 77 100q22 41 45 82q31 54 58 85q33 35 75 58q14 7 26 8q3 5 0 33h21q-2 -28 0 -32q41 -6 87.5 -41.5t70.5 -77.5q18 -25 52 -80q20 -47 41 -95q19 -40 46 -40h31q7 0 12 5zM363 307q-11 -1 -16 10q-4 8 0 16t11 10q7 1 14 -4t7 -14q-1 -9 -6 -13t-10 -5zM486 252
q0 -21 -20 -35q-16 -10 -32 -10q-21 0 -38 11q-20 14 -20 36q0 13 14 33h11q1 -1 1 -30q0 -25 31 -25q29 0 29 14q0 4 -2.5 13t-2.5 13q0 8 8 12q7 -3 14 -15.5t7 -16.5zM507 151q-19 -20 -42 -25q-18 -4 -45 -4q-29 0 -54 28q-6 7 -13 22q-1 -1 20.5 -1t35.5 -3
q34 -7 25 -7q4 0 11.5 4.5t11.5 5.5q17 5 62 -4q-3 -5 -12 -16zM701 397q-49 87 -97 175q-74 116 -161 135v-98q36 -8 90 -29q26 -20 65 -93q23 -45 47 -91zM618 399q-5 17 -31.5 62.5t-50 77t-91.5 44.5q-7 -73 -2 -187zM422 606v100q-52 -20 -100 -79q-29 -36 -77 -117.5
t-72 -110.5l39 -4q15 8 44 59q34 61 60 89q45 49 106 63zM421 581q-39 1 -78 -39q-35 -37 -105 -146q92 2 184 0q-2 62 -1 185z" />
    <glyph glyph-name="quotesingle" unicode="'" horiz-adv-x="250" 
d="M224 731q-1 -28 -11 -108q-5 -28 -43 -28q-78 0 -65 1q0 -8 1.5 -33.5t1.5 -41.5q-1 -24 -6 -45q-2 -8 -19 -8q-35 0 -37 16q-10 80 2 148q5 27 48 27q8 0 18 -3t17 -3q26 0 29 2t7 20q1 6 1 11q0 21 -43 21q-17 0 -22.5 -20t-15.5 -20q-1 0 -25 -3q-14 -2 -18 3
q-9 10 -5 64q31 30 83 34q60 3 102 -34z" />
    <glyph glyph-name="parenleft" unicode="(" 
d="M684 293q0 -9 -6 -20q-7 -14 -19 -14h-30q0 1 -1.5 7t-1.5 11q12 2 25 4q17 4 17 15q0 14 -16 14q-5 0 -10 -1t-6 -1v7.5v10.5h17q31 1 31 -33zM525 325q-1 -19 -18 -18q-15 1 -14 16q0 11 14 16q10 4 14 0q5 -3 4 -14zM788 406q0 -12 -16 -24.5t-20 -12.5q-3 0 -10.5 5
t-10.5 5h-73q14 -13 46 -28q22 -11 45 -22v-12q-1 -1 -16 -1q-25 0 -65 31q-21 16 -41 31q-3 1 -172 1h-78h-136q-9 0 -22 -11.5t-25 -22.5q9 -5 16 -14q-13 0 -19 -6v-10q9 -8 32 -8q19 -106 67 -183q64 -102 154 -102q46 0 114 90q49 64 68 107q3 -28 -59 -117
q-67 -97 -117 -97h-22q5 0 -38 12q-57 16 -104 83q-37 52 -55 114q-3 26 -13 83q-9 -9 -21 -9q-22 0 -31 35q-72 -42 -99 -42q-11 0 -22 10q14 5 44 18q66 29 112 69q-3 4 -22 4q-20 1 -24 -3q-43 -45 -81 -55q-5 -1 -16.5 4.5t-12.5 5.5q43 6 87 44l-119 1l5 17h123
q39 35 77 100q22 41 45 82q31 54 58 85q33 35 75 58q14 7 26 8q3 5 0 33h21q-2 -28 0 -32q41 -6 87.5 -41.5t70.5 -77.5q18 -25 52 -80q20 -47 41 -95q19 -40 46 -40h31q7 0 12 5zM363 307q-11 -1 -16 10q-4 8 0 16t11 10q7 1 14 -4t7 -14q-1 -9 -6 -13t-10 -5zM486 252
q0 -21 -20 -35q-16 -10 -32 -10q-21 0 -38 11q-20 14 -20 36q0 13 14 33h11q1 -1 1 -30q0 -25 31 -25q29 0 29 14q0 4 -2.5 13t-2.5 13q0 8 8 12q7 -3 14 -15.5t7 -16.5zM507 151q-19 -20 -42 -25q-18 -4 -45 -4q-29 0 -54 28q-6 7 -13 22q-1 -1 20.5 -1t35.5 -3
q34 -7 25 -7q4 0 11.5 4.5t11.5 5.5q17 5 62 -4q-3 -5 -12 -16zM701 397q-49 87 -97 175q-74 116 -161 135v-98q36 -8 90 -29q26 -20 65 -93q23 -45 47 -91zM618 399q-5 17 -31.5 62.5t-50 77t-91.5 44.5q-7 -73 -2 -187zM422 606v100q-52 -20 -100 -79q-29 -36 -77 -117.5
t-72 -110.5l39 -4q15 8 44 59q34 61 60 89q45 49 106 63zM421 581q-39 1 -78 -39q-35 -37 -105 -146q92 2 184 0q-2 62 -1 185z" />
    <glyph glyph-name="parenright" unicode=")" 
d="M684 293q0 -9 -6 -20q-7 -14 -19 -14h-30q0 1 -1.5 7t-1.5 11q12 2 25 4q17 4 17 15q0 14 -16 14q-5 0 -10 -1t-6 -1v7.5v10.5h17q31 1 31 -33zM525 325q-1 -19 -18 -18q-15 1 -14 16q0 11 14 16q10 4 14 0q5 -3 4 -14zM788 406q0 -12 -16 -24.5t-20 -12.5q-3 0 -10.5 5
t-10.5 5h-73q14 -13 46 -28q22 -11 45 -22v-12q-1 -1 -16 -1q-25 0 -65 31q-21 16 -41 31q-3 1 -172 1h-78h-136q-9 0 -22 -11.5t-25 -22.5q9 -5 16 -14q-13 0 -19 -6v-10q9 -8 32 -8q19 -106 67 -183q64 -102 154 -102q46 0 114 90q49 64 68 107q3 -28 -59 -117
q-67 -97 -117 -97h-22q5 0 -38 12q-57 16 -104 83q-37 52 -55 114q-3 26 -13 83q-9 -9 -21 -9q-22 0 -31 35q-72 -42 -99 -42q-11 0 -22 10q14 5 44 18q66 29 112 69q-3 4 -22 4q-20 1 -24 -3q-43 -45 -81 -55q-5 -1 -16.5 4.5t-12.5 5.5q43 6 87 44l-119 1l5 17h123
q39 35 77 100q22 41 45 82q31 54 58 85q33 35 75 58q14 7 26 8q3 5 0 33h21q-2 -28 0 -32q41 -6 87.5 -41.5t70.5 -77.5q18 -25 52 -80q20 -47 41 -95q19 -40 46 -40h31q7 0 12 5zM363 307q-11 -1 -16 10q-4 8 0 16t11 10q7 1 14 -4t7 -14q-1 -9 -6 -13t-10 -5zM486 252
q0 -21 -20 -35q-16 -10 -32 -10q-21 0 -38 11q-20 14 -20 36q0 13 14 33h11q1 -1 1 -30q0 -25 31 -25q29 0 29 14q0 4 -2.5 13t-2.5 13q0 8 8 12q7 -3 14 -15.5t7 -16.5zM507 151q-19 -20 -42 -25q-18 -4 -45 -4q-29 0 -54 28q-6 7 -13 22q-1 -1 20.5 -1t35.5 -3
q34 -7 25 -7q4 0 11.5 4.5t11.5 5.5q17 5 62 -4q-3 -5 -12 -16zM701 397q-49 87 -97 175q-74 116 -161 135v-98q36 -8 90 -29q26 -20 65 -93q23 -45 47 -91zM618 399q-5 17 -31.5 62.5t-50 77t-91.5 44.5q-7 -73 -2 -187zM422 606v100q-52 -20 -100 -79q-29 -36 -77 -117.5
t-72 -110.5l39 -4q15 8 44 59q34 61 60 89q45 49 106 63zM421 581q-39 1 -78 -39q-35 -37 -105 -146q92 2 184 0q-2 62 -1 185z" />
    <glyph glyph-name="asterisk" unicode="*" 
d="M684 293q0 -9 -6 -20q-7 -14 -19 -14h-30q0 1 -1.5 7t-1.5 11q12 2 25 4q17 4 17 15q0 14 -16 14q-5 0 -10 -1t-6 -1v7.5v10.5h17q31 1 31 -33zM525 325q-1 -19 -18 -18q-15 1 -14 16q0 11 14 16q10 4 14 0q5 -3 4 -14zM788 406q0 -12 -16 -24.5t-20 -12.5q-3 0 -10.5 5
t-10.5 5h-73q14 -13 46 -28q22 -11 45 -22v-12q-1 -1 -16 -1q-25 0 -65 31q-21 16 -41 31q-3 1 -172 1h-78h-136q-9 0 -22 -11.5t-25 -22.5q9 -5 16 -14q-13 0 -19 -6v-10q9 -8 32 -8q19 -106 67 -183q64 -102 154 -102q46 0 114 90q49 64 68 107q3 -28 -59 -117
q-67 -97 -117 -97h-22q5 0 -38 12q-57 16 -104 83q-37 52 -55 114q-3 26 -13 83q-9 -9 -21 -9q-22 0 -31 35q-72 -42 -99 -42q-11 0 -22 10q14 5 44 18q66 29 112 69q-3 4 -22 4q-20 1 -24 -3q-43 -45 -81 -55q-5 -1 -16.5 4.5t-12.5 5.5q43 6 87 44l-119 1l5 17h123
q39 35 77 100q22 41 45 82q31 54 58 85q33 35 75 58q14 7 26 8q3 5 0 33h21q-2 -28 0 -32q41 -6 87.5 -41.5t70.5 -77.5q18 -25 52 -80q20 -47 41 -95q19 -40 46 -40h31q7 0 12 5zM363 307q-11 -1 -16 10q-4 8 0 16t11 10q7 1 14 -4t7 -14q-1 -9 -6 -13t-10 -5zM486 252
q0 -21 -20 -35q-16 -10 -32 -10q-21 0 -38 11q-20 14 -20 36q0 13 14 33h11q1 -1 1 -30q0 -25 31 -25q29 0 29 14q0 4 -2.5 13t-2.5 13q0 8 8 12q7 -3 14 -15.5t7 -16.5zM507 151q-19 -20 -42 -25q-18 -4 -45 -4q-29 0 -54 28q-6 7 -13 22q-1 -1 20.5 -1t35.5 -3
q34 -7 25 -7q4 0 11.5 4.5t11.5 5.5q17 5 62 -4q-3 -5 -12 -16zM701 397q-49 87 -97 175q-74 116 -161 135v-98q36 -8 90 -29q26 -20 65 -93q23 -45 47 -91zM618 399q-5 17 -31.5 62.5t-50 77t-91.5 44.5q-7 -73 -2 -187zM422 606v100q-52 -20 -100 -79q-29 -36 -77 -117.5
t-72 -110.5l39 -4q15 8 44 59q34 61 60 89q45 49 106 63zM421 581q-39 1 -78 -39q-35 -37 -105 -146q92 2 184 0q-2 62 -1 185z" />
    <glyph glyph-name="plus" unicode="+" 
d="M684 293q0 -9 -6 -20q-7 -14 -19 -14h-30q0 1 -1.5 7t-1.5 11q12 2 25 4q17 4 17 15q0 14 -16 14q-5 0 -10 -1t-6 -1v7.5v10.5h17q31 1 31 -33zM525 325q-1 -19 -18 -18q-15 1 -14 16q0 11 14 16q10 4 14 0q5 -3 4 -14zM788 406q0 -12 -16 -24.5t-20 -12.5q-3 0 -10.5 5
t-10.5 5h-73q14 -13 46 -28q22 -11 45 -22v-12q-1 -1 -16 -1q-25 0 -65 31q-21 16 -41 31q-3 1 -172 1h-78h-136q-9 0 -22 -11.5t-25 -22.5q9 -5 16 -14q-13 0 -19 -6v-10q9 -8 32 -8q19 -106 67 -183q64 -102 154 -102q46 0 114 90q49 64 68 107q3 -28 -59 -117
q-67 -97 -117 -97h-22q5 0 -38 12q-57 16 -104 83q-37 52 -55 114q-3 26 -13 83q-9 -9 -21 -9q-22 0 -31 35q-72 -42 -99 -42q-11 0 -22 10q14 5 44 18q66 29 112 69q-3 4 -22 4q-20 1 -24 -3q-43 -45 -81 -55q-5 -1 -16.5 4.5t-12.5 5.5q43 6 87 44l-119 1l5 17h123
q39 35 77 100q22 41 45 82q31 54 58 85q33 35 75 58q14 7 26 8q3 5 0 33h21q-2 -28 0 -32q41 -6 87.5 -41.5t70.5 -77.5q18 -25 52 -80q20 -47 41 -95q19 -40 46 -40h31q7 0 12 5zM363 307q-11 -1 -16 10q-4 8 0 16t11 10q7 1 14 -4t7 -14q-1 -9 -6 -13t-10 -5zM486 252
q0 -21 -20 -35q-16 -10 -32 -10q-21 0 -38 11q-20 14 -20 36q0 13 14 33h11q1 -1 1 -30q0 -25 31 -25q29 0 29 14q0 4 -2.5 13t-2.5 13q0 8 8 12q7 -3 14 -15.5t7 -16.5zM507 151q-19 -20 -42 -25q-18 -4 -45 -4q-29 0 -54 28q-6 7 -13 22q-1 -1 20.5 -1t35.5 -3
q34 -7 25 -7q4 0 11.5 4.5t11.5 5.5q17 5 62 -4q-3 -5 -12 -16zM701 397q-49 87 -97 175q-74 116 -161 135v-98q36 -8 90 -29q26 -20 65 -93q23 -45 47 -91zM618 399q-5 17 -31.5 62.5t-50 77t-91.5 44.5q-7 -73 -2 -187zM422 606v100q-52 -20 -100 -79q-29 -36 -77 -117.5
t-72 -110.5l39 -4q15 8 44 59q34 61 60 89q45 49 106 63zM421 581q-39 1 -78 -39q-35 -37 -105 -146q92 2 184 0q-2 62 -1 185z" />
    <glyph glyph-name="comma" unicode="," horiz-adv-x="210" 
d="M64 17q-24 21 -24 46q0 10 3 19q12 35 57 35q33 0 54 -19t22 -52q2 -60 -26 -108q-26 -44 -57 -44q-15 0 -24 13q-4 6 20.5 38t24.5 44q0 8 -8 12q-14 2 -42 16z" />
    <glyph glyph-name="hyphen" unicode="-" horiz-adv-x="443" 
d="M131 384h246q1 0 10 2t14 2q22 0 22 -33q0 -29 -14 -29q-5 0 -13.5 3.5t-10.5 3.5h-196q-113 0 -128 -2q-3 0 -13.5 2.5t-15.5 2.5t-5 7q0 12 7.5 27.5t16.5 15.5q24 1 51 0q32 -2 29 -2z" />
    <glyph glyph-name="hyphen" unicode="&#x2010;" horiz-adv-x="443" 
d="M131 384h246q1 0 10 2t14 2q22 0 22 -33q0 -29 -14 -29q-5 0 -13.5 3.5t-10.5 3.5h-196q-113 0 -128 -2q-3 0 -13.5 2.5t-15.5 2.5t-5 7q0 12 7.5 27.5t16.5 15.5q24 1 51 0q32 -2 29 -2z" />
    <glyph glyph-name="hyphen" unicode="&#x2010;" horiz-adv-x="443" 
d="M131 384h246q1 0 10 2t14 2q22 0 22 -33q0 -29 -14 -29q-5 0 -13.5 3.5t-10.5 3.5h-196q-113 0 -128 -2q-3 0 -13.5 2.5t-15.5 2.5t-5 7q0 12 7.5 27.5t16.5 15.5q24 1 51 0q32 -2 29 -2z" />
    <glyph glyph-name="period" unicode="." horiz-adv-x="259" 
d="M166 61q5 -42 -30 -49q-18 -3 -30.5 14t-11.5 37q4 36 29 39q17 3 29 -10t14 -31z" />
    <glyph glyph-name="slash" unicode="/" 
d="M684 293q0 -9 -6 -20q-7 -14 -19 -14h-30q0 1 -1.5 7t-1.5 11q12 2 25 4q17 4 17 15q0 14 -16 14q-5 0 -10 -1t-6 -1v7.5v10.5h17q31 1 31 -33zM525 325q-1 -19 -18 -18q-15 1 -14 16q0 11 14 16q10 4 14 0q5 -3 4 -14zM788 406q0 -12 -16 -24.5t-20 -12.5q-3 0 -10.5 5
t-10.5 5h-73q14 -13 46 -28q22 -11 45 -22v-12q-1 -1 -16 -1q-25 0 -65 31q-21 16 -41 31q-3 1 -172 1h-78h-136q-9 0 -22 -11.5t-25 -22.5q9 -5 16 -14q-13 0 -19 -6v-10q9 -8 32 -8q19 -106 67 -183q64 -102 154 -102q46 0 114 90q49 64 68 107q3 -28 -59 -117
q-67 -97 -117 -97h-22q5 0 -38 12q-57 16 -104 83q-37 52 -55 114q-3 26 -13 83q-9 -9 -21 -9q-22 0 -31 35q-72 -42 -99 -42q-11 0 -22 10q14 5 44 18q66 29 112 69q-3 4 -22 4q-20 1 -24 -3q-43 -45 -81 -55q-5 -1 -16.5 4.5t-12.5 5.5q43 6 87 44l-119 1l5 17h123
q39 35 77 100q22 41 45 82q31 54 58 85q33 35 75 58q14 7 26 8q3 5 0 33h21q-2 -28 0 -32q41 -6 87.5 -41.5t70.5 -77.5q18 -25 52 -80q20 -47 41 -95q19 -40 46 -40h31q7 0 12 5zM363 307q-11 -1 -16 10q-4 8 0 16t11 10q7 1 14 -4t7 -14q-1 -9 -6 -13t-10 -5zM486 252
q0 -21 -20 -35q-16 -10 -32 -10q-21 0 -38 11q-20 14 -20 36q0 13 14 33h11q1 -1 1 -30q0 -25 31 -25q29 0 29 14q0 4 -2.5 13t-2.5 13q0 8 8 12q7 -3 14 -15.5t7 -16.5zM507 151q-19 -20 -42 -25q-18 -4 -45 -4q-29 0 -54 28q-6 7 -13 22q-1 -1 20.5 -1t35.5 -3
q34 -7 25 -7q4 0 11.5 4.5t11.5 5.5q17 5 62 -4q-3 -5 -12 -16zM701 397q-49 87 -97 175q-74 116 -161 135v-98q36 -8 90 -29q26 -20 65 -93q23 -45 47 -91zM618 399q-5 17 -31.5 62.5t-50 77t-91.5 44.5q-7 -73 -2 -187zM422 606v100q-52 -20 -100 -79q-29 -36 -77 -117.5
t-72 -110.5l39 -4q15 8 44 59q34 61 60 89q45 49 106 63zM421 581q-39 1 -78 -39q-35 -37 -105 -146q92 2 184 0q-2 62 -1 185z" />
    <glyph glyph-name="zero" unicode="0" 
d="M684 293q0 -9 -6 -20q-7 -14 -19 -14h-30q0 1 -1.5 7t-1.5 11q12 2 25 4q17 4 17 15q0 14 -16 14q-5 0 -10 -1t-6 -1v7.5v10.5h17q31 1 31 -33zM525 325q-1 -19 -18 -18q-15 1 -14 16q0 11 14 16q10 4 14 0q5 -3 4 -14zM788 406q0 -12 -16 -24.5t-20 -12.5q-3 0 -10.5 5
t-10.5 5h-73q14 -13 46 -28q22 -11 45 -22v-12q-1 -1 -16 -1q-25 0 -65 31q-21 16 -41 31q-3 1 -172 1h-78h-136q-9 0 -22 -11.5t-25 -22.5q9 -5 16 -14q-13 0 -19 -6v-10q9 -8 32 -8q19 -106 67 -183q64 -102 154 -102q46 0 114 90q49 64 68 107q3 -28 -59 -117
q-67 -97 -117 -97h-22q5 0 -38 12q-57 16 -104 83q-37 52 -55 114q-3 26 -13 83q-9 -9 -21 -9q-22 0 -31 35q-72 -42 -99 -42q-11 0 -22 10q14 5 44 18q66 29 112 69q-3 4 -22 4q-20 1 -24 -3q-43 -45 -81 -55q-5 -1 -16.5 4.5t-12.5 5.5q43 6 87 44l-119 1l5 17h123
q39 35 77 100q22 41 45 82q31 54 58 85q33 35 75 58q14 7 26 8q3 5 0 33h21q-2 -28 0 -32q41 -6 87.5 -41.5t70.5 -77.5q18 -25 52 -80q20 -47 41 -95q19 -40 46 -40h31q7 0 12 5zM363 307q-11 -1 -16 10q-4 8 0 16t11 10q7 1 14 -4t7 -14q-1 -9 -6 -13t-10 -5zM486 252
q0 -21 -20 -35q-16 -10 -32 -10q-21 0 -38 11q-20 14 -20 36q0 13 14 33h11q1 -1 1 -30q0 -25 31 -25q29 0 29 14q0 4 -2.5 13t-2.5 13q0 8 8 12q7 -3 14 -15.5t7 -16.5zM507 151q-19 -20 -42 -25q-18 -4 -45 -4q-29 0 -54 28q-6 7 -13 22q-1 -1 20.5 -1t35.5 -3
q34 -7 25 -7q4 0 11.5 4.5t11.5 5.5q17 5 62 -4q-3 -5 -12 -16zM701 397q-49 87 -97 175q-74 116 -161 135v-98q36 -8 90 -29q26 -20 65 -93q23 -45 47 -91zM618 399q-5 17 -31.5 62.5t-50 77t-91.5 44.5q-7 -73 -2 -187zM422 606v100q-52 -20 -100 -79q-29 -36 -77 -117.5
t-72 -110.5l39 -4q15 8 44 59q34 61 60 89q45 49 106 63zM421 581q-39 1 -78 -39q-35 -37 -105 -146q92 2 184 0q-2 62 -1 185z" />
    <glyph glyph-name="one" unicode="1" 
d="M684 293q0 -9 -6 -20q-7 -14 -19 -14h-30q0 1 -1.5 7t-1.5 11q12 2 25 4q17 4 17 15q0 14 -16 14q-5 0 -10 -1t-6 -1v7.5v10.5h17q31 1 31 -33zM525 325q-1 -19 -18 -18q-15 1 -14 16q0 11 14 16q10 4 14 0q5 -3 4 -14zM788 406q0 -12 -16 -24.5t-20 -12.5q-3 0 -10.5 5
t-10.5 5h-73q14 -13 46 -28q22 -11 45 -22v-12q-1 -1 -16 -1q-25 0 -65 31q-21 16 -41 31q-3 1 -172 1h-78h-136q-9 0 -22 -11.5t-25 -22.5q9 -5 16 -14q-13 0 -19 -6v-10q9 -8 32 -8q19 -106 67 -183q64 -102 154 -102q46 0 114 90q49 64 68 107q3 -28 -59 -117
q-67 -97 -117 -97h-22q5 0 -38 12q-57 16 -104 83q-37 52 -55 114q-3 26 -13 83q-9 -9 -21 -9q-22 0 -31 35q-72 -42 -99 -42q-11 0 -22 10q14 5 44 18q66 29 112 69q-3 4 -22 4q-20 1 -24 -3q-43 -45 -81 -55q-5 -1 -16.5 4.5t-12.5 5.5q43 6 87 44l-119 1l5 17h123
q39 35 77 100q22 41 45 82q31 54 58 85q33 35 75 58q14 7 26 8q3 5 0 33h21q-2 -28 0 -32q41 -6 87.5 -41.5t70.5 -77.5q18 -25 52 -80q20 -47 41 -95q19 -40 46 -40h31q7 0 12 5zM363 307q-11 -1 -16 10q-4 8 0 16t11 10q7 1 14 -4t7 -14q-1 -9 -6 -13t-10 -5zM486 252
q0 -21 -20 -35q-16 -10 -32 -10q-21 0 -38 11q-20 14 -20 36q0 13 14 33h11q1 -1 1 -30q0 -25 31 -25q29 0 29 14q0 4 -2.5 13t-2.5 13q0 8 8 12q7 -3 14 -15.5t7 -16.5zM507 151q-19 -20 -42 -25q-18 -4 -45 -4q-29 0 -54 28q-6 7 -13 22q-1 -1 20.5 -1t35.5 -3
q34 -7 25 -7q4 0 11.5 4.5t11.5 5.5q17 5 62 -4q-3 -5 -12 -16zM701 397q-49 87 -97 175q-74 116 -161 135v-98q36 -8 90 -29q26 -20 65 -93q23 -45 47 -91zM618 399q-5 17 -31.5 62.5t-50 77t-91.5 44.5q-7 -73 -2 -187zM422 606v100q-52 -20 -100 -79q-29 -36 -77 -117.5
t-72 -110.5l39 -4q15 8 44 59q34 61 60 89q45 49 106 63zM421 581q-39 1 -78 -39q-35 -37 -105 -146q92 2 184 0q-2 62 -1 185z" />
    <glyph glyph-name="two" unicode="2" 
d="M684 293q0 -9 -6 -20q-7 -14 -19 -14h-30q0 1 -1.5 7t-1.5 11q12 2 25 4q17 4 17 15q0 14 -16 14q-5 0 -10 -1t-6 -1v7.5v10.5h17q31 1 31 -33zM525 325q-1 -19 -18 -18q-15 1 -14 16q0 11 14 16q10 4 14 0q5 -3 4 -14zM788 406q0 -12 -16 -24.5t-20 -12.5q-3 0 -10.5 5
t-10.5 5h-73q14 -13 46 -28q22 -11 45 -22v-12q-1 -1 -16 -1q-25 0 -65 31q-21 16 -41 31q-3 1 -172 1h-78h-136q-9 0 -22 -11.5t-25 -22.5q9 -5 16 -14q-13 0 -19 -6v-10q9 -8 32 -8q19 -106 67 -183q64 -102 154 -102q46 0 114 90q49 64 68 107q3 -28 -59 -117
q-67 -97 -117 -97h-22q5 0 -38 12q-57 16 -104 83q-37 52 -55 114q-3 26 -13 83q-9 -9 -21 -9q-22 0 -31 35q-72 -42 -99 -42q-11 0 -22 10q14 5 44 18q66 29 112 69q-3 4 -22 4q-20 1 -24 -3q-43 -45 -81 -55q-5 -1 -16.5 4.5t-12.5 5.5q43 6 87 44l-119 1l5 17h123
q39 35 77 100q22 41 45 82q31 54 58 85q33 35 75 58q14 7 26 8q3 5 0 33h21q-2 -28 0 -32q41 -6 87.5 -41.5t70.5 -77.5q18 -25 52 -80q20 -47 41 -95q19 -40 46 -40h31q7 0 12 5zM363 307q-11 -1 -16 10q-4 8 0 16t11 10q7 1 14 -4t7 -14q-1 -9 -6 -13t-10 -5zM486 252
q0 -21 -20 -35q-16 -10 -32 -10q-21 0 -38 11q-20 14 -20 36q0 13 14 33h11q1 -1 1 -30q0 -25 31 -25q29 0 29 14q0 4 -2.5 13t-2.5 13q0 8 8 12q7 -3 14 -15.5t7 -16.5zM507 151q-19 -20 -42 -25q-18 -4 -45 -4q-29 0 -54 28q-6 7 -13 22q-1 -1 20.5 -1t35.5 -3
q34 -7 25 -7q4 0 11.5 4.5t11.5 5.5q17 5 62 -4q-3 -5 -12 -16zM701 397q-49 87 -97 175q-74 116 -161 135v-98q36 -8 90 -29q26 -20 65 -93q23 -45 47 -91zM618 399q-5 17 -31.5 62.5t-50 77t-91.5 44.5q-7 -73 -2 -187zM422 606v100q-52 -20 -100 -79q-29 -36 -77 -117.5
t-72 -110.5l39 -4q15 8 44 59q34 61 60 89q45 49 106 63zM421 581q-39 1 -78 -39q-35 -37 -105 -146q92 2 184 0q-2 62 -1 185z" />
    <glyph glyph-name="three" unicode="3" 
d="M684 293q0 -9 -6 -20q-7 -14 -19 -14h-30q0 1 -1.5 7t-1.5 11q12 2 25 4q17 4 17 15q0 14 -16 14q-5 0 -10 -1t-6 -1v7.5v10.5h17q31 1 31 -33zM525 325q-1 -19 -18 -18q-15 1 -14 16q0 11 14 16q10 4 14 0q5 -3 4 -14zM788 406q0 -12 -16 -24.5t-20 -12.5q-3 0 -10.5 5
t-10.5 5h-73q14 -13 46 -28q22 -11 45 -22v-12q-1 -1 -16 -1q-25 0 -65 31q-21 16 -41 31q-3 1 -172 1h-78h-136q-9 0 -22 -11.5t-25 -22.5q9 -5 16 -14q-13 0 -19 -6v-10q9 -8 32 -8q19 -106 67 -183q64 -102 154 -102q46 0 114 90q49 64 68 107q3 -28 -59 -117
q-67 -97 -117 -97h-22q5 0 -38 12q-57 16 -104 83q-37 52 -55 114q-3 26 -13 83q-9 -9 -21 -9q-22 0 -31 35q-72 -42 -99 -42q-11 0 -22 10q14 5 44 18q66 29 112 69q-3 4 -22 4q-20 1 -24 -3q-43 -45 -81 -55q-5 -1 -16.5 4.5t-12.5 5.5q43 6 87 44l-119 1l5 17h123
q39 35 77 100q22 41 45 82q31 54 58 85q33 35 75 58q14 7 26 8q3 5 0 33h21q-2 -28 0 -32q41 -6 87.5 -41.5t70.5 -77.5q18 -25 52 -80q20 -47 41 -95q19 -40 46 -40h31q7 0 12 5zM363 307q-11 -1 -16 10q-4 8 0 16t11 10q7 1 14 -4t7 -14q-1 -9 -6 -13t-10 -5zM486 252
q0 -21 -20 -35q-16 -10 -32 -10q-21 0 -38 11q-20 14 -20 36q0 13 14 33h11q1 -1 1 -30q0 -25 31 -25q29 0 29 14q0 4 -2.5 13t-2.5 13q0 8 8 12q7 -3 14 -15.5t7 -16.5zM507 151q-19 -20 -42 -25q-18 -4 -45 -4q-29 0 -54 28q-6 7 -13 22q-1 -1 20.5 -1t35.5 -3
q34 -7 25 -7q4 0 11.5 4.5t11.5 5.5q17 5 62 -4q-3 -5 -12 -16zM701 397q-49 87 -97 175q-74 116 -161 135v-98q36 -8 90 -29q26 -20 65 -93q23 -45 47 -91zM618 399q-5 17 -31.5 62.5t-50 77t-91.5 44.5q-7 -73 -2 -187zM422 606v100q-52 -20 -100 -79q-29 -36 -77 -117.5
t-72 -110.5l39 -4q15 8 44 59q34 61 60 89q45 49 106 63zM421 581q-39 1 -78 -39q-35 -37 -105 -146q92 2 184 0q-2 62 -1 185z" />
    <glyph glyph-name="four" unicode="4" 
d="M684 293q0 -9 -6 -20q-7 -14 -19 -14h-30q0 1 -1.5 7t-1.5 11q12 2 25 4q17 4 17 15q0 14 -16 14q-5 0 -10 -1t-6 -1v7.5v10.5h17q31 1 31 -33zM525 325q-1 -19 -18 -18q-15 1 -14 16q0 11 14 16q10 4 14 0q5 -3 4 -14zM788 406q0 -12 -16 -24.5t-20 -12.5q-3 0 -10.5 5
t-10.5 5h-73q14 -13 46 -28q22 -11 45 -22v-12q-1 -1 -16 -1q-25 0 -65 31q-21 16 -41 31q-3 1 -172 1h-78h-136q-9 0 -22 -11.5t-25 -22.5q9 -5 16 -14q-13 0 -19 -6v-10q9 -8 32 -8q19 -106 67 -183q64 -102 154 -102q46 0 114 90q49 64 68 107q3 -28 -59 -117
q-67 -97 -117 -97h-22q5 0 -38 12q-57 16 -104 83q-37 52 -55 114q-3 26 -13 83q-9 -9 -21 -9q-22 0 -31 35q-72 -42 -99 -42q-11 0 -22 10q14 5 44 18q66 29 112 69q-3 4 -22 4q-20 1 -24 -3q-43 -45 -81 -55q-5 -1 -16.5 4.5t-12.5 5.5q43 6 87 44l-119 1l5 17h123
q39 35 77 100q22 41 45 82q31 54 58 85q33 35 75 58q14 7 26 8q3 5 0 33h21q-2 -28 0 -32q41 -6 87.5 -41.5t70.5 -77.5q18 -25 52 -80q20 -47 41 -95q19 -40 46 -40h31q7 0 12 5zM363 307q-11 -1 -16 10q-4 8 0 16t11 10q7 1 14 -4t7 -14q-1 -9 -6 -13t-10 -5zM486 252
q0 -21 -20 -35q-16 -10 -32 -10q-21 0 -38 11q-20 14 -20 36q0 13 14 33h11q1 -1 1 -30q0 -25 31 -25q29 0 29 14q0 4 -2.5 13t-2.5 13q0 8 8 12q7 -3 14 -15.5t7 -16.5zM507 151q-19 -20 -42 -25q-18 -4 -45 -4q-29 0 -54 28q-6 7 -13 22q-1 -1 20.5 -1t35.5 -3
q34 -7 25 -7q4 0 11.5 4.5t11.5 5.5q17 5 62 -4q-3 -5 -12 -16zM701 397q-49 87 -97 175q-74 116 -161 135v-98q36 -8 90 -29q26 -20 65 -93q23 -45 47 -91zM618 399q-5 17 -31.5 62.5t-50 77t-91.5 44.5q-7 -73 -2 -187zM422 606v100q-52 -20 -100 -79q-29 -36 -77 -117.5
t-72 -110.5l39 -4q15 8 44 59q34 61 60 89q45 49 106 63zM421 581q-39 1 -78 -39q-35 -37 -105 -146q92 2 184 0q-2 62 -1 185z" />
    <glyph glyph-name="five" unicode="5" 
d="M684 293q0 -9 -6 -20q-7 -14 -19 -14h-30q0 1 -1.5 7t-1.5 11q12 2 25 4q17 4 17 15q0 14 -16 14q-5 0 -10 -1t-6 -1v7.5v10.5h17q31 1 31 -33zM525 325q-1 -19 -18 -18q-15 1 -14 16q0 11 14 16q10 4 14 0q5 -3 4 -14zM788 406q0 -12 -16 -24.5t-20 -12.5q-3 0 -10.5 5
t-10.5 5h-73q14 -13 46 -28q22 -11 45 -22v-12q-1 -1 -16 -1q-25 0 -65 31q-21 16 -41 31q-3 1 -172 1h-78h-136q-9 0 -22 -11.5t-25 -22.5q9 -5 16 -14q-13 0 -19 -6v-10q9 -8 32 -8q19 -106 67 -183q64 -102 154 -102q46 0 114 90q49 64 68 107q3 -28 -59 -117
q-67 -97 -117 -97h-22q5 0 -38 12q-57 16 -104 83q-37 52 -55 114q-3 26 -13 83q-9 -9 -21 -9q-22 0 -31 35q-72 -42 -99 -42q-11 0 -22 10q14 5 44 18q66 29 112 69q-3 4 -22 4q-20 1 -24 -3q-43 -45 -81 -55q-5 -1 -16.5 4.5t-12.5 5.5q43 6 87 44l-119 1l5 17h123
q39 35 77 100q22 41 45 82q31 54 58 85q33 35 75 58q14 7 26 8q3 5 0 33h21q-2 -28 0 -32q41 -6 87.5 -41.5t70.5 -77.5q18 -25 52 -80q20 -47 41 -95q19 -40 46 -40h31q7 0 12 5zM363 307q-11 -1 -16 10q-4 8 0 16t11 10q7 1 14 -4t7 -14q-1 -9 -6 -13t-10 -5zM486 252
q0 -21 -20 -35q-16 -10 -32 -10q-21 0 -38 11q-20 14 -20 36q0 13 14 33h11q1 -1 1 -30q0 -25 31 -25q29 0 29 14q0 4 -2.5 13t-2.5 13q0 8 8 12q7 -3 14 -15.5t7 -16.5zM507 151q-19 -20 -42 -25q-18 -4 -45 -4q-29 0 -54 28q-6 7 -13 22q-1 -1 20.5 -1t35.5 -3
q34 -7 25 -7q4 0 11.5 4.5t11.5 5.5q17 5 62 -4q-3 -5 -12 -16zM701 397q-49 87 -97 175q-74 116 -161 135v-98q36 -8 90 -29q26 -20 65 -93q23 -45 47 -91zM618 399q-5 17 -31.5 62.5t-50 77t-91.5 44.5q-7 -73 -2 -187zM422 606v100q-52 -20 -100 -79q-29 -36 -77 -117.5
t-72 -110.5l39 -4q15 8 44 59q34 61 60 89q45 49 106 63zM421 581q-39 1 -78 -39q-35 -37 -105 -146q92 2 184 0q-2 62 -1 185z" />
    <glyph glyph-name="six" unicode="6" 
d="M684 293q0 -9 -6 -20q-7 -14 -19 -14h-30q0 1 -1.5 7t-1.5 11q12 2 25 4q17 4 17 15q0 14 -16 14q-5 0 -10 -1t-6 -1v7.5v10.5h17q31 1 31 -33zM525 325q-1 -19 -18 -18q-15 1 -14 16q0 11 14 16q10 4 14 0q5 -3 4 -14zM788 406q0 -12 -16 -24.5t-20 -12.5q-3 0 -10.5 5
t-10.5 5h-73q14 -13 46 -28q22 -11 45 -22v-12q-1 -1 -16 -1q-25 0 -65 31q-21 16 -41 31q-3 1 -172 1h-78h-136q-9 0 -22 -11.5t-25 -22.5q9 -5 16 -14q-13 0 -19 -6v-10q9 -8 32 -8q19 -106 67 -183q64 -102 154 -102q46 0 114 90q49 64 68 107q3 -28 -59 -117
q-67 -97 -117 -97h-22q5 0 -38 12q-57 16 -104 83q-37 52 -55 114q-3 26 -13 83q-9 -9 -21 -9q-22 0 -31 35q-72 -42 -99 -42q-11 0 -22 10q14 5 44 18q66 29 112 69q-3 4 -22 4q-20 1 -24 -3q-43 -45 -81 -55q-5 -1 -16.5 4.5t-12.5 5.5q43 6 87 44l-119 1l5 17h123
q39 35 77 100q22 41 45 82q31 54 58 85q33 35 75 58q14 7 26 8q3 5 0 33h21q-2 -28 0 -32q41 -6 87.5 -41.5t70.5 -77.5q18 -25 52 -80q20 -47 41 -95q19 -40 46 -40h31q7 0 12 5zM363 307q-11 -1 -16 10q-4 8 0 16t11 10q7 1 14 -4t7 -14q-1 -9 -6 -13t-10 -5zM486 252
q0 -21 -20 -35q-16 -10 -32 -10q-21 0 -38 11q-20 14 -20 36q0 13 14 33h11q1 -1 1 -30q0 -25 31 -25q29 0 29 14q0 4 -2.5 13t-2.5 13q0 8 8 12q7 -3 14 -15.5t7 -16.5zM507 151q-19 -20 -42 -25q-18 -4 -45 -4q-29 0 -54 28q-6 7 -13 22q-1 -1 20.5 -1t35.5 -3
q34 -7 25 -7q4 0 11.5 4.5t11.5 5.5q17 5 62 -4q-3 -5 -12 -16zM701 397q-49 87 -97 175q-74 116 -161 135v-98q36 -8 90 -29q26 -20 65 -93q23 -45 47 -91zM618 399q-5 17 -31.5 62.5t-50 77t-91.5 44.5q-7 -73 -2 -187zM422 606v100q-52 -20 -100 -79q-29 -36 -77 -117.5
t-72 -110.5l39 -4q15 8 44 59q34 61 60 89q45 49 106 63zM421 581q-39 1 -78 -39q-35 -37 -105 -146q92 2 184 0q-2 62 -1 185z" />
    <glyph glyph-name="seven" unicode="7" 
d="M684 293q0 -9 -6 -20q-7 -14 -19 -14h-30q0 1 -1.5 7t-1.5 11q12 2 25 4q17 4 17 15q0 14 -16 14q-5 0 -10 -1t-6 -1v7.5v10.5h17q31 1 31 -33zM525 325q-1 -19 -18 -18q-15 1 -14 16q0 11 14 16q10 4 14 0q5 -3 4 -14zM788 406q0 -12 -16 -24.5t-20 -12.5q-3 0 -10.5 5
t-10.5 5h-73q14 -13 46 -28q22 -11 45 -22v-12q-1 -1 -16 -1q-25 0 -65 31q-21 16 -41 31q-3 1 -172 1h-78h-136q-9 0 -22 -11.5t-25 -22.5q9 -5 16 -14q-13 0 -19 -6v-10q9 -8 32 -8q19 -106 67 -183q64 -102 154 -102q46 0 114 90q49 64 68 107q3 -28 -59 -117
q-67 -97 -117 -97h-22q5 0 -38 12q-57 16 -104 83q-37 52 -55 114q-3 26 -13 83q-9 -9 -21 -9q-22 0 -31 35q-72 -42 -99 -42q-11 0 -22 10q14 5 44 18q66 29 112 69q-3 4 -22 4q-20 1 -24 -3q-43 -45 -81 -55q-5 -1 -16.5 4.5t-12.5 5.5q43 6 87 44l-119 1l5 17h123
q39 35 77 100q22 41 45 82q31 54 58 85q33 35 75 58q14 7 26 8q3 5 0 33h21q-2 -28 0 -32q41 -6 87.5 -41.5t70.5 -77.5q18 -25 52 -80q20 -47 41 -95q19 -40 46 -40h31q7 0 12 5zM363 307q-11 -1 -16 10q-4 8 0 16t11 10q7 1 14 -4t7 -14q-1 -9 -6 -13t-10 -5zM486 252
q0 -21 -20 -35q-16 -10 -32 -10q-21 0 -38 11q-20 14 -20 36q0 13 14 33h11q1 -1 1 -30q0 -25 31 -25q29 0 29 14q0 4 -2.5 13t-2.5 13q0 8 8 12q7 -3 14 -15.5t7 -16.5zM507 151q-19 -20 -42 -25q-18 -4 -45 -4q-29 0 -54 28q-6 7 -13 22q-1 -1 20.5 -1t35.5 -3
q34 -7 25 -7q4 0 11.5 4.5t11.5 5.5q17 5 62 -4q-3 -5 -12 -16zM701 397q-49 87 -97 175q-74 116 -161 135v-98q36 -8 90 -29q26 -20 65 -93q23 -45 47 -91zM618 399q-5 17 -31.5 62.5t-50 77t-91.5 44.5q-7 -73 -2 -187zM422 606v100q-52 -20 -100 -79q-29 -36 -77 -117.5
t-72 -110.5l39 -4q15 8 44 59q34 61 60 89q45 49 106 63zM421 581q-39 1 -78 -39q-35 -37 -105 -146q92 2 184 0q-2 62 -1 185z" />
    <glyph glyph-name="eight" unicode="8" 
d="M684 293q0 -9 -6 -20q-7 -14 -19 -14h-30q0 1 -1.5 7t-1.5 11q12 2 25 4q17 4 17 15q0 14 -16 14q-5 0 -10 -1t-6 -1v7.5v10.5h17q31 1 31 -33zM525 325q-1 -19 -18 -18q-15 1 -14 16q0 11 14 16q10 4 14 0q5 -3 4 -14zM788 406q0 -12 -16 -24.5t-20 -12.5q-3 0 -10.5 5
t-10.5 5h-73q14 -13 46 -28q22 -11 45 -22v-12q-1 -1 -16 -1q-25 0 -65 31q-21 16 -41 31q-3 1 -172 1h-78h-136q-9 0 -22 -11.5t-25 -22.5q9 -5 16 -14q-13 0 -19 -6v-10q9 -8 32 -8q19 -106 67 -183q64 -102 154 -102q46 0 114 90q49 64 68 107q3 -28 -59 -117
q-67 -97 -117 -97h-22q5 0 -38 12q-57 16 -104 83q-37 52 -55 114q-3 26 -13 83q-9 -9 -21 -9q-22 0 -31 35q-72 -42 -99 -42q-11 0 -22 10q14 5 44 18q66 29 112 69q-3 4 -22 4q-20 1 -24 -3q-43 -45 -81 -55q-5 -1 -16.5 4.5t-12.5 5.5q43 6 87 44l-119 1l5 17h123
q39 35 77 100q22 41 45 82q31 54 58 85q33 35 75 58q14 7 26 8q3 5 0 33h21q-2 -28 0 -32q41 -6 87.5 -41.5t70.5 -77.5q18 -25 52 -80q20 -47 41 -95q19 -40 46 -40h31q7 0 12 5zM363 307q-11 -1 -16 10q-4 8 0 16t11 10q7 1 14 -4t7 -14q-1 -9 -6 -13t-10 -5zM486 252
q0 -21 -20 -35q-16 -10 -32 -10q-21 0 -38 11q-20 14 -20 36q0 13 14 33h11q1 -1 1 -30q0 -25 31 -25q29 0 29 14q0 4 -2.5 13t-2.5 13q0 8 8 12q7 -3 14 -15.5t7 -16.5zM507 151q-19 -20 -42 -25q-18 -4 -45 -4q-29 0 -54 28q-6 7 -13 22q-1 -1 20.5 -1t35.5 -3
q34 -7 25 -7q4 0 11.5 4.5t11.5 5.5q17 5 62 -4q-3 -5 -12 -16zM701 397q-49 87 -97 175q-74 116 -161 135v-98q36 -8 90 -29q26 -20 65 -93q23 -45 47 -91zM618 399q-5 17 -31.5 62.5t-50 77t-91.5 44.5q-7 -73 -2 -187zM422 606v100q-52 -20 -100 -79q-29 -36 -77 -117.5
t-72 -110.5l39 -4q15 8 44 59q34 61 60 89q45 49 106 63zM421 581q-39 1 -78 -39q-35 -37 -105 -146q92 2 184 0q-2 62 -1 185z" />
    <glyph glyph-name="nine" unicode="9" 
d="M684 293q0 -9 -6 -20q-7 -14 -19 -14h-30q0 1 -1.5 7t-1.5 11q12 2 25 4q17 4 17 15q0 14 -16 14q-5 0 -10 -1t-6 -1v7.5v10.5h17q31 1 31 -33zM525 325q-1 -19 -18 -18q-15 1 -14 16q0 11 14 16q10 4 14 0q5 -3 4 -14zM788 406q0 -12 -16 -24.5t-20 -12.5q-3 0 -10.5 5
t-10.5 5h-73q14 -13 46 -28q22 -11 45 -22v-12q-1 -1 -16 -1q-25 0 -65 31q-21 16 -41 31q-3 1 -172 1h-78h-136q-9 0 -22 -11.5t-25 -22.5q9 -5 16 -14q-13 0 -19 -6v-10q9 -8 32 -8q19 -106 67 -183q64 -102 154 -102q46 0 114 90q49 64 68 107q3 -28 -59 -117
q-67 -97 -117 -97h-22q5 0 -38 12q-57 16 -104 83q-37 52 -55 114q-3 26 -13 83q-9 -9 -21 -9q-22 0 -31 35q-72 -42 -99 -42q-11 0 -22 10q14 5 44 18q66 29 112 69q-3 4 -22 4q-20 1 -24 -3q-43 -45 -81 -55q-5 -1 -16.5 4.5t-12.5 5.5q43 6 87 44l-119 1l5 17h123
q39 35 77 100q22 41 45 82q31 54 58 85q33 35 75 58q14 7 26 8q3 5 0 33h21q-2 -28 0 -32q41 -6 87.5 -41.5t70.5 -77.5q18 -25 52 -80q20 -47 41 -95q19 -40 46 -40h31q7 0 12 5zM363 307q-11 -1 -16 10q-4 8 0 16t11 10q7 1 14 -4t7 -14q-1 -9 -6 -13t-10 -5zM486 252
q0 -21 -20 -35q-16 -10 -32 -10q-21 0 -38 11q-20 14 -20 36q0 13 14 33h11q1 -1 1 -30q0 -25 31 -25q29 0 29 14q0 4 -2.5 13t-2.5 13q0 8 8 12q7 -3 14 -15.5t7 -16.5zM507 151q-19 -20 -42 -25q-18 -4 -45 -4q-29 0 -54 28q-6 7 -13 22q-1 -1 20.5 -1t35.5 -3
q34 -7 25 -7q4 0 11.5 4.5t11.5 5.5q17 5 62 -4q-3 -5 -12 -16zM701 397q-49 87 -97 175q-74 116 -161 135v-98q36 -8 90 -29q26 -20 65 -93q23 -45 47 -91zM618 399q-5 17 -31.5 62.5t-50 77t-91.5 44.5q-7 -73 -2 -187zM422 606v100q-52 -20 -100 -79q-29 -36 -77 -117.5
t-72 -110.5l39 -4q15 8 44 59q34 61 60 89q45 49 106 63zM421 581q-39 1 -78 -39q-35 -37 -105 -146q92 2 184 0q-2 62 -1 185z" />
    <glyph glyph-name="colon" unicode=":" horiz-adv-x="246" 
d="M129 64q5 -42 -36 -48q-22 -4 -37.5 13t-13.5 38q4 35 35 39q20 2 35 -10.5t17 -31.5zM138 324q2 -22 -8 -40t-30 -22q-23 -4 -39 17.5t-14 47.5q4 44 37 49q21 3 36 -13t18 -39z" />
    <glyph glyph-name="semicolon" unicode=";" horiz-adv-x="210" 
d="M64 17q-24 21 -24 46q0 10 3 19q12 35 57 35q33 0 54 -19t22 -52q2 -60 -26 -108q-26 -44 -57 -44q-15 0 -24 13q-4 6 20.5 38t24.5 44q0 8 -8 12q-14 2 -42 16zM170 251q2 -20 -8.5 -36t-32.5 -19q-25 -4 -42.5 15t-15.5 43q5 40 40 44q23 3 39.5 -11.5t19.5 -35.5z" />
    <glyph glyph-name="less" unicode="&#x3c;" 
d="M684 293q0 -9 -6 -20q-7 -14 -19 -14h-30q0 1 -1.5 7t-1.5 11q12 2 25 4q17 4 17 15q0 14 -16 14q-5 0 -10 -1t-6 -1v7.5v10.5h17q31 1 31 -33zM525 325q-1 -19 -18 -18q-15 1 -14 16q0 11 14 16q10 4 14 0q5 -3 4 -14zM788 406q0 -12 -16 -24.5t-20 -12.5q-3 0 -10.5 5
t-10.5 5h-73q14 -13 46 -28q22 -11 45 -22v-12q-1 -1 -16 -1q-25 0 -65 31q-21 16 -41 31q-3 1 -172 1h-78h-136q-9 0 -22 -11.5t-25 -22.5q9 -5 16 -14q-13 0 -19 -6v-10q9 -8 32 -8q19 -106 67 -183q64 -102 154 -102q46 0 114 90q49 64 68 107q3 -28 -59 -117
q-67 -97 -117 -97h-22q5 0 -38 12q-57 16 -104 83q-37 52 -55 114q-3 26 -13 83q-9 -9 -21 -9q-22 0 -31 35q-72 -42 -99 -42q-11 0 -22 10q14 5 44 18q66 29 112 69q-3 4 -22 4q-20 1 -24 -3q-43 -45 -81 -55q-5 -1 -16.5 4.5t-12.5 5.5q43 6 87 44l-119 1l5 17h123
q39 35 77 100q22 41 45 82q31 54 58 85q33 35 75 58q14 7 26 8q3 5 0 33h21q-2 -28 0 -32q41 -6 87.5 -41.5t70.5 -77.5q18 -25 52 -80q20 -47 41 -95q19 -40 46 -40h31q7 0 12 5zM363 307q-11 -1 -16 10q-4 8 0 16t11 10q7 1 14 -4t7 -14q-1 -9 -6 -13t-10 -5zM486 252
q0 -21 -20 -35q-16 -10 -32 -10q-21 0 -38 11q-20 14 -20 36q0 13 14 33h11q1 -1 1 -30q0 -25 31 -25q29 0 29 14q0 4 -2.5 13t-2.5 13q0 8 8 12q7 -3 14 -15.5t7 -16.5zM507 151q-19 -20 -42 -25q-18 -4 -45 -4q-29 0 -54 28q-6 7 -13 22q-1 -1 20.5 -1t35.5 -3
q34 -7 25 -7q4 0 11.5 4.5t11.5 5.5q17 5 62 -4q-3 -5 -12 -16zM701 397q-49 87 -97 175q-74 116 -161 135v-98q36 -8 90 -29q26 -20 65 -93q23 -45 47 -91zM618 399q-5 17 -31.5 62.5t-50 77t-91.5 44.5q-7 -73 -2 -187zM422 606v100q-52 -20 -100 -79q-29 -36 -77 -117.5
t-72 -110.5l39 -4q15 8 44 59q34 61 60 89q45 49 106 63zM421 581q-39 1 -78 -39q-35 -37 -105 -146q92 2 184 0q-2 62 -1 185z" />
    <glyph glyph-name="equal" unicode="=" 
d="M684 293q0 -9 -6 -20q-7 -14 -19 -14h-30q0 1 -1.5 7t-1.5 11q12 2 25 4q17 4 17 15q0 14 -16 14q-5 0 -10 -1t-6 -1v7.5v10.5h17q31 1 31 -33zM525 325q-1 -19 -18 -18q-15 1 -14 16q0 11 14 16q10 4 14 0q5 -3 4 -14zM788 406q0 -12 -16 -24.5t-20 -12.5q-3 0 -10.5 5
t-10.5 5h-73q14 -13 46 -28q22 -11 45 -22v-12q-1 -1 -16 -1q-25 0 -65 31q-21 16 -41 31q-3 1 -172 1h-78h-136q-9 0 -22 -11.5t-25 -22.5q9 -5 16 -14q-13 0 -19 -6v-10q9 -8 32 -8q19 -106 67 -183q64 -102 154 -102q46 0 114 90q49 64 68 107q3 -28 -59 -117
q-67 -97 -117 -97h-22q5 0 -38 12q-57 16 -104 83q-37 52 -55 114q-3 26 -13 83q-9 -9 -21 -9q-22 0 -31 35q-72 -42 -99 -42q-11 0 -22 10q14 5 44 18q66 29 112 69q-3 4 -22 4q-20 1 -24 -3q-43 -45 -81 -55q-5 -1 -16.5 4.5t-12.5 5.5q43 6 87 44l-119 1l5 17h123
q39 35 77 100q22 41 45 82q31 54 58 85q33 35 75 58q14 7 26 8q3 5 0 33h21q-2 -28 0 -32q41 -6 87.5 -41.5t70.5 -77.5q18 -25 52 -80q20 -47 41 -95q19 -40 46 -40h31q7 0 12 5zM363 307q-11 -1 -16 10q-4 8 0 16t11 10q7 1 14 -4t7 -14q-1 -9 -6 -13t-10 -5zM486 252
q0 -21 -20 -35q-16 -10 -32 -10q-21 0 -38 11q-20 14 -20 36q0 13 14 33h11q1 -1 1 -30q0 -25 31 -25q29 0 29 14q0 4 -2.5 13t-2.5 13q0 8 8 12q7 -3 14 -15.5t7 -16.5zM507 151q-19 -20 -42 -25q-18 -4 -45 -4q-29 0 -54 28q-6 7 -13 22q-1 -1 20.5 -1t35.5 -3
q34 -7 25 -7q4 0 11.5 4.5t11.5 5.5q17 5 62 -4q-3 -5 -12 -16zM701 397q-49 87 -97 175q-74 116 -161 135v-98q36 -8 90 -29q26 -20 65 -93q23 -45 47 -91zM618 399q-5 17 -31.5 62.5t-50 77t-91.5 44.5q-7 -73 -2 -187zM422 606v100q-52 -20 -100 -79q-29 -36 -77 -117.5
t-72 -110.5l39 -4q15 8 44 59q34 61 60 89q45 49 106 63zM421 581q-39 1 -78 -39q-35 -37 -105 -146q92 2 184 0q-2 62 -1 185z" />
    <glyph glyph-name="greater" unicode="&#x3e;" 
d="M684 293q0 -9 -6 -20q-7 -14 -19 -14h-30q0 1 -1.5 7t-1.5 11q12 2 25 4q17 4 17 15q0 14 -16 14q-5 0 -10 -1t-6 -1v7.5v10.5h17q31 1 31 -33zM525 325q-1 -19 -18 -18q-15 1 -14 16q0 11 14 16q10 4 14 0q5 -3 4 -14zM788 406q0 -12 -16 -24.5t-20 -12.5q-3 0 -10.5 5
t-10.5 5h-73q14 -13 46 -28q22 -11 45 -22v-12q-1 -1 -16 -1q-25 0 -65 31q-21 16 -41 31q-3 1 -172 1h-78h-136q-9 0 -22 -11.5t-25 -22.5q9 -5 16 -14q-13 0 -19 -6v-10q9 -8 32 -8q19 -106 67 -183q64 -102 154 -102q46 0 114 90q49 64 68 107q3 -28 -59 -117
q-67 -97 -117 -97h-22q5 0 -38 12q-57 16 -104 83q-37 52 -55 114q-3 26 -13 83q-9 -9 -21 -9q-22 0 -31 35q-72 -42 -99 -42q-11 0 -22 10q14 5 44 18q66 29 112 69q-3 4 -22 4q-20 1 -24 -3q-43 -45 -81 -55q-5 -1 -16.5 4.5t-12.5 5.5q43 6 87 44l-119 1l5 17h123
q39 35 77 100q22 41 45 82q31 54 58 85q33 35 75 58q14 7 26 8q3 5 0 33h21q-2 -28 0 -32q41 -6 87.5 -41.5t70.5 -77.5q18 -25 52 -80q20 -47 41 -95q19 -40 46 -40h31q7 0 12 5zM363 307q-11 -1 -16 10q-4 8 0 16t11 10q7 1 14 -4t7 -14q-1 -9 -6 -13t-10 -5zM486 252
q0 -21 -20 -35q-16 -10 -32 -10q-21 0 -38 11q-20 14 -20 36q0 13 14 33h11q1 -1 1 -30q0 -25 31 -25q29 0 29 14q0 4 -2.5 13t-2.5 13q0 8 8 12q7 -3 14 -15.5t7 -16.5zM507 151q-19 -20 -42 -25q-18 -4 -45 -4q-29 0 -54 28q-6 7 -13 22q-1 -1 20.5 -1t35.5 -3
q34 -7 25 -7q4 0 11.5 4.5t11.5 5.5q17 5 62 -4q-3 -5 -12 -16zM701 397q-49 87 -97 175q-74 116 -161 135v-98q36 -8 90 -29q26 -20 65 -93q23 -45 47 -91zM618 399q-5 17 -31.5 62.5t-50 77t-91.5 44.5q-7 -73 -2 -187zM422 606v100q-52 -20 -100 -79q-29 -36 -77 -117.5
t-72 -110.5l39 -4q15 8 44 59q34 61 60 89q45 49 106 63zM421 581q-39 1 -78 -39q-35 -37 -105 -146q92 2 184 0q-2 62 -1 185z" />
    <glyph glyph-name="question" unicode="?" horiz-adv-x="423" 
d="M405 451q2 -62 0 -67q-2 -7 -24 -7q-11 0 -30.5 2t-22.5 2q8 0 -33 2q-22 1 -29 -3q5 -42 5 -92q0 -136 -27 -158q-51 15 -51 95q0 17 3 56t3 59q0 25 -3 45q-4 11 -10 36q-1 5 -1 32q0 14 8 14q6 0 24 -11t27 -11q7 1 35 1h67v37q-1 81 -11 137q-9 33 -24 91
q-14 0 -112 -4q-77 -3 -107 -3l-12 -173q8 -10 35 -3l8 147l59 -5q7 -186 -11 -182q2 -1 -76 -1q-68 0 -73 12q-12 27 -12 138q0 123 13 140q5 6 20 6q17 0 40 -6q44 1 152 -2q126 -5 135 -13q22 -20 29 -121q3 -40 6 -190zM273 55q6 -16 6 -30q0 -21 -15 -24q-25 -5 -66 5
q-14 3 -14 22q0 11 5 26.5t35 32.5q12 -4 21 -8q23 -11 28 -24z" />
    <glyph glyph-name="at" unicode="@" 
d="M684 293q0 -9 -6 -20q-7 -14 -19 -14h-30q0 1 -1.5 7t-1.5 11q12 2 25 4q17 4 17 15q0 14 -16 14q-5 0 -10 -1t-6 -1v7.5v10.5h17q31 1 31 -33zM525 325q-1 -19 -18 -18q-15 1 -14 16q0 11 14 16q10 4 14 0q5 -3 4 -14zM788 406q0 -12 -16 -24.5t-20 -12.5q-3 0 -10.5 5
t-10.5 5h-73q14 -13 46 -28q22 -11 45 -22v-12q-1 -1 -16 -1q-25 0 -65 31q-21 16 -41 31q-3 1 -172 1h-78h-136q-9 0 -22 -11.5t-25 -22.5q9 -5 16 -14q-13 0 -19 -6v-10q9 -8 32 -8q19 -106 67 -183q64 -102 154 -102q46 0 114 90q49 64 68 107q3 -28 -59 -117
q-67 -97 -117 -97h-22q5 0 -38 12q-57 16 -104 83q-37 52 -55 114q-3 26 -13 83q-9 -9 -21 -9q-22 0 -31 35q-72 -42 -99 -42q-11 0 -22 10q14 5 44 18q66 29 112 69q-3 4 -22 4q-20 1 -24 -3q-43 -45 -81 -55q-5 -1 -16.5 4.5t-12.5 5.5q43 6 87 44l-119 1l5 17h123
q39 35 77 100q22 41 45 82q31 54 58 85q33 35 75 58q14 7 26 8q3 5 0 33h21q-2 -28 0 -32q41 -6 87.5 -41.5t70.5 -77.5q18 -25 52 -80q20 -47 41 -95q19 -40 46 -40h31q7 0 12 5zM363 307q-11 -1 -16 10q-4 8 0 16t11 10q7 1 14 -4t7 -14q-1 -9 -6 -13t-10 -5zM486 252
q0 -21 -20 -35q-16 -10 -32 -10q-21 0 -38 11q-20 14 -20 36q0 13 14 33h11q1 -1 1 -30q0 -25 31 -25q29 0 29 14q0 4 -2.5 13t-2.5 13q0 8 8 12q7 -3 14 -15.5t7 -16.5zM507 151q-19 -20 -42 -25q-18 -4 -45 -4q-29 0 -54 28q-6 7 -13 22q-1 -1 20.5 -1t35.5 -3
q34 -7 25 -7q4 0 11.5 4.5t11.5 5.5q17 5 62 -4q-3 -5 -12 -16zM701 397q-49 87 -97 175q-74 116 -161 135v-98q36 -8 90 -29q26 -20 65 -93q23 -45 47 -91zM618 399q-5 17 -31.5 62.5t-50 77t-91.5 44.5q-7 -73 -2 -187zM422 606v100q-52 -20 -100 -79q-29 -36 -77 -117.5
t-72 -110.5l39 -4q15 8 44 59q34 61 60 89q45 49 106 63zM421 581q-39 1 -78 -39q-35 -37 -105 -146q92 2 184 0q-2 62 -1 185z" />
    <glyph glyph-name="A" unicode="A" horiz-adv-x="688" 
d="M656 447q0 5 -1 -26q-2 -50 -5 -206q0 -10 1 -52q2 -37 0 -61q-2 -35 -10 -58.5t-64 -23.5q-8 0 -208.5 3t-208.5 3q-83 0 -118 22q-21 14 -21 91q0 137 15 177q13 35 196 52q109 9 209 9q58 0 87 -9q10 -3 27 -61q15 -53 15 -65t-9 -21t-21 -9q-8 0 -41 3t-41 3
q5 0 -107 -18q0 -4 -3 -11.5t-3 -11.5q33 -13 82 -15h85q35 -1 67 -3q2 2 9 11q9 143 9 164q0 9 -4 43q-4 42 -5 55q-1 3 -9 9q-16 2 -71 9q-49 7 -57 7q-7 0 -20.5 -3.5t-22.5 -3.5q-11 0 -27 14t-16 26q0 11 15.5 25.5t27.5 14.5q3 0 91 -11q92 -10 133 -12
q10 -6 17 -25.5t7 -34.5zM490 280q-6 19 -21 29q-138 2 -233 2q-22 0 -121 -22q-10 -7 -26 -20q-1 -12 -5 -49q-4 -33 -4 -41q0 -45 6 -58q13 -28 61 -28h65q62 1 93 1q-8 14 -17 43.5t-9 41.5q0 76 80 90q66 6 131 11z" />
    <glyph glyph-name="B" unicode="B" horiz-adv-x="558" 
d="M531 305q0 6 -1.5 -16.5t-1.5 -68.5q0 -66 3 -174q-45 -27 -134 -27q14 0 -285 6q-10 1 -65 21q-22 86 -22 101q0 12 9 25.5t20 13.5q33 0 33 -32q0 -4 -1 -12v-12q0 -28 26 -28q7 0 31.5 -7.5t31.5 -7.5q71 -2 173 2q112 4 118 10q10 10 10 94q0 77 -8 192q-9 0 -31.5 3
t-29.5 3q-15 0 -30 -66q-9 -42 -19 -84q3 -2 37 -16q15 -6 15 -30q0 -7 -7 -17.5t-7 -16.5q-35 9 -85 9q-10 0 -27 -1h-25q-38 0 -53 8q-21 11 -21 41q0 16 14.5 30.5t27.5 14.5q6 0 18 -10t24 -10q41 0 54 55q7 51 13 102q8 55 35 55q6 0 27.5 -6.5t30.5 -6.5q8 0 27 9.5
t27 9.5q37 0 44 -69q2 -44 4 -87zM185 602q0 -1 -8 -87q-8 -90 -9 -140q-1 -20 2 -65q3 -49 3 -72q0 -72 -21 -103h-30q-16 32 -16 47q0 20 -1 65t-1 70q0 42 8.5 129.5t8.5 88.5q0 48 -19 48q-8 0 -16 -3t-16 -3q-10 0 -18 11.5t-8 23.5q0 35 32 35q109 0 109 -45z" />
    <glyph glyph-name="C" unicode="C" horiz-adv-x="541" 
d="M514 332q-7 -1 -32.5 -13t-34.5 -12q-20 0 -80.5 8.5t-100.5 8.5q-44 0 -85 -9q26 -34 73 -46q28 -8 94 -11.5t98 -11.5q12 -13 11 -49q0 -57 0 -54l7 -46q6 -33 5 -52q-28 -27 -60 -27q-4 0 -63.5 6.5t-170.5 6.5q-8 0 -37 14q-46 22 -57 27q-12 30 -37 220
q-23 180 -23 216q0 38 31 38h14q9 -1 14 -1q70 1 218 6l143 5q74 0 74 -189q0 -27 -1 -35zM457 384v61q0 23 -38 39q-33 15 -71 15q-72 0 -269 -14q6 -39 22 -134q5 12 22 22t29 10q143 0 218 -4q64 -4 87 5zM405 83v107q-56 8 -111 16q-65 11 -106 31q-53 25 -83 69v-53
q-2 -28 3 -67q6 -44 18 -62q13 -21 51 -27l58 -4q89 -14 170 -10z" />
    <glyph glyph-name="D" unicode="D" horiz-adv-x="619" 
d="M598 75q0 -21 -16 -39.5t-38 -18.5q-7 0 -17 6.5t-18 6.5q-22 0 -435 -19q-14 31 -50 54q-22 167 -22 189q0 58 13 115q18 78 51 78q6 0 96 -11q99 -12 137 -15q2 2 6 10q3 97 6 193q3 100 15 158q1 8 12 8q13 0 25 -8q5 -4 11 -15q1 -67 -5 -181q-6 -123 -6 -175
q0 -116 6 -217q1 -9 11.5 -16t22.5 -7q7 0 16.5 11.5t14.5 13.5h22q9 -13 9 -38q0 -31 -14 -53q32 -11 61 -11q7 0 22.5 3.5t22.5 3.5q14 0 27.5 -7.5t13.5 -18.5zM303 362q-17 0 -50.5 4.5t-51.5 4.5q-27 0 -51 -8v-31h41q8 -1 35.5 2.5t35.5 3.5q30 0 41 24zM310 238
q0 10 -3.5 21.5t-3.5 13.5q-18 0 -52 3.5t-40 3.5q-12 0 -32.5 -9.5t-28.5 -18.5q9 -16 28 -32.5t33 -16.5h48q24 0 30 2q21 7 21 33zM400 104q-20 0 -48 10q-41 15 -44 16q-26 7 -82 10q-52 4 -75 11q-36 12 -51 44q-15 29 -17 86q-3 67 -7 82q-7 -39 -7 -89q0 -39 5 -103
q6 -72 6 -95q188 11 320 28z" />
    <glyph glyph-name="E" unicode="E" horiz-adv-x="561" 
d="M538 190q0 -14 -11 -29q10 -86 -5 -141q-18 -1 -66 -5t-56 -4h-169q-5 0 -58 4t-74 4q-24 32 -36 239q-14 237 -44 335q29 27 58 27q8 0 52.5 -9.5t52.5 -9.5t112.5 3t112.5 3q40 0 50 -1q38 -6 47 -27q1 -32 8 -112q7 -75 7 -81q0 -23 -21 -40q-53 -1 -174 -11
q-8 -1 -29 -8.5t-29 -7.5q-10 0 -20.5 11.5t-13.5 22.5q-1 7 0 25q3 24 3 27q-1 36 -1 73q2 42 16 61q-58 10 -116 10q-14 0 -39 -10q0 -98 21 -177q16 -9 37 -36q28 -35 38 -45q53 -52 200 -52q7 0 48 6.5t48 6.5q22 0 36.5 -15t14.5 -37zM450 412l-2 110q-23 21 -60 21
q-8 0 -41 -3.5t-44 -3.5l-1 -133q38 -1 86 5q45 6 62 4zM466 76v94q-29 0 -48.5 -2.5t-23.5 -2.5q-12 0 -67 5.5t-67 8.5q-44 11 -138 75v-92q0 -52 21 -71q18 -16 65 -16q3 0 71 1t102 1q4 0 25.5 2.5t33.5 2.5q19 0 26 -6z" />
    <glyph glyph-name="F" unicode="F" horiz-adv-x="522" 
d="M497 299q0 -14 -21 -30q-109 0 -167 -11q-5 -1 -21.5 -9t-24.5 -8t-9.5 4t-7.5 4q0 -42 4 -130.5t4 -122.5q0 -59 -7 -81h-31q-7 4 -18 14q-7 207 -9 240q-9 149 -28 149q-7 0 -38 -3t-39 -3q-29 0 -35 108q-1 8 -1 110q0 6 7 23.5t6 23.5q-1 7 -8 48q-6 31 -6 49
q0 15 3 26q9 36 76 64q52 19 104 39q20 9 84 9q35 0 107 -18t76 -28t4 -46q0 -99 -13 -143q-8 -28 -29 -28h-23q-20 0 -20 25q0 5 1 18t1 20q0 72 -100 72q-25 0 -52 -17q0 -171 23 -255l6 -32q4 -21 15 -29q20 -14 88 -14q8 0 11 3.5t11 3.5q26 0 49 -11q28 -12 28 -34z
M242 312q-15 72 -32 198q-14 111 -14 129q0 13 8 60q5 29 14 26q-49 -7 -56 -9q-30 -9 -44 -34q-11 -17 -11 -92q0 -56 6 -127q-1 -41 9 -75q1 -5 7 -6q4 -1 13 0q13 1 16 1q35 0 47 -3q17 -4 27 -30z" />
    <glyph glyph-name="G" unicode="G" horiz-adv-x="533" 
d="M540 415q-7 -36 -23 -45q-10 -6 -38 -6q-5 0 -38 4t-55 4q39 -64 39 -113q0 -46 -9 -161q-2 -29 -20 -51q-8 -10 -28 -14q-27 -7 -34.5 -10.5t-28.5 -18.5q-15 -11 -25 -11q-8 0 -44.5 6t-44.5 6q-23 0 -37 -36q-11 -29 -11 -57q0 -67 20 -191q1 -7 42 -16q37 -7 50 -7
q5 0 26 2.5t35 2.5v42q0 18 -42 54t-41 46l6 50q5 31 21 50q28 32 91 32q14 0 37 -2t30 -2q42 0 54 -33q4 -12 4 -44q0 -110 -24 -171q-30 -73 -55 -91q-8 -6 -60 -6q-55 0 -139 6q-22 0 -56 14q-39 16 -43 33q-21 94 -21 222q0 88 22 118q8 6 23 26q-5 6 -24.5 17.5
t-24.5 21.5q-12 22 -23 91t-11 114q0 182 112 182q5 0 68.5 -11t92.5 -13q59 -2 119 -5q72 -6 108 -29zM360 140q5 60 5 102q0 39 -5 49q-10 19 -44 35t-38 24q-9 19 5 45q-24 0 -62 7q-14 -57 -14 -83q0 -69 22.5 -96t130.5 -83zM290 91q-46 27 -74 48q-57 44 -59 75
q-5 39 -13 103q0 24 -1 48q-1 31 -9 44q-30 -20 -30 -122q0 -123 21 -158q13 -22 73 -28q87 -9 92 -10zM405 -105q-32 21 -61 21q-17 0 -31 -21q-10 -16 -10 -27q0 -6 35.5 -44t44.5 -88q8 54 22 159z" />
    <glyph glyph-name="H" unicode="H" horiz-adv-x="512" 
d="M477 -41q0 -41 -40 -72q-36 -27 -69 -27q-58 0 -58 54q0 17 22.5 65.5t22.5 85.5q0 271 -27 302q-14 16 -58.5 36.5t-59.5 20.5h-61q3 -14 3 -36q0 -15 -1 -38t-1 -25q0 -94 40 -116l74 -12q40 -9 40 -71q0 -125 -52 -125h-54q-19 0 -155 21q-11 8 -20 19q0 19 -4 78
q-4 49 -2 77l10 148q7 107 5 173q-1 30 -12 102.5t-11 76.5q0 43 1 52q6 35 31 35q30 0 35 -53q0 -31 1 -62q3 -53 19 -154q3 -13 43 -18q66 -9 72 -11q38 -8 120 -29q0 16 1 32q4 26 26 26t32 -104q2 -15 7 -124q4 -74 17 -217q1 -7 12 -17q14 -13 15 -14q36 -44 36 -79z
M246 79v21q-5 31 -55 50q-57 22 -71 45q-17 31 -18 44q0 -4 0 132q0 28 -14 53q-5 -13 -6 -138q0 -125 5 -207q16 0 54.5 -5.5t56.5 -5.5q31 0 48 11zM419 -41q0 22 -24 22q-21 -21 -20 -35q-4 -19 0 -28q2 -5 7 -5q10 0 23.5 18t13.5 28z" />
    <glyph glyph-name="I" unicode="I" horiz-adv-x="342" 
d="M315 728q0 -25 -44 -119q-13 -28 -31 -28q-20 0 -67 19q-50 21 -50 35q0 5 7.5 50t7.5 64q12 15 32 15q30 0 30 -34q0 -8 -4 -36q-2 -24 -1 -36q12 0 18 -6q15 6 26 62q11 50 37 50q39 0 39 -36zM295 180q-14 -28 -14 -68q0 -11 1 -29t1 -26q0 -54 -57 -54
q-19 0 -99.5 17.5t-87.5 23.5q-2 12 -2 21t3.5 19t3.5 16v236q-1 1 -3 8q-1 3 -10 3q-7 0 -8 -2l1 -1v-2q0 -2 -7 -2q-9 0 -17.5 15t-8.5 29q0 13 14 25t30 12q5 0 10 -2q1 9 0 31q-2 25 -2 36q0 60 34 60q30 0 30 -58q0 -15 -2.5 -42t-2.5 -34q57 3 72 -31q7 -15 9 -77
q2 -56 21 -84q8 -12 38 -21q40 -11 53 -19zM222 135q-61 8 -85 77q-16 58 -32 115v-230q61 -13 109 -21q10 28 8 59z" />
    <glyph glyph-name="J" unicode="J" horiz-adv-x="475" 
d="M209 750q0 -19 -12 -56q-15 -47 -36 -47q-25 0 -52.5 21.5t-27.5 46.5q0 34 34 52q27 15 65 15q11 0 20 -13t9 -19zM440 243q0 -102 1 -41q-1 -34 -11.5 -48t-55.5 -44q-38 -26 -48 -51q-5 -11 -6 -68q-2 -69 -4 -90q-6 -46 -117 -64q-60 -10 -125 -10q-7 0 -45.5 -6.5
t-46.5 -6.5q-10 0 -12.5 9.5t-3.5 10.5v37q37 13 143 19q99 6 139 24l-20 353v210q0 7 -12.5 46t-12.5 47q0 20 34 37q29 15 46 15q8 0 28.5 -3.5t29.5 -3.5q39 0 77 -20q22 -12 22 -352zM382 304q0 42 -3 121q-5 110 -12 118q-14 14 -27 14q-17 6 -31 6q-16 0 -23 -7.5
t-6 -77.5q0 13 21 -350q59 39 74 84q7 22 7 92z" />
    <glyph glyph-name="K" unicode="K" horiz-adv-x="503" 
d="M488 35q-27 -27 -51 -27q-7 0 -40 3q-37 4 -53 5q-62 79 -124 159q-84 101 -136 134q-2 -122 6 -190q2 -17 8 -52q6 -30 6 -37q0 -22 -15 -38.5t-30 -16.5q-10 0 -21 15.5t-11 26.5q0 142 5 251q3 60 5 121q2 64 0 166q-3 125 -3 156q0 108 12 166q4 17 23 22q24 5 28 -8
q6 -19 6 -55q0 -18 -2 -55t-2 -54q0 -66 27 -66q7 0 39.5 -3t40.5 -3q48 0 134 19q72 15 76 13q9 -8 15 -76q6 -59 6 -110q0 -15 -19 -26.5t-29 -11.5q-8 0 -29 6t-29 6q-25 0 -79 -18q-65 -22 -65 -46t51 -70q43 -38 56 -44q41 -11 115 -32q17 -3 34 -7q21 -7 24 -22
q4 -68 21 -201zM366 534q0 -3 2 40q1 24 -3 36q-62 -13 -59 -13h-86q-83 -1 -122 -1q0 -153 5 -197q58 89 135 119q50 19 128 16zM417 79v61q1 46 -20 61q-11 9 -61 21q-57 15 -103 41q40 -52 79 -103q57 -68 105 -81z" />
    <glyph glyph-name="L" unicode="L" horiz-adv-x="255" 
d="M233 253q0 -124 0 -94q-2 -91 -16 -129q-5 -12 -37.5 -23t-65.5 -11q-44 0 -53 9q-12 11 -40 139q0 5 30.5 38t37.5 56q11 34 12 89q1 81 2 90q2 0 7 3.5t15 3.5q7 0 18 -7q17 -12 19 -13q11 33 11 58q0 8 -8 158t-8 158q1 6 8 16q8 7 30 7q21 0 32 -22l-7 -165
q0 -7 6.5 -180t6.5 -181zM175 243q0 20 -12 104q-2 -12 -2 -24t2 -30.5t2 -26.5q0 -18 -5.5 -35.5t-38.5 -47.5q-29 -26 -29 -46q0 -9 7 -34q11 -36 13 -42q19 -3 28 0q18 6 26 21q1 24 5 94q4 59 4 67z" />
    <glyph glyph-name="M" unicode="M" horiz-adv-x="824" 
d="M800 33q-4 -1 -26 -13q-12 -7 -63 -7q-6 0 -33.5 3t-35.5 3t-29.5 -2t-28.5 -2q-16 0 -17 199q0 2 -5.5 3t-5.5 11q0 16 15 34q15 15 25 15q43 0 43 -91q0 -15 -1 -41t-1 -35q0 -29 8 -31l84 -7v42q-1 39 -21 179q-21 146 -31 170q-31 -4 -62 -7q-37 -6 -61 -15l-13 -5
q-7 -4 -8 -10q-3 -22 0 -98q2 -85 0 -120q0 -10 -9.5 -20t-19 -10t-28 -3.5t-26.5 -3.5q-31 0 -39 76q-2 43 -3 86l-8 68q-7 51 -28 82q-69 4 -96 -15q-15 -12 -28.5 -43.5t-14.5 -57.5q-2 -53 7 -159q10 -116 10 -146q0 -16 -1 -27q-3 -22 -34 -22h-66q-20 0 -23 2
q-7 5 -12 33q-5 83 -10 165q-9 148 -34 219q-6 17 -27 24q-17 5 -17 30q0 13 15 22q12 8 25 8q43 0 54 -23q8 -32 16 -63q27 18 57 21q4 7 10 42q5 28 17 33q27 13 85 22q51 8 89 8q29 0 36 -30t17 -30q82 0 168 23t80 23q34 0 50 -40q11 -29 13 -77q1 -26 1 -51
q7 -146 41 -341zM486 257l-14 158h-12l7 -163zM192 122q0 39 -16 129q-13 82 -21 106q4 -77 13 -158l14 -114q0 7 5 18t5 19z" />
    <glyph glyph-name="N" unicode="N" horiz-adv-x="685" 
d="M665 50q0 -39 -45 -39q-8 0 -77.5 6.5t-77.5 6.5q-58 0 -58 113q0 14 67.5 62.5t67.5 82.5q0 54 -8 98q-13 70 -41 70q-5 0 -120.5 -5.5t-134.5 -5.5q-6 -39 -6 -86q0 -45 10 -152q10 -103 9 -163q-46 4 -66 -3q-8 -3 -33 -18q-20 -12 -29 -12q-18 0 -33 15.5t-17 32.5
q-7 50 -12 149q-6 107 -12 154q-11 102 -42 157q-2 2 -2 5q0 11 59 11q15 0 44 -47q3 -5 16 -5q27 0 102 18.5t77 18.5q79 0 112 -2h82q63 0 74 -11q0 13 11 32q16 11 36 0q16 -9 18 -21q5 -22 5 -123q0 -67 12 -205t12 -134zM593 445l-11 -3l10 -42zM599 76q0 95 -7 141
q-32 -24 -63 -48q-51 -43 -51 -61q0 -26 25 -30q33 -5 96 -2zM163 423h-52q12 -225 26 -334q3 0 11.5 3.5t11.5 3.5q12 35 12 104q0 37 -4.5 114t-4.5 109z" />
    <glyph glyph-name="O" unicode="O" horiz-adv-x="596" 
d="M570 101q0 -12 -6.5 -25.5t-16.5 -15.5q-222 -55 -262 -55q-7 0 -74 3.5t-75 3.5t-32 4q-27 4 -35 5q-19 35 -21 60q-28 338 -28 424q0 21 29 41q21 -4 48 -4q34 0 95 6.5t80 6.5q7 0 30.5 -13.5t32.5 -13.5q6 0 23 14.5t29 16.5q18 2 90 2q31 0 50 -15q5 -85 25 -271
q18 -171 18 -174zM371 306q0 3 -2 36.5t-2 56.5q0 35 2 56h-87q-130 1 -130 -115q0 -48 33 -86q36 -44 93 -44q52 0 72.5 20t20.5 76zM503 133q-10 121 -34 361h-45v-226q6 -21 11 -61q-2 -21 -73 -44q-60 -19 -87 -19q-55 0 -110.5 45.5t-61.5 93.5q1 -119 11 -197
q160 -15 177 -15q41 0 137 22q39 9 48 13q22 9 27 27zM139 472l-51 9v-85q11 22 22 43q16 29 29 33z" />
    <glyph glyph-name="P" unicode="P" horiz-adv-x="579" 
d="M543 411q0 -20 -12 -41t-25 -21q-44 0 -44 88q0 14 1 34.5t1 23.5q-6 0 -17.5 3.5t-17.5 3.5q4 -43 16 -148q12 -94 12 -101q0 -58 -115 -58q-13 0 -33 1h-28t-33.5 -3t-32.5 -3q-11 0 -27 13.5t-16 25.5q0 13 12 30t24 17q9 0 63.5 -10t62.5 -10q35 0 43 5q13 8 13 41
q0 133 -25 152q-13 11 -42 11q-11 0 -28 -2t-20 -2h-71q-25 -2 -36 -12q-16 -15 -16 -160q0 -97 5 -133q15 -105 68 -105q8 0 13 6.5t13 6.5q11 0 20 -13t8 -24q0 -27 6 -86t6 -63q0 -18 -20.5 -35.5t-39.5 -17.5q-51 0 -156 -13q-17 16 -18 36q-3 90 -14 280
q-10 175 -10 178q0 58 8 231q1 16 39 28q29 9 42 9q-2 0 120 -3.5t138 -3.5q9 0 45.5 6.5t44.5 6.5q39 0 59 -67q14 -47 14 -102zM224 -101v23q0 -7 -9 59q-23 5 -38.5 18.5t-39 42t-30.5 35.5v-128q-1 -9 6 -31t7 -32q42 3 104 13z" />
    <glyph glyph-name="Q" unicode="Q" horiz-adv-x="629" 
d="M658 -306q0 -73 -8 -95q-13 -38 -63 -38q-7 0 -34.5 6.5t-35.5 6.5q-30 0 -73 16q-36 13 -42 19q2 23 5 77q2 40 2 58q0 8 -2 39.5t-2 86.5q0 60 2 157q-8 4 -15 13q-11 15 -14 18l-22 -24q-13 -15 -23 -15q-70 0 -154 16q-129 24 -145 71q-1 5 -1 72l4 89t4 123
q-1 72 13 93q8 11 65 20q44 7 65 7q7 0 19 -6.5t20 -6.5q7 0 16.5 6.5t15.5 6.5q7 0 32.5 -7.5t38.5 -8.5q29 2 84 0q9 -1 19 -15.5t10 -26.5q0 -39 -29 -39q-8 0 -21 6.5t-21 6.5t-35.5 -12t-35.5 -12q-7 0 -7 2v1l1 1q-1 2 -7 2q-10 0 -14.5 -5.5t-8.5 -11.5
q-2 -152 15 -211q7 -28 63 -34q45 -5 70 -20q13 -11 39 -29q2 2 8 10q-2 20 1 75q3 71 3 92q0 4 -1.5 35t-1.5 53q0 109 31 109q15 0 25 -13.5t10 -28.5q0 -131 -16 -297q-15 -152 -12 -262q1 -37 4 -101q17 20 28 20q12 0 44 -12q41 -16 60 -38q27 -31 27 -45zM284 86
q-48 37 -56 46q-21 24 -22 64q3 170 -10 242q-2 9 -28 9q-12 0 -33 -2t-24 -2q-8 -81 -8 -168q0 -6 -2.5 -32.5t-2.5 -44.5q0 -96 77 -96q21 0 55 -6q49 -9 54 -10zM593 -374q5 36 -3 56.5t-40 31.5q-43 14 -53 23l-13 -82q2 -4 30 -16.5t39 -12.5h40z" />
    <glyph glyph-name="R" unicode="R" horiz-adv-x="524" 
d="M493 380q0 -56 1 -43q-2 -25 -17 -35q-19 -12 -53 -23.5t-47 -11.5q-22 0 -31 27q-5 15 -8 55q-2 37 -7 48q-50 19 -109 19q-37 0 -46 -6q-12 -8 -12 -40q0 -21 41 -68t43 -56q1 -80 2 -187q-29 -43 -50 -43h-116q-44 0 -44 90q0 12 1 29t1 20v198q0 8 -10 36t-10 36
q0 29 33 29q37 0 37 -151v-43l-1 -22v-70q1 -46 10 -77q5 -16 42 -18h41q-3 17 -3 43q0 17 1.5 42.5t1.5 28.5q0 29 -14.5 42.5t-28.5 27.5q-15 21 -29 59q-12 34 -12 48q0 86 23 103q18 13 119 13q40 0 92 -10q59 -12 60 -25v-52q1 -48 16 -48q29 0 29 22q0 10 -6.5 33
t-6.5 33q0 28 38 28q22 0 28 -34q1 -9 1 -47z" />
    <glyph glyph-name="S" unicode="S" horiz-adv-x="544" 
d="M502 39q-32 -21 -76 -21q-8 0 -74.5 -3.5t-74.5 -3.5q-9 0 -92 10t-90 10t-17.5 -6.5t-18.5 -6.5q-10 0 -17 7.5t-7 8.5q-5 10 -12 26q1 8 4 70l-8 7q0 73 4.5 90.5t26.5 17.5q5 0 26 -1.5t38 -1.5q34 0 71 6v17q-19 14 -85 37q-45 16 -55 50q0 -6 1.5 14.5t1.5 63.5
q0 60 -3 160q1 37 43 37q9 0 118 -23t117 -23q7 0 64.5 6.5t65.5 6.5q23 0 35 -64q8 -44 8 -89q0 -8 -13.5 -23.5t-20.5 -15.5q-20 0 -55.5 4.5t-56.5 4.5q-45 0 -102 -16q-10 0 -20 9.5t-10 21.5v94q2 0 6 4t13 4q16 0 26 -21q8 -17 8 -33q0 -5 -1 -8q60 4 158 10v41
q-19 11 -35 11q-8 0 -43 -3.5t-43 -3.5t-94.5 16.5t-94.5 16.5q-9 0 -10 -6q-2 -9 -3 -11q0 -22 3 -74q4 -60 5 -83q19 -18 58.5 -22t57.5 -19q13 -10 16 -51q26 -19 52 -19q8 0 64.5 3.5t64.5 3.5q9 0 22 -9.5t18 -18.5q14 -26 23 -98q7 -56 13 -111zM429 72v82
q0 33 -21 40q-9 2 -55 2q-6 0 -61 -11q-59 -11 -86 -13q-49 1 -127 -3l1 -7q7 -48 6 -70q147 -21 151 -21q5 0 29 1q18 2 27 0q16 -2 48 3q38 5 51 5q23 0 37 -8z" />
    <glyph glyph-name="T" unicode="T" horiz-adv-x="561" 
d="M514 83q-10 -17 -61.5 -36t-77.5 -19q-8 0 -150.5 -6.5t-150.5 -6.5q-19 0 -32 29q-11 23 -11 41q0 88 24 128q9 16 44 41q24 17 24 50v210q0 -1 -6 73.5t-6 120.5q0 18 1 32q0 7 9.5 18.5t18.5 11.5q31 0 43 -88q10 -71 6 -92l205 7q0 -2 4 -7.5t4 -14.5q0 -26 -38 -38
q-31 -8 -62 -17q0 -4 7 -9q11 -7 13 -9q-13 -28 -35 -50q-11 8 -85 8v-151q1 -67 26 -89q22 -19 91 -19q7 0 27.5 3t28.5 3q62 0 139 -20v-104zM451 125q-26 5 -110 7q-70 2 -107 15q-55 18 -87 67q-50 -44 -50 -64v-61l168 -1q148 0 186 37z" />
    <glyph glyph-name="U" unicode="U" horiz-adv-x="570" 
d="M536 -9q0 -32 -39 -32q-19 0 -25 16q-15 37 -18 42q-66 0 -196 -6.5t-126 -6.5h-37q-18 4 -26 28q-8 28 -15 117q-10 121 -14 153q-3 61 -13 179q-2 15 -13 52q-11 34 -11 42q0 11 10.5 24.5t22.5 13.5q32 0 46 -80q5 -34 13 -160q6 -97 19.5 -122t60.5 -25q9 0 24 1
t19 1q127 0 204 -7q1 7 1 15q0 19 -11 60.5t-11 50.5q0 11 10.5 20t21.5 9q26 0 30 -22q11 -62 44 -221q29 -134 29 -142zM439 82q5 50 -36 73q-29 16 -70 16q-63 0 -214 -2v-72q7 -29 54 -29q27 0 132 5q122 5 134 9z" />
    <glyph glyph-name="V" unicode="V" horiz-adv-x="607" 
d="M589 256q-5 -23 -31 -61t-54.5 -66t-129.5 -75q-96 -44 -115 -44q-26 0 -46 22q-33 39 -39 44q-1 42 -4 128q-11 17 -33 17q-8 0 -33.5 -6t-33.5 -6q-28 0 -27 -1q-8 3 -10 23q-15 163 -15 356q0 32 97 32q20 0 56 -19q33 -17 50 -35q-1 -7 2 -174q0 -57 4 -188
q0 -42 6 -91q93 73 133 220q32 117 26 250q-2 33 14 40q34 15 83 17q-28 -1 55 -1q24 0 36 -22q1 -19 5 -81q4 -51 4 -60q8 -183 0 -219zM531 475q0 16 -7.5 53.5t-13.5 45.5q-21 -7 -54 -21q0 -4 -12 -130q-8 -91 -36.5 -158t-93.5 -164q105 32 153 79q44 44 56 119
q8 48 8 176zM172 369q0 6 -7 65q-7 64 -8 91q-28 24 -50 23h-24v-194q0 -8 3.5 -37.5t3.5 -43.5q30 1 75 7q0 15 3.5 49t3.5 40z" />
    <glyph glyph-name="W" unicode="W" horiz-adv-x="777" 
d="M765 277q0 -29 -73 -54q-57 -19 -81 -19q-91 0 -206 -12q0 1 1 -61q2 -38 -4 -61q-28 -13 -95 -31q-21 0 -63 -4q-17 -4 -44.5 -17t-34.5 -13q-20 0 -63 18q-51 22 -54 42q-12 82 -12 197q0 43 2 128t2 126q11 15 40 25q26 9 50 9q20 0 29 -15q11 -150 34 -454h23
q132 1 132 94q0 7 -11.5 30.5t-12.5 33.5q-2 14 -2 74q0 65 6 79q12 30 65 30q59 0 74 -54q4 -15 9 -108q8 -5 35 -5t96 12q76 13 78 24q9 39 9 163q0 29 1.5 67.5t1.5 47.5q0 35 -12 46.5t-52 11.5q-57 0 -57 -99q0 -18 2 -53t2 -50q0 -55 -24 -55q-35 0 -35 87q0 16 -1 45
v41q0 76 21 104q27 37 108 37q103 0 103 -66v-329q0 -7 3 -7q1 0 3 1t3 1q4 0 4 -7zM424 338q0 7 -14 12q-21 6 -22 7q0 -10 -4 -30.5t-4 -26.5q0 -40 41 -40q0 6 1.5 38.5t1.5 39.5zM128 89q-4 101 -7 202q-5 123 -12 168q-4 11 -7 11q-4 0 -5 -14q-6 -44 -6 -121
q0 -84 7 -129l6 -62q6 -50 13 -53.5t11 -1.5z" />
    <glyph glyph-name="X" unicode="X" horiz-adv-x="596" 
d="M580 192q0 -8 -5.5 -24t-5.5 -21q3 -19 4 -63q1 -9 -2 -28q-12 -34 -33 -34q-8 0 -12.5 -4.5t-12.5 -4.5t-11.5 -1.5t-11.5 -1.5q-67 0 -149 78q-70 67 -85 114q-11 -10 -74 -107q-55 -85 -67 -85q-16 0 -25.5 13t-9.5 28q0 9 57 85q71 96 90 127l-16 16q-24 -26 -35 -26
q-32 0 -32 36q0 8 13 22t13 22q0 15 -59 74q-67 65 -67 66q-15 22 -15 33q0 13 11 21t24 8q17 0 135 -134q2 2 73 106q62 92 77 92q62 0 140 -20q6 -1 7.5 -6t1.5 -14q-1 -13 -1 -14q0 5 -96.5 -116.5t-96.5 -152.5q0 -24 51 -51q45 -23 65 -23q6 0 45.5 9.5t47.5 9.5
q22 8 38 8t22.5 -9t6.5 -28zM407 528h-35q-18 1 -71.5 -77t-53.5 -95q0 -23 23 -32q49 73 137 204zM503 137q-21 9 -44 9q-17 0 -43 -5.5t-35 -4.5q74 -56 88 -55h27q0 -1 3.5 16t3.5 40z" />
    <glyph glyph-name="Y" unicode="Y" horiz-adv-x="557" 
d="M524 10q0 -14 -33 -31q-19 -9 -38 -17q0 -2 -8 -66q-5 -44 -27 -59q-48 -33 -163 -62q-93 -24 -119 -24h-19q-19 0 -28 21q-11 24 0 30q39 22 124 36q95 15 120 25q54 21 54 70q0 15 -5 34q-11 41 -20.5 50.5t-39.5 9.5q-8 0 -67 -6.5t-67 -6.5q-13 0 -47 15
q-39 17 -44 32q-79 216 -79 232q0 42 41 42q17 0 26 -17q13 -23 15 -56l4 -56q3 -22 29 -65q30 -50 51 -50q69 0 200 62q3 83 -10 126q-5 19 -34 26q-34 7 -44 19q-20 23 -27 51q-14 60 -14 190q0 52 144 52q10 0 38 -12.5t33 -16.5q27 -29 43 -176q11 -109 11 -202v-200z
M460 347q0 41 -11 108q-13 78 -28.5 88t-57.5 9q-41 5 -43 -10q-4 -36 0 -107q0 -46 26.5 -59.5t53.5 -27.5q33 -29 44 -110q16 65 16 109zM451 129q-5 -28 -48 -33q18 -32 41 -82q7 103 7 115z" />
    <glyph glyph-name="Z" unicode="Z" horiz-adv-x="671" 
d="M635 74q-4 -37 -40 -37q-136 0 -218 -9q-22 -2 -93 -14q-62 -9 -70 -9q-19 0 -34 8q-18 9 -18 24q0 9 90 158q122 203 148 248q-39 10 -71 10q-9 0 -253 -15q-2 0 -13 -5t-19 -5q-12 0 -20.5 9.5t-8.5 22.5q0 33 23 36q236 22 336 22q8 0 21 -8l20 -12q12 12 25 41
q15 33 12 51q-47 17 -104 17q-47 0 -102 -5q-81 -9 -87.5 -26t-12.5 -34q-9 -24 -25 -24q-10 0 -13.5 3t-6.5 6q-13 44 -9 99q5 7 21 17q51 10 155 17q79 5 109 5q164 0 164 -48q0 -8 -58 -128.5t-58 -128.5q0 -9 7 -11q4 -1 9 -2q7 -20 24 -55q21 -29 77 -29q8 0 24 1h23
q32 0 40 -12q11 -16 11 -72q0 -40 -5 -106zM579 152l-9 41q-22 11 -84 18q-24 3 -56.5 33.5t-39.5 55.5q-48 -80 -138 -224h47q5 0 102 13q101 14 147 14q14 0 24 -1q0 6 3.5 24t3.5 26z" />
    <glyph glyph-name="bracketleft" unicode="[" 
d="M684 293q0 -9 -6 -20q-7 -14 -19 -14h-30q0 1 -1.5 7t-1.5 11q12 2 25 4q17 4 17 15q0 14 -16 14q-5 0 -10 -1t-6 -1v7.5v10.5h17q31 1 31 -33zM525 325q-1 -19 -18 -18q-15 1 -14 16q0 11 14 16q10 4 14 0q5 -3 4 -14zM788 406q0 -12 -16 -24.5t-20 -12.5q-3 0 -10.5 5
t-10.5 5h-73q14 -13 46 -28q22 -11 45 -22v-12q-1 -1 -16 -1q-25 0 -65 31q-21 16 -41 31q-3 1 -172 1h-78h-136q-9 0 -22 -11.5t-25 -22.5q9 -5 16 -14q-13 0 -19 -6v-10q9 -8 32 -8q19 -106 67 -183q64 -102 154 -102q46 0 114 90q49 64 68 107q3 -28 -59 -117
q-67 -97 -117 -97h-22q5 0 -38 12q-57 16 -104 83q-37 52 -55 114q-3 26 -13 83q-9 -9 -21 -9q-22 0 -31 35q-72 -42 -99 -42q-11 0 -22 10q14 5 44 18q66 29 112 69q-3 4 -22 4q-20 1 -24 -3q-43 -45 -81 -55q-5 -1 -16.5 4.5t-12.5 5.5q43 6 87 44l-119 1l5 17h123
q39 35 77 100q22 41 45 82q31 54 58 85q33 35 75 58q14 7 26 8q3 5 0 33h21q-2 -28 0 -32q41 -6 87.5 -41.5t70.5 -77.5q18 -25 52 -80q20 -47 41 -95q19 -40 46 -40h31q7 0 12 5zM363 307q-11 -1 -16 10q-4 8 0 16t11 10q7 1 14 -4t7 -14q-1 -9 -6 -13t-10 -5zM486 252
q0 -21 -20 -35q-16 -10 -32 -10q-21 0 -38 11q-20 14 -20 36q0 13 14 33h11q1 -1 1 -30q0 -25 31 -25q29 0 29 14q0 4 -2.5 13t-2.5 13q0 8 8 12q7 -3 14 -15.5t7 -16.5zM507 151q-19 -20 -42 -25q-18 -4 -45 -4q-29 0 -54 28q-6 7 -13 22q-1 -1 20.5 -1t35.5 -3
q34 -7 25 -7q4 0 11.5 4.5t11.5 5.5q17 5 62 -4q-3 -5 -12 -16zM701 397q-49 87 -97 175q-74 116 -161 135v-98q36 -8 90 -29q26 -20 65 -93q23 -45 47 -91zM618 399q-5 17 -31.5 62.5t-50 77t-91.5 44.5q-7 -73 -2 -187zM422 606v100q-52 -20 -100 -79q-29 -36 -77 -117.5
t-72 -110.5l39 -4q15 8 44 59q34 61 60 89q45 49 106 63zM421 581q-39 1 -78 -39q-35 -37 -105 -146q92 2 184 0q-2 62 -1 185z" />
    <glyph glyph-name="backslash" unicode="\" 
d="M684 293q0 -9 -6 -20q-7 -14 -19 -14h-30q0 1 -1.5 7t-1.5 11q12 2 25 4q17 4 17 15q0 14 -16 14q-5 0 -10 -1t-6 -1v7.5v10.5h17q31 1 31 -33zM525 325q-1 -19 -18 -18q-15 1 -14 16q0 11 14 16q10 4 14 0q5 -3 4 -14zM788 406q0 -12 -16 -24.5t-20 -12.5q-3 0 -10.5 5
t-10.5 5h-73q14 -13 46 -28q22 -11 45 -22v-12q-1 -1 -16 -1q-25 0 -65 31q-21 16 -41 31q-3 1 -172 1h-78h-136q-9 0 -22 -11.5t-25 -22.5q9 -5 16 -14q-13 0 -19 -6v-10q9 -8 32 -8q19 -106 67 -183q64 -102 154 -102q46 0 114 90q49 64 68 107q3 -28 -59 -117
q-67 -97 -117 -97h-22q5 0 -38 12q-57 16 -104 83q-37 52 -55 114q-3 26 -13 83q-9 -9 -21 -9q-22 0 -31 35q-72 -42 -99 -42q-11 0 -22 10q14 5 44 18q66 29 112 69q-3 4 -22 4q-20 1 -24 -3q-43 -45 -81 -55q-5 -1 -16.5 4.5t-12.5 5.5q43 6 87 44l-119 1l5 17h123
q39 35 77 100q22 41 45 82q31 54 58 85q33 35 75 58q14 7 26 8q3 5 0 33h21q-2 -28 0 -32q41 -6 87.5 -41.5t70.5 -77.5q18 -25 52 -80q20 -47 41 -95q19 -40 46 -40h31q7 0 12 5zM363 307q-11 -1 -16 10q-4 8 0 16t11 10q7 1 14 -4t7 -14q-1 -9 -6 -13t-10 -5zM486 252
q0 -21 -20 -35q-16 -10 -32 -10q-21 0 -38 11q-20 14 -20 36q0 13 14 33h11q1 -1 1 -30q0 -25 31 -25q29 0 29 14q0 4 -2.5 13t-2.5 13q0 8 8 12q7 -3 14 -15.5t7 -16.5zM507 151q-19 -20 -42 -25q-18 -4 -45 -4q-29 0 -54 28q-6 7 -13 22q-1 -1 20.5 -1t35.5 -3
q34 -7 25 -7q4 0 11.5 4.5t11.5 5.5q17 5 62 -4q-3 -5 -12 -16zM701 397q-49 87 -97 175q-74 116 -161 135v-98q36 -8 90 -29q26 -20 65 -93q23 -45 47 -91zM618 399q-5 17 -31.5 62.5t-50 77t-91.5 44.5q-7 -73 -2 -187zM422 606v100q-52 -20 -100 -79q-29 -36 -77 -117.5
t-72 -110.5l39 -4q15 8 44 59q34 61 60 89q45 49 106 63zM421 581q-39 1 -78 -39q-35 -37 -105 -146q92 2 184 0q-2 62 -1 185z" />
    <glyph glyph-name="bracketright" unicode="]" 
d="M684 293q0 -9 -6 -20q-7 -14 -19 -14h-30q0 1 -1.5 7t-1.5 11q12 2 25 4q17 4 17 15q0 14 -16 14q-5 0 -10 -1t-6 -1v7.5v10.5h17q31 1 31 -33zM525 325q-1 -19 -18 -18q-15 1 -14 16q0 11 14 16q10 4 14 0q5 -3 4 -14zM788 406q0 -12 -16 -24.5t-20 -12.5q-3 0 -10.5 5
t-10.5 5h-73q14 -13 46 -28q22 -11 45 -22v-12q-1 -1 -16 -1q-25 0 -65 31q-21 16 -41 31q-3 1 -172 1h-78h-136q-9 0 -22 -11.5t-25 -22.5q9 -5 16 -14q-13 0 -19 -6v-10q9 -8 32 -8q19 -106 67 -183q64 -102 154 -102q46 0 114 90q49 64 68 107q3 -28 -59 -117
q-67 -97 -117 -97h-22q5 0 -38 12q-57 16 -104 83q-37 52 -55 114q-3 26 -13 83q-9 -9 -21 -9q-22 0 -31 35q-72 -42 -99 -42q-11 0 -22 10q14 5 44 18q66 29 112 69q-3 4 -22 4q-20 1 -24 -3q-43 -45 -81 -55q-5 -1 -16.5 4.5t-12.5 5.5q43 6 87 44l-119 1l5 17h123
q39 35 77 100q22 41 45 82q31 54 58 85q33 35 75 58q14 7 26 8q3 5 0 33h21q-2 -28 0 -32q41 -6 87.5 -41.5t70.5 -77.5q18 -25 52 -80q20 -47 41 -95q19 -40 46 -40h31q7 0 12 5zM363 307q-11 -1 -16 10q-4 8 0 16t11 10q7 1 14 -4t7 -14q-1 -9 -6 -13t-10 -5zM486 252
q0 -21 -20 -35q-16 -10 -32 -10q-21 0 -38 11q-20 14 -20 36q0 13 14 33h11q1 -1 1 -30q0 -25 31 -25q29 0 29 14q0 4 -2.5 13t-2.5 13q0 8 8 12q7 -3 14 -15.5t7 -16.5zM507 151q-19 -20 -42 -25q-18 -4 -45 -4q-29 0 -54 28q-6 7 -13 22q-1 -1 20.5 -1t35.5 -3
q34 -7 25 -7q4 0 11.5 4.5t11.5 5.5q17 5 62 -4q-3 -5 -12 -16zM701 397q-49 87 -97 175q-74 116 -161 135v-98q36 -8 90 -29q26 -20 65 -93q23 -45 47 -91zM618 399q-5 17 -31.5 62.5t-50 77t-91.5 44.5q-7 -73 -2 -187zM422 606v100q-52 -20 -100 -79q-29 -36 -77 -117.5
t-72 -110.5l39 -4q15 8 44 59q34 61 60 89q45 49 106 63zM421 581q-39 1 -78 -39q-35 -37 -105 -146q92 2 184 0q-2 62 -1 185z" />
    <glyph glyph-name="asciicircum" unicode="^" 
d="M684 293q0 -9 -6 -20q-7 -14 -19 -14h-30q0 1 -1.5 7t-1.5 11q12 2 25 4q17 4 17 15q0 14 -16 14q-5 0 -10 -1t-6 -1v7.5v10.5h17q31 1 31 -33zM525 325q-1 -19 -18 -18q-15 1 -14 16q0 11 14 16q10 4 14 0q5 -3 4 -14zM788 406q0 -12 -16 -24.5t-20 -12.5q-3 0 -10.5 5
t-10.5 5h-73q14 -13 46 -28q22 -11 45 -22v-12q-1 -1 -16 -1q-25 0 -65 31q-21 16 -41 31q-3 1 -172 1h-78h-136q-9 0 -22 -11.5t-25 -22.5q9 -5 16 -14q-13 0 -19 -6v-10q9 -8 32 -8q19 -106 67 -183q64 -102 154 -102q46 0 114 90q49 64 68 107q3 -28 -59 -117
q-67 -97 -117 -97h-22q5 0 -38 12q-57 16 -104 83q-37 52 -55 114q-3 26 -13 83q-9 -9 -21 -9q-22 0 -31 35q-72 -42 -99 -42q-11 0 -22 10q14 5 44 18q66 29 112 69q-3 4 -22 4q-20 1 -24 -3q-43 -45 -81 -55q-5 -1 -16.5 4.5t-12.5 5.5q43 6 87 44l-119 1l5 17h123
q39 35 77 100q22 41 45 82q31 54 58 85q33 35 75 58q14 7 26 8q3 5 0 33h21q-2 -28 0 -32q41 -6 87.5 -41.5t70.5 -77.5q18 -25 52 -80q20 -47 41 -95q19 -40 46 -40h31q7 0 12 5zM363 307q-11 -1 -16 10q-4 8 0 16t11 10q7 1 14 -4t7 -14q-1 -9 -6 -13t-10 -5zM486 252
q0 -21 -20 -35q-16 -10 -32 -10q-21 0 -38 11q-20 14 -20 36q0 13 14 33h11q1 -1 1 -30q0 -25 31 -25q29 0 29 14q0 4 -2.5 13t-2.5 13q0 8 8 12q7 -3 14 -15.5t7 -16.5zM507 151q-19 -20 -42 -25q-18 -4 -45 -4q-29 0 -54 28q-6 7 -13 22q-1 -1 20.5 -1t35.5 -3
q34 -7 25 -7q4 0 11.5 4.5t11.5 5.5q17 5 62 -4q-3 -5 -12 -16zM701 397q-49 87 -97 175q-74 116 -161 135v-98q36 -8 90 -29q26 -20 65 -93q23 -45 47 -91zM618 399q-5 17 -31.5 62.5t-50 77t-91.5 44.5q-7 -73 -2 -187zM422 606v100q-52 -20 -100 -79q-29 -36 -77 -117.5
t-72 -110.5l39 -4q15 8 44 59q34 61 60 89q45 49 106 63zM421 581q-39 1 -78 -39q-35 -37 -105 -146q92 2 184 0q-2 62 -1 185z" />
    <glyph glyph-name="underscore" unicode="_" horiz-adv-x="443" 
d="M137 90h246q1 0 10 2t14 2q22 0 22 -33q0 -29 -14 -29q-5 0 -13.5 3.5t-10.5 3.5h-196q-113 0 -128 -2q-3 0 -13.5 2.5t-15.5 2.5t-5 7q0 12 7.5 27.5t16.5 15.5q24 1 51 0q32 -2 29 -2z" />
    <glyph glyph-name="grave" unicode="`" horiz-adv-x="250" 
d="M39 731q1 -28 11 -108q5 -28 44 -28q77 0 65 1q0 -8 -2 -33.5t-1 -41.5q0 -24 5 -45q2 -8 19 -8q35 0 37 16q10 80 -2 148q-5 27 -48 27q-8 0 -18 -3t-17 -3q-25 0 -28.5 2t-6.5 20q-2 6 -2 11q0 21 43 21q17 0 22.5 -20t15.5 -20q1 0 25 -3q14 -2 18 3q9 10 5 64
q-31 30 -83 34q-59 4 -102 -34z" />
    <glyph glyph-name="a" unicode="a" horiz-adv-x="688" 
d="M656 447q0 5 -1 -26q-2 -50 -5 -206q0 -10 1 -52q2 -37 0 -61q-2 -35 -10 -58.5t-64 -23.5q-8 0 -208.5 3t-208.5 3q-83 0 -118 22q-21 14 -21 91q0 137 15 177q13 35 196 52q109 9 209 9q58 0 87 -9q10 -3 27 -61q15 -53 15 -65t-9 -21t-21 -9q-8 0 -41 3t-41 3
q5 0 -107 -18q0 -4 -3 -11.5t-3 -11.5q33 -13 82 -15h85q35 -1 67 -3q2 2 9 11q9 143 9 164q0 9 -4 43q-4 42 -5 55q-1 3 -9 9q-16 2 -71 9q-49 7 -57 7q-7 0 -20.5 -3.5t-22.5 -3.5q-11 0 -27 14t-16 26q0 11 15.5 25.5t27.5 14.5q3 0 91 -11q92 -10 133 -12
q10 -6 17 -25.5t7 -34.5zM490 280q-6 19 -21 29q-138 2 -233 2q-22 0 -121 -22q-10 -7 -26 -20q-1 -12 -5 -49q-4 -33 -4 -41q0 -45 6 -58q13 -28 61 -28h65q62 1 93 1q-8 14 -17 43.5t-9 41.5q0 76 80 90q66 6 131 11z" />
    <glyph glyph-name="b" unicode="b" horiz-adv-x="558" 
d="M531 305q0 6 -1.5 -16.5t-1.5 -68.5q0 -66 3 -174q-45 -27 -134 -27q14 0 -285 6q-10 1 -65 21q-22 86 -22 101q0 12 9 25.5t20 13.5q33 0 33 -32q0 -4 -1 -12v-12q0 -28 26 -28q7 0 31.5 -7.5t31.5 -7.5q71 -2 173 2q112 4 118 10q10 10 10 94q0 77 -8 192q-9 0 -31.5 3
t-29.5 3q-15 0 -30 -66q-9 -42 -19 -84q3 -2 37 -16q15 -6 15 -30q0 -7 -7 -17.5t-7 -16.5q-35 9 -85 9q-10 0 -27 -1h-25q-38 0 -53 8q-21 11 -21 41q0 16 14.5 30.5t27.5 14.5q6 0 18 -10t24 -10q41 0 54 55q7 51 13 102q8 55 35 55q6 0 27.5 -6.5t30.5 -6.5q8 0 27 9.5
t27 9.5q37 0 44 -69q2 -44 4 -87zM185 602q0 -1 -8 -87q-8 -90 -9 -140q-1 -20 2 -65q3 -49 3 -72q0 -72 -21 -103h-30q-16 32 -16 47q0 20 -1 65t-1 70q0 42 8.5 129.5t8.5 88.5q0 48 -19 48q-8 0 -16 -3t-16 -3q-10 0 -18 11.5t-8 23.5q0 35 32 35q109 0 109 -45z" />
    <glyph glyph-name="c" unicode="c" horiz-adv-x="541" 
d="M514 332q-7 -1 -32.5 -13t-34.5 -12q-20 0 -80.5 8.5t-100.5 8.5q-44 0 -85 -9q26 -34 73 -46q28 -8 94 -11.5t98 -11.5q12 -13 11 -49q0 -57 0 -54l7 -46q6 -33 5 -52q-28 -27 -60 -27q-4 0 -63.5 6.5t-170.5 6.5q-8 0 -37 14q-46 22 -57 27q-12 30 -37 220
q-23 180 -23 216q0 38 31 38h14q9 -1 14 -1q70 1 218 6l143 5q74 0 74 -189q0 -27 -1 -35zM457 384v61q0 23 -38 39q-33 15 -71 15q-72 0 -269 -14q6 -39 22 -134q5 12 22 22t29 10q143 0 218 -4q64 -4 87 5zM405 83v107q-56 8 -111 16q-65 11 -106 31q-53 25 -83 69v-53
q-2 -28 3 -67q6 -44 18 -62q13 -21 51 -27l58 -4q89 -14 170 -10z" />
    <glyph glyph-name="d" unicode="d" horiz-adv-x="619" 
d="M598 75q0 -21 -16 -39.5t-38 -18.5q-7 0 -17 6.5t-18 6.5q-22 0 -435 -19q-14 31 -50 54q-22 167 -22 189q0 58 13 115q18 78 51 78q6 0 96 -11q99 -12 137 -15q2 2 6 10q3 97 6 193q3 100 15 158q1 8 12 8q13 0 25 -8q5 -4 11 -15q1 -67 -5 -181q-6 -123 -6 -175
q0 -116 6 -217q1 -9 11.5 -16t22.5 -7q7 0 16.5 11.5t14.5 13.5h22q9 -13 9 -38q0 -31 -14 -53q32 -11 61 -11q7 0 22.5 3.5t22.5 3.5q14 0 27.5 -7.5t13.5 -18.5zM303 362q-17 0 -50.5 4.5t-51.5 4.5q-27 0 -51 -8v-31h41q8 -1 35.5 2.5t35.5 3.5q30 0 41 24zM310 238
q0 10 -3.5 21.5t-3.5 13.5q-18 0 -52 3.5t-40 3.5q-12 0 -32.5 -9.5t-28.5 -18.5q9 -16 28 -32.5t33 -16.5h48q24 0 30 2q21 7 21 33zM400 104q-20 0 -48 10q-41 15 -44 16q-26 7 -82 10q-52 4 -75 11q-36 12 -51 44q-15 29 -17 86q-3 67 -7 82q-7 -39 -7 -89q0 -39 5 -103
q6 -72 6 -95q188 11 320 28z" />
    <glyph glyph-name="e" unicode="e" horiz-adv-x="561" 
d="M538 190q0 -14 -11 -29q10 -86 -5 -141q-18 -1 -66 -5t-56 -4h-169q-5 0 -58 4t-74 4q-24 32 -36 239q-14 237 -44 335q29 27 58 27q8 0 52.5 -9.5t52.5 -9.5t112.5 3t112.5 3q40 0 50 -1q38 -6 47 -27q1 -32 8 -112q7 -75 7 -81q0 -23 -21 -40q-53 -1 -174 -11
q-8 -1 -29 -8.5t-29 -7.5q-10 0 -20.5 11.5t-13.5 22.5q-1 7 0 25q3 24 3 27q-1 36 -1 73q2 42 16 61q-58 10 -116 10q-14 0 -39 -10q0 -98 21 -177q16 -9 37 -36q28 -35 38 -45q53 -52 200 -52q7 0 48 6.5t48 6.5q22 0 36.5 -15t14.5 -37zM450 412l-2 110q-23 21 -60 21
q-8 0 -41 -3.5t-44 -3.5l-1 -133q38 -1 86 5q45 6 62 4zM466 76v94q-29 0 -48.5 -2.5t-23.5 -2.5q-12 0 -67 5.5t-67 8.5q-44 11 -138 75v-92q0 -52 21 -71q18 -16 65 -16q3 0 71 1t102 1q4 0 25.5 2.5t33.5 2.5q19 0 26 -6z" />
    <glyph glyph-name="f" unicode="f" horiz-adv-x="522" 
d="M497 299q0 -14 -21 -30q-109 0 -167 -11q-5 -1 -21.5 -9t-24.5 -8t-9.5 4t-7.5 4q0 -42 4 -130.5t4 -122.5q0 -59 -7 -81h-31q-7 4 -18 14q-7 207 -9 240q-9 149 -28 149q-7 0 -38 -3t-39 -3q-29 0 -35 108q-1 8 -1 110q0 6 7 23.5t6 23.5q-1 7 -8 48q-6 31 -6 49
q0 15 3 26q9 36 76 64q52 19 104 39q20 9 84 9q35 0 107 -18t76 -28t4 -46q0 -99 -13 -143q-8 -28 -29 -28h-23q-20 0 -20 25q0 5 1 18t1 20q0 72 -100 72q-25 0 -52 -17q0 -171 23 -255l6 -32q4 -21 15 -29q20 -14 88 -14q8 0 11 3.5t11 3.5q26 0 49 -11q28 -12 28 -34z
M242 312q-15 72 -32 198q-14 111 -14 129q0 13 8 60q5 29 14 26q-49 -7 -56 -9q-30 -9 -44 -34q-11 -17 -11 -92q0 -56 6 -127q-1 -41 9 -75q1 -5 7 -6q4 -1 13 0q13 1 16 1q35 0 47 -3q17 -4 27 -30z" />
    <glyph glyph-name="g" unicode="g" horiz-adv-x="533" 
d="M540 415q-7 -36 -23 -45q-10 -6 -38 -6q-5 0 -38 4t-55 4q39 -64 39 -113q0 -46 -9 -161q-2 -29 -20 -51q-8 -10 -28 -14q-27 -7 -34.5 -10.5t-28.5 -18.5q-15 -11 -25 -11q-8 0 -44.5 6t-44.5 6q-23 0 -37 -36q-11 -29 -11 -57q0 -67 20 -191q1 -7 42 -16q37 -7 50 -7
q5 0 26 2.5t35 2.5v42q0 18 -42 54t-41 46l6 50q5 31 21 50q28 32 91 32q14 0 37 -2t30 -2q42 0 54 -33q4 -12 4 -44q0 -110 -24 -171q-30 -73 -55 -91q-8 -6 -60 -6q-55 0 -139 6q-22 0 -56 14q-39 16 -43 33q-21 94 -21 222q0 88 22 118q8 6 23 26q-5 6 -24.5 17.5
t-24.5 21.5q-12 22 -23 91t-11 114q0 182 112 182q5 0 68.5 -11t92.5 -13q59 -2 119 -5q72 -6 108 -29zM360 140q5 60 5 102q0 39 -5 49q-10 19 -44 35t-38 24q-9 19 5 45q-24 0 -62 7q-14 -57 -14 -83q0 -69 22.5 -96t130.5 -83zM290 91q-46 27 -74 48q-57 44 -59 75
q-5 39 -13 103q0 24 -1 48q-1 31 -9 44q-30 -20 -30 -122q0 -123 21 -158q13 -22 73 -28q87 -9 92 -10zM405 -105q-32 21 -61 21q-17 0 -31 -21q-10 -16 -10 -27q0 -6 35.5 -44t44.5 -88q8 54 22 159z" />
    <glyph glyph-name="h" unicode="h" horiz-adv-x="512" 
d="M477 -41q0 -41 -40 -72q-36 -27 -69 -27q-58 0 -58 54q0 17 22.5 65.5t22.5 85.5q0 271 -27 302q-14 16 -58.5 36.5t-59.5 20.5h-61q3 -14 3 -36q0 -15 -1 -38t-1 -25q0 -94 40 -116l74 -12q40 -9 40 -71q0 -125 -52 -125h-54q-19 0 -155 21q-11 8 -20 19q0 19 -4 78
q-4 49 -2 77l10 148q7 107 5 173q-1 30 -12 102.5t-11 76.5q0 43 1 52q6 35 31 35q30 0 35 -53q0 -31 1 -62q3 -53 19 -154q3 -13 43 -18q66 -9 72 -11q38 -8 120 -29q0 16 1 32q4 26 26 26t32 -104q2 -15 7 -124q4 -74 17 -217q1 -7 12 -17q14 -13 15 -14q36 -44 36 -79z
M246 79v21q-5 31 -55 50q-57 22 -71 45q-17 31 -18 44q0 -4 0 132q0 28 -14 53q-5 -13 -6 -138q0 -125 5 -207q16 0 54.5 -5.5t56.5 -5.5q31 0 48 11zM419 -41q0 22 -24 22q-21 -21 -20 -35q-4 -19 0 -28q2 -5 7 -5q10 0 23.5 18t13.5 28z" />
    <glyph glyph-name="i" unicode="i" horiz-adv-x="342" 
d="M315 728q0 -25 -44 -119q-13 -28 -31 -28q-20 0 -67 19q-50 21 -50 35q0 5 7.5 50t7.5 64q12 15 32 15q30 0 30 -34q0 -8 -4 -36q-2 -24 -1 -36q12 0 18 -6q15 6 26 62q11 50 37 50q39 0 39 -36zM295 180q-14 -28 -14 -68q0 -11 1 -29t1 -26q0 -54 -57 -54
q-19 0 -99.5 17.5t-87.5 23.5q-2 12 -2 21t3.5 19t3.5 16v236q-1 1 -3 8q-1 3 -10 3q-7 0 -8 -2l1 -1v-2q0 -2 -7 -2q-9 0 -17.5 15t-8.5 29q0 13 14 25t30 12q5 0 10 -2q1 9 0 31q-2 25 -2 36q0 60 34 60q30 0 30 -58q0 -15 -2.5 -42t-2.5 -34q57 3 72 -31q7 -15 9 -77
q2 -56 21 -84q8 -12 38 -21q40 -11 53 -19zM222 135q-61 8 -85 77q-16 58 -32 115v-230q61 -13 109 -21q10 28 8 59z" />
    <glyph glyph-name="j" unicode="j" horiz-adv-x="475" 
d="M209 750q0 -19 -12 -56q-15 -47 -36 -47q-25 0 -52.5 21.5t-27.5 46.5q0 34 34 52q27 15 65 15q11 0 20 -13t9 -19zM440 243q0 -102 1 -41q-1 -34 -11.5 -48t-55.5 -44q-38 -26 -48 -51q-5 -11 -6 -68q-2 -69 -4 -90q-6 -46 -117 -64q-60 -10 -125 -10q-7 0 -45.5 -6.5
t-46.5 -6.5q-10 0 -12.5 9.5t-3.5 10.5v37q37 13 143 19q99 6 139 24l-20 353v210q0 7 -12.5 46t-12.5 47q0 20 34 37q29 15 46 15q8 0 28.5 -3.5t29.5 -3.5q39 0 77 -20q22 -12 22 -352zM382 304q0 42 -3 121q-5 110 -12 118q-14 14 -27 14q-17 6 -31 6q-16 0 -23 -7.5
t-6 -77.5q0 13 21 -350q59 39 74 84q7 22 7 92z" />
    <glyph glyph-name="k" unicode="k" horiz-adv-x="503" 
d="M488 35q-27 -27 -51 -27q-7 0 -40 3q-37 4 -53 5q-62 79 -124 159q-84 101 -136 134q-2 -122 6 -190q2 -17 8 -52q6 -30 6 -37q0 -22 -15 -38.5t-30 -16.5q-10 0 -21 15.5t-11 26.5q0 142 5 251q3 60 5 121q2 64 0 166q-3 125 -3 156q0 108 12 166q4 17 23 22q24 5 28 -8
q6 -19 6 -55q0 -18 -2 -55t-2 -54q0 -66 27 -66q7 0 39.5 -3t40.5 -3q48 0 134 19q72 15 76 13q9 -8 15 -76q6 -59 6 -110q0 -15 -19 -26.5t-29 -11.5q-8 0 -29 6t-29 6q-25 0 -79 -18q-65 -22 -65 -46t51 -70q43 -38 56 -44q41 -11 115 -32q17 -3 34 -7q21 -7 24 -22
q4 -68 21 -201zM366 534q0 -3 2 40q1 24 -3 36q-62 -13 -59 -13h-86q-83 -1 -122 -1q0 -153 5 -197q58 89 135 119q50 19 128 16zM417 79v61q1 46 -20 61q-11 9 -61 21q-57 15 -103 41q40 -52 79 -103q57 -68 105 -81z" />
    <glyph glyph-name="l" unicode="l" horiz-adv-x="255" 
d="M233 253q0 -124 0 -94q-2 -91 -16 -129q-5 -12 -37.5 -23t-65.5 -11q-44 0 -53 9q-12 11 -40 139q0 5 30.5 38t37.5 56q11 34 12 89q1 81 2 90q2 0 7 3.5t15 3.5q7 0 18 -7q17 -12 19 -13q11 33 11 58q0 8 -8 158t-8 158q1 6 8 16q8 7 30 7q21 0 32 -22l-7 -165
q0 -7 6.5 -180t6.5 -181zM175 243q0 20 -12 104q-2 -12 -2 -24t2 -30.5t2 -26.5q0 -18 -5.5 -35.5t-38.5 -47.5q-29 -26 -29 -46q0 -9 7 -34q11 -36 13 -42q19 -3 28 0q18 6 26 21q1 24 5 94q4 59 4 67z" />
    <glyph glyph-name="m" unicode="m" horiz-adv-x="824" 
d="M800 33q-4 -1 -26 -13q-12 -7 -63 -7q-6 0 -33.5 3t-35.5 3t-29.5 -2t-28.5 -2q-16 0 -17 199q0 2 -5.5 3t-5.5 11q0 16 15 34q15 15 25 15q43 0 43 -91q0 -15 -1 -41t-1 -35q0 -29 8 -31l84 -7v42q-1 39 -21 179q-21 146 -31 170q-31 -4 -62 -7q-37 -6 -61 -15l-13 -5
q-7 -4 -8 -10q-3 -22 0 -98q2 -85 0 -120q0 -10 -9.5 -20t-19 -10t-28 -3.5t-26.5 -3.5q-31 0 -39 76q-2 43 -3 86l-8 68q-7 51 -28 82q-69 4 -96 -15q-15 -12 -28.5 -43.5t-14.5 -57.5q-2 -53 7 -159q10 -116 10 -146q0 -16 -1 -27q-3 -22 -34 -22h-66q-20 0 -23 2
q-7 5 -12 33q-5 83 -10 165q-9 148 -34 219q-6 17 -27 24q-17 5 -17 30q0 13 15 22q12 8 25 8q43 0 54 -23q8 -32 16 -63q27 18 57 21q4 7 10 42q5 28 17 33q27 13 85 22q51 8 89 8q29 0 36 -30t17 -30q82 0 168 23t80 23q34 0 50 -40q11 -29 13 -77q1 -26 1 -51
q7 -146 41 -341zM486 257l-14 158h-12l7 -163zM192 122q0 39 -16 129q-13 82 -21 106q4 -77 13 -158l14 -114q0 7 5 18t5 19z" />
    <glyph glyph-name="n" unicode="n" horiz-adv-x="685" 
d="M665 50q0 -39 -45 -39q-8 0 -77.5 6.5t-77.5 6.5q-58 0 -58 113q0 14 67.5 62.5t67.5 82.5q0 54 -8 98q-13 70 -41 70q-5 0 -120.5 -5.5t-134.5 -5.5q-6 -39 -6 -86q0 -45 10 -152q10 -103 9 -163q-46 4 -66 -3q-8 -3 -33 -18q-20 -12 -29 -12q-18 0 -33 15.5t-17 32.5
q-7 50 -12 149q-6 107 -12 154q-11 102 -42 157q-2 2 -2 5q0 11 59 11q15 0 44 -47q3 -5 16 -5q27 0 102 18.5t77 18.5q79 0 112 -2h82q63 0 74 -11q0 13 11 32q16 11 36 0q16 -9 18 -21q5 -22 5 -123q0 -67 12 -205t12 -134zM593 445l-11 -3l10 -42zM599 76q0 95 -7 141
q-32 -24 -63 -48q-51 -43 -51 -61q0 -26 25 -30q33 -5 96 -2zM163 423h-52q12 -225 26 -334q3 0 11.5 3.5t11.5 3.5q12 35 12 104q0 37 -4.5 114t-4.5 109z" />
    <glyph glyph-name="o" unicode="o" horiz-adv-x="596" 
d="M570 101q0 -12 -6.5 -25.5t-16.5 -15.5q-222 -55 -262 -55q-7 0 -74 3.5t-75 3.5t-32 4q-27 4 -35 5q-19 35 -21 60q-28 338 -28 424q0 21 29 41q21 -4 48 -4q34 0 95 6.5t80 6.5q7 0 30.5 -13.5t32.5 -13.5q6 0 23 14.5t29 16.5q18 2 90 2q31 0 50 -15q5 -85 25 -271
q18 -171 18 -174zM371 306q0 3 -2 36.5t-2 56.5q0 35 2 56h-87q-130 1 -130 -115q0 -48 33 -86q36 -44 93 -44q52 0 72.5 20t20.5 76zM503 133q-10 121 -34 361h-45v-226q6 -21 11 -61q-2 -21 -73 -44q-60 -19 -87 -19q-55 0 -110.5 45.5t-61.5 93.5q1 -119 11 -197
q160 -15 177 -15q41 0 137 22q39 9 48 13q22 9 27 27zM139 472l-51 9v-85q11 22 22 43q16 29 29 33z" />
    <glyph glyph-name="p" unicode="p" horiz-adv-x="579" 
d="M543 411q0 -20 -12 -41t-25 -21q-44 0 -44 88q0 14 1 34.5t1 23.5q-6 0 -17.5 3.5t-17.5 3.5q4 -43 16 -148q12 -94 12 -101q0 -58 -115 -58q-13 0 -33 1h-28t-33.5 -3t-32.5 -3q-11 0 -27 13.5t-16 25.5q0 13 12 30t24 17q9 0 63.5 -10t62.5 -10q35 0 43 5q13 8 13 41
q0 133 -25 152q-13 11 -42 11q-11 0 -28 -2t-20 -2h-71q-25 -2 -36 -12q-16 -15 -16 -160q0 -97 5 -133q15 -105 68 -105q8 0 13 6.5t13 6.5q11 0 20 -13t8 -24q0 -27 6 -86t6 -63q0 -18 -20.5 -35.5t-39.5 -17.5q-51 0 -156 -13q-17 16 -18 36q-3 90 -14 280
q-10 175 -10 178q0 58 8 231q1 16 39 28q29 9 42 9q-2 0 120 -3.5t138 -3.5q9 0 45.5 6.5t44.5 6.5q39 0 59 -67q14 -47 14 -102zM224 -101v23q0 -7 -9 59q-23 5 -38.5 18.5t-39 42t-30.5 35.5v-128q-1 -9 6 -31t7 -32q42 3 104 13z" />
    <glyph glyph-name="q" unicode="q" horiz-adv-x="629" 
d="M658 -306q0 -73 -8 -95q-13 -38 -63 -38q-7 0 -34.5 6.5t-35.5 6.5q-30 0 -73 16q-36 13 -42 19q2 23 5 77q2 40 2 58q0 8 -2 39.5t-2 86.5q0 60 2 157q-8 4 -15 13q-11 15 -14 18l-22 -24q-13 -15 -23 -15q-70 0 -154 16q-129 24 -145 71q-1 5 -1 72l4 89t4 123
q-1 72 13 93q8 11 65 20q44 7 65 7q7 0 19 -6.5t20 -6.5q7 0 16.5 6.5t15.5 6.5q7 0 32.5 -7.5t38.5 -8.5q29 2 84 0q9 -1 19 -15.5t10 -26.5q0 -39 -29 -39q-8 0 -21 6.5t-21 6.5t-35.5 -12t-35.5 -12q-7 0 -7 2v1l1 1q-1 2 -7 2q-10 0 -14.5 -5.5t-8.5 -11.5
q-2 -152 15 -211q7 -28 63 -34q45 -5 70 -20q13 -11 39 -29q2 2 8 10q-2 20 1 75q3 71 3 92q0 4 -1.5 35t-1.5 53q0 109 31 109q15 0 25 -13.5t10 -28.5q0 -131 -16 -297q-15 -152 -12 -262q1 -37 4 -101q17 20 28 20q12 0 44 -12q41 -16 60 -38q27 -31 27 -45zM284 86
q-48 37 -56 46q-21 24 -22 64q3 170 -10 242q-2 9 -28 9q-12 0 -33 -2t-24 -2q-8 -81 -8 -168q0 -6 -2.5 -32.5t-2.5 -44.5q0 -96 77 -96q21 0 55 -6q49 -9 54 -10zM593 -374q5 36 -3 56.5t-40 31.5q-43 14 -53 23l-13 -82q2 -4 30 -16.5t39 -12.5h40z" />
    <glyph glyph-name="r" unicode="r" horiz-adv-x="524" 
d="M493 380q0 -56 1 -43q-2 -25 -17 -35q-19 -12 -53 -23.5t-47 -11.5q-22 0 -31 27q-5 15 -8 55q-2 37 -7 48q-50 19 -109 19q-37 0 -46 -6q-12 -8 -12 -40q0 -21 41 -68t43 -56q1 -80 2 -187q-29 -43 -50 -43h-116q-44 0 -44 90q0 12 1 29t1 20v198q0 8 -10 36t-10 36
q0 29 33 29q37 0 37 -151v-43l-1 -22v-70q1 -46 10 -77q5 -16 42 -18h41q-3 17 -3 43q0 17 1.5 42.5t1.5 28.5q0 29 -14.5 42.5t-28.5 27.5q-15 21 -29 59q-12 34 -12 48q0 86 23 103q18 13 119 13q40 0 92 -10q59 -12 60 -25v-52q1 -48 16 -48q29 0 29 22q0 10 -6.5 33
t-6.5 33q0 28 38 28q22 0 28 -34q1 -9 1 -47z" />
    <glyph glyph-name="s" unicode="s" horiz-adv-x="544" 
d="M502 39q-32 -21 -76 -21q-8 0 -74.5 -3.5t-74.5 -3.5q-9 0 -92 10t-90 10t-17.5 -6.5t-18.5 -6.5q-10 0 -17 7.5t-7 8.5q-5 10 -12 26q1 8 4 70l-8 7q0 73 4.5 90.5t26.5 17.5q5 0 26 -1.5t38 -1.5q34 0 71 6v17q-19 14 -85 37q-45 16 -55 50q0 -6 1.5 14.5t1.5 63.5
q0 60 -3 160q1 37 43 37q9 0 118 -23t117 -23q7 0 64.5 6.5t65.5 6.5q23 0 35 -64q8 -44 8 -89q0 -8 -13.5 -23.5t-20.5 -15.5q-20 0 -55.5 4.5t-56.5 4.5q-45 0 -102 -16q-10 0 -20 9.5t-10 21.5v94q2 0 6 4t13 4q16 0 26 -21q8 -17 8 -33q0 -5 -1 -8q60 4 158 10v41
q-19 11 -35 11q-8 0 -43 -3.5t-43 -3.5t-94.5 16.5t-94.5 16.5q-9 0 -10 -6q-2 -9 -3 -11q0 -22 3 -74q4 -60 5 -83q19 -18 58.5 -22t57.5 -19q13 -10 16 -51q26 -19 52 -19q8 0 64.5 3.5t64.5 3.5q9 0 22 -9.5t18 -18.5q14 -26 23 -98q7 -56 13 -111zM429 72v82
q0 33 -21 40q-9 2 -55 2q-6 0 -61 -11q-59 -11 -86 -13q-49 1 -127 -3l1 -7q7 -48 6 -70q147 -21 151 -21q5 0 29 1q18 2 27 0q16 -2 48 3q38 5 51 5q23 0 37 -8z" />
    <glyph glyph-name="t" unicode="t" horiz-adv-x="561" 
d="M514 83q-10 -17 -61.5 -36t-77.5 -19q-8 0 -150.5 -6.5t-150.5 -6.5q-19 0 -32 29q-11 23 -11 41q0 88 24 128q9 16 44 41q24 17 24 50v210q0 -1 -6 73.5t-6 120.5q0 18 1 32q0 7 9.5 18.5t18.5 11.5q31 0 43 -88q10 -71 6 -92l205 7q0 -2 4 -7.5t4 -14.5q0 -26 -38 -38
q-31 -8 -62 -17q0 -4 7 -9q11 -7 13 -9q-13 -28 -35 -50q-11 8 -85 8v-151q1 -67 26 -89q22 -19 91 -19q7 0 27.5 3t28.5 3q62 0 139 -20v-104zM451 125q-26 5 -110 7q-70 2 -107 15q-55 18 -87 67q-50 -44 -50 -64v-61l168 -1q148 0 186 37z" />
    <glyph glyph-name="u" unicode="u" horiz-adv-x="570" 
d="M536 -9q0 -32 -39 -32q-19 0 -25 16q-15 37 -18 42q-66 0 -196 -6.5t-126 -6.5h-37q-18 4 -26 28q-8 28 -15 117q-10 121 -14 153q-3 61 -13 179q-2 15 -13 52q-11 34 -11 42q0 11 10.5 24.5t22.5 13.5q32 0 46 -80q5 -34 13 -160q6 -97 19.5 -122t60.5 -25q9 0 24 1
t19 1q127 0 204 -7q1 7 1 15q0 19 -11 60.5t-11 50.5q0 11 10.5 20t21.5 9q26 0 30 -22q11 -62 44 -221q29 -134 29 -142zM439 82q5 50 -36 73q-29 16 -70 16q-63 0 -214 -2v-72q7 -29 54 -29q27 0 132 5q122 5 134 9z" />
    <glyph glyph-name="v" unicode="v" horiz-adv-x="607" 
d="M589 256q-5 -23 -31 -61t-54.5 -66t-129.5 -75q-96 -44 -115 -44q-26 0 -46 22q-33 39 -39 44q-1 42 -4 128q-11 17 -33 17q-8 0 -33.5 -6t-33.5 -6q-28 0 -27 -1q-8 3 -10 23q-15 163 -15 356q0 32 97 32q20 0 56 -19q33 -17 50 -35q-1 -7 2 -174q0 -57 4 -188
q0 -42 6 -91q93 73 133 220q32 117 26 250q-2 33 14 40q34 15 83 17q-28 -1 55 -1q24 0 36 -22q1 -19 5 -81q4 -51 4 -60q8 -183 0 -219zM531 475q0 16 -7.5 53.5t-13.5 45.5q-21 -7 -54 -21q0 -4 -12 -130q-8 -91 -36.5 -158t-93.5 -164q105 32 153 79q44 44 56 119
q8 48 8 176zM172 369q0 6 -7 65q-7 64 -8 91q-28 24 -50 23h-24v-194q0 -8 3.5 -37.5t3.5 -43.5q30 1 75 7q0 15 3.5 49t3.5 40z" />
    <glyph glyph-name="w" unicode="w" horiz-adv-x="777" 
d="M765 277q0 -29 -73 -54q-57 -19 -81 -19q-91 0 -206 -12q0 1 1 -61q2 -38 -4 -61q-28 -13 -95 -31q-21 0 -63 -4q-17 -4 -44.5 -17t-34.5 -13q-20 0 -63 18q-51 22 -54 42q-12 82 -12 197q0 43 2 128t2 126q11 15 40 25q26 9 50 9q20 0 29 -15q11 -150 34 -454h23
q132 1 132 94q0 7 -11.5 30.5t-12.5 33.5q-2 14 -2 74q0 65 6 79q12 30 65 30q59 0 74 -54q4 -15 9 -108q8 -5 35 -5t96 12q76 13 78 24q9 39 9 163q0 29 1.5 67.5t1.5 47.5q0 35 -12 46.5t-52 11.5q-57 0 -57 -99q0 -18 2 -53t2 -50q0 -55 -24 -55q-35 0 -35 87q0 16 -1 45
v41q0 76 21 104q27 37 108 37q103 0 103 -66v-329q0 -7 3 -7q1 0 3 1t3 1q4 0 4 -7zM424 338q0 7 -14 12q-21 6 -22 7q0 -10 -4 -30.5t-4 -26.5q0 -40 41 -40q0 6 1.5 38.5t1.5 39.5zM128 89q-4 101 -7 202q-5 123 -12 168q-4 11 -7 11q-4 0 -5 -14q-6 -44 -6 -121
q0 -84 7 -129l6 -62q6 -50 13 -53.5t11 -1.5z" />
    <glyph glyph-name="x" unicode="x" horiz-adv-x="596" 
d="M580 192q0 -8 -5.5 -24t-5.5 -21q3 -19 4 -63q1 -9 -2 -28q-12 -34 -33 -34q-8 0 -12.5 -4.5t-12.5 -4.5t-11.5 -1.5t-11.5 -1.5q-67 0 -149 78q-70 67 -85 114q-11 -10 -74 -107q-55 -85 -67 -85q-16 0 -25.5 13t-9.5 28q0 9 57 85q71 96 90 127l-16 16q-24 -26 -35 -26
q-32 0 -32 36q0 8 13 22t13 22q0 15 -59 74q-67 65 -67 66q-15 22 -15 33q0 13 11 21t24 8q17 0 135 -134q2 2 73 106q62 92 77 92q62 0 140 -20q6 -1 7.5 -6t1.5 -14q-1 -13 -1 -14q0 5 -96.5 -116.5t-96.5 -152.5q0 -24 51 -51q45 -23 65 -23q6 0 45.5 9.5t47.5 9.5
q22 8 38 8t22.5 -9t6.5 -28zM407 528h-35q-18 1 -71.5 -77t-53.5 -95q0 -23 23 -32q49 73 137 204zM503 137q-21 9 -44 9q-17 0 -43 -5.5t-35 -4.5q74 -56 88 -55h27q0 -1 3.5 16t3.5 40z" />
    <glyph glyph-name="y" unicode="y" horiz-adv-x="557" 
d="M524 10q0 -14 -33 -31q-19 -9 -38 -17q0 -2 -8 -66q-5 -44 -27 -59q-48 -33 -163 -62q-93 -24 -119 -24h-19q-19 0 -28 21q-11 24 0 30q39 22 124 36q95 15 120 25q54 21 54 70q0 15 -5 34q-11 41 -20.5 50.5t-39.5 9.5q-8 0 -67 -6.5t-67 -6.5q-13 0 -47 15
q-39 17 -44 32q-79 216 -79 232q0 42 41 42q17 0 26 -17q13 -23 15 -56l4 -56q3 -22 29 -65q30 -50 51 -50q69 0 200 62q3 83 -10 126q-5 19 -34 26q-34 7 -44 19q-20 23 -27 51q-14 60 -14 190q0 52 144 52q10 0 38 -12.5t33 -16.5q27 -29 43 -176q11 -109 11 -202v-200z
M460 347q0 41 -11 108q-13 78 -28.5 88t-57.5 9q-41 5 -43 -10q-4 -36 0 -107q0 -46 26.5 -59.5t53.5 -27.5q33 -29 44 -110q16 65 16 109zM451 129q-5 -28 -48 -33q18 -32 41 -82q7 103 7 115z" />
    <glyph glyph-name="z" unicode="z" horiz-adv-x="671" 
d="M635 74q-4 -37 -40 -37q-136 0 -218 -9q-22 -2 -93 -14q-62 -9 -70 -9q-19 0 -34 8q-18 9 -18 24q0 9 90 158q122 203 148 248q-39 10 -71 10q-9 0 -253 -15q-2 0 -13 -5t-19 -5q-12 0 -20.5 9.5t-8.5 22.5q0 33 23 36q236 22 336 22q8 0 21 -8l20 -12q12 12 25 41
q15 33 12 51q-47 17 -104 17q-47 0 -102 -5q-81 -9 -87.5 -26t-12.5 -34q-9 -24 -25 -24q-10 0 -13.5 3t-6.5 6q-13 44 -9 99q5 7 21 17q51 10 155 17q79 5 109 5q164 0 164 -48q0 -8 -58 -128.5t-58 -128.5q0 -9 7 -11q4 -1 9 -2q7 -20 24 -55q21 -29 77 -29q8 0 24 1h23
q32 0 40 -12q11 -16 11 -72q0 -40 -5 -106zM579 152l-9 41q-22 11 -84 18q-24 3 -56.5 33.5t-39.5 55.5q-48 -80 -138 -224h47q5 0 102 13q101 14 147 14q14 0 24 -1q0 6 3.5 24t3.5 26z" />
    <glyph glyph-name="braceleft" unicode="{" 
d="M684 293q0 -9 -6 -20q-7 -14 -19 -14h-30q0 1 -1.5 7t-1.5 11q12 2 25 4q17 4 17 15q0 14 -16 14q-5 0 -10 -1t-6 -1v7.5v10.5h17q31 1 31 -33zM525 325q-1 -19 -18 -18q-15 1 -14 16q0 11 14 16q10 4 14 0q5 -3 4 -14zM788 406q0 -12 -16 -24.5t-20 -12.5q-3 0 -10.5 5
t-10.5 5h-73q14 -13 46 -28q22 -11 45 -22v-12q-1 -1 -16 -1q-25 0 -65 31q-21 16 -41 31q-3 1 -172 1h-78h-136q-9 0 -22 -11.5t-25 -22.5q9 -5 16 -14q-13 0 -19 -6v-10q9 -8 32 -8q19 -106 67 -183q64 -102 154 -102q46 0 114 90q49 64 68 107q3 -28 -59 -117
q-67 -97 -117 -97h-22q5 0 -38 12q-57 16 -104 83q-37 52 -55 114q-3 26 -13 83q-9 -9 -21 -9q-22 0 -31 35q-72 -42 -99 -42q-11 0 -22 10q14 5 44 18q66 29 112 69q-3 4 -22 4q-20 1 -24 -3q-43 -45 -81 -55q-5 -1 -16.5 4.5t-12.5 5.5q43 6 87 44l-119 1l5 17h123
q39 35 77 100q22 41 45 82q31 54 58 85q33 35 75 58q14 7 26 8q3 5 0 33h21q-2 -28 0 -32q41 -6 87.5 -41.5t70.5 -77.5q18 -25 52 -80q20 -47 41 -95q19 -40 46 -40h31q7 0 12 5zM363 307q-11 -1 -16 10q-4 8 0 16t11 10q7 1 14 -4t7 -14q-1 -9 -6 -13t-10 -5zM486 252
q0 -21 -20 -35q-16 -10 -32 -10q-21 0 -38 11q-20 14 -20 36q0 13 14 33h11q1 -1 1 -30q0 -25 31 -25q29 0 29 14q0 4 -2.5 13t-2.5 13q0 8 8 12q7 -3 14 -15.5t7 -16.5zM507 151q-19 -20 -42 -25q-18 -4 -45 -4q-29 0 -54 28q-6 7 -13 22q-1 -1 20.5 -1t35.5 -3
q34 -7 25 -7q4 0 11.5 4.5t11.5 5.5q17 5 62 -4q-3 -5 -12 -16zM701 397q-49 87 -97 175q-74 116 -161 135v-98q36 -8 90 -29q26 -20 65 -93q23 -45 47 -91zM618 399q-5 17 -31.5 62.5t-50 77t-91.5 44.5q-7 -73 -2 -187zM422 606v100q-52 -20 -100 -79q-29 -36 -77 -117.5
t-72 -110.5l39 -4q15 8 44 59q34 61 60 89q45 49 106 63zM421 581q-39 1 -78 -39q-35 -37 -105 -146q92 2 184 0q-2 62 -1 185z" />
    <glyph glyph-name="bar" unicode="|" horiz-adv-x="129" 
d="M34 208v430q0 2 -2.5 17.5t-2.5 24.5q0 39 34 39q29 0 29 -26q0 -8 -3.5 -22.5t-3.5 -18.5v-343q0 -198 2 -223q0 -7 -2.5 -25t-2.5 -29q0 -7 -7 -7q-12 0 -27.5 14t-15.5 29q-1 42 0 90q2 56 2 50z" />
    <glyph glyph-name="braceright" unicode="}" 
d="M684 293q0 -9 -6 -20q-7 -14 -19 -14h-30q0 1 -1.5 7t-1.5 11q12 2 25 4q17 4 17 15q0 14 -16 14q-5 0 -10 -1t-6 -1v7.5v10.5h17q31 1 31 -33zM525 325q-1 -19 -18 -18q-15 1 -14 16q0 11 14 16q10 4 14 0q5 -3 4 -14zM788 406q0 -12 -16 -24.5t-20 -12.5q-3 0 -10.5 5
t-10.5 5h-73q14 -13 46 -28q22 -11 45 -22v-12q-1 -1 -16 -1q-25 0 -65 31q-21 16 -41 31q-3 1 -172 1h-78h-136q-9 0 -22 -11.5t-25 -22.5q9 -5 16 -14q-13 0 -19 -6v-10q9 -8 32 -8q19 -106 67 -183q64 -102 154 -102q46 0 114 90q49 64 68 107q3 -28 -59 -117
q-67 -97 -117 -97h-22q5 0 -38 12q-57 16 -104 83q-37 52 -55 114q-3 26 -13 83q-9 -9 -21 -9q-22 0 -31 35q-72 -42 -99 -42q-11 0 -22 10q14 5 44 18q66 29 112 69q-3 4 -22 4q-20 1 -24 -3q-43 -45 -81 -55q-5 -1 -16.5 4.5t-12.5 5.5q43 6 87 44l-119 1l5 17h123
q39 35 77 100q22 41 45 82q31 54 58 85q33 35 75 58q14 7 26 8q3 5 0 33h21q-2 -28 0 -32q41 -6 87.5 -41.5t70.5 -77.5q18 -25 52 -80q20 -47 41 -95q19 -40 46 -40h31q7 0 12 5zM363 307q-11 -1 -16 10q-4 8 0 16t11 10q7 1 14 -4t7 -14q-1 -9 -6 -13t-10 -5zM486 252
q0 -21 -20 -35q-16 -10 -32 -10q-21 0 -38 11q-20 14 -20 36q0 13 14 33h11q1 -1 1 -30q0 -25 31 -25q29 0 29 14q0 4 -2.5 13t-2.5 13q0 8 8 12q7 -3 14 -15.5t7 -16.5zM507 151q-19 -20 -42 -25q-18 -4 -45 -4q-29 0 -54 28q-6 7 -13 22q-1 -1 20.5 -1t35.5 -3
q34 -7 25 -7q4 0 11.5 4.5t11.5 5.5q17 5 62 -4q-3 -5 -12 -16zM701 397q-49 87 -97 175q-74 116 -161 135v-98q36 -8 90 -29q26 -20 65 -93q23 -45 47 -91zM618 399q-5 17 -31.5 62.5t-50 77t-91.5 44.5q-7 -73 -2 -187zM422 606v100q-52 -20 -100 -79q-29 -36 -77 -117.5
t-72 -110.5l39 -4q15 8 44 59q34 61 60 89q45 49 106 63zM421 581q-39 1 -78 -39q-35 -37 -105 -146q92 2 184 0q-2 62 -1 185z" />
    <glyph glyph-name="asciitilde" unicode="~" 
d="M684 293q0 -9 -6 -20q-7 -14 -19 -14h-30q0 1 -1.5 7t-1.5 11q12 2 25 4q17 4 17 15q0 14 -16 14q-5 0 -10 -1t-6 -1v7.5v10.5h17q31 1 31 -33zM525 325q-1 -19 -18 -18q-15 1 -14 16q0 11 14 16q10 4 14 0q5 -3 4 -14zM788 406q0 -12 -16 -24.5t-20 -12.5q-3 0 -10.5 5
t-10.5 5h-73q14 -13 46 -28q22 -11 45 -22v-12q-1 -1 -16 -1q-25 0 -65 31q-21 16 -41 31q-3 1 -172 1h-78h-136q-9 0 -22 -11.5t-25 -22.5q9 -5 16 -14q-13 0 -19 -6v-10q9 -8 32 -8q19 -106 67 -183q64 -102 154 -102q46 0 114 90q49 64 68 107q3 -28 -59 -117
q-67 -97 -117 -97h-22q5 0 -38 12q-57 16 -104 83q-37 52 -55 114q-3 26 -13 83q-9 -9 -21 -9q-22 0 -31 35q-72 -42 -99 -42q-11 0 -22 10q14 5 44 18q66 29 112 69q-3 4 -22 4q-20 1 -24 -3q-43 -45 -81 -55q-5 -1 -16.5 4.5t-12.5 5.5q43 6 87 44l-119 1l5 17h123
q39 35 77 100q22 41 45 82q31 54 58 85q33 35 75 58q14 7 26 8q3 5 0 33h21q-2 -28 0 -32q41 -6 87.5 -41.5t70.5 -77.5q18 -25 52 -80q20 -47 41 -95q19 -40 46 -40h31q7 0 12 5zM363 307q-11 -1 -16 10q-4 8 0 16t11 10q7 1 14 -4t7 -14q-1 -9 -6 -13t-10 -5zM486 252
q0 -21 -20 -35q-16 -10 -32 -10q-21 0 -38 11q-20 14 -20 36q0 13 14 33h11q1 -1 1 -30q0 -25 31 -25q29 0 29 14q0 4 -2.5 13t-2.5 13q0 8 8 12q7 -3 14 -15.5t7 -16.5zM507 151q-19 -20 -42 -25q-18 -4 -45 -4q-29 0 -54 28q-6 7 -13 22q-1 -1 20.5 -1t35.5 -3
q34 -7 25 -7q4 0 11.5 4.5t11.5 5.5q17 5 62 -4q-3 -5 -12 -16zM701 397q-49 87 -97 175q-74 116 -161 135v-98q36 -8 90 -29q26 -20 65 -93q23 -45 47 -91zM618 399q-5 17 -31.5 62.5t-50 77t-91.5 44.5q-7 -73 -2 -187zM422 606v100q-52 -20 -100 -79q-29 -36 -77 -117.5
t-72 -110.5l39 -4q15 8 44 59q34 61 60 89q45 49 106 63zM421 581q-39 1 -78 -39q-35 -37 -105 -146q92 2 184 0q-2 62 -1 185z" />
    <glyph glyph-name="exclamdown" unicode="&#xa1;" horiz-adv-x="259" 
d="M93 489l33 15q-6 46 -6 51q0 51 41 51q26 0 28 -22l35 -454q0 -81 -21 -118h-36q-4 113 -17 290q-2 36 -15 132l-36 -17q20 -248 20 -280q0 -18 -29 -18t-32 18q-33 221 -29 343q1 14 19 14q3 0 22 -2q15 -2 23 0v-3zM87 687q-4 42 30 48q18 4 31 -13t11 -38
q-3 -35 -29 -39q-17 -2 -29 10.5t-14 31.5z" />
    <glyph glyph-name="cent" unicode="&#xa2;" horiz-adv-x="725" 
d="M222 226h-152v52h150q-4 10 -9 34h-164l12 52l145 4q-14 117 -14 140q0 38 31 38h14q9 -1 14 -1q70 1 218 6l143 5q74 0 74 -189q0 -27 -1 -35q-7 -1 -32.5 -13t-34.5 -12q-20 0 -80.5 8.5t-100.5 8.5q-44 0 -85 -9q26 -34 73 -46q28 -8 94 -11.5t98 -11.5q12 -13 11 -49
q0 -57 0 -54l7 -46q6 -33 5 -52q-28 -27 -60 -27q-4 0 -63.5 6.5t-170.5 6.5q-8 0 -37 14q-46 22 -57 27q-10 24 -28 154zM626 384v61q0 23 -38 39q-33 15 -71 15q-72 0 -269 -14q9 -63 18 -115q6 13 55 13q143 0 218 -4q64 -4 87 5zM574 83v107q-56 8 -111 16
q-65 11 -106 31q-53 25 -83 69v-53q0 -97 21 -129q13 -21 51 -27l58 -4q89 -14 170 -10z" />
    <glyph glyph-name="section" unicode="&#xa7;" horiz-adv-x="835" 
d="M808 384q0 -76 -20 -130q-30 -79 -66 -121q-23 -27 -55 -55q-10 -9 -50 -34q-51 -31 -68 -31q-2 0 -22 -7.5t-33 -7.5q-3 0 -8.5 -1.5t-9.5 -1.5t-11.5 -2t-10.5 -3q-42 -3 -85 0q-14 1 -24 1q-30 0 -86 26q-43 19 -72 39q-40 28 -80 74q-54 62 -72 133q-17 68 -17 121
q0 137 84 245q91 117 243 144q30 6 109 6q4 0 11 -3t10.5 -3t27.5 -6.5t27 -6.5q20 0 100 -44q91 -60 138 -156q40 -84 40 -176zM790 384q0 43 -19 117q-15 56 -68 122q-58 72 -119 97q-55 22 -63 22q-4 0 -37 9t-37 9q-119 0 -200 -37q-98 -47 -163 -158q-48 -82 -48 -181
q0 -66 23 -127q35 -97 115.5 -165t179.5 -82q28 -3 93 -3q4 0 12 1.5t12 1.5t8.5 1.5t8.5 1.5t27.5 7.5t25.5 7.5t44 19q69 32 119 94q25 32 47 76q39 79 39 167zM644 633q0 -8 -16 -45t-22 -37q-5 0 -19 7q0 2 1 6q5 2 17 10q-2 12 -11.5 39t-9.5 30q0 4 4 8q19 -12 19 -40
q3 0 8 -6q6 12 18 37q11 0 11 -9zM577 619q0 -29 -25 -29q-4 0 -15.5 2t-16.5 2v41.5v42.5q15 -8 15 -25q3 -1 8.5 1.5t8.5 2.5q8 0 16.5 -15t8.5 -23zM438 637q-7 -8 -25 -9t-18 -10q0 -5 8 -13q5 0 14 9h11q0 -8 -1 -11q-5 -10 -15 -10h-11q-13 0 -21 16q-6 12 -6 19
q0 38 44 38q4 0 9.5 -10t10.5 -19zM371 594q-40 -10 -47 -10q-17 0 -17 27q0 22 19 35q7 2 23 10q3 10 3 12t5 7q1 0 9 -5q5 -18 5 -17v-59zM297 657q-1 0 -6.5 -1.5t-6.5 -1.5q-7 6 -1 18h14v-15zM495 446q0 -11 -12 -11q-4 0 -18 7v11q10 0 23 6q7 -7 7 -13zM304 637
q0 -2 -6 -9q-1 -11 -1 -53q-1 0 -7.5 -1.5t-9.5 -1.5q0 3 -1.5 8.5t-1.5 9.5q0 24 7 56q4 1 12 5q8 -8 8 -14zM431 448q-8 -5 -26 -16l-1.5 7.5t-1.5 16.5l8 1.5t18 1.5l3 -3v-8zM272 638l-10 -38q-6 -22 -17 -37q-15 5 -32 57q1 0 3.5 2t6.5 2t8.5 -10t7.5 -18
q11 3 16.5 21.5t16.5 20.5zM204 638l-4 -14h-14v9q-1 5 2.5 6t3.5 2q8 0 12 -3zM538 270l-11 5l5 31zM206 555q-5 -9 -20 -16q-1 46 3 73l-3 5h20v-62zM656 336q0 -24 -7 -34q-17 -16 -47 -52q0 -5 -5 -15q-18 -22 -54 -24q-30 -1 -61 -2q-6 -4 -4 -9q-37 -23 -48 -23
q-3 0 -17 7.5t-18 7.5t-40.5 -6t-39.5 -6q-34 0 -73 16.5t-58 16.5q-22 0 -62 -11q6 7 46 23t46 16q8 0 35 -24.5t43 -24.5h39q27 0 59 13q5 2 6 3.5t1 3.5q-2 4 -2 7q54 2 153 7q25 2 38 17q3 3 7 43q0 -5 7 -18q11 15 11 24q0 4 -6 21.5t-6 21.5q0 11 12 23q2 7 -11 7
q-17 0 -45 -25q1 -3 4 -3q-8 -9 -16 -10q-32 -7 -70 -7q4 0 -66 20q31 2 31 19q0 13 -18 24q5 -2 19 -8.5t18 -6.5q10 0 17 12q4 10 8 19v-31h24q11 6 35 15q-8 -8 -15 -22v-17l0.5 -1.5t5.5 -1.5l28 20q6 4 39 18q0 7 -4 17q-54 64 -146 106l-6 -6q-18 -3 -81 -24
q20 17 43 29q10 3 20 5q14 5 19 15h-50q-5 -1 -49 -20q-49 -21 -75 -36q-3 -2 -50 -36q-40 -30 -46 -30h-65q20 12 23 12q4 0 5 -1.5t4 -1.5q29 0 39 6q22 19 73 56q45 29 79 43q63 25 78 25q47 0 95 -31q38 -26 64 -60q13 -13 37 -46q6 -9 -4 -19q3 -6 16 -9t14 -3
q24 -20 24 -34zM179 539q-41 -25 -47 -25q-15 0 -13 26q0 23 23 46q12 2 14.5 8t8.5 23h11q3 -26 3 -78zM571 107q0 -23 -10 -42q-3 -4 -9 -9q-2 0 -8 -3.5t-11 -3.5q-18 0 -29 23q-9 18 -9 38q0 10 2 17q4 12 20.5 23.5t24.5 11.5q17 0 24 -26q5 -15 5 -29zM486 117l-7 -7
q-2 1 -9 16q-5 11 -10 11q-21 0 -21 -44q0 -27 5 -46q-13 -7 -21 -3v79q-1 6 12.5 19.5t18.5 13.5q32 0 32 -23v-16zM407 98q-6 0 -23.5 1.5t-20.5 1.5q-10 0 -10 -9q0 -34 23.5 -34t27.5 -4q-8 -11 -24 -11q-20 0 -31.5 18t-11.5 35q0 29 11 39.5t39 10.5q6 0 13 -11t7 -17
v-20zM325 135q-17 -17 -52 -56q33 -9 37 -9q11 0 15 -4v-10q-35 5 -50 5l-9 -3q-6 0 -20 7v14q12 20 52 54q-3 7 -25.5 10.5t-26.5 10.5v10q29 -6 79 -15v-14zM559 606v29q-7 7 -12 7q-4 0 -12 -7v-26q8 -7 14 -7t10 4zM412 640q3 8 -10 14l-7 -7v-11h14zM517 487l-17 10
l-2 -4l17 -10zM349 618q0 17 -10 18q-14 3 -14 -22q0 -11 4 -18h13q7 8 7 22zM641 324v20q-5 0 -12 1.5t-11 1.5q-10 0 -10 -18q0 -11 7 -31q1 1 13 4q13 11 13 22zM161 558q0 15 -11 20q-16 -19 -16 -30q0 -4 1.5 -9t1.5 -6q1 0 2 1t5 1q17 0 17 23zM465 209q-5 0 -16 2
t-14 2q-12 0 -19 -14q8 -4 19 -4q18 0 30 14zM556 107q0 39 -15 39q-13 0 -21.5 -12t-8.5 -29q4 -38 21 -38q4 0 4 1.5t3 1.5q17 0 17 37zM395 114q-3 6 -10.5 13t-10.5 7q-15 0 -18 -20q40 0 39 0z" />
    <glyph glyph-name="questiondown" unicode="&#xbf;" horiz-adv-x="423" 
d="M10 333q-1 63 0 67q3 7 24 7q11 0 30.5 -2t22.5 -2q-8 0 33 -2q22 -1 29 3q-5 42 -5 93q0 136 27 157q51 -15 51 -95q0 -17 -3 -56t-3 -59q0 -25 3 -44q4 -11 10 -37q1 -5 1 -32q0 -14 -8 -14q-5 0 -23.5 11t-27.5 11q-6 -1 -35 -1h-67v-36q1 -83 11 -137q9 -34 24 -92
q14 0 112 4q77 3 107 3l12 173q-8 10 -35 3l-8 -147l-59 5q-6 187 11 182q-2 1 76 1q68 0 73 -12q12 -27 12 -138q0 -123 -13 -140q-5 -6 -20 -6q-17 0 -40 6q-44 -1 -151 3q-127 4 -136 12q-22 20 -29 121q-3 40 -6 190zM136 759q0 21 15 24q25 6 66 -5q21 -5 9 -47
q-5 -17 -35 -34q-12 4 -21 8q-22 11 -28 25.5t-6 28.5z" />
    <glyph glyph-name="endash" unicode="&#x2013;" horiz-adv-x="443" 
d="M131 384h246q1 0 10 2t14 2q22 0 22 -33q0 -29 -14 -29q-5 0 -13.5 3.5t-10.5 3.5h-196q-113 0 -128 -2q-3 0 -13.5 2.5t-15.5 2.5t-5 7q0 12 7.5 27.5t16.5 15.5q24 1 51 0q32 -2 29 -2z" />
    <glyph glyph-name="emdash" unicode="&#x2014;" horiz-adv-x="722" 
d="M204 384h416q3 0 17.5 2t24.5 2q37 0 37 -34q0 -30 -25 -30q-7 0 -21.5 3.5t-18.5 3.5h-332q-192 0 -217 -2q-6 0 -23.5 2.5t-26 2.5t-8.5 8q0 12 13 27.5t28 16.5q40 1 87 -1q54 -1 49 -1z" />
    <glyph glyph-name="afii00208" unicode="&#x2015;" horiz-adv-x="443" 
d="M131 384h246q1 0 10 2t14 2q22 0 22 -33q0 -29 -14 -29q-5 0 -13.5 3.5t-10.5 3.5h-196q-113 0 -128 -2q-3 0 -13.5 2.5t-15.5 2.5t-5 7q0 12 7.5 27.5t16.5 15.5q24 1 51 0q32 -2 29 -2z" />
    <glyph glyph-name="quoteleft" unicode="&#x2018;" horiz-adv-x="250" 
d="M39 501q1 29 11 108q5 28 44 28q77 0 65 -1q0 8 -2 34t-1 42q0 24 5 44q2 9 19 9q35 0 37 -17q10 -80 -2 -147q-5 -28 -48 -28q-8 0 -18 3t-17 3q-25 0 -28.5 -2t-6.5 -19q-2 -7 -2 -11q0 -21 43 -21q17 0 22.5 19.5t15.5 19.5q1 0 25 3q14 2 18 -3q9 -9 5 -63
q-31 -31 -83 -34q-59 -4 -102 33z" />
    <glyph glyph-name="quoteright" unicode="&#x2019;" horiz-adv-x="250" 
d="M224 731q-1 -28 -11 -108q-5 -28 -43 -28q-78 0 -65 1q0 -8 1.5 -33.5t1.5 -41.5q-1 -24 -6 -45q-2 -8 -19 -8q-35 0 -37 16q-10 80 2 148q5 27 48 27q8 0 18 -3t17 -3q26 0 29 2t7 20q1 6 1 11q0 21 -43 21q-17 0 -22.5 -20t-15.5 -20q-1 0 -25 -3q-14 -2 -18 3
q-9 10 -5 64q31 30 83 34q60 3 102 -34z" />
    <glyph glyph-name="quotedblleft" unicode="&#x201c;" horiz-adv-x="475" 
d="M39 501q1 29 11 108q5 28 44 28q77 0 65 -1q0 8 -2 34t-1 42q0 24 5 44q2 9 19 9q35 0 37 -17q10 -80 -2 -147q-5 -28 -48 -28q-8 0 -18 3t-17 3q-25 0 -28.5 -2t-6.5 -19q-2 -7 -2 -11q0 -21 43 -21q17 0 22.5 19.5t15.5 19.5q1 0 25 3q14 2 18 -3q9 -9 5 -63
q-31 -31 -83 -34q-59 -4 -102 33zM261 498q1 29 11 108q5 28 44 28q77 0 65 -1q0 8 -2 34t-1 42q0 24 5 44q2 9 19 9q35 0 37 -17q10 -80 -2 -147q-5 -28 -48 -28q-8 0 -18 3t-17 3q-25 0 -28.5 -2t-6.5 -19q-2 -7 -2 -11q0 -21 43 -21q17 0 22.5 19.5t15.5 19.5q1 0 25 3
q14 2 18 -3q9 -9 5 -63q-31 -31 -83 -34q-59 -4 -102 33z" />
    <glyph glyph-name="quotedblright" unicode="&#x201d;" horiz-adv-x="471" 
d="M224 731q-1 -28 -11 -108q-5 -28 -43 -28q-78 0 -65 1q0 -8 1.5 -33.5t1.5 -41.5q-1 -24 -6 -45q-2 -8 -19 -8q-35 0 -37 16q-10 80 2 148q5 27 48 27q8 0 18 -3t17 -3q26 0 29 2t7 20q1 6 1 11q0 21 -43 21q-17 0 -22.5 -20t-15.5 -20q-1 0 -25 -3q-14 -2 -18 3
q-9 10 -5 64q31 30 83 34q60 3 102 -34zM449 740q-1 -28 -11 -108q-5 -28 -43 -28q-78 0 -65 1q0 -8 1.5 -33.5t1.5 -41.5q-1 -24 -6 -45q-2 -8 -19 -8q-35 0 -37 16q-10 80 2 148q5 27 48 27q8 0 18 -3t17 -3q26 0 29 2t7 20q1 6 1 11q0 21 -43 21q-17 0 -22.5 -20
t-15.5 -20q-1 0 -25 -3q-14 -2 -18 3q-9 10 -5 64q31 30 83 34q60 3 102 -34z" />
    <glyph glyph-name="ellipsis" unicode="&#x2026;" horiz-adv-x="406" 
d="M360 87q5 -42 -30 -49q-18 -3 -30.5 14t-11.5 37q4 36 29 39q17 3 29 -10t14 -31zM238 81q5 -42 -30 -49q-18 -3 -30.5 14t-11.5 37q3 27 41 33q27 4 31 -35zM117 79q5 -42 -30 -49q-18 -3 -30.5 14t-11.5 37q4 36 29 39q17 3 29 -10t14 -31z" />
  </font>
</defs>
</svg>
