<?xml version="1.0" standalone="no"?>
<!DOCTYPE svg PUBLIC "-//W3C//DTD SVG 1.1//EN" "http://www.w3.org/Graphics/SVG/1.1/DTD/svg11.dtd" >
<svg xmlns="http://www.w3.org/2000/svg" xmlns:xlink="http://www.w3.org/1999/xlink" version="1.1">
<metadata>
Created by FontForge 20230101 at Sat Apr 10 14:52:13 1999
 By Glenn Lewis
http://members.aol.com/vroomfonde/ttf/ - CODON Copyright (C) 1999 Tom Murphy 7 - Use freely; don't sell the font! A [ divide by zero ] font. ImightbeTM@aol.co / 339 Still Hill Rd. / Hamden CT 06518.1830 / USA / You belittle every little voice that told y
</metadata>
<defs>
<font id="CODON" horiz-adv-x="426" >
  <font-face 
    font-family="CODON"
    font-weight="400"
    font-stretch="normal"
    units-per-em="1000"
    panose-1="0 0 4 0 0 0 0 0 0 0"
    ascent="800"
    descent="-200"
    x-height="770"
    cap-height="767"
    bbox="0.5 -115 808 800"
    underline-thickness="20"
    underline-position="-143"
    unicode-range="U+0020-2026"
  />
<missing-glyph horiz-adv-x="500" 
d="M63 0v800h375v-800h-375zM125 63h250v675h-250v-675z" />
    <glyph glyph-name=".notdef" horiz-adv-x="500" 
d="M63 0v800h375v-800h-375zM125 63h250v675h-250v-675z" />
    <glyph glyph-name=".null" horiz-adv-x="0" 
 />
    <glyph glyph-name="nonmarkingreturn" horiz-adv-x="572" 
 />
    <glyph glyph-name="space" unicode=" " horiz-adv-x="572" 
 />
    <glyph glyph-name="exclam" unicode="!" horiz-adv-x="236" 
d="M192 440q0 -87 -1.5 -111t-2 -47.5t-11.5 -39.5q-25 -36 -65 -37q-30 0 -46 9t-27 37q-7 18 -8 49q0 27 -1 53l-1 23q-5 65 -5 139q-1 26 -2 53q-1 28 3 53q4 47 7 95q9 50 64 50q18 0 45 -13q33 -15 35 -33q4 -35 8.5 -70t4.5 -104l-2 -59q0 -3 2.5 -23.5t2.5 -23.5z
M207 87q-7 -63 -64 -63q-86 0 -88 49q-1 50 19 69q18 16 66 16q34 0 52 -19t15 -52zM154 671q0 12 -3 39q-1 11 -10 15q-28 14 -45 14q-31 0 -34 -87q-1 -43 50 -43q31 0 39 16q5 11 3 46zM158 287q0 42 -8 54.5t-46 12.5q-36 0 -36 -41q0 -75 60 -75q20 0 26 16q3 8 4 33z
M165 83q2 24 -1.5 32t-24.5 8q-35 0 -39 -2q-12 -7 -10 -41q0 -21 15 -26q7 -3 31 -3q16 0 21 4t8 28z" />
    <glyph glyph-name="quotedbl" unicode="&#x22;" horiz-adv-x="435" 
d="M214 640q-19 -187 -43 -186q-46 1 -46 21q0 7 8.5 27t8.5 32q0 20 -31.5 53t-31.5 44q-2 50 19 69q18 16 66 16q58 0 50 -76zM188 641q2 24 0 31q-5 9 -26 9q-34 0 -39 -2q-11 -7 -10 -41q1 -21 15 -26q7 -3 31 -3q17 0 21.5 4t7.5 28zM404 646q-19 -187 -43 -186
q-46 1 -46 21q0 7 8.5 27t8.5 32q0 20 -31.5 53t-31.5 44q-2 50 19 69q18 16 66 16q58 0 50 -76zM378 647q2 24 0 31q-5 9 -26 9q-34 0 -39 -2q-11 -7 -10 -41q1 -21 15 -26q7 -3 31 -3q17 0 21.5 4t7.5 28z" />
    <glyph glyph-name="numbersign" unicode="#" horiz-adv-x="815" 
d="M719 264q0 -21 -14 -47q-15 -31 -32 -33q-10 -2 -80 -8q0 -8 -2 -36q-1 -22 -1 -36q0 -39 -22 -63t-61 -24q-40 0 -58 25q-13 19 -16 59q-1 32 -2 65q-37 4 -142 0q-2 -50 -2 -58q0 -39 -22 -63t-61 -24q-40 0 -58 24q-13 19 -16 58q-1 32 -2 65q-19 -1 -29 1
q-65 15 -65 76q0 75 86 80l-6 138q-38 0 -64 20.5t-26 57.5q0 79 98 80q1 79 5 95q12 57 60 57q20 0 48.5 -14t31 -31.5t9.5 -99.5q121 5 150 6q0 64 6 86q13 49 58 49q20 0 48.5 -14t31 -31.5t10.5 -99.5q60 -1 82 -7q47 -13 47 -58q0 -20 -13 -47q-15 -30 -33 -32
q-8 -2 -75 -8v-144q62 -1 84 -7q47 -13 47 -57zM673 544q0 36 -6.5 42.5t-49.5 6.5q-31 0 -31 -64q0 -24 9 -28q3 -1 34 -1q35 0 41 18q3 9 3 26zM251 671q0 39 -10 48t-48 9q-44 0 -44 -40q0 -37 9 -53q11 -23 43 -23q22 0 36 19t14 40zM422 338q-2 41 -5 124q-34 4 -132 1
v-131q35 2 137 6zM561 112q0 46 -1 49q-5 10 -42 10q-49 0 -49 -33q0 -7 -1 -21.5t-1 -20.5q0 -42 36 -43q60 -2 60 32q0 5 -1 14t-1 13zM158 239q2 38 -2 49.5t-19 11.5q-4 0 -19.5 -1.5t-27.5 -1.5q-18 0 -22 -25v-40q0 -23 16 -27q4 -1 40 -1q26 0 29.5 4t4.5 31z" />
    <glyph glyph-name="dollar" unicode="$" horiz-adv-x="504" 
d="M451 223q0 -67 -18 -95q-24 -37 -88 -37h-38q2 -42 -10 -59q-13 -21 -51 -27q-16 -2 -45 12q-33 16 -35 34q-4 43 4 45h-20q-12 0 -37 -3t-37 -3q-55 0 -55 49q0 64 29 91q9 8 24 8q6 0 19 -2t20 -2q19 0 59.5 -7.5t59.5 -7.5q65 0 28 -1q21 1 39 11q11 7 11 31
q0 14 -8 36q-10 30 -144 30q-49 0 -74 12q-15 7 -33.5 34.5t-19.5 44.5q-2 10 0 27q2 21 2 27q0 27 -4 40.5t-4 40.5q0 127 112 142q5 40 10 81q9 21 61 21q18 0 45 -12q33 -15 34 -34q1 -2 5 -61q44 -2 70 -1q35 0 59 -21t24 -58q0 -74 -106 -74q-12 0 -54 8.5t-66 8.5
q-27 0 -34.5 -8t-7.5 -33t3 -32q3 -10 21 -23q6 -5 31 -7q34 -3 46 -5l90 -12q46 -10 64 -45q22 -44 22 -85q0 -9 -1.5 -34.5t-1.5 -44.5zM417 614q0 20 -21 32q-17 11 -38 11q-28 0 -37 -24q-6 -13 -6 -47q0 -22 55 -22q47 0 47 50zM139 156q0 20 -15 33.5t-35 13.5
q-14 0 -25.5 -16t-11.5 -30t8.5 -26.5t22.5 -12.5q56 0 56 38z" />
    <glyph glyph-name="percent" unicode="%" horiz-adv-x="512" 
d="M191 583q-4 -37 -14.5 -47.5t-33.5 -10.5q-86 0 -88 50q-1 50 18 67t67 17q59 0 51 -76zM493 645q-40 -83 -53 -110q-37 -75 -75 -137l-91 -162q-8 -19 -19 -43q-17 -30 -60 -94q-12 -20 -25 -39.5t-31.5 -28t-36.5 -8.5q-19 0 -37 11q-41 23 -41 58q0 8 2 18q3 20 18 47
q13 22 27 45q31 51 101 167q19 34 54 110q30 63 57 104q30 50 60 99q37 54 72 54q16 0 33 -10q12 -8 28 -29q19 -24 19 -42q0 -5 -2 -10zM465 154q-4 -37 -14.5 -47.5t-33.5 -10.5q-86 0 -88 49q-2 50 19 69q18 16 66 16q59 0 51 -76zM466 650q5 10 0 18q-17 25 -32 34
q-4 3 -9 3q-27 0 -65 -60q-9 -14 -9 -25q0 -19 30 -37q18 -10 28 -10q17 0 40 42q6 10 17 35zM164 585q3 24 0 30q-4 10 -25 10q-35 0 -39 -3q-12 -6 -10 -40q0 -21 15 -26q7 -3 31 -3q16 0 19 2q7 5 9 30zM438 155q3 25 0 31q-4 9 -26 9q-34 0 -38 -2q-12 -7 -11 -41
q1 -20 15 -26q7 -3 32 -3q16 0 19 3q7 5 9 29zM167 130q0 16 -32 35q-13 8 -22 8q-15 0 -30 -24q-17 -29 -17 -50q0 -28 29 -46q10 -6 17 -6q14 0 34.5 34t20.5 49z" />
    <glyph glyph-name="ampersand" unicode="&#x26;" horiz-adv-x="564" 
d="M539 416q-4 -37 -14.5 -47.5t-33.5 -10.5q-67 -1 -125 -1v-136q1 -31 -19.5 -42.5t-56.5 -8.5q-37 4 -49 16q-8 9 -9 32q-1 75 -1 139q-40 0 -119 3q-41 4 -56 9q-31 11 -32 41q-2 52 21 70q19 15 64 14q48 -1 122 -1q1 35 4 104q3 42 8 56q11 31 41 32q52 2 71 -21
q14 -18 14 -64q-1 -43 -2 -108h121q31 0 42.5 -20t8.5 -56zM334 602q-2 32 -3 35q-7 15 -40 14q-20 -1 -26 -15q-2 -7 -3 -31q0 -24 2 -28q6 -19 36 -21q26 -2 33 15q3 9 1 31zM512 417q4 40 -26 40q-33 1 -42 -1q-27 -8 -27 -37q0 -38 33 -38q6 0 18.5 2t14.5 2q19 2 23 6
t6 26zM332 223q1 33 -2 42q-7 27 -37 27q-37 0 -37 -32q0 -7 2 -18q2 -14 2 -16q1 -19 5.5 -23t25.5 -6q40 -4 41 26zM153 425q2 26 -15 33q-9 3 -31 2q-32 -2 -34 -3q-16 -7 -15 -40q1 -21 15 -26q7 -3 31 -3q24 -1 29 1q18 7 20 36z" />
    <glyph glyph-name="quotesingle" unicode="'" horiz-adv-x="289" 
d="M214 640q-19 -187 -43 -186q-46 1 -46 21q0 7 8.5 27t8.5 32q0 20 -31.5 53t-31.5 44q-2 50 19 69q18 16 66 16q58 0 50 -76zM188 641q2 24 0 31q-5 9 -26 9q-34 0 -39 -2q-11 -7 -10 -41q1 -21 15 -26q7 -3 31 -3q17 0 21.5 4t7.5 28z" />
    <glyph glyph-name="parenleft" unicode="(" 
d="M389 726q2 -7 -1 -28q-3 -24 -9 -35q-13 -22 -51 -30q-3 -1 -28 -3.5t-29 -3.5q-39 -8 -55 -26q-21 -21 -22 -66l-3 -163q0 -40 10 -84q12 -49 29 -69q7 -8 47 -17q46 -11 65 -22q34 -19 34 -53q0 -39 -21 -70q-24 -35 -60 -39q-14 -1 -29 -1q-49 0 -120 15
q-14 2 -26 10.5t-23.5 16.5t-25 31.5t-15.5 40.5q-2 12 -6 30q-3 13 -3 17l2 427q0 60 8 88q16 58 64 70q3 1 89 8l86 8q7 2 16 2q66 0 77 -54zM359 709q-3 15 -6 21q-6 15 -16 18q-15 5 -39 5q-63 0 -68.5 -12t-5.5 -41q0 -49 19 -51q62 -5 107 27q14 9 9 33zM330 105
q3 10 3 17q0 37 -77 49q-24 4 -41 -101q-2 -16 46 -23q11 -1 17 -1q34 0 52 59z" />
    <glyph glyph-name="parenright" unicode=")" 
d="M389 618l-2 -427q0 -59 -8 -88q-15 -57 -64 -70q-5 -1 -88 -8l-86 -8q-8 -1 -17 -1q-66 0 -77 53q-2 7 1 28q3 25 9 35q13 23 51 31q4 1 28.5 3.5t28.5 2.5q39 9 56 26q20 22 21 67l3 163q0 43 -9 92q-10 58 -26 78q-8 8 -48 13q-49 6 -67 14q-34 14 -34 48q0 38 22 71.5
t59 36.5q13 1 28 1q49 0 121 -14q14 -3 26 -11.5t23 -16.5t24.5 -31t15.5 -40q2 -13 5.5 -28.5t3.5 -19.5zM221 725q2 16 -46 23q-11 1 -17 1q-34 0 -52 -59q-3 -8 -3 -14q0 -26 39 -32q27 -2 53 -3q18 -3 23 36q1 24 3 48zM213 96q0 48 -19 50q-63 5 -107 -26
q-15 -10 -10 -34q4 -15 6 -21q6 -14 17 -18q15 -4 38 -4q63 0 69 11.5t6 41.5z" />
    <glyph glyph-name="asterisk" unicode="*" horiz-adv-x="418" 
d="M374 671q3 -6 -51 -29t-55 -33q-1 -8 27 -61.5t28 -71.5q0 -7 -4 -10q-6 -6 -59 40t-60 46q-10 0 -47 -38t-48 -38q-7 0 -7 13q0 17 8.5 65.5t8.5 54.5q0 12 -47.5 28.5t-45.5 21.5q10 24 116 32q7 1 28 48t27 47q5 0 22.5 -46t20.5 -46q31 0 75 -6q58 -7 63 -17z
M224 619q3 24 0 30q-4 10 -26 10q-34 0 -38 -2q-12 -7 -11 -41q1 -21 15 -26q7 -3 31 -3q17 0 20 2q7 5 9 30z" />
    <glyph glyph-name="plus" unicode="+" horiz-adv-x="564" 
d="M539 416q-4 -37 -14.5 -47.5t-33.5 -10.5q-67 -1 -125 -1v-136q1 -31 -19.5 -42.5t-56.5 -8.5q-37 4 -49 16q-8 9 -9 32q-1 75 -1 139q-40 0 -119 3q-41 4 -56 9q-31 11 -32 41q-2 52 21 70q19 15 64 14q48 -1 122 -1q1 35 4 104q3 42 8 56q11 31 41 32q52 2 71 -21
q14 -18 14 -64q-1 -43 -2 -108h121q31 0 42.5 -20t8.5 -56zM334 602q-2 32 -3 35q-7 15 -40 14q-20 -1 -26 -15q-2 -7 -3 -31q0 -24 2 -28q6 -19 36 -21q26 -2 33 15q3 9 1 31zM512 417q4 40 -26 40q-33 1 -42 -1q-27 -8 -27 -37q0 -38 33 -38q6 0 18.5 2t14.5 2q19 2 23 6
t6 26zM332 223q1 33 -2 42q-7 27 -37 27q-37 0 -37 -32q0 -7 2 -18q2 -14 2 -16q1 -19 5.5 -23t25.5 -6q40 -4 41 26zM153 425q2 26 -15 33q-9 3 -31 2q-32 -2 -34 -3q-16 -7 -15 -40q1 -21 15 -26q7 -3 31 -3q24 -1 29 1q18 7 20 36z" />
    <glyph glyph-name="comma" unicode="," horiz-adv-x="289" 
d="M249 72q-19 -187 -44 -187q-45 2 -45 21q0 7 8.5 27.5t8.5 32.5q0 20 -31.5 53t-31.5 44q-2 50 19 68q18 17 65 17q59 0 51 -76zM223 73q2 24 -1 30q-4 10 -25 10q-34 0 -39 -2q-11 -7 -10 -41q0 -21 15 -26q7 -3 31 -3q17 0 21.5 3.5t7.5 28.5z" />
    <glyph glyph-name="hyphen" unicode="-" horiz-adv-x="443" 
d="M414 387q-3 -37 -13.5 -47.5t-33.5 -10.5q-19 0 -131 -5q-72 -2 -113.5 1t-56.5 8q-31 11 -32 41q-2 53 22 71q18 15 62.5 14t115.5 1q98 3 130 3q31 0 42.5 -20t7.5 -56zM388 388q4 40 -26 41q-33 0 -42 -2q-27 -7 -27 -37q0 -38 32 -38q7 0 19 2t15 2q19 2 23 6t6 26z
M163 390q2 26 -15 33q-8 3 -31 2q-32 -3 -34 -4q-16 -7 -15 -40q1 -20 15 -26q7 -2 32 -3q23 0 28 2q18 6 20 36z" />
    <glyph glyph-name="hyphen" unicode="&#x2010;" horiz-adv-x="443" 
d="M414 387q-3 -37 -13.5 -47.5t-33.5 -10.5q-19 0 -131 -5q-72 -2 -113.5 1t-56.5 8q-31 11 -32 41q-2 53 22 71q18 15 62.5 14t115.5 1q98 3 130 3q31 0 42.5 -20t7.5 -56zM388 388q4 40 -26 41q-33 0 -42 -2q-27 -7 -27 -37q0 -38 32 -38q7 0 19 2t15 2q19 2 23 6t6 26z
M163 390q2 26 -15 33q-8 3 -31 2q-32 -3 -34 -4q-16 -7 -15 -40q1 -20 15 -26q7 -2 32 -3q23 0 28 2q18 6 20 36z" />
    <glyph glyph-name="hyphen" unicode="&#x2010;" horiz-adv-x="443" 
d="M414 387q-3 -37 -13.5 -47.5t-33.5 -10.5q-19 0 -131 -5q-72 -2 -113.5 1t-56.5 8q-31 11 -32 41q-2 53 22 71q18 15 62.5 14t115.5 1q98 3 130 3q31 0 42.5 -20t7.5 -56zM388 388q4 40 -26 41q-33 0 -42 -2q-27 -7 -27 -37q0 -38 32 -38q7 0 19 2t15 2q19 2 23 6t6 26z
M163 390q2 26 -15 33q-8 3 -31 2q-32 -3 -34 -4q-16 -7 -15 -40q1 -20 15 -26q7 -2 32 -3q23 0 28 2q18 6 20 36z" />
    <glyph glyph-name="period" unicode="." horiz-adv-x="347" 
d="M249 72q-4 -37 -14.5 -47.5t-32.5 -10.5q-87 0 -88 49q-2 50 19 68q18 17 65 17q59 0 51 -76zM223 73q2 24 -1 30q-4 10 -25 10q-34 0 -39 -2q-11 -7 -10 -41q0 -21 15 -26q7 -3 31 -3q17 0 21.5 3.5t7.5 28.5z" />
    <glyph glyph-name="slash" unicode="/" horiz-adv-x="512" 
d="M493 645q-40 -83 -53 -110q-37 -75 -75 -137l-91 -162q-8 -19 -19 -43q-17 -30 -60 -94q-12 -20 -25 -39.5t-31.5 -28t-36.5 -8.5q-19 0 -37 11q-41 23 -41 58q0 8 2 18q3 20 18 47q13 22 27 45q31 51 101 167q19 34 54 110q30 63 57 104q30 50 60 99q37 54 72 54
q16 0 33 -10q12 -8 28 -29q19 -24 19 -42q0 -5 -2 -10zM466 650q5 10 0 18q-17 25 -32 34q-4 3 -9 3q-27 0 -65 -60q-9 -14 -9 -25q0 -19 30 -37q18 -10 28 -10q17 0 40 42q6 10 17 35zM167 130q0 16 -32 35q-13 8 -22 8q-15 0 -30 -24q-17 -29 -17 -50q0 -28 29 -46
q10 -6 17 -6q14 0 34.5 34t20.5 49z" />
    <glyph glyph-name="zero" unicode="0" horiz-adv-x="518" 
d="M490 290q0 -8 -3 -63q-5 -120 -30 -159q-28 -45 -111 -45q-3 0 -82 -3.5t-83 -3.5q-29 0 -73 14q-23 7 -42.5 30t-23.5 45q-17 101 -26 336q-3 88 -3 141q0 68 29 115q35 58 103 65q12 1 47 6q31 5 35 5q49 0 90 -13q4 -1 28 -11q29 -10 59 -21t41 -25q19 -24 30 -127
q15 -145 15 -286zM285 685q0 55 -26 55q-53 0 -49 2q-3 -3 -9 -6q-19 -10 -19 -41q0 -25 12 -58q11 -29 16 -29q4 0 19 1h19q19 0 30 29q7 22 7 47zM350 353q0 1 -2.5 43.5t-2.5 57.5q0 90 -24 106q-35 23 -104 23q-39 0 -46 -11q-10 -15 -18 -40q-5 -19 -5 -38
q0 -11 2.5 -33t2.5 -35q4 -99 4 -106q4 -55 16 -84q8 -20 61 -20h60q41 0 52 52q4 18 4 85zM306 115q2 15 2 25q0 45 -44 45q-39 0 -48 -15.5t-7 -73.5q2 -31 17 -40q10 -5 41 -5q24 0 32 21q3 8 7 43zM295 389q-4 -35 -7 -43q-8 -21 -32 -21q-31 0 -41 5q-16 9 -17 40
q-2 58 7 73.5t48 15.5q43 0 43 -45q0 -10 -1 -25z" />
    <glyph glyph-name="one" unicode="1" horiz-adv-x="345" 
d="M317 262q0 -87 -1.5 -111t-1.5 -46q-1 -25 -12 -41q-25 -36 -65 -36q-30 -1 -46 8.5t-27 36.5q-7 18 -8 49q0 27 -1 53q-7 97 -9 196q2 62 0 202q-1 24 -32 27q-47 6 -57 11q-30 17 -30 74q0 21 4 29q6 13 27 23q32 14 152 14q30 0 57 -11q32 -14 38 -39q0 -4 5 -144
q2 -63 2 -101v-147q0 -3 2.5 -23.5t2.5 -23.5zM160 696q0 22 -33 22q-38 0 -50 -4.5t-18 -23.5q-7 -26 10 -44q6 -6 18 -8q8 -1 20 0q14 2 13 2q40 0 40 56zM283 110q0 41 -7 52q-9 15 -47 15q-36 0 -36 -41q0 -76 60 -76q20 0 26 16q3 8 4 34z" />
    <glyph glyph-name="two" unicode="2" horiz-adv-x="549" 
d="M528 79q0 -12 -6 -36q-6 -29 -15 -31q-22 -7 -63 -7q3 0 -71 2t-103 2q-16 0 -54.5 -2t-40.5 -2q-145 0 -144 83q0 27 1 88q3 81 17 143q10 46 54 54l74 4q55 4 162 15h22q13 2 18 14q9 21 9 58v120q0 28 -38 28q-6 0 -15.5 -1t-12.5 -1t-125.5 -1t-125.5 -1
q-59 0 -59 58q0 62 25 81t107 17q26 0 74 3q52 3 74 3q37 0 47 -2q16 -2 34 -2q14 0 37.5 2t32.5 2q41 0 65 -29q20 -24 20 -58q0 -11 -3 -42q-3 -27 -2 -45q2 -42 2 -88q0 -30 -3 -97l-2 -82q-3 -46 -21 -67q-23 -28 -77 -28q9 0 -37 1q-42 1 -75 1q-47 -1 -73 -6
q-22 -3 -22 -38q0 -21 3 -26q5 -14 30 -16q47 -3 59 -1q10 2 20 1q15 -2 49 -5t94 0q12 0 45 -24q13 -9 13 -42zM151 679q0 38 -8 49q-11 13 -45 11q-35 -2 -49 -36q-9 -20 -9 -42q0 -25 40 -25q39 0 48 3q23 8 23 40zM500 81q0 12 -18 24t-34 12q-29 0 -40 -9
q-14 -10 -14 -40t31 -30h35q27 0 33.5 7.5t6.5 35.5z" />
    <glyph glyph-name="three" unicode="3" horiz-adv-x="583" 
d="M555 192q0 -90 -25 -122q-37 -48 -156 -42q-102 2 -210 5q-2 0 -29.5 -2.5t-30.5 -2.5q-50 3 -65 29q-11 18 -8 64q3 54 24 70q17 14 71 15q69 -2 198 2q26 2 53 3q30 6 30 38q0 14 -5 40q-6 31 -12.5 34t-52.5 10q-30 5 -37.5 22.5t-7.5 68.5q0 34 9 39q14 8 44 10.5
t43 12t13 40.5q0 39 -13 52q-10 10 -25 12q-11 2 -59 4q-3 0 -94.5 -4t-95.5 -4q-25 1 -53 11q-35 13 -35 30q5 132 101 129q71 -2 242 -2q43 0 112 -12q7 -1 25 -12q15 -8 25 -49q7 -32 7 -55v-88q0 -1 4 -33t4 -46q0 -87 5 -178q4 -62 4 -89zM174 693q0 7 -14.5 22
t-24.5 16q-44 1 -62.5 -19.5t-20.5 -67.5q-1 -30 51 -32q44 -2 56.5 10.5t14.5 70.5zM173 119q2 44 -10 55q-8 8 -48 10q-6 0 -24.5 -5t-24.5 -11q-11 -8 -13 -47q-1 -29 3 -42q7 -24 37 -25q76 -4 80 65z" />
    <glyph glyph-name="four" unicode="4" horiz-adv-x="527" 
d="M494 159q-1 -37 -2.5 -75t-17.5 -41q-8 -2 -73 -2q-4 0 -10 -2.5t-9 -2.5q-15 0 -30 10t-18 23q-8 34 -8 93q0 26 2 72t2 63q0 41 -7 51q-5 7 -23 7q-3 0 -53 -4q-38 -4 -61 1l-100 6q-52 7 -56 63q-12 182 -12 278q0 76 49 76q5 0 24 1.5t30 1.5q46 0 54 -23
q5 -16 5 -58q0 -10 -2 -27q-2 -21 -3 -30q-2 -44 -1 -120q0 -47 60 -47q89 0 93 23.5t5 53.5q0 19 -1 53q-1 39 -1 55q0 69 16 86.5t85 17.5q22 0 41 -24q13 -16 17 -124q0 -8 3 -202v-91l-1 -108q0 -6 2 -27q2 -17 1 -27zM463 685q0 22 -15.5 36t-37.5 14q-35 0 -47 -29
q-7 -18 -7 -58q0 -14 23 -22q19 -7 40 -7q31 0 38 15q6 10 6 51zM145 727q-3 24 -49 24q-37 0 -46 -15q-7 -11 -7 -50q0 -46 55 -46q22 0 33 7q19 11 19 37q0 5 -5 43zM455 134q0 34 -7 42q-8 12 -40 12q-40 0 -48 -12q-5 -8 -4 -50q1 -61 47 -63q24 -1 39 24q14 21 13 47z
" />
    <glyph glyph-name="five" unicode="5" horiz-adv-x="504" 
d="M459 154q0 -67 -19 -100q-25 -41 -89 -41q-32 0 -96 3t-96 3q-13 0 -37.5 -3t-36.5 -3q-55 0 -55 49q0 64 29 90q9 9 24 9q6 0 19 -2t20 -2q19 0 58.5 -3t59.5 -3q44 0 62.5 16.5t18.5 54.5q0 14 -2.5 32l-2.5 18q0 67 -32 102t-127 35q-48 0 -73 11q-15 7 -33.5 35
t-20.5 45q-1 5 -5 28q-3 19 -3 29v38q-1 11 -1 38q0 76 37 110t114 34q21 0 30.5 -1.5t29.5 -1.5q-4 0 47 -3t79 -2q36 0 60 -21t24 -58q0 -74 -106 -74q-12 0 -54 8.5t-66 8.5q-27 0 -34 -9t-7 -35q0 -23 3.5 -29.5t22.5 -20.5q5 -5 31 -6q31 -2 45 -7q36 -9 72 -19t56 -28
q25 -23 33 -67q21 -114 21 -258zM413 695q0 20 -19 31t-40 11q-28 0 -37 -23q-5 -14 -5 -47q0 -23 55 -23q46 0 46 51zM148 79q0 20 -15 33t-35 13q-14 0 -25.5 -15.5t-11.5 -29.5t8.5 -26.5t22.5 -12.5q56 0 56 38z" />
    <glyph glyph-name="six" unicode="6" horiz-adv-x="498" 
d="M472 154q0 -112 -33 -127q-4 -1 -94 -9q-123 -10 -156 -9q-69 4 -76 5q-40 5 -54 17q-25 20 -31 152q-1 29 -1 172q0 22 -3.5 63.5t-4.5 66.5v91q0 142 -1 90q2 61 17 75.5t79 17.5h90q2 0 31.5 1.5t50.5 1.5q31 -1 54 -5l38 -4t29 -14q14 -16 14 -50q0 -6 1 -28
q1 -14 -1 -21q-3 -10 -11.5 -18.5t-49.5 -8.5q-20 0 -59.5 2t-50.5 2q-40 0 -50 -9t-10 -46q0 -31 5 -98q7 -81 15 -85t24 -5q12 -1 30 0q23 1 26 1q20 0 54 1h54q51 0 67 -91q7 -40 7 -131zM390 676q1 28 -9.5 39.5t-43.5 13.5q-32 3 -45 -6.5t-13 -33.5q0 -36 16 -44
q11 -5 32 -2q10 -5 28 -6q22 -1 28.5 7t6.5 32zM290 194q0 69 -43 72q-30 2 -39 -12t-7 -54q3 -60 19 -60q2 0 8.5 1t10.5 1q24 0 29 2q22 10 22 50zM329 644q10 0 -2 -1q-2 0 -2 1l1 0.5t3 -0.5z" />
    <glyph glyph-name="seven" unicode="7" horiz-adv-x="534" 
d="M491 131q0 -80 -13 -96q-10 -12 -57 -12q-62 0 -73 12q-14 16 -16 53q1 -12 1 71v176q0 -8 -2.5 31t-2.5 104q0 73 -6 91q-13 45 -67 49q-41 3 -65 0q-30 -4 -44 -4q-10 0 -28.5 -2.5t-26.5 -2.5q-17 0 -28 9q-7 5 -15 27q-6 18 -6 23q0 29 13 59q18 38 48 49q14 5 32 4
l32 -3q20 0 59 -1l36 -1h124q70 0 90 -50q10 -25 11 -115q0 -2 -1 -50t-1 -292v-84q0 -2 3 -21.5t3 -23.5zM177 672q0 71 -25 71q-3 0 -24.5 -5t-24.5 -5q-32 0 -32 -74q0 -22 20 -25h51q35 0 35 38zM464 127q0 32 -20 43q-14 7 -50 7q-28 0 -31 -7q-6 -15 -6 -64
q0 -27 7.5 -38t26.5 -18q6 -2 39 -2q18 0 27 31q7 23 7 48z" />
    <glyph glyph-name="eight" unicode="8" horiz-adv-x="509" 
d="M471 118q0 -96 -67 -97q-17 0 -73 -6q-47 -5 -81 -3q-170 9 -190 38q-48 67 -45 152q2 85 1 205q-2 151 -1 212q0 56 18 94q22 47 63 47q255 0 323 -37q26 -13 30 -48q14 -107 14 -411q0 -24 4 -73t4 -73zM285 719q-17 16 -49 16q-21 0 -29 -8q-19 -19 -19 -40
q0 -12 10 -17q30 -15 82 -9q7 1 8 27t-3 31zM334 457q0 139 -16 169q-7 12 -68 12q-59 0 -72 -7q-21 -11 -21 -166q0 -40 6 -53q9 -21 43 -25q7 -1 30 -5q20 -4 31 -4q41 0 56 21q11 17 11 58zM339 198q0 48 -14 68q-9 13 -25.5 14.5t-32.5 2.5q-5 1 -56 1q-36 0 -47 -23
q-6 -14 -6 -53v-37q3 -23 18 -34q11 -7 53 -7q11 0 32.5 -1.5t31.5 -1.5q46 0 46 71zM298 91q-4 6 -23.5 13.5t-36.5 7.5q-24 0 -31 -16q-9 -21 3 -43q9 -18 39 -18q24 0 47 9q11 4 11 21q0 15 -9 26z" />
    <glyph glyph-name="nine" unicode="9" horiz-adv-x="498" 
d="M471 209q0 -142 1 -90q-1 -61 -16.5 -75.5t-79.5 -17.5h-89q-3 0 -32 -1.5t-51 -1.5q-30 1 -54 5q-18 2 -37 4t-30 14q-13 16 -13 50q0 6 -2 28q-1 14 1.5 22.5t12.5 18.5q7 7 48 7q20 0 59.5 -2t50.5 -2q40 0 50.5 9t10.5 46q0 31 -6 97q-7 82 -15 86t-24 5
q-11 0 -30 -1q-22 -1 -26 -1h-54q-34 -1 -54 -1q-51 0 -66 92q-7 40 -7 131q0 112 32 127q4 1 94 9q126 10 156 8l76 -4q40 -5 54 -17q25 -20 31 -152q1 -29 1 -172q0 -22 4 -62q3 -44 4 -68v-91zM289 585q-3 60 -19 60q-2 0 -8.5 -1t-10.5 -1q-24 0 -29 -2q-22 -10 -22 -50
q0 -69 43 -72q30 -2 39 12t7 54zM211 96q0 32 -14 42q-7 5 -17 4l-19 -2q-7 1 -20 4.5t-19 3.5q-9 0 -15.5 -7.5t-6.5 -31.5q0 -28 10 -39.5t43 -13.5q26 -2 34 1q24 8 24 39z" />
    <glyph glyph-name="colon" unicode=":" horiz-adv-x="295" 
d="M246 429q-4 -37 -14.5 -47.5t-32.5 -10.5q-87 0 -88 50q-2 50 19 68q18 16 66 16q58 0 50 -76zM249 72q-4 -37 -14.5 -47.5t-32.5 -10.5q-87 0 -88 49q-2 50 19 68q18 17 65 17q59 0 51 -76zM220 430q2 25 0 31q-5 10 -26 10q-34 0 -39 -3q-11 -6 -10 -41q1 -20 15 -26
q7 -2 31 -2q17 0 21.5 3.5t7.5 27.5zM223 73q2 24 -1 30q-4 10 -25 10q-34 0 -39 -2q-11 -7 -10 -41q0 -21 15 -26q7 -3 31 -3q17 0 21.5 3.5t7.5 28.5z" />
    <glyph glyph-name="semicolon" unicode=";" horiz-adv-x="289" 
d="M249 72q-19 -187 -44 -187q-45 2 -45 21q0 7 8.5 27.5t8.5 32.5q0 20 -31.5 53t-31.5 44q-2 50 19 68q18 17 65 17q59 0 51 -76zM223 73q2 24 -1 30q-4 10 -25 10q-34 0 -39 -2q-11 -7 -10 -41q0 -21 15 -26q7 -3 31 -3q17 0 21.5 3.5t7.5 28.5zM249 375
q-4 -37 -14.5 -47.5t-32.5 -10.5q-87 0 -88 49q-2 50 19 68q18 17 65 17q59 0 51 -76zM223 376q2 24 -1 30q-4 10 -25 10q-34 0 -39 -2q-11 -7 -10 -41q0 -21 15 -26q7 -3 31 -3q17 0 21.5 3.5t7.5 28.5z" />
    <glyph glyph-name="less" unicode="&#x3c;" horiz-adv-x="386" 
d="M360 81q0 -25 -47 -46q-39 -17 -59 -17q-28 0 -39 9q-15 13 -23 33q-6 14 -11 27q-24 41 -82 156q-64 127 -66 143q-2 18 55 135q32 66 65 133l30 66q35 64 63 64q5 0 23.5 -6.5t20.5 -8.5q16 -14 44 -46q4 -6 4 -30q0 -48 -61.5 -172t-61.5 -127q0 -10 49 -94
q38 -66 55 -93q41 -64 41 -126zM311 703q0 6 -16 24q-19 21 -36 24q-29 5 -51 -41q-17 -36 -17 -56q0 -14 28 -30t42 -16q18 0 35 42q15 36 15 53zM324 106q0 57 -25 73q-8 6 -19 6q-25 0 -52.5 -24t-27.5 -38q0 -24 20 -49q17 -23 29 -23q25 0 48 14q27 17 27 41z" />
    <glyph glyph-name="equal" unicode="=" horiz-adv-x="443" 
d="M417 459q-4 -37 -16 -49q-8 -9 -31 -9q-19 0 -132 -5q-71 -2 -112.5 1t-56.5 8q-31 11 -32 41q-2 53 21 71q19 15 63.5 14t115.5 1q98 3 130 3q31 0 42.5 -20t7.5 -56zM412 285q-3 -37 -13.5 -47.5t-33.5 -10.5q-19 -1 -131 -5q-72 -3 -113.5 0.5t-55.5 8.5
q-32 11 -33 41q-1 52 22 71q18 14 62.5 13.5t116.5 1.5q97 2 129 3q31 0 42.5 -20t7.5 -56zM391 460q4 40 -26 41q-33 0 -43 -2q-26 -7 -26 -37q0 -37 32 -37q7 0 19 1.5t15 2.5q19 1 23 5t6 26zM386 286q4 40 -26 40q-33 1 -42 -2q-27 -7 -27 -36q0 -38 32 -38q7 0 19.5 2
t14.5 2q19 2 23 6t6 26zM166 462q2 26 -15 33q-9 3 -31 2q-32 -3 -34 -4q-16 -7 -15 -40q1 -20 15 -26q7 -2 31 -2q24 -1 29 1q18 6 20 36zM161 288q2 26 -15 33q-8 3 -30 1q-33 -2 -35 -3q-16 -7 -14 -40q0 -21 15 -26q6 -3 31 -3q24 0 28 1q18 7 20 37z" />
    <glyph glyph-name="greater" unicode="&#x3e;" horiz-adv-x="386" 
d="M33 721q0 24 47 46q39 17 59 17q28 0 39 -9q15 -13 23 -33q6 -14 11 -28q24 -40 83 -156q63 -126 65 -142q2 -18 -54 -135q-33 -67 -66 -133l-30 -66q-35 -64 -63 -64q-5 0 -23.5 6t-20.5 9q-16 14 -44 46q-4 6 -4 29q0 48 61.5 172.5t61.5 126.5q0 10 -48 95
q-39 66 -56 93q-41 64 -41 126zM83 99q0 -7 15 -25q19 -21 37 -23q29 -4 51 42q17 35 17 55q0 13 -28.5 29.5t-42.5 16.5q-18 0 -35 -43q-14 -35 -14 -52zM69 696q0 -58 25 -74q8 -5 19 -5q25 0 54 25q26 23 26 36q0 24 -18.5 48.5t-30.5 24.5q-24 0 -48 -15
q-27 -16 -27 -40z" />
    <glyph glyph-name="question" unicode="?" horiz-adv-x="549" 
d="M522 550q0 -3 -2 -43q-5 -64 -21 -85q-18 -24 -83 -47q-15 -5 -124 7q-12 1 -14.5 -17.5t-4.5 -35.5q-5 -18 -8 -61q-2 -34 -12 -49q-24 -35 -65 -36q-29 -1 -45 8.5t-27 36.5q-7 18 -10 104q-1 15 -4 44t-3 43q0 33 14.5 54.5t48.5 26.5q38 3 75 5q23 2 99 9q11 1 23 2
t17 13q9 20 9 43l-1 40q0 28 -38 28q-6 0 -16 -1h-11q-4 0 -126.5 -1.5t-126.5 -1.5q-58 0 -58 58q0 59 25 74q22 14 108 12q10 -1 40 0.5t31.5 1.5t32.5 1.5t44 1.5q37 0 47 -1q16 -3 33 -3q14 0 38.5 2t34.5 2q40 0 63 -28q18 -23 18 -55q0 -9 -2.5 -35.5t-1.5 -42.5
q3 -52 3 -74zM249 72q-4 -37 -14.5 -47.5t-32.5 -10.5q-87 0 -88 49q-2 50 19 68q18 17 65 17q59 0 51 -76zM147 707q0 36 -8 42.5t-44 4.5q-59 -3 -59 -65q0 -25 40 -25q39 0 48 3q23 8 23 40zM234 265q1 41 -6 52q-10 15 -47 15q-36 0 -36 -41q0 -40 5 -53q9 -22 41 -22
q43 0 43 49zM223 73q2 24 -1 30q-4 10 -25 10q-34 0 -39 -2q-11 -7 -10 -41q0 -21 15 -26q7 -3 31 -3q17 0 21.5 3.5t7.5 28.5z" />
    <glyph glyph-name="at" unicode="@" horiz-adv-x="524" 
d="M497 415q0 -75 -20 -107q-18 -27 -62 -33q-14 -2 -105 -2q-62 0 -89 12q-42 19 -42 73q0 64 2 85q7 57 32 71q7 4 37 4q17 0 55 -8q44 -9 48 -18q2 -4 4.5 -33.5t8.5 -29.5q14 0 14 87q0 50 -6 65q-8 21 -36 21q-5 0 -36 -1t-59 -1q-56 0 -69 -8q-20 -12 -20 -64
q0 -126 0 -125q1 -48 2 -95q2 -50 8 -72q9 -32 175 -32q6 0 16.5 2.5t15.5 2.5q13 0 37.5 -5.5t37.5 -5.5q48 0 48 -38q0 -66 -18 -88q-21 -24 -85 -24q-11 0 -33 2.5t-33 2.5t-68 2q-71 3 -103 4q-109 3 -109 127q0 64 -6 182q-7 103 -5 177q2 86 6 112q9 58 37 77
q10 7 40 7q329 0 356 -36q10 -14 18 -139q6 -99 6 -151zM324 376q-4 63 -11 76t-43 13q-27 0 -34 -35q-3 -14 -1 -55q1 -43 53 -43q39 0 36 44zM461 166q-6 5 -16 6q-6 1 -17 0q-12 -1 -14 -1q-26 0 -34.5 -9.5t-8.5 -37.5q0 -43 34 -43q36 0 43 4l12 18q14 18 14 36
q0 17 -13 27z" />
    <glyph glyph-name="A" unicode="A" horiz-adv-x="659" 
d="M624 102q0 4 -4 -53q-1 -15 -42 -30q-35 -13 -57 -13q-34 0 -67 17q-21 10 -25 30q-4 52 -17 155q-3 21 -5 42q-6 28 -18.5 37t-70.5 9q-6 0 -30 -5q-28 -6 -32 -12q-11 -14 -24 -71q-3 -31 -12 -92q-3 -26 -5 -52q-5 -31 -27 -41q-9 -4 -29 -4q-4 0 -7 -1.5t-7 -1.5
q-42 0 -84 14q-8 2 -27.5 28.5t-19.5 38.5q0 -9 24.5 108.5t69.5 256.5l26 98q26 92 61 146q48 75 109 75q38 0 90 -15t79 -34q37 -28 51 -77q8 -38 17 -75q8 -24 29 -159q15 -78 29 -156q25 -144 25 -163zM357 461q0 52 1 33q-1 30 -12.5 44.5t-29.5 14.5
q-14 0 -26.5 -37.5t-12.5 -66.5q0 -8 1.5 -14t23.5 -6q55 0 55 32zM589 127q0 45 -30 45q-24 0 -60 -9q-46 -10 -46 -25q0 -90 63 -90h19q34 0 46 24q8 17 8 55zM186 149q-79 23 -99 23q-12 0 -21 -36q-7 -28 -7 -42q0 -19 27 -31q21 -9 43 -9h20q27 0 37 95z" />
    <glyph glyph-name="B" unicode="B" horiz-adv-x="521" 
d="M487 253q0 -58 -20 -111q-9 -25 -33 -52q-26 -31 -52 -44t-106 -23q-67 -8 -108 -8q-3 0 -24 -3t-25 -3q-16 0 -20 1q-11 2 -30 14q-23 14 -24.5 26t-4.5 41q-1 85 -3 270q-1 64 -9 192t-8 122q0 13 12.5 39t19.5 30q13 8 54 11q28 2 75 1q69 -2 61 -2q3 0 29 -5t38 -6
q79 -9 106 -73q15 -35 15 -107q0 -41 -12 -69q-20 -38 -41 -77q-5 -9 -1 -11q111 -50 111 -153zM161 663q5 18 5 35q0 15 -5 23q-8 11 -43 11q-45 0 -50 -11q-8 -18 0 -55q0 -49 28 -49q16 0 37 10q28 13 28 36zM326 561q0 30 -38 47q-27 12 -55 12q-40 0 -44 -13
q-14 -45 -14 -100q0 -70 14 -79t73 40q64 52 64 93zM329 230q0 33 -35 59q-27 19 -63.5 30t-36.5 6q0 -25 19 -141q0 -10 8 -25q5 -3 13 -2q14 2 12 2q19 0 49 22q34 25 34 49zM186 142q-9 9 -20 11q-15 2 -29 3q-41 7 -38 7q-15 0 -19.5 -13t-2.5 -45q4 -33 11.5 -43
t45.5 -10q35 0 49 19.5t14 39.5q0 18 -11 31z" />
    <glyph glyph-name="C" unicode="C" horiz-adv-x="498" 
d="M468 702q0 -7 -7 -27q-8 -23 -16 -32q-18 -20 -56 -20q-4 0 -50.5 3t-49.5 3q-39 0 -65 -23q-29 -27 -30 -72l-3 -163q0 -63 2 -77q4 -44 22 -60q8 -7 76 -13q79 -7 115 -19q59 -19 59 -61t-20 -78q-23 -42 -61 -43q-1 0 -6 -2.5t-9 -2.5h-55q-9 0 -79 5q-78 7 -97 11
q-46 9 -74 27q-10 7 -23.5 30t-15.5 41q-7 47 -7 73v401q0 46 19 89q26 58 76 70q30 8 122 8q59 0 98 -2q9 0 27 2t20 2h7q28 0 52 -17q29 -20 29 -53zM435 692q0 35 -14 43q-17 9 -37 9q-11 0 -23.5 -2.5l-12.5 -2.5q-18 0 -29 -19q-9 -15 -9 -31q0 -25 10 -28q21 -7 69 -7
q21 0 30 7q16 12 16 31zM422 127q0 20 -25.5 36t-45.5 16q-17 0 -28 -43q-7 -32 -7 -59q0 -20 41 -20q39 0 52 11.5t13 58.5z" />
    <glyph glyph-name="D" unicode="D" horiz-adv-x="523" 
d="M497 437q0 -67 -3 -93q-6 -51 -22 -99q-1 -2 -36 -96q-3 -15 -14 -47q-26 -50 -91 -68q-38 -10 -113 -18q-58 -6 -75 -6q-49 0 -69 24q-16 21 -16 66q0 3 6 61t6 60v114q0 2 -4 41q-4 44 -5 69q-6 103 0 285q0 19 17 32.5t34 13.5q53 0 120 -8q76 -9 108 -23
q29 -13 62 -46q35 -37 45 -71q9 -20 26 -66q24 -71 24 -125zM202 654q0 90 -65 90q-19 0 -33 -21.5t-14 -40.5q0 -25 18 -71q4 -9 57 -9q26 0 32 13q5 8 5 39zM341 321l-2 48.5t-2 69.5q0 54 -15 92q-22 55 -70 55q-13 0 -28 -5q-20 -5 -15 -113q1 -27 -1 -68q-3 -53 -3 -73
l-1 -80q-3 -16 2 -49q13 -26 23 -26q54 0 85 51q27 43 27 98zM196 101q0 59 -60 59q-21 0 -33.5 -19.5t-12.5 -40.5q0 -22 19 -35q16 -11 39 -11q33 0 39 5q9 9 9 42z" />
    <glyph glyph-name="E" unicode="E" horiz-adv-x="583" 
d="M548 161q0 -132 -96 -132q-84 0 -150 -3t-96 -3q-42 0 -111 12q-7 1 -23.5 10.5t-26.5 50.5q-7 31 -7 54v89q0 1 -4 33t-4 45q-1 88 -6 179q-3 62 -3 89q0 89 22 116q35 44 155 44q55 0 139 3q77 3 70 3q3 0 30 4t30 4q50 0 67 -25q11 -18 11 -64q0 -52 -17 -69t-73 -21
q-70 -2 -198 -12q-6 -1 -17 -1h-14q-57 -1 -57 -39q0 -14 5 -40q6 -32 12.5 -34.5t51.5 -9.5q30 -5 38 -22.5t8 -68.5q0 -34 -10 -39q-13 -9 -43 -11t-43 -12t-13 -40q0 -39 13 -52q10 -10 24 -12q11 -2 57 -2q4 0 95 7t95 7q25 0 53 -9q36 -12 36 -29zM523 669q0 30 -5 41
q-9 24 -38 24q-77 0 -77 -69q0 -44 13 -55q8 -7 48 -7q7 0 25 6t24 12q10 9 10 48zM523 143q0 31 -52 31q-44 0 -54 -11q-14 -15 -14 -73q0 -7 15 -21.5t25 -14.5q44 0 62 21.5t18 67.5z" />
    <glyph glyph-name="F" unicode="F" horiz-adv-x="471" 
d="M454 649q0 -42 -43 -60q-28 -12 -61 -12q-3 0 -27.5 -1.5t-28.5 -1.5q-3 0 -20.5 4t-21.5 4q-61 0 -61 -35q0 -41 9 -55t48.5 -25t49.5 -28q7 -11 7 -37q0 -71 -49 -71l-23 1q-16 1 -24 -1q-11 -3 -10 -13q1 -18 9 -107q8 -85 8 -87q0 -48 -9 -68q-15 -33 -61 -33
q-21 0 -45 7q-30 8 -35 20q-12 24 -14 41q-5 28 -18 219q-14 206 -14 271q0 99 12 126q24 54 114 54q72 0 234 -26q28 -5 48 -23q26 -24 26 -63zM417 662q0 43 -70 43q-7 0 -11.5 -18.5t-4.5 -28.5q0 -42 47 -42q30 0 36 16q3 9 3 30zM185 122q0 30 -8 42q-11 16 -41 16
q-15 0 -31 -9q-21 -11 -21 -31q0 -6 12 -71q1 -6 14 -12t21 -6q35 0 47 20q7 14 7 51z" />
    <glyph glyph-name="G" unicode="G" horiz-adv-x="545" 
d="M516 298q7 -49 0 -95q-6 -41 -12 -81q-9 -46 -26 -69q-23 -28 -68 -28q-3 0 -103 -3t-104 -3q-34 0 -69.5 17.5t-47.5 40.5q-11 19 -17 70q-5 34 -4 71q-2 69 -3 226q1 54 2.5 108t15.5 117q5 24 24 50q23 31 49 38q30 9 76 9q4 0 78.5 -8t78.5 -8q3 0 14 1.5t15 1.5
q91 0 91 -68q0 -84 -87 -77q-8 0 -28 -2t-22 -2q-4 0 -53.5 6t-52.5 6q-36 0 -44 -10t-8 -43q0 -116 8 -208q11 34 51 43q13 3 56 3q50 0 125 -19q33 -9 49 -25q7 -7 16 -59zM479 683q0 17 -13.5 30t-33.5 13q-63 0 -63 -40q0 -29 7 -38q11 -13 40 -13q4 0 13.5 1.5
t12.5 1.5q14 0 25.5 14t11.5 31zM333 333q0 8 -7 28q-10 0 -17 5t-11 5q-26 -1 -43 -28q-15 -21 -15 -42q0 -11 16 -19t33 -8q3 0 18.5 1.5t22.5 1.5q3 67 3 56zM348 205q0 19 -1 21q-5 10 -22 10q-25 -1 -24 -1l-40 6q-24 5 -40 20q1 -13 -3 -38.5l-4 -25.5q0 -41 50 -41
q5 0 17.5 -1.5t16.5 -1.5q50 0 50 52z" />
    <glyph glyph-name="H" unicode="H" horiz-adv-x="576" 
d="M539 89q0 -76 -48 -76q-133 0 -143 31q-5 16 -5 57q0 -8 4 58q4 49 0 136q0 42 -63 42q-89 0 -93 -21q-4 -26 -5 -59q0 -22 1.5 -63t1.5 -58q0 -69 -15 -85q-17 -19 -86 -19q-23 0 -41 24q-13 16 -17 125q-1 16 -3 201v91q-1 20 -4 59q-2 33 -2 53q0 14 4 50q8 72 10 79
q14 42 60 42q4 0 11.5 -1.5t11.5 -1.5t10 2.5t9 2.5q14 0 29 -10t19 -23q8 -37 8 -101q0 -21 -1 -59.5t-1 -53.5q0 -47 7.5 -58t48.5 -12q-29 1 63 1q40 0 40 106q0 22 -2 55.5t-2 39.5q0 56 15 83q19 37 71 37q2 0 32.5 -12t41.5 -42q8 -20 9 -62q2 -67 14 -279
q10 -174 10 -279zM485 643q0 77 -47 91q-7 2 -24 2q-16 0 -28 -26q-11 -22 -11 -39q0 -43 46 -65q14 -6 32 -1q32 11 32 38zM163 668q-1 61 -47 63q-24 1 -40 -24q-13 -21 -13 -47q1 -33 7 -42q9 -12 41 -12q39 0 48 12q5 9 4 50zM514 103q0 49 -63 49h-59q-6 -2 -11 -37
q-4 -29 -4 -43q0 -34 85 -34q36 0 46 15q6 10 6 50zM163 146q0 31 -27 31q-80 0 -80 -68q0 -22 14 -36.5t36 -14.5q57 0 57 88z" />
    <glyph glyph-name="I" unicode="I" horiz-adv-x="236" 
d="M210 249q0 -88 -1.5 -111.5t-2.5 -47t-12 -39.5q-24 -36 -65 -37q-29 0 -45 9t-27 37q-8 18 -9 49q0 27 -1 53q-6 97 -9 196q0 24 -3 68q-2 38 -2 59q0 37 5 74q4 68 7 136q8 72 62 72q18 0 45 -13q33 -15 34 -33q19 -180 19 -278v-147q0 -3 2.5 -23.5t2.5 -23.5z
M165 672q0 12 -3 39q-2 11 -10 15q-28 13 -45 13q-32 0 -34 -87q-1 -42 50 -42q31 0 39 16q5 10 3 46zM175 96q0 42 -6 53q-10 14 -47 14q-36 0 -36 -41q0 -75 59 -75q21 0 27 16q3 8 3 33z" />
    <glyph glyph-name="J" unicode="J" horiz-adv-x="486" 
d="M441 362q0 -3 -4.5 -88.5t-4.5 -88.5v-81q0 -32 -22.5 -54t-59.5 -24q-76 -3 -202 -3q-7 0 -73 15q-52 12 -52 68q0 119 14 151q10 21 23 28q8 3 29 3q56 0 68 -31q3 -28 6 -58t39 -30h38q27 0 43 15.5t16 38.5q0 3 -6.5 73.5t-6.5 73.5v85q0 4 -4.5 90.5t-4.5 90.5
q0 139 60 139q13 0 41 -14t34 -25q16 -33 19 -147q2 -44 6 -139q4 -87 4 -88zM395 698q-2 13 -18 28t-34 15q-6 0 -12 -2q-22 -8 -22 -73q0 -23 4 -29q7 -9 43 -8q32 1 38.5 6.5t0.5 62.5zM135 195q0 -1 1 13q1 12 0 21q-2 11 -8 18q-16 16 -43 9q-20 -5 -24.5 -17t-4.5 -50
q0 -33 22 -33q57 0 57 39z" />
    <glyph glyph-name="K" unicode="K" horiz-adv-x="495" 
d="M469 122q0 -30 -20 -58q-23 -32 -54 -32q-49 0 -82 71q-19 50 -39 99q-18 40 -68 135q-2 3 -7 3t-5 -3q0 2 0 -131v-108q0 -90 -67 -90q-79 0 -90 38q-5 19 -3 63v62q0 37 -4.5 116t-4.5 75v137q0 3 -3 87.5t-3 87.5q0 67 19 84t86 17q32 0 53 -27q8 -10 10 -36
q5 -54 5 -51q0 -127 -1 -120q0 -3 3 -5t4 0l76 102q65 84 93 84q29 0 47 -25q15 -21 15 -45q0 -44 -48.5 -128.5t-48.5 -103.5q0 -14 31 -60.5t65 -115.5q41 -85 41 -122zM408 646q0 10 -14.5 28.5t-24.5 18.5q-17 0 -38.5 -27.5t-21.5 -39.5q0 -5 21 -31q22 -29 33 -29
q18 0 32 33q13 28 13 47zM159 680q0 38 -13 52t-49 14q-48 0 -48 -55q0 -61 47 -61h21q42 0 42 50zM446 110q1 7 -8 30q-10 29 -27 35q-6 1 -12 1q-21 0 -40 -17t-19 -33q0 -10 18 -37q19 -30 32 -30q17 0 34.5 15t21.5 36zM157 71q0 43 -7 59q-4 7 -37 7q-23 0 -36 -7
q-17 -8 -17 -47q0 -46 36 -46h27q34 0 34 34z" />
    <glyph glyph-name="L" unicode="L" horiz-adv-x="534" 
d="M490 87q0 -28 -13 -48q-17 -26 -49 -26q-19 1 -63 4q-106 9 -96 9h-123q-70 0 -90 50q-10 25 -12 115q0 2 1 50t1 292v84q0 2 -2.5 21.5t-2.5 23.5q0 78 32 103q5 4 47 4q17 0 29 -4q19 -6 25 -9q14 -6 22 -14q5 -6 7 -40q-1 11 -1 -72v-175q0 8 3 -31t3 -105
q0 -82 4 -102q14 -56 67 -56q98 0 149 -4q35 -2 48.5 -16.5t13.5 -53.5zM179 684q0 27 -7 37q-3 4 -10 10q-18 14 -60 14q-18 0 -28 -31q-7 -23 -7 -48q0 -33 22 -44q16 -9 53 -9q27 0 30 7q7 15 7 64zM461 88q0 25 -12 34.5t-43 9.5q-35 0 -35 -39q0 -17 6 -33
q8 -22 22 -22q4 0 19 1.5t18 1.5q25 0 25 47z" />
    <glyph glyph-name="M" unicode="M" horiz-adv-x="771" 
d="M748 110q0 -46 -11 -66q-15 -30 -56 -30q-13 0 -48 5.5t-41 10.5q-23 18 -25 79q-11 255 -11 292q0 161 -15 193q-10 20 -49 20q-38 0 -42 -42.5t-6 -83.5q-10 -44 -59 -44q-59 0 -73 35q-6 15 -6 84t-65 69q-39 0 -53.5 -17.5t-14.5 -57.5q0 -59 13.5 -179t13.5 -180
q0 -5 2 -13t2 -13q0 -38 1 -31q-1 -6 -2 -21v-24q0 -56 -17 -67q-12 -8 -76 -8q-61 0 -71 82q-1 64 -1 127q-8 76 -16 151q-10 96 -10 149q0 192 47 226q27 20 77 20q12 0 37.5 -2.5t37.5 -2.5q13 0 39.5 1.5t39.5 1.5q31 0 94.5 -4t95.5 -4q10 0 33 -4.5t36 -4.5
q39 0 82 -16q47 -17 68 -45q27 -34 27 -192q0 -65 11 -196.5t11 -197.5zM724 115q0 6 2 21t1 24q-2 11 -9 20q-11 12 -35 13q24 -1 -30 -1q-27 0 -34 -12.5t-7 -48.5q0 -53 -1 -33q1 -20 12 -31q15 -14 61 -14q27 0 35 19q5 11 5 43zM179 105q0 7 2.5 23.5t2.5 24.5
q0 19 -12 31q-15 16 -49 16t-37 -8q-8 -20 -9 -38q0 2 0 -58q0 -44 61 -44q22 0 31.5 6t10.5 20q-1 -20 -1 27z" />
    <glyph glyph-name="N" unicode="N" horiz-adv-x="593" 
d="M566 245q0 -6 -1 -16v-13v-129q0 -15 -12 -39q-14 -31 -33 -31h-28q-40 0 -66 19.5t-37 50.5q-4 12 -3 23q1 30 1 33.5t4.5 58t4.5 58.5v95q0 2 3 67.5t3 70.5q0 67 -15.5 92t-51.5 29q-7 1 -88 1q-28 0 -48.5 -23.5t-20.5 -53.5q0 -98 3 -232q1 -45 4 -124q2 -71 2 -72
q0 -76 -52 -76q-86 0 -108 66q-10 30 -10 142q0 61 -2 184t-2 115q0 72 9 131q4 25 15 39q32 39 67.5 51.5t80.5 12.5q3 0 42 -7q43 -8 60 -10q37 -1 114 -10q36 -9 110 -26q35 -8 40 -62q0 -53 2 -153q4 -44 7 -88q6 -78 3 -114q2 -18 3 -60zM536 141q-1 25 -11 34
q-13 13 -46 12q-31 0 -41 -11q-15 -14 -15 -61q0 -67 73 -67q44 0 40 93zM155 152q0 25 -9 33.5t-33 8.5q-58 0 -57 -23q0 -25 18 -81q8 -23 29 -23q1 0 11.5 -2t16.5 -2q12 0 18 6q10 12 10 40q0 12 -2 27.5z" />
    <glyph glyph-name="O" unicode="O" horiz-adv-x="518" 
d="M490 290q0 -8 -3 -63q-5 -120 -30 -159q-28 -45 -111 -45q-3 0 -82 -3.5t-83 -3.5q-29 0 -73 14q-23 7 -42.5 30t-23.5 45q-17 101 -26 336q-3 88 -3 141q0 68 29 115q35 58 103 65q12 1 47 6q31 5 35 5q49 0 90 -13q4 -1 28 -11q29 -10 59 -21t41 -25q19 -24 30 -127
q15 -145 15 -286zM285 685q0 55 -27 55t-47 2q1 0 -10 -6q-19 -10 -19 -41q0 -25 12 -58q11 -29 16 -29q4 0 19 1h19q19 0 30 29q7 22 7 47zM350 353q0 1 -2.5 43.5t-2.5 57.5q0 90 -24 106q-35 23 -104 23q-39 0 -46 -11q-10 -15 -18 -40q-5 -19 -5 -38q0 -11 2.5 -33
t2.5 -35q4 -99 4 -106q4 -55 16 -84q8 -20 61 -20h60q41 0 52 52q4 19 4 85zM306 115q2 15 2 25q0 45 -44 45q-39 0 -48 -15.5t-7 -73.5q2 -31 17 -40q10 -5 41 -5q24 0 32 21q3 8 7 43z" />
    <glyph glyph-name="P" unicode="P" horiz-adv-x="502" 
d="M476 531q0 -79 -3 -90q-16 -50 -91 -69q-53 -10 -107 -20q-9 -2 -46 -1q-31 0 -50.5 -11.5t-19.5 -84.5q0 -3 5.5 -100.5t5.5 -100.5q0 -5 -7.5 -17.5t-14.5 -16.5q-13 -9 -49 -9q-40 0 -53 37q-19 55 -19 266v73q-1 101 -8 280q0 71 60 96q35 15 102 15q4 0 50 -5.5
t49 -5.5t18 1.5t18 1.5q151 0 158 -167q1 -15 1 -47q0 -5 1 -14v-11zM450 565q0 38 -7.5 45t-45.5 7q-20 0 -31 -28q-9 -21 -9 -42t25 -21h32q25 0 30.5 5.5t5.5 33.5zM328 523q0 23 -7 71.5t-12 57.5q-8 14 -35 14q-61 0 -81 -47q-13 -30 -13 -105q0 -34 18 -45
q13 -8 47 -8h30q32 0 44 13q9 10 9 49zM136 74q5 22 5 40q0 17 -6 27t-32 10q-40 0 -40 -55q0 -54 40 -54q33 0 33 32z" />
    <glyph glyph-name="Q" unicode="Q" horiz-adv-x="555" 
d="M517 89q0 -26 -24.5 -54t-50.5 -28q-22 0 -66.5 29t-77.5 29q-26 0 -76.5 -2.5t-76.5 -2.5q-66 0 -92 40q-20 33 -20 103q0 23 -10 279v168q0 36 18 79q22 51 53 51q23 0 70 -2.5t71 -2.5q5 0 15 2.5t15 2.5q17 0 49 -7.5t47 -8.5q45 -3 63 -38q16 -30 18 -218
q3 -210 10 -250q13 -74 40 -112q5 -7 15 -29t10 -28zM122 743q-62 0 -62 -51q0 -58 57 -58q7 0 17.5 1.5t10.5 17.5q-1 -32 -1 29t-22 61zM323 492q0 14 -7 67q-7 57 -11 60q-12 11 -43 11q-6 0 -20.5 2t-22.5 2q-19 0 -31 -10q-19 -16 -20 -37q-11 -231 -11 -245
q0 -133 16.5 -144.5t78.5 -11.5q1 0 4 16q3 21 13 35q13 18 27.5 24t20 12.5t7.5 47.5q1 29 0 86q-1 75 -1 85zM396 135q0 77 -39 77q-31 0 -43 -22q-7 -15 -7 -51q0 -50 45 -50q44 0 44 46z" />
    <glyph glyph-name="R" unicode="R" horiz-adv-x="472" 
d="M437 500q0 -111 -25 -137q-5 -5 -39 -20q-25 -11 -25 -29q0 -21 35 -103t35 -109q0 -24 -7.5 -35.5t-42.5 -26.5t-49 -15q-10 0 -33 12q-33 18 -58 79q-12 31 -31 103q-13 49 -20 46t-6 -15q3 -26 3 -19q0 -17 3.5 -51t3.5 -51q0 -56 -10 -79q-17 -36 -66 -36
q-31 0 -52.5 20t-21.5 50q0 10 -6 30t-6 30q0 15 4.5 45.5t4.5 45.5q0 36 -2 107.5t-2 106.5q0 169 15 259q2 15 14.5 30.5t26.5 19.5q56 15 110 15q208 0 227.5 -56t19.5 -217zM267 554q-7 53 -43 53q-41 0 -41 -77v-16.5v-17.5q0 -48 32 -48q38 0 42 23t6 47q6 23 4 36z
M382 102q0 23 -13.5 45t-34.5 22q-22 0 -46 -15.5t-24 -35.5q0 -36 38 -49q18 -6 40 2q14 4 27 14t13 17zM152 113q0 18 -13 30.5t-31 12.5q-50 0 -50 -47q0 -46 28 -60q27 -13 49 1q14 9 17 29v34z" />
    <glyph glyph-name="S" unicode="S" horiz-adv-x="504" 
d="M459 154q0 -67 -19 -100q-25 -41 -89 -41q-32 0 -96 3t-96 3q-13 0 -37.5 -3t-36.5 -3q-55 0 -55 49q0 64 29 90q9 9 24 9q6 0 19 -2t20 -2q19 0 58.5 -3t59.5 -3q65 0 28 -1q21 0 38 11q12 6 12 31q0 59 -16 104q-10 30 -144 30q-49 0 -74 12q-15 7 -33.5 34.5
t-19.5 44.5q-2 10 0 27q2 21 2 27q0 27 -6 81t-6 81q0 76 37 110t114 34q21 0 30.5 -1.5t29.5 -1.5q-4 0 47 -3t79 -2q36 0 60 -21t24 -58q0 -74 -106 -74q-12 0 -54 8.5t-66 8.5q-42 0 -42 -61q0 -95 27 -116q6 -5 31 -7q34 -3 46 -5l90 -12q46 -10 64 -45q21 -43 26 -112
q1 -19 1 -121zM413 695q0 20 -19 31t-40 11q-28 0 -37 -23q-5 -14 -5 -47q0 -23 55 -23q46 0 46 51zM148 79q0 20 -15 33t-35 13q-14 0 -25.5 -15.5t-11.5 -29.5t8.5 -26.5t22.5 -12.5q56 0 56 38z" />
    <glyph glyph-name="T" unicode="T" horiz-adv-x="619" 
d="M603 678q0 -61 -10 -74q-12 -16 -65 -16q-75 0 -96 -4q-6 -2 -11 -23t-5 -41q1 -91 7 -259q5 -155 5 -198q-1 -60 -48 -60q-5 0 -16 1h-18q-52 0 -66 6q-21 8 -27 40q-4 25 -4 109q0 37 -3 101q-3 70 -3 102q0 20 1 59.5t1 58.5q0 65 -2 77q-9 45 -49 45q6 0 -36 -1h-55
q-53 2 -69.5 16.5t-16.5 61.5q1 60 33 77q20 11 79 11q24 0 72.5 -2t72.5 -2q7 0 28 -1h28q21 0 109 -6q94 -5 106 -9q40 -11 51 -28q7 -11 7 -41zM575 654q0 4 1 17q2 10 1 17q-1 9 -7 16q-13 15 -34 15q-6 0 -16.5 2t-15.5 2q-27 0 -27 -54q0 -33 18 -46q15 -10 49 -10
q31 0 31 41zM146 667q0 33 -2.5 42.5t-17.5 20.5t-37 11q-21 0 -26 -8q-20 -28 -20 -58q0 -17 10.5 -31t30.5 -16h35q19 0 24 11q3 7 3 28zM396 96q0 53 -36 55q-83 4 -83 -59q0 -48 40 -62q8 -3 17 -3q4 0 44 11q15 4 18 21v37z" />
    <glyph glyph-name="U" unicode="U" horiz-adv-x="587" 
d="M533 648q-1 -6 -8 -91v-83v-211q0 -4 2.5 -54.5t2.5 -53.5q0 -62 -9 -91q-17 -55 -67 -55q9 0 -38 -1q-43 -2 -80 -1q-53 1 -88 6q-73 11 -114 26q-21 8 -41 28q-33 33 -27 119q1 18 1 48q0 56 -4.5 168t-4.5 118v132q0 -2 -3 49q1 -9 1 35q0 23 26 38q21 13 43 13
q5 0 32 -10t31 -14q19 -16 22 -50v-49q0 -28 2 -89q5 -130 25 -386q1 -8 32 -16.5t56 -6.5q51 6 54 20q0 -1 -1 35q-4 86 -3 228q1 173 0 227q-1 58 11 78q20 35 87 29q39 -3 50 -17.5t11 -68.5q0 -18 -1 -49zM500 701q0 41 -32 46q-8 1 -15 1q-35 0 -44 -29q-4 -11 -4 -51
q0 -43 48 -43q17 0 30.5 9t16.5 28q0 -1 0 39zM183 669q0 38 -9 54q-13 22 -49 22q-39 0 -39 -64q0 -20 8 -26t17 -12q23 -16 43 -9q11 4 20 16.5t9 18.5z" />
    <glyph glyph-name="V" unicode="V" horiz-adv-x="616" 
d="M603 688q0 -35 -43 -200q-8 -33 -32 -116.5t-48 -166.5q-25 -86 -56 -152q-24 -50 -66 -50q-3 0 -20.5 3t-20.5 3q-49 0 -73 51q-13 41 -25 81q-21 51 -42 115q-25 77 -37 113q-21 58 -51 125q-14 32 -32 85l-24 56q-16 38 -16 68q0 34 29 53q24 14 57 14q56 0 114 -146
q21 -40 62 -134q11 -30 20 -67t17 -59q15 -39 24 -39t17 27l40 138l34 130q22 78 55 139q4 8 24 15q17 7 30 7q63 0 63 -93zM576 710q0 14 -11 27q-14 17 -34 17q-16 0 -38 -41q-19 -36 -19 -47q0 -15 25 -29.5t44 -14.5q9 0 24 33q9 19 9 55zM162 634q3 4 3 12
q0 26 -24 61.5t-48 35.5q-15 0 -29 -13t-14 -31q0 -12 16 -49q19 -44 38 -44q10 0 26 6q22 9 32 22z" />
    <glyph glyph-name="W" unicode="W" horiz-adv-x="593" 
d="M571 390q0 -174 -15 -281q-3 -21 -22 -52q-25 -39 -51 -39q1 0 -32 1t-59 1q-38 1 -60 0q-60 -2 -126 2q-91 6 -120 23q-23 13 -31 62t-11 120q-2 44 -8 148q-1 8 -4.5 34t-3.5 30q-1 78 0 122q1 67 9 176q3 16 24 27.5t65 11.5q40 0 53 -52q5 -20 5 -69q2 -53 5 -159
q1 -65 11 -192q0 -2 -1.5 -20t-1.5 -31q0 -54 30 -54q16 0 18 52q3 56 22 64q38 15 51 15q10 0 24 -14t16.5 -24t1 -25t1.5 -24q16 -49 34 -51q9 -1 12 87q1 72 -1 190q-3 142 -3 161q0 43 3 61q8 65 51 65q-11 0 68 -15q17 -3 27 -35q8 -24 8 -45v-93q0 -3 5.5 -88.5
t5.5 -89.5zM529 630q0 7 1 22.5t1 22.5q0 48 -48 48q-50 0 -50 -102q0 -6 4 -17q5 -15 12 -15l16 -4t25 -1q22 6 28 11q11 10 11 35zM158 674q0 4 -3 23t-4 27.5t-9 16t-17 7.5q-10 0 -26 -8q-10 -5 -19 -9t-16 -41q-7 -33 -7 -56q0 -28 67 -28q19 0 26.5 14t7.5 54z" />
    <glyph glyph-name="X" unicode="X" horiz-adv-x="547" 
d="M525 74q0 -25 -47 -46q-39 -17 -59 -17q-28 0 -39 9q-15 13 -23 33q-6 13 -11 27q-18 41 -36 81q-22 50 -42 50q-12 0 -35 -36l-40 -62l-32 -50q-26 -36 -49 -36t-50 37q-26 33 -26 51q0 34 32 94q22 38 44 75q59 107 59 114q0 1 -14 22.5t-18 30.5q-32 65 -54 101
q0 1 -46 67q-25 35 -25 55q0 18 10 28q35 38 58 48q13 5 50 5q29 0 59 -46q4 -5 35 -65q41 -76 56 -81q9 -3 19 30q16 50 17 54q15 33 30 65q35 65 63 65q5 0 23.5 -6.5t20.5 -9.5q16 -13 44 -45q4 -6 4 -30q0 -48 -57.5 -158t-57.5 -112q0 -11 45 -109q42 -94 51 -108
q41 -63 41 -125zM476 696q0 6 -16 24q-19 20 -37 24q-29 5 -51 -42q-16 -35 -16 -55q0 -14 28 -30t42 -16q18 0 35 42q15 36 15 53zM190 649q0 25 -20 47q-23 23 -54 23q-22 0 -37.5 -18.5t-15.5 -36.5q0 -8 13 -41q15 -39 29 -39q17 0 49 22q36 24 36 43zM489 99
q0 56 -25 73q-8 6 -19 6q-25 0 -52.5 -24t-27.5 -38q0 -24 20 -49q17 -23 29 -23q25 0 48 14q27 17 27 41zM168 133q0 23 -19 46t-40 23q-9 0 -17 -5q-20 -12 -20 -67q0 -15 8 -31q10 -20 26 -20q13 0 37.5 19.5t24.5 34.5z" />
    <glyph glyph-name="Y" unicode="Y" horiz-adv-x="481" 
d="M450 632q-1 -95 -6 -251q-6 -151 -6 -145q0 -24 -1 -71t-1 -71q0 -88 -109 -88q-18 0 -52.5 2.5t-48.5 2.5q-6 0 -18 -2.5t-18 -2.5q-79 0 -108 8q-58 17 -58 75q0 17 11.5 43.5t25.5 30.5q3 2 28 2q3 0 8.5 2.5t8.5 2.5q21 0 63.5 -4t63.5 -4q53 0 66 34q6 16 6 80
q0 56 -29 63q-27 2 -78 10q-61 6 -121 13q-72 14 -75 91q-3 44 0 111q1 28 7 109q4 47 15 65q18 29 65 29q29 0 46 -24.5t17 -53.5q0 -28 -2.5 -82.5t-2.5 -81.5q0 -28 16 -37q11 -6 43 -6q47 0 61 6q21 9 25 125q4 122 20 141.5t73 19.5q66 0 65 -142zM419 674q0 26 -13 48
q-16 25 -41 25q-46 0 -46 -94q0 -14 22 -26t47 -1q18 9 23 15q8 11 8 33zM120 678q0 18 -10.5 37.5t-28.5 19.5q-19 0 -34 -27.5t-15 -48.5q0 -20 47 -29q20 -4 28 0q13 6 13 48zM144 91q0 43 -27 43q-3 0 -13 1t-16 1q-7 -1 -13 -6q-12 -10 -12 -38q0 -27 8.5 -37t28.5 -16
q23 -7 35 1q8 5 10 14q1 6 0 18q-1 16 -1 19z" />
    <glyph glyph-name="Z" unicode="Z" horiz-adv-x="549" 
d="M339 768q16 -2 34 -2q14 0 37.5 2t32.5 2q41 0 65 -29q20 -24 20 -58q0 -11 -3 -42q-3 -27 -2 -45q2 -47 2 -88q0 -10 -2 -59q-5 -63 -21 -84q-18 -24 -83 -47q-61 -6 -183 -23q-21 -3 -21 -103q0 -21 3 -26q5 -14 30 -16q47 -3 59 -1q10 2 20 1q15 -2 49 -5t94 0
q12 0 45 -24q13 -9 13 -42q0 -12 -6 -36q-6 -29 -15 -31q-22 -7 -63 -7q3 0 -71 2t-103 2q-16 0 -54.5 -2t-40.5 -2q-145 0 -144 83q0 27 1 88q3 73 32 205q10 46 57 56q38 2 76 5q45 4 142 15q11 0 23 1t17 13q9 21 9 59v54q0 28 -38 28q-6 0 -15.5 -1t-12.5 -1t-125.5 -1
t-125.5 -1q-59 0 -59 58q0 62 25 81t107 17q90 4 195 4zM151 679q0 38 -8 49q-11 13 -45 11q-35 -2 -49 -36q-9 -20 -9 -42q0 -25 40 -25q39 0 48 3q23 8 23 40zM500 81q0 12 -18 24t-34 12q-29 0 -40 -9q-14 -10 -14 -40t31 -30h35q27 0 33.5 7.5t6.5 35.5z" />
    <glyph glyph-name="bracketleft" unicode="[" 
d="M389 726q2 -7 -1 -28q-3 -24 -9 -35q-13 -22 -51 -30q-3 -1 -28 -3.5t-29 -3.5q-39 -8 -55 -26q-21 -21 -22 -66l-3 -163q0 -40 10 -84q12 -49 29 -69q7 -8 47 -17q46 -11 65 -22q34 -19 34 -53q0 -39 -21 -70q-24 -35 -60 -39q-14 -1 -29 -1q-49 0 -120 15
q-14 2 -26 10.5t-23.5 16.5t-25 31.5t-15.5 40.5q-2 12 -6 30q-3 13 -3 17l2 427q0 60 8 88q16 58 64 70q3 1 89 8l86 8q7 2 16 2q66 0 77 -54zM359 709q-3 15 -6 21q-6 15 -16 18q-15 5 -39 5q-63 0 -68.5 -12t-5.5 -41q0 -49 19 -51q62 -5 107 27q14 9 9 33zM330 105
q3 10 3 17q0 37 -77 49q-24 4 -41 -101q-2 -16 46 -23q11 -1 17 -1q34 0 52 59z" />
    <glyph glyph-name="backslash" unicode="\" horiz-adv-x="446" 
d="M388 38.5q-22 -12.5 -42 -12.5q-24 0 -48 24q-13 15 -26 43q-10 24 -20 49q-21 55 -73 181q-15 36 -54 109q-33 62 -50 108l-34 82q-19 50 -19 79q0 41 39 57q13 5 39 5q42 0 52 -18q43 -81 56 -108q38 -75 65 -142l74 -170q1 -3 11 -21t12 -21q13 -31 39 -105
q1 -4 14 -36q8 -20 8 -34q0 -20 -10.5 -38.5t-32.5 -31zM150 692q-5 11 -18 35q-5 9 -14 10q-31 2 -45.5 -4t-14.5 -29q0 -26 14 -65q11 -28 33 -28q11 0 29 8q30 12 30 30q0 13 -14 43zM395 128q-21 52 -42 52q-10 0 -33.5 -9.5t-23.5 -27.5q0 -9 6 -24q21 -53 58 -53
q12 0 26 5q18 8 18 23q0 10 -9 34z" />
    <glyph glyph-name="bracketright" unicode="]" 
d="M389 618l-2 -427q0 -59 -8 -88q-15 -57 -64 -70q-5 -1 -88 -8l-86 -8q-8 -1 -17 -1q-66 0 -77 53q-2 7 1 28q3 25 9 35q13 23 51 31q4 1 28.5 3.5t28.5 2.5q39 9 56 26q20 22 21 67l3 163q0 43 -9 92q-10 58 -26 78q-8 8 -48 13q-49 6 -67 14q-34 14 -34 48q0 38 22 71.5
t59 36.5q13 1 28 1q49 0 121 -14q14 -3 26 -11.5t23 -16.5t24.5 -31t15.5 -40q2 -13 5.5 -28.5t3.5 -19.5zM221 725q2 16 -46 23q-11 1 -17 1q-34 0 -52 -59q-3 -8 -3 -14q0 -26 39 -32q27 -2 53 -3q18 -3 23 36q1 24 3 48zM213 96q0 48 -19 50q-63 5 -107 -26
q-15 -10 -10 -34q4 -15 6 -21q6 -14 17 -18q15 -4 38 -4q63 0 69 11.5t6 41.5z" />
    <glyph glyph-name="asciicircum" unicode="^" horiz-adv-x="347" 
d="M240 657q-4 -37 -14.5 -47.5t-32.5 -10.5q-87 0 -88 49q-2 50 19 68q18 17 65 17q59 0 51 -76zM214 658q2 24 -1 30q-4 10 -25 10q-34 0 -39 -2q-11 -7 -10 -41q0 -21 15 -26q7 -3 31 -3q17 0 21.5 3.5t7.5 28.5z" />
    <glyph glyph-name="underscore" unicode="_" horiz-adv-x="564" 
d="M539 76q-3 -37 -13.5 -47.5t-33.5 -10.5q-301 -4 -379 2q-42 4 -56 9q-31 11 -32 41q-2 52 21 71q18 14 64 13q242 -4 379 -2q31 0 42.5 -20t7.5 -56zM513 77q4 40 -26 41q-33 0 -42 -2q-27 -7 -27 -37q0 -37 32 -37q7 0 19.5 1.5t14.5 1.5q19 2 23 6t6 26zM154 85
q2 27 -16 33q-8 4 -30 2q-33 -2 -35 -3q-15 -7 -14 -40q1 -21 15 -26q7 -3 31 -3t28 1q19 7 21 36z" />
    <glyph glyph-name="grave" unicode="`" horiz-adv-x="250" 
d="M192 555q2 -50 -17.5 -67t-67.5 -17q-58 0 -51 76q20 187 44 186q46 -1 46 -21q0 -7 -8.5 -27.5t-8.5 -31.5q0 -21 31.5 -54t31.5 -44zM158 548q-1 21 -15 27q-7 2 -31 2q-17 0 -20 -2q-7 -5 -9 -29q-3 -25 0 -31q4 -10 26 -10q34 0 39 3q11 6 10 40z" />
    <glyph glyph-name="a" unicode="a" horiz-adv-x="659" 
d="M624 102q0 4 -4 -53q-1 -15 -42 -30q-35 -13 -57 -13q-34 0 -67 17q-21 10 -25 30q-4 52 -17 155q-3 21 -5 42q-6 28 -18.5 37t-70.5 9q-6 0 -30 -5q-28 -6 -32 -12q-11 -14 -24 -71q-3 -31 -12 -92q-3 -26 -5 -52q-5 -31 -27 -41q-9 -4 -29 -4q-4 0 -7 -1.5t-7 -1.5
q-42 0 -84 14q-8 2 -27.5 28.5t-19.5 38.5q0 -9 24.5 108.5t69.5 256.5l26 98q26 92 61 146q48 75 109 75q38 0 90 -15t79 -34q37 -28 51 -77q8 -38 17 -75q8 -24 29 -159q15 -78 29 -156q25 -144 25 -163zM357 461q0 52 1 33q-1 30 -12.5 44.5t-29.5 14.5
q-14 0 -26.5 -37.5t-12.5 -66.5q0 -8 1.5 -14t23.5 -6q55 0 55 32zM589 127q0 45 -30 45q-24 0 -60 -9q-46 -10 -46 -25q0 -90 63 -90h19q34 0 46 24q8 17 8 55zM186 149q-79 23 -99 23q-12 0 -21 -36q-7 -28 -7 -42q0 -19 27 -31q21 -9 43 -9h20q27 0 37 95z" />
    <glyph glyph-name="b" unicode="b" horiz-adv-x="521" 
d="M487 253q0 -58 -20 -111q-9 -25 -33 -52q-26 -31 -52 -44t-106 -23q-67 -8 -108 -8q-3 0 -24 -3t-25 -3q-16 0 -20 1q-11 2 -30 14q-23 14 -24.5 26t-4.5 41q-1 85 -3 270q-1 64 -9 192t-8 122q0 13 12.5 39t19.5 30q13 8 54 11q28 2 75 1q69 -2 61 -2q3 0 29 -5t38 -6
q79 -9 106 -73q15 -35 15 -107q0 -41 -12 -69q-20 -38 -41 -77q-5 -9 -1 -11q111 -50 111 -153zM161 663q5 18 5 35q0 15 -5 23q-8 11 -43 11q-45 0 -50 -11q-8 -18 0 -55q0 -49 28 -49q16 0 37 10q28 13 28 36zM326 561q0 30 -38 47q-27 12 -55 12q-40 0 -44 -13
q-14 -45 -14 -100q0 -70 14 -79t73 40q64 52 64 93zM329 230q0 33 -35 59q-27 19 -63.5 30t-36.5 6q0 -25 19 -141q0 -10 8 -25q5 -3 13 -2q14 2 12 2q19 0 49 22q34 25 34 49zM186 142q-9 9 -20 11q-15 2 -29 3q-41 7 -38 7q-15 0 -19.5 -13t-2.5 -45q4 -33 11.5 -43
t45.5 -10q35 0 49 19.5t14 39.5q0 18 -11 31z" />
    <glyph glyph-name="c" unicode="c" horiz-adv-x="498" 
d="M468 702q0 -7 -7 -27q-8 -23 -16 -32q-18 -20 -56 -20q-4 0 -50.5 3t-49.5 3q-39 0 -65 -23q-29 -27 -30 -72l-3 -163q0 -63 2 -77q4 -44 22 -60q8 -7 76 -13q79 -7 115 -19q59 -19 59 -61t-20 -78q-23 -42 -61 -43q-1 0 -6 -2.5t-9 -2.5h-55q-9 0 -79 5q-78 7 -97 11
q-46 9 -74 27q-10 7 -23.5 30t-15.5 41q-7 47 -7 73v401q0 46 19 89q26 58 76 70q30 8 122 8q59 0 98 -2q9 0 27 2t20 2h7q28 0 52 -17q29 -20 29 -53zM435 692q0 35 -14 43q-17 9 -37 9q-11 0 -23.5 -2.5l-12.5 -2.5q-18 0 -29 -19q-9 -15 -9 -31q0 -25 10 -28q21 -7 69 -7
q21 0 30 7q16 12 16 31zM422 127q0 20 -25.5 36t-45.5 16q-17 0 -28 -43q-7 -32 -7 -59q0 -20 41 -20q39 0 52 11.5t13 58.5z" />
    <glyph glyph-name="d" unicode="d" horiz-adv-x="523" 
d="M497 437q0 -67 -3 -93q-6 -51 -22 -99q-1 -2 -36 -96q-3 -15 -14 -47q-26 -50 -91 -68q-38 -10 -113 -18q-58 -6 -75 -6q-49 0 -69 24q-16 21 -16 66q0 3 6 61t6 60v114q0 2 -4 41q-4 44 -5 69q-6 103 0 285q0 19 17 32.5t34 13.5q53 0 120 -8q76 -9 108 -23
q29 -13 62 -46q35 -37 45 -71q9 -20 26 -66q24 -71 24 -125zM202 654q0 90 -65 90q-19 0 -33 -21.5t-14 -40.5q0 -25 18 -71q4 -9 57 -9q26 0 32 13q5 8 5 39zM341 321l-2 48.5t-2 69.5q0 54 -15 92q-22 55 -70 55q-13 0 -28 -5q-20 -5 -15 -113q1 -27 -1 -68q-3 -53 -3 -73
l-1 -80q-3 -16 2 -49q13 -26 23 -26q54 0 85 51q27 43 27 98zM196 101q0 59 -60 59q-21 0 -33.5 -19.5t-12.5 -40.5q0 -22 19 -35q16 -11 39 -11q33 0 39 5q9 9 9 42z" />
    <glyph glyph-name="e" unicode="e" horiz-adv-x="583" 
d="M548 161q0 -132 -96 -132q-84 0 -150 -3t-96 -3q-42 0 -111 12q-7 1 -23.5 10.5t-26.5 50.5q-7 31 -7 54v89q0 1 -4 33t-4 45q-1 88 -6 179q-3 62 -3 89q0 89 22 116q35 44 155 44q55 0 139 3q77 3 70 3q3 0 30 4t30 4q50 0 67 -25q11 -18 11 -64q0 -52 -17 -69t-73 -21
q-70 -2 -198 -12q-6 -1 -17 -1h-14q-57 -1 -57 -39q0 -14 5 -40q6 -32 12.5 -34.5t51.5 -9.5q30 -5 38 -22.5t8 -68.5q0 -34 -10 -39q-13 -9 -43 -11t-43 -12t-13 -40q0 -39 13 -52q10 -10 24 -12q11 -2 57 -2q4 0 95 7t95 7q25 0 53 -9q36 -12 36 -29zM523 669q0 30 -5 41
q-9 24 -38 24q-77 0 -77 -69q0 -44 13 -55q8 -7 48 -7q7 0 25 6t24 12q10 9 10 48zM523 143q0 31 -52 31q-44 0 -54 -11q-14 -15 -14 -73q0 -7 15 -21.5t25 -14.5q44 0 62 21.5t18 67.5z" />
    <glyph glyph-name="f" unicode="f" horiz-adv-x="471" 
d="M454 649q0 -42 -43 -60q-28 -12 -61 -12q-3 0 -27.5 -1.5t-28.5 -1.5q-3 0 -20.5 4t-21.5 4q-61 0 -61 -35q0 -41 9 -55t48.5 -25t49.5 -28q7 -11 7 -37q0 -71 -49 -71l-23 1q-16 1 -24 -1q-11 -3 -10 -13q1 -18 9 -107q8 -85 8 -87q0 -48 -9 -68q-15 -33 -61 -33
q-21 0 -45 7q-30 8 -35 20q-12 24 -14 41q-5 28 -18 219q-14 206 -14 271q0 99 12 126q24 54 114 54q72 0 234 -26q28 -5 48 -23q26 -24 26 -63zM417 662q0 43 -70 43q-7 0 -11.5 -18.5t-4.5 -28.5q0 -42 47 -42q30 0 36 16q3 9 3 30zM185 122q0 30 -8 42q-11 16 -41 16
q-15 0 -31 -9q-21 -11 -21 -31q0 -6 12 -71q1 -6 14 -12t21 -6q35 0 47 20q7 14 7 51z" />
    <glyph glyph-name="g" unicode="g" horiz-adv-x="545" 
d="M516 298q7 -49 0 -95q-6 -41 -12 -81q-9 -46 -26 -69q-23 -28 -68 -28q-3 0 -103 -3t-104 -3q-34 0 -69.5 17.5t-47.5 40.5q-11 19 -17 70q-5 34 -4 71q-2 69 -3 226q1 54 2.5 108t15.5 117q5 24 24 50q23 31 49 38q30 9 76 9q4 0 78.5 -8t78.5 -8q3 0 14 1.5t15 1.5
q91 0 91 -68q0 -84 -87 -77q-8 0 -28 -2t-22 -2q-4 0 -53.5 6t-52.5 6q-36 0 -44 -10t-8 -43q0 -116 8 -208q11 34 51 43q13 3 56 3q50 0 125 -19q33 -9 49 -25q7 -7 16 -59zM479 683q0 17 -13.5 30t-33.5 13q-63 0 -63 -40q0 -29 7 -38q11 -13 40 -13q4 0 13.5 1.5
t12.5 1.5q14 0 25.5 14t11.5 31zM333 333q0 8 -7 28q-10 0 -17 5t-11 5q-26 -1 -43 -28q-15 -21 -15 -42q0 -11 16 -19t33 -8q3 0 18.5 1.5t22.5 1.5q3 67 3 56zM348 205q0 19 -1 21q-5 10 -22 10q-25 -1 -24 -1l-40 6q-24 5 -40 20q1 -13 -3 -38.5l-4 -25.5q0 -41 50 -41
q5 0 17.5 -1.5t16.5 -1.5q50 0 50 52z" />
    <glyph glyph-name="h" unicode="h" horiz-adv-x="576" 
d="M539 89q0 -76 -48 -76q-133 0 -143 31q-5 16 -5 57q0 -8 4 58q4 49 0 136q0 42 -63 42q-89 0 -93 -21q-4 -26 -5 -59q0 -22 1.5 -63t1.5 -58q0 -69 -15 -85q-17 -19 -86 -19q-23 0 -41 24q-13 16 -17 125q-1 16 -3 201v91q-1 20 -4 59q-2 33 -2 53q0 14 4 50q8 72 10 79
q14 42 60 42q4 0 11.5 -1.5t11.5 -1.5t10 2.5t9 2.5q14 0 29 -10t19 -23q8 -37 8 -101q0 -21 -1 -59.5t-1 -53.5q0 -47 7.5 -58t48.5 -12q-29 1 63 1q40 0 40 106q0 22 -2 55.5t-2 39.5q0 56 15 83q19 37 71 37q2 0 32.5 -12t41.5 -42q8 -20 9 -62q2 -67 14 -279
q10 -174 10 -279zM485 643q0 77 -47 91q-7 2 -24 2q-16 0 -28 -26q-11 -22 -11 -39q0 -43 46 -65q14 -6 32 -1q32 11 32 38zM163 668q-1 61 -47 63q-24 1 -40 -24q-13 -21 -13 -47q1 -33 7 -42q9 -12 41 -12q39 0 48 12q5 9 4 50zM514 103q0 49 -63 49h-59q-6 -2 -11 -37
q-4 -29 -4 -43q0 -34 85 -34q36 0 46 15q6 10 6 50zM163 146q0 31 -27 31q-80 0 -80 -68q0 -22 14 -36.5t36 -14.5q57 0 57 88z" />
    <glyph glyph-name="i" unicode="i" horiz-adv-x="236" 
d="M210 249q0 -88 -1.5 -111.5t-2.5 -47t-12 -39.5q-24 -36 -65 -37q-29 0 -45 9t-27 37q-8 18 -9 49q0 27 -1 53q-6 97 -9 196q0 24 -3 68q-2 38 -2 59q0 37 5 74q4 68 7 136q8 72 62 72q18 0 45 -13q33 -15 34 -33q19 -180 19 -278v-147q0 -3 2.5 -23.5t2.5 -23.5z
M165 672q0 12 -3 39q-2 11 -10 15q-28 13 -45 13q-32 0 -34 -87q-1 -42 50 -42q31 0 39 16q5 10 3 46zM175 96q0 42 -6 53q-10 14 -47 14q-36 0 -36 -41q0 -75 59 -75q21 0 27 16q3 8 3 33z" />
    <glyph glyph-name="j" unicode="j" horiz-adv-x="486" 
d="M441 362q0 -3 -4.5 -88.5t-4.5 -88.5v-81q0 -32 -22.5 -54t-59.5 -24q-76 -3 -202 -3q-7 0 -73 15q-52 12 -52 68q0 119 14 151q10 21 23 28q8 3 29 3q56 0 68 -31q3 -28 6 -58t39 -30h38q27 0 43 15.5t16 38.5q0 3 -6.5 73.5t-6.5 73.5v85q0 4 -4.5 90.5t-4.5 90.5
q0 139 60 139q13 0 41 -14t34 -25q16 -33 19 -147q2 -44 6 -139q4 -87 4 -88zM395 698q-2 13 -18 28t-34 15q-6 0 -12 -2q-22 -8 -22 -73q0 -23 4 -29q7 -9 43 -8q32 1 38.5 6.5t0.5 62.5zM135 195q0 -1 1 13q1 12 0 21q-2 11 -8 18q-16 16 -43 9q-20 -5 -24.5 -17t-4.5 -50
q0 -33 22 -33q57 0 57 39z" />
    <glyph glyph-name="k" unicode="k" horiz-adv-x="495" 
d="M469 122q0 -30 -20 -58q-23 -32 -54 -32q-49 0 -82 71q-19 50 -39 99q-18 40 -68 135q-2 3 -7 3t-5 -3q0 2 0 -131v-108q0 -90 -67 -90q-79 0 -90 38q-5 19 -3 63v62q0 37 -4.5 116t-4.5 75v137q0 3 -3 87.5t-3 87.5q0 67 19 84t86 17q32 0 53 -27q8 -10 10 -36
q5 -54 5 -51q0 -127 -1 -120q0 -3 3 -5t4 0l76 102q65 84 93 84q29 0 47 -25q15 -21 15 -45q0 -44 -48.5 -128.5t-48.5 -103.5q0 -14 31 -60.5t65 -115.5q41 -85 41 -122zM408 646q0 10 -14.5 28.5t-24.5 18.5q-17 0 -38.5 -27.5t-21.5 -39.5q0 -5 21 -31q22 -29 33 -29
q18 0 32 33q13 28 13 47zM159 680q0 38 -13 52t-49 14q-48 0 -48 -55q0 -61 47 -61h21q42 0 42 50zM446 110q1 7 -8 30q-10 29 -27 35q-6 1 -12 1q-21 0 -40 -17t-19 -33q0 -10 18 -37q19 -30 32 -30q17 0 34.5 15t21.5 36zM157 71q0 43 -7 59q-4 7 -37 7q-23 0 -36 -7
q-17 -8 -17 -47q0 -46 36 -46h27q34 0 34 34z" />
    <glyph glyph-name="l" unicode="l" horiz-adv-x="534" 
d="M490 87q0 -28 -13 -48q-17 -26 -49 -26q-19 1 -63 4q-106 9 -96 9h-123q-70 0 -90 50q-10 25 -12 115q0 2 1 50t1 292v84q0 2 -2.5 21.5t-2.5 23.5q0 78 32 103q5 4 47 4q17 0 29 -4q19 -6 25 -9q14 -6 22 -14q5 -6 7 -40q-1 11 -1 -72v-175q0 8 3 -31t3 -105
q0 -82 4 -102q14 -56 67 -56q98 0 149 -4q35 -2 48.5 -16.5t13.5 -53.5zM179 684q0 27 -7 37q-3 4 -10 10q-18 14 -60 14q-18 0 -28 -31q-7 -23 -7 -48q0 -33 22 -44q16 -9 53 -9q27 0 30 7q7 15 7 64zM461 88q0 25 -12 34.5t-43 9.5q-35 0 -35 -39q0 -17 6 -33
q8 -22 22 -22q4 0 19 1.5t18 1.5q25 0 25 47z" />
    <glyph glyph-name="m" unicode="m" horiz-adv-x="771" 
d="M748 110q0 -46 -11 -66q-15 -30 -56 -30q-13 0 -48 5.5t-41 10.5q-23 18 -25 79q-11 255 -11 292q0 161 -15 193q-10 20 -49 20q-38 0 -42 -42.5t-6 -83.5q-10 -44 -59 -44q-59 0 -73 35q-6 15 -6 84t-65 69q-39 0 -53.5 -17.5t-14.5 -57.5q0 -59 13.5 -179t13.5 -180
q0 -5 2 -13t2 -13q0 -38 1 -31q-1 -6 -2 -21v-24q0 -56 -17 -67q-12 -8 -76 -8q-61 0 -71 82q-1 64 -1 127q-8 76 -16 151q-10 96 -10 149q0 192 47 226q27 20 77 20q12 0 37.5 -2.5t37.5 -2.5q13 0 39.5 1.5t39.5 1.5q31 0 94.5 -4t95.5 -4q10 0 33 -4.5t36 -4.5
q39 0 82 -16q47 -17 68 -45q27 -34 27 -192q0 -65 11 -196.5t11 -197.5zM724 115q0 6 2 21t1 24q-2 11 -9 20q-11 12 -35 13q24 -1 -30 -1q-27 0 -34 -12.5t-7 -48.5q0 -53 -1 -33q1 -20 12 -31q15 -14 61 -14q27 0 35 19q5 11 5 43zM179 105q0 7 2.5 23.5t2.5 24.5
q0 19 -12 31q-15 16 -49 16t-37 -8q-8 -20 -9 -38q0 2 0 -58q0 -44 61 -44q22 0 31.5 6t10.5 20q-1 -20 -1 27z" />
    <glyph glyph-name="n" unicode="n" horiz-adv-x="593" 
d="M566 245q0 -6 -1 -16v-13v-129q0 -15 -12 -39q-14 -31 -33 -31h-28q-40 0 -66 19.5t-37 50.5q-4 12 -3 23q1 30 1 33.5t4.5 58t4.5 58.5v95q0 2 3 67.5t3 70.5q0 67 -15.5 92t-51.5 29q-7 1 -88 1q-28 0 -48.5 -23.5t-20.5 -53.5q0 -98 3 -232q1 -45 4 -124q2 -71 2 -72
q0 -76 -52 -76q-86 0 -108 66q-10 30 -10 142q0 61 -2 184t-2 115q0 72 9 131q4 25 15 39q32 39 67.5 51.5t80.5 12.5q3 0 42 -7q43 -8 60 -10q37 -1 114 -10q36 -9 110 -26q35 -8 40 -62q0 -53 2 -153q4 -44 7 -88q6 -78 3 -114q2 -18 3 -60zM536 141q-1 25 -11 34
q-13 13 -46 12q-31 0 -41 -11q-15 -14 -15 -61q0 -67 73 -67q44 0 40 93zM155 152q0 25 -9 33.5t-33 8.5q-58 0 -57 -23q0 -25 18 -81q8 -23 29 -23q1 0 11.5 -2t16.5 -2q12 0 18 6q10 12 10 40q0 12 -2 27.5z" />
    <glyph glyph-name="o" unicode="o" horiz-adv-x="518" 
d="M490 290q0 -8 -3 -63q-5 -120 -30 -159q-28 -45 -111 -45q-3 0 -82 -3.5t-83 -3.5q-29 0 -73 14q-23 7 -42.5 30t-23.5 45q-17 101 -26 336q-3 88 -3 141q0 68 29 115q35 58 103 65q12 1 47 6q31 5 35 5q49 0 90 -13q4 -1 28 -11q29 -10 59 -21t41 -25q19 -24 30 -127
q15 -145 15 -286zM285 685q0 55 -27 55t-47 2q1 0 -10 -6q-19 -10 -19 -41q0 -25 12 -58q11 -29 16 -29q4 0 19 1h19q19 0 30 29q7 22 7 47zM350 353q0 1 -2.5 43.5t-2.5 57.5q0 90 -24 106q-35 23 -104 23q-39 0 -46 -11q-10 -15 -18 -40q-5 -19 -5 -38q0 -11 2.5 -33
t2.5 -35q4 -99 4 -106q4 -55 16 -84q8 -20 61 -20h60q41 0 52 52q4 19 4 85zM306 115q2 15 2 25q0 45 -44 45q-39 0 -48 -15.5t-7 -73.5q2 -31 17 -40q10 -5 41 -5q24 0 32 21q3 8 7 43z" />
    <glyph glyph-name="p" unicode="p" horiz-adv-x="502" 
d="M476 531q0 -79 -3 -90q-16 -50 -91 -69q-53 -10 -107 -20q-9 -2 -46 -1q-31 0 -50.5 -11.5t-19.5 -84.5q0 -3 5.5 -100.5t5.5 -100.5q0 -5 -7.5 -17.5t-14.5 -16.5q-13 -9 -49 -9q-40 0 -53 37q-19 55 -19 266v73q-1 101 -8 280q0 71 60 96q35 15 102 15q4 0 50 -5.5
t49 -5.5t18 1.5t18 1.5q151 0 158 -167q1 -15 1 -47q0 -5 1 -14v-11zM450 565q0 38 -7.5 45t-45.5 7q-20 0 -31 -28q-9 -21 -9 -42t25 -21h32q25 0 30.5 5.5t5.5 33.5zM328 523q0 23 -7 71.5t-12 57.5q-8 14 -35 14q-61 0 -81 -47q-13 -30 -13 -105q0 -34 18 -45
q13 -8 47 -8h30q32 0 44 13q9 10 9 49zM136 74q5 22 5 40q0 17 -6 27t-32 10q-40 0 -40 -55q0 -54 40 -54q33 0 33 32z" />
    <glyph glyph-name="q" unicode="q" horiz-adv-x="555" 
d="M517 89q0 -26 -24.5 -54t-50.5 -28q-22 0 -66.5 29t-77.5 29q-26 0 -76.5 -2.5t-76.5 -2.5q-66 0 -92 40q-20 33 -20 103q0 23 -10 279v168q0 36 18 79q22 51 53 51q23 0 70 -2.5t71 -2.5q5 0 15 2.5t15 2.5q17 0 49 -7.5t47 -8.5q45 -3 63 -38q16 -30 18 -218
q3 -210 10 -250q13 -74 40 -112q5 -7 15 -29t10 -28zM122 743q-62 0 -62 -51q0 -58 57 -58q7 0 17.5 1.5t10.5 17.5q-1 -32 -1 29t-22 61zM323 492q0 14 -7 67q-7 57 -11 60q-12 11 -43 11q-6 0 -20.5 2t-22.5 2q-19 0 -31 -10q-19 -16 -20 -37q-11 -231 -11 -245
q0 -133 16.5 -144.5t78.5 -11.5q1 0 4 16q3 21 13 35q13 18 27.5 24t20 12.5t7.5 47.5q1 29 0 86q-1 75 -1 85zM396 135q0 77 -39 77q-31 0 -43 -22q-7 -15 -7 -51q0 -50 45 -50q44 0 44 46z" />
    <glyph glyph-name="r" unicode="r" horiz-adv-x="472" 
d="M437 500q0 -111 -25 -137q-5 -5 -39 -20q-25 -11 -25 -29q0 -21 35 -103t35 -109q0 -24 -7.5 -35.5t-42.5 -26.5t-49 -15q-10 0 -33 12q-33 18 -58 79q-12 31 -31 103q-13 49 -20 46t-6 -15q3 -26 3 -19q0 -17 3.5 -51t3.5 -51q0 -56 -10 -79q-17 -36 -66 -36
q-31 0 -52.5 20t-21.5 50q0 10 -6 30t-6 30q0 15 4.5 45.5t4.5 45.5q0 36 -2 107.5t-2 106.5q0 169 15 259q2 15 14.5 30.5t26.5 19.5q56 15 110 15q208 0 227.5 -56t19.5 -217zM267 554q-7 53 -43 53q-41 0 -41 -77v-16.5v-17.5q0 -48 32 -48q38 0 42 23t6 47q6 23 4 36z
M382 102q0 23 -13.5 45t-34.5 22q-22 0 -46 -15.5t-24 -35.5q0 -36 38 -49q18 -6 40 2q14 4 27 14t13 17zM152 113q0 18 -13 30.5t-31 12.5q-50 0 -50 -47q0 -46 28 -60q27 -13 49 1q14 9 17 29v34z" />
    <glyph glyph-name="s" unicode="s" horiz-adv-x="504" 
d="M459 154q0 -67 -19 -100q-25 -41 -89 -41q-32 0 -96 3t-96 3q-13 0 -37.5 -3t-36.5 -3q-55 0 -55 49q0 64 29 90q9 9 24 9q6 0 19 -2t20 -2q19 0 58.5 -3t59.5 -3q65 0 28 -1q21 0 38 11q12 6 12 31q0 59 -16 104q-10 30 -144 30q-49 0 -74 12q-15 7 -33.5 34.5
t-19.5 44.5q-2 10 0 27q2 21 2 27q0 27 -6 81t-6 81q0 76 37 110t114 34q21 0 30.5 -1.5t29.5 -1.5q-4 0 47 -3t79 -2q36 0 60 -21t24 -58q0 -74 -106 -74q-12 0 -54 8.5t-66 8.5q-42 0 -42 -61q0 -95 27 -116q6 -5 31 -7q34 -3 46 -5l90 -12q46 -10 64 -45q21 -43 26 -112
q1 -19 1 -121zM413 695q0 20 -19 31t-40 11q-28 0 -37 -23q-5 -14 -5 -47q0 -23 55 -23q46 0 46 51zM148 79q0 20 -15 33t-35 13q-14 0 -25.5 -15.5t-11.5 -29.5t8.5 -26.5t22.5 -12.5q56 0 56 38z" />
    <glyph glyph-name="t" unicode="t" horiz-adv-x="619" 
d="M603 678q0 -61 -10 -74q-12 -16 -65 -16q-75 0 -96 -4q-6 -2 -11 -23t-5 -41q1 -91 7 -259q5 -155 5 -198q-1 -60 -48 -60q-5 0 -16 1h-18q-52 0 -66 6q-21 8 -27 40q-4 25 -4 109q0 37 -3 101q-3 70 -3 102q0 20 1 59.5t1 58.5q0 65 -2 77q-9 45 -49 45q6 0 -36 -1h-55
q-53 2 -69.5 16.5t-16.5 61.5q1 60 33 77q20 11 79 11q24 0 72.5 -2t72.5 -2q7 0 28 -1h28q21 0 109 -6q94 -5 106 -9q40 -11 51 -28q7 -11 7 -41zM575 654q0 4 1 17q2 10 1 17q-1 9 -7 16q-13 15 -34 15q-6 0 -16.5 2t-15.5 2q-27 0 -27 -54q0 -33 18 -46q15 -10 49 -10
q31 0 31 41zM146 667q0 33 -2.5 42.5t-17.5 20.5t-37 11q-21 0 -26 -8q-20 -28 -20 -58q0 -17 10.5 -31t30.5 -16h35q19 0 24 11q3 7 3 28zM396 96q0 53 -36 55q-83 4 -83 -59q0 -48 40 -62q8 -3 17 -3q4 0 44 11q15 4 18 21v37z" />
    <glyph glyph-name="u" unicode="u" horiz-adv-x="477" 
d="M533 648q-1 -6 -8 -91v-83v-211q0 -4 2.5 -54.5t2.5 -53.5q0 -62 -9 -91q-17 -55 -67 -55q9 0 -38 -1q-43 -2 -80 -1q-53 1 -88 6q-73 11 -114 26q-21 8 -41 28q-33 33 -27 119q1 18 1 48q0 56 -4.5 168t-4.5 118v132q0 -2 -3 49q1 -9 1 35q0 23 26 38q21 13 43 13
q5 0 32 -10t31 -14q19 -16 22 -50v-49q0 -28 2 -89q5 -130 25 -386q1 -8 32 -16.5t56 -6.5q51 6 54 20q0 -1 -1 35q-4 86 -3 228q1 173 0 227q-1 58 11 78q20 35 87 29q39 -3 50 -17.5t11 -68.5q0 -18 -1 -49zM500 701q0 41 -32 46q-8 1 -15 1q-35 0 -44 -29q-4 -11 -4 -51
q0 -43 48 -43q17 0 30.5 9t16.5 28q0 -1 0 39zM183 669q0 38 -9 54q-13 22 -49 22q-39 0 -39 -64q0 -20 8 -26t17 -12q23 -16 43 -9q11 4 20 16.5t9 18.5z" />
    <glyph glyph-name="v" unicode="v" horiz-adv-x="616" 
d="M603 688q0 -35 -43 -200q-8 -33 -32 -116.5t-48 -166.5q-25 -86 -56 -152q-24 -50 -66 -50q-3 0 -20.5 3t-20.5 3q-49 0 -73 51q-13 41 -25 81q-21 51 -42 115q-25 77 -37 113q-21 58 -51 125q-14 32 -32 85l-24 56q-16 38 -16 68q0 34 29 53q24 14 57 14q56 0 114 -146
q21 -40 62 -134q11 -30 20 -67t17 -59q15 -39 24 -39t17 27l40 138l34 130q22 78 55 139q4 8 24 15q17 7 30 7q63 0 63 -93zM576 710q0 14 -11 27q-14 17 -34 17q-16 0 -38 -41q-19 -36 -19 -47q0 -15 25 -29.5t44 -14.5q9 0 24 33q9 19 9 55zM162 634q3 4 3 12
q0 26 -24 61.5t-48 35.5q-15 0 -29 -13t-14 -31q0 -12 16 -49q19 -44 38 -44q10 0 26 6q22 9 32 22z" />
    <glyph glyph-name="w" unicode="w" horiz-adv-x="593" 
d="M571 390q0 -174 -15 -281q-3 -21 -22 -52q-25 -39 -51 -39q1 0 -32 1t-59 1q-38 1 -60 0q-60 -2 -126 2q-91 6 -120 23q-23 13 -31 62t-11 120q-2 44 -8 148q-1 8 -4.5 34t-3.5 30q-1 78 0 122q1 67 9 176q3 16 24 27.5t65 11.5q40 0 53 -52q5 -20 5 -69q2 -53 5 -159
q1 -65 11 -192q0 -2 -1.5 -20t-1.5 -31q0 -54 30 -54q16 0 18 52q3 56 22 64q38 15 51 15q10 0 24 -14t16.5 -24t1 -25t1.5 -24q16 -49 34 -51q9 -1 12 87q1 72 -1 190q-3 142 -3 161q0 43 3 61q8 65 51 65q-11 0 68 -15q17 -3 27 -35q8 -24 8 -45v-93q0 -3 5.5 -88.5
t5.5 -89.5zM529 630q0 7 1 22.5t1 22.5q0 48 -48 48q-50 0 -50 -102q0 -6 4 -17q5 -15 12 -15l16 -4t25 -1q22 6 28 11q11 10 11 35zM158 674q0 4 -3 23t-4 27.5t-9 16t-17 7.5q-10 0 -26 -8q-10 -5 -19 -9t-16 -41q-7 -33 -7 -56q0 -28 67 -28q19 0 26.5 14t7.5 54z" />
    <glyph glyph-name="x" unicode="x" horiz-adv-x="547" 
d="M525 74q0 -25 -47 -46q-39 -17 -59 -17q-28 0 -39 9q-15 13 -23 33q-6 13 -11 27q-18 41 -36 81q-22 50 -42 50q-12 0 -35 -36l-40 -62l-32 -50q-26 -36 -49 -36t-50 37q-26 33 -26 51q0 34 32 94q22 38 44 75q59 107 59 114q0 1 -14 22.5t-18 30.5q-32 65 -54 101
q0 1 -46 67q-25 35 -25 55q0 18 10 28q35 38 58 48q13 5 50 5q29 0 59 -46q4 -5 35 -65q41 -76 56 -81q9 -3 19 30q16 50 17 54q15 33 30 65q35 65 63 65q5 0 23.5 -6.5t20.5 -9.5q16 -13 44 -45q4 -6 4 -30q0 -48 -57.5 -158t-57.5 -112q0 -11 45 -109q42 -94 51 -108
q41 -63 41 -125zM476 696q0 6 -16 24q-19 20 -37 24q-29 5 -51 -42q-16 -35 -16 -55q0 -14 28 -30t42 -16q18 0 35 42q15 36 15 53zM190 649q0 25 -20 47q-23 23 -54 23q-22 0 -37.5 -18.5t-15.5 -36.5q0 -8 13 -41q15 -39 29 -39q17 0 49 22q36 24 36 43zM489 99
q0 56 -25 73q-8 6 -19 6q-25 0 -52.5 -24t-27.5 -38q0 -24 20 -49q17 -23 29 -23q25 0 48 14q27 17 27 41zM168 133q0 23 -19 46t-40 23q-9 0 -17 -5q-20 -12 -20 -67q0 -15 8 -31q10 -20 26 -20q13 0 37.5 19.5t24.5 34.5z" />
    <glyph glyph-name="y" unicode="y" horiz-adv-x="481" 
d="M450 632q-1 -95 -6 -251q-6 -151 -6 -145q0 -24 -1 -71t-1 -71q0 -88 -109 -88q-18 0 -52.5 2.5t-48.5 2.5q-6 0 -18 -2.5t-18 -2.5q-79 0 -108 8q-58 17 -58 75q0 17 11.5 43.5t25.5 30.5q3 2 28 2q3 0 8.5 2.5t8.5 2.5q21 0 63.5 -4t63.5 -4q53 0 66 34q6 16 6 80
q0 56 -29 63q-27 2 -78 10q-61 6 -121 13q-72 14 -75 91q-3 44 0 111q1 28 7 109q4 47 15 65q18 29 65 29q29 0 46 -24.5t17 -53.5q0 -28 -2.5 -82.5t-2.5 -81.5q0 -28 16 -37q11 -6 43 -6q47 0 61 6q21 9 25 125q4 122 20 141.5t73 19.5q66 0 65 -142zM419 674q0 26 -13 48
q-16 25 -41 25q-46 0 -46 -94q0 -14 22 -26t47 -1q18 9 23 15q8 11 8 33zM120 678q0 18 -10.5 37.5t-28.5 19.5q-19 0 -34 -27.5t-15 -48.5q0 -20 47 -29q20 -4 28 0q13 6 13 48zM144 91q0 43 -27 43q-3 0 -13 1t-16 1q-7 -1 -13 -6q-12 -10 -12 -38q0 -27 8.5 -37t28.5 -16
q23 -7 35 1q8 5 10 14q1 6 0 18q-1 16 -1 19z" />
    <glyph glyph-name="z" unicode="z" horiz-adv-x="549" 
d="M339 768q16 -2 34 -2q14 0 37.5 2t32.5 2q41 0 65 -29q20 -24 20 -58q0 -11 -3 -42q-3 -27 -2 -45q2 -47 2 -88q0 -10 -2 -59q-5 -63 -21 -84q-18 -24 -83 -47q-61 -6 -183 -23q-21 -3 -21 -103q0 -21 3 -26q5 -14 30 -16q47 -3 59 -1q10 2 20 1q15 -2 49 -5t94 0
q12 0 45 -24q13 -9 13 -42q0 -12 -6 -36q-6 -29 -15 -31q-22 -7 -63 -7q3 0 -71 2t-103 2q-16 0 -54.5 -2t-40.5 -2q-145 0 -144 83q0 27 1 88q3 73 32 205q10 46 57 56q38 2 76 5q45 4 142 15q11 0 23 1t17 13q9 21 9 59v54q0 28 -38 28q-6 0 -15.5 -1t-12.5 -1t-125.5 -1
t-125.5 -1q-59 0 -59 58q0 62 25 81t107 17q90 4 195 4zM151 679q0 38 -8 49q-11 13 -45 11q-35 -2 -49 -36q-9 -20 -9 -42q0 -25 40 -25q39 0 48 3q23 8 23 40zM500 81q0 12 -18 24t-34 12q-29 0 -40 -9q-14 -10 -14 -40t31 -30h35q27 0 33.5 7.5t6.5 35.5z" />
    <glyph glyph-name="braceleft" unicode="{" horiz-adv-x="524" 
d="M510 735q2 -7 -1 -28q-3 -24 -9 -35q-13 -22 -51 -30q-3 -1 -28 -3.5t-29 -3.5q-39 -8 -55 -26q-21 -21 -22 -66l-3 -163q0 -40 10 -84q12 -49 29 -69q7 -8 47 -17q46 -11 65 -22q34 -19 34 -53q0 -39 -21 -70q-24 -35 -60 -39q-14 -1 -29 -1q-49 0 -120 15
q-14 2 -26 10.5t-23.5 16.5t-25 31.5t-15.5 40.5q-2 12 -6 30q-3 13 -3 17l2 427q0 60 8 88q16 58 64 70q3 1 89 8l86 8q7 2 16 2q66 0 77 -54zM480 718q-3 15 -6 21q-6 15 -16 18q-15 5 -39 5q-63 0 -68.5 -12t-5.5 -41q0 -49 19 -51q62 -5 107 27q14 9 9 33zM451 114
q3 10 3 17q0 37 -77 49q-24 4 -41 -101q-2 -16 46 -23q11 -1 17 -1q34 0 52 59zM151 409q-4 -37 -14.5 -47.5t-32.5 -10.5q-87 0 -88 49q-2 50 19 68q18 17 65 17q59 0 51 -76zM125 410q2 24 -1 30q-4 10 -25 10q-34 0 -39 -2q-11 -7 -10 -41q0 -21 15 -26q7 -3 31 -3
q17 0 21.5 3.5t7.5 28.5z" />
    <glyph glyph-name="bar" unicode="|" horiz-adv-x="236" 
d="M199 248q0 -87 -1.5 -110.5t-2.5 -47.5t-12 -40q-25 -36 -65 -36q-29 -1 -45 8.5t-27 36.5q-8 18 -8 49q-1 27 -1 53q-7 97 -9 196q-1 24 -4 68q-2 38 -2 60q0 36 6 74q3 67 6 135q8 72 62 72q18 0 45 -13q33 -15 35 -33q18 -180 18 -278v-147q0 -3 2.5 -23.5t2.5 -23.5z
M154 671q0 12 -3 39q-1 11 -10 15q-28 14 -45 14q-31 0 -34 -87q-1 -43 50 -43q31 0 39 16q5 11 3 46zM164 96q0 41 -6 52q-10 15 -47 15q-36 0 -36 -41q0 -76 59 -76q21 0 27 16q3 8 3 34z" />
    <glyph glyph-name="braceright" unicode="}" horiz-adv-x="585" 
d="M389 618l-2 -427q0 -59 -8 -88q-15 -57 -64 -70q-5 -1 -88 -8l-86 -8q-8 -1 -17 -1q-66 0 -77 53q-2 7 1 28q3 25 9 35q13 23 51 31q4 1 28.5 3.5t28.5 2.5q39 9 56 26q20 22 21 67l3 163q0 43 -9 92q-10 58 -26 78q-8 8 -48 13q-49 6 -67 14q-34 14 -34 48q0 38 22 71.5
t59 36.5q13 1 28 1q49 0 121 -14q14 -3 26 -11.5t23 -16.5t24.5 -31t15.5 -40q2 -13 5.5 -28.5t3.5 -19.5zM221 725q2 16 -46 23q-11 1 -17 1q-34 0 -52 -59q-3 -8 -3 -14q0 -26 39 -32q27 -2 53 -3q18 -3 23 36q1 24 3 48zM213 96q0 48 -19 50q-63 5 -107 -26
q-15 -10 -10 -34q4 -15 6 -21q6 -14 17 -18q15 -4 38 -4q63 0 69 11.5t6 41.5zM563 404q-4 -37 -14.5 -47.5t-32.5 -10.5q-87 0 -88 49q-2 50 19 68q18 17 65 17q59 0 51 -76zM537 405q2 24 -1 30q-4 10 -25 10q-34 0 -39 -2q-11 -7 -10 -41q0 -21 15 -26q7 -3 31 -3
q17 0 21.5 3.5t7.5 28.5z" />
    <glyph glyph-name="asciitilde" unicode="~" horiz-adv-x="564" 
d="M542 677q2 -13 2 -23q0 -36 -35 -45q-15 -3 -34 -3q-29 0 -83 10q-79 14 -92 16q-98 14 -155 -4q-42 -14 -59 -14q-30 0 -42 27.5t-12 47.5q0 39 60 62q34 13 105 13q41 0 83 -5q18 -2 88 -14q51 -9 77 -9q9 0 24.5 2.5t22.5 2.5q42 0 50 -64zM516 672q-5 40 -34 33
q-30 -6 -37 -9q-23 -10 -23 -32q0 -6 1 -12q7 -30 29 -30q3 0 43 13q16 4 16 5q6 4 6 17q0 6 -1 15zM158 703q-8 25 -26 25q-9 0 -29 -10q-12 -5 -24.5 -11.5t-12.5 -19.5q0 -11 8 -27q8 -19 23 -19q7 0 29 8.5t23 9.5q13 8 13 25q0 8 -4 19z" />
    <glyph glyph-name="section" unicode="&#xa7;" horiz-adv-x="835" 
d="M808 384q0 -76 -20 -130q-30 -79 -66 -121q-23 -27 -55 -55q-10 -9 -50 -34q-51 -31 -68 -31q-2 0 -22 -7.5t-33 -7.5q-3 0 -8.5 -1.5t-9.5 -1.5t-11.5 -2t-10.5 -3q-42 -3 -85 0q-14 1 -24 1q-30 0 -86 26q-43 19 -72 39q-40 28 -80 74q-54 62 -72 133q-17 68 -17 121
q0 137 84 245q91 117 243 144q30 6 109 6q4 0 11 -3t10.5 -3t27.5 -6.5t27 -6.5q20 0 100 -44q91 -60 138 -156q40 -84 40 -176zM790 384q0 43 -19 117q-15 56 -68 122q-58 72 -119 97q-55 22 -63 22q-4 0 -37 9t-37 9q-119 0 -200 -37q-98 -47 -163 -158q-48 -82 -48 -181
q0 -66 23 -127q35 -97 115.5 -165t179.5 -82q28 -3 93 -3q4 0 12 1.5t12 1.5t8.5 1.5t8.5 1.5t27.5 7.5t25.5 7.5t44 19q69 32 119 94q25 32 47 76q39 79 39 167zM644 633q0 -8 -16 -45t-22 -37q-5 0 -19 7q0 2 1 6q5 2 17 10q-2 12 -11.5 39t-9.5 30q0 4 4 8q19 -12 19 -40
q3 0 8 -6q6 12 18 37q11 0 11 -9zM577 619q0 -29 -25 -29q-4 0 -15.5 2t-16.5 2v41.5v42.5q15 -8 15 -25q3 -1 8.5 1.5t8.5 2.5q8 0 16.5 -15t8.5 -23zM438 637q-7 -8 -25 -9t-18 -10q0 -5 8 -13q5 0 14 9h11q0 -8 -1 -11q-5 -10 -15 -10h-11q-13 0 -21 16q-6 12 -6 19
q0 38 44 38q4 0 9.5 -10t10.5 -19zM371 594q-40 -10 -47 -10q-17 0 -17 27q0 22 19 35q7 2 23 10q3 10 3 12t5 7q1 0 9 -5q5 -18 5 -17v-59zM297 657q-1 0 -6.5 -1.5t-6.5 -1.5q-7 6 -1 18h14v-15zM495 446q0 -11 -12 -11q-4 0 -18 7v11q10 0 23 6q7 -7 7 -13zM304 637
q0 -2 -6 -9q-1 -11 -1 -53q-1 0 -7.5 -1.5t-9.5 -1.5q0 3 -1.5 8.5t-1.5 9.5q0 24 7 56q4 1 12 5q8 -8 8 -14zM431 448q-8 -5 -26 -16l-1.5 7.5t-1.5 16.5l8 1.5t18 1.5l3 -3v-8zM272 638l-10 -38q-6 -22 -17 -37q-15 5 -32 57q1 0 3.5 2t6.5 2t8.5 -10t7.5 -18
q11 3 16.5 21.5t16.5 20.5zM204 638l-4 -14h-14v9q-1 5 2.5 6t3.5 2q8 0 12 -3zM538 270l-11 5l5 31zM206 555q-5 -9 -20 -16q-1 46 3 73l-3 5h20v-62zM656 336q0 -24 -7 -34q-17 -16 -47 -52q0 -5 -5 -15q-18 -22 -54 -24q-30 -1 -61 -2q-6 -4 -4 -9q-37 -23 -48 -23
q-3 0 -17 7.5t-18 7.5t-40.5 -6t-39.5 -6q-34 0 -73 16.5t-58 16.5q-22 0 -62 -11q6 7 46 23t46 16q8 0 35 -24.5t43 -24.5h39q27 0 59 13q5 2 6 3.5t1 3.5q-2 4 -2 7q54 2 153 7q25 2 38 17q3 3 7 43q0 -5 7 -18q11 15 11 24q0 4 -6 21.5t-6 21.5q0 11 12 23q2 7 -11 7
q-17 0 -45 -25q1 -3 4 -3q-8 -9 -16 -10q-32 -7 -70 -7q4 0 -66 20q31 2 31 19q0 13 -18 24q5 -2 19 -8.5t18 -6.5q10 0 17 12q4 10 8 19v-31h24q11 6 35 15q-8 -8 -15 -22v-17l0.5 -1.5t5.5 -1.5l28 20q6 4 39 18q0 7 -4 17q-54 64 -146 106l-6 -6q-18 -3 -81 -24
q20 17 43 29q10 3 20 5q14 5 19 15h-50q-5 -1 -49 -20q-49 -21 -75 -36q-3 -2 -50 -36q-40 -30 -46 -30h-65q20 12 23 12q4 0 5 -1.5t4 -1.5q29 0 39 6q22 19 73 56q45 29 79 43q63 25 78 25q47 0 95 -31q38 -26 64 -60q13 -13 37 -46q6 -9 -4 -19q3 -6 16 -9t14 -3
q24 -20 24 -34zM179 539q-41 -25 -47 -25q-15 0 -13 26q0 23 23 46q12 2 14.5 8t8.5 23h11q3 -26 3 -78zM571 107q0 -23 -10 -42q-3 -4 -9 -9q-2 0 -8 -3.5t-11 -3.5q-18 0 -29 23q-9 18 -9 38q0 10 2 17q4 12 20.5 23.5t24.5 11.5q17 0 24 -26q5 -15 5 -29zM486 117l-7 -7
q-2 1 -9 16q-5 11 -10 11q-21 0 -21 -44q0 -27 5 -46q-13 -7 -21 -3v79q-1 6 12.5 19.5t18.5 13.5q32 0 32 -23v-16zM407 98q-6 0 -23.5 1.5t-20.5 1.5q-10 0 -10 -9q0 -34 23.5 -34t27.5 -4q-8 -11 -24 -11q-20 0 -31.5 18t-11.5 35q0 29 11 39.5t39 10.5q6 0 13 -11t7 -17
v-20zM325 135q-17 -17 -52 -56q33 -9 37 -9q11 0 15 -4v-10q-35 5 -50 5l-9 -3q-6 0 -20 7v14q12 20 52 54q-3 7 -25.5 10.5t-26.5 10.5v10q29 -6 79 -15v-14zM559 606v29q-7 7 -12 7q-4 0 -12 -7v-26q8 -7 14 -7t10 4zM412 640q3 8 -10 14l-7 -7v-11h14zM517 487l-17 10
l-2 -4l17 -10zM349 618q0 17 -10 18q-14 3 -14 -22q0 -11 4 -18h13q7 8 7 22zM641 324v20q-5 0 -12 1.5t-11 1.5q-10 0 -10 -18q0 -11 7 -31q1 1 13 4q13 11 13 22zM161 558q0 15 -11 20q-16 -19 -16 -30q0 -4 1.5 -9t1.5 -6q1 0 2 1t5 1q17 0 17 23zM465 209q-5 0 -16 2
t-14 2q-12 0 -19 -14q8 -4 19 -4q18 0 30 14zM556 107q0 39 -15 39q-13 0 -21.5 -12t-8.5 -29q4 -38 21 -38q4 0 4 1.5t3 1.5q17 0 17 37zM395 114q-3 6 -10.5 13t-10.5 7q-15 0 -18 -20q40 0 39 0z" />
    <glyph glyph-name="quoteleft" unicode="&#x2018;" horiz-adv-x="250" 
d="M192 555q2 -50 -17.5 -67t-67.5 -17q-58 0 -51 76q20 187 44 186q46 -1 46 -21q0 -7 -8.5 -27.5t-8.5 -31.5q0 -21 31.5 -54t31.5 -44zM158 548q-1 21 -15 27q-7 2 -31 2q-17 0 -20 -2q-7 -5 -9 -29q-3 -25 0 -31q4 -10 26 -10q34 0 39 3q11 6 10 40z" />
    <glyph glyph-name="quoteright" unicode="&#x2019;" horiz-adv-x="289" 
d="M214 640q-19 -187 -43 -186q-46 1 -46 21q0 7 8.5 27t8.5 32q0 20 -31.5 53t-31.5 44q-2 50 19 69q18 16 66 16q58 0 50 -76zM188 641q2 24 0 31q-5 9 -26 9q-34 0 -39 -2q-11 -7 -10 -41q1 -21 15 -26q7 -3 31 -3q17 0 21.5 4t7.5 28z" />
    <glyph glyph-name="quotedblleft" unicode="&#x201c;" horiz-adv-x="441" 
d="M270 543q19 187 43 186q46 -2 46 -21q0 -7 -8.5 -27.5t-8.5 -31.5q0 -21 31.5 -54t31.5 -44q2 -50 -17.5 -67t-67.5 -17q-58 0 -50 76zM296 542q-3 -25 0 -31q5 -10 26 -10q34 0 39 3q11 6 10 40q-1 21 -15 27q-7 2 -31 2q-17 0 -20 -2q-7 -5 -9 -29zM77 539
q19 187 43 187q46 -2 46 -21q0 -7 -8.5 -27.5t-8.5 -32.5q0 -20 31.5 -53t31.5 -44q2 -50 -17.5 -67t-67.5 -17q-58 0 -50 75zM103 538q-2 -24 0 -30q5 -10 26 -10q34 0 39 2q11 7 10 41q-1 21 -15 26q-7 3 -31 3q-17 0 -20 -2q-6 -5 -9 -30z" />
    <glyph glyph-name="quotedblright" unicode="&#x201d;" horiz-adv-x="441" 
d="M196 641q-19 -187 -44 -186q-45 1 -45 21q0 7 8.5 27t8.5 32q0 20 -31.5 53t-32.5 44q-1 50 19 69q18 16 66 16q59 0 51 -76zM169 642q3 24 0 31q-4 9 -25 9q-35 0 -39 -2q-12 -7 -10 -41q0 -21 15 -26q7 -3 31 -3q16 0 19 3q7 5 9 29zM389 644q-19 -187 -44 -186
q-46 1 -46 21q0 7 8.5 27t8.5 32q0 21 -31 54t-32 43q-2 50 19 69q18 16 66 16q58 0 51 -76zM362 645q3 25 0 31q-4 10 -26 10q-34 0 -38 -3q-12 -6 -11 -41q1 -20 15 -26q7 -3 31 -3q17 0 20 3q7 5 9 29z" />
    <glyph glyph-name="ellipsis" unicode="&#x2026;" horiz-adv-x="697" 
d="M188 78q-4 -37 -14.5 -47.5t-32.5 -10.5q-87 0 -88 49q-2 50 19 68q18 17 65 17q59 0 51 -76zM162 79q2 24 -1 30q-4 10 -25 10q-34 0 -39 -2q-11 -7 -10 -41q0 -21 15 -26q7 -3 31 -3q17 0 21.5 3.5t7.5 28.5zM370 78q-4 -37 -14.5 -47.5t-32.5 -10.5q-87 0 -88 49
q-2 50 19 68q18 17 65 17q59 0 51 -76zM344 79q2 24 -1 30q-4 10 -25 10q-34 0 -39 -2q-11 -7 -10 -41q0 -21 15 -26q7 -3 31 -3q17 0 21.5 3.5t7.5 28.5zM551 78q-4 -37 -14.5 -47.5t-32.5 -10.5q-87 0 -88 49q-2 50 19 68q18 17 65 17q59 0 51 -76zM525 79q2 24 -1 30
q-4 10 -25 10q-34 0 -39 -2q-11 -7 -10 -41q0 -21 15 -26q7 -3 31 -3q17 0 21.5 3.5t7.5 28.5z" />
  </font>
</defs>
</svg>
